<svg xmlns="http://www.w3.org/2000/svg">
<defs>
<font id="PTSans-Narrow" horiz-adv-x="432" ><font-face
    font-family="PT Sans Narrow"
    units-per-em="1000"
    panose-1="2 11 5 6 2 2 3 2 2 4"
    ascent="994"
    descent="-245"
    alphabetic="0" />
<missing-glyph horiz-adv-x="750" d="M50 700H700V0H50V700ZM570 620L375 403L180 620L130 570L327 350L130 130L180 80L375 297L570 80L620 130L422 350L620 570L570 620ZM129 27H137V39H141Q147 39 152 41T157 51Q157 59 152 61T140 63H129V27ZM141 57Q149 57
149 52Q149 47 147 47T140 46H137V57H141ZM189 63H158V57H170V27H177V57H189V63ZM222 37Q222 33 215 33Q208 33 206 35L203 28Q205 28 208 27T216 26Q230 26 230 38Q230 47 221 48T212 54Q212 57 218 57Q223 57 227 55L229 62Q223 64 218 64Q204 64 204 53Q204
48 207 46T213 43T219 40T222 37ZM237 47Q241 49 246 49Q251 49 251 45V43Q250 43 249 43T246 44Q234 44 234 34Q234 26 242 26Q248 26 251 31L253 27H259Q258 29 258 34V45Q258 55 248 55Q244 55 241 54T235 52L237 47ZM245 32Q241 32 241 36Q241 40 246 40Q248
40 249 40T251 39V36Q249 32 245 32ZM292 27V43Q292 55 283 55Q276 55 273 50L271 54H266V27H273V44Q275 48 279 48Q284 48 284 42V27H292ZM297 28Q301 26 307 26Q318 26 318 35Q318 40 316 41T310 44Q305 46 305 47Q305 49 308 49Q312 49 316 47L318 53Q314 55
308 55Q298 55 298 46Q298 41 301 40T306 37Q311 37 311 34Q311 32 308 32Q303 32 299 34L297 28ZM338 42Q338 21 358 21Q378 21 378 42Q378 62 358 62Q350 62 344 57T338 42ZM344 42Q344 57 358 57Q372 57 372 42Q372 27 358 27Q344 27 344 42ZM364 38Q362 37
360 37Q356 37 356 42Q356 46 360 46H363L365 50Q361 52 358 52Q349 52 349 42Q349 31 358 31Q363 31 365 33L364 38ZM399 27H407V39H411Q417 39 422 41T427 51Q427 59 422 61T410 63H399V27ZM411 57Q419 57 419 52Q419 47 417 47T410 46H407V57H411ZM432 47Q436
49 441 49Q446 49 446 45V43Q445 43 444 43T441 44Q428 44 428 34Q428 26 437 26Q443 26 446 31L448 27H454Q453 29 453 34V45Q453 55 443 55Q439 55 436 54T430 52L432 47ZM440 32Q436 32 436 36Q436 40 441 40Q443 40 444 40T446 39V36Q444 32 440 32ZM478 54Q477

<glyph unicode=" " glyph-name="space" horiz-adv-x="212" />
<glyph unicode="!" glyph-name="exclam" horiz-adv-x="247" d="M101 700H176V353L161 177H116L101 353V700ZM88 45Q88 73 101 87T138 101Q161 101 174 87T188 45Q188 16 175 2T138 -12Q115 -12 102 2T88 45Z" />
<glyph unicode="&quot;" glyph-name="quotedbl" horiz-adv-x="286" d="M177 700H246L220 507H177V700ZM72 700H141L115 507H72V700Z" />
<glyph unicode="#" glyph-name="numbersign" horiz-adv-x="475" d="M243 225H161L129 58H68L100 225H37L50 285H111L138 425H77L90 485H150L180 642H241L211 485H293L324 642H385L355 485H416L402 425H343L316 285H376L362 225H305L273 58H211L243 225ZM172 285H255L282
425H199L172 285Z" />
<glyph unicode="$" glyph-name="dollar" horiz-adv-x="475" d="M209 -12Q164 -11 131 -4T75 18L98 86Q115 75 142 67T209 57V336Q184 352 160 370T118 413T88 468T76 543Q76 609 109 653T209 709V800H269V712Q308 710 334 704T383 687L360 622Q343 631 322 637T269
645V389Q294 371 319 352T363 309T395 253T407 179Q407 107 372 57T269 -7V-100H209V-12ZM254 57Q289 65 310 94T332 174Q332 221 310 251T254 305V57ZM224 643Q183 635 167 607T151 546Q151 503 171 474T224 420V643Z" />
<glyph unicode="%" glyph-name="percent" horiz-adv-x="637" d="M55 542Q55 588 64 620T91 673T132 703T183 712Q210 712 233 704T274 676T301 623T311 542Q311 494 302 461T275 409T234 381T183 372Q156 372 133 380T92 408T65 461T55 542ZM120 542Q120 477 137
452T183 427Q197 427 208 432T228 449T240 484T245 542Q245 576 241 598T228 634T209 652T183 657Q168 657 157 652T137 634T125 599T120 542ZM349 171Q349 217 358 249T385 302T426 332T477 341Q504 341 527 333T568 305T595 252T605 171Q605 123 596 90T569 38T528
10T477 1Q450 1 427 9T386 37T359 90T349 171ZM414 171Q414 106 431 81T477 56Q491 56 502 61T522 78T534 113T539 171Q539 205 535 227T522 263T503 281T477 286Q462 286 451 281T431 263T419 228T414 171ZM518 713L565 683L139 -12L92 18L518 713Z" />
<glyph unicode="&amp;" glyph-name="ampersand" horiz-adv-x="656" d="M91 188Q91 228 103 263T134 329T179 385T230 430Q210 466 195 504T180 584Q180 608 186 631T208 672T246 701T302 712Q336 712 359 702T397 676T417 640T424 597Q424 554 397 509T315 421Q328
393 344 363T379 302T417 242T456 187Q474 212 490 254T516 335L574 312Q569 295 560 271T541 223T519 176T497 138Q530 99 552 78T598 40L553 -12Q508 14 455 81Q441 63 424 47T385 17T337 -4T279 -12Q240 -12 206 0T146 38T106 100T91 188ZM413 130Q390 159 368
192T326 258T290 322T262 379Q241 359 223 339T192 297T171 248T163 189Q163 156 173 131T200 88T240 62T288 53Q307 53 326 60T361 78T391 102T413 130ZM252 584Q252 554 261 525T286 466Q327 501 342 530T358 582Q358 610 347 630T305 651Q277 651 265 632T252
584Z" />
<glyph unicode="&apos;" glyph-name="quotesingle" horiz-adv-x="181" d="M72 700H141L115 507H72V700Z" />
<glyph unicode="(" glyph-name="parenleft" horiz-adv-x="233" d="M183 -220Q145 -172 120 -115T78 3T55 125T48 243Q48 298 55 359T78 481T120 602T185 712L230 685Q198 634 177 578T144 465T126 351T120 243Q120 195 126 138T145 22T180 -91T230 -190L183 -220Z" />
<glyph unicode=")" glyph-name="parenright" horiz-adv-x="234" d="M49 712Q86 664 113 607T156 489T179 367T186 249Q186 194 179 133T156 11T114 -110T49 -220L5 -192Q37 -141 58 -85T91 28T109 141T114 249Q114 297 108 354T88 470T54 584T4 684L49 712Z" />
<glyph unicode="*" glyph-name="asterisk" horiz-adv-x="291" d="M108 703L128 665L143 613L159 665L180 702L224 678L201 638L163 595L218 606H260V555H221L167 566L206 522L226 487L183 462L162 500L143 555L128 502L107 465L63 490L86 528L121 566L74 555H30V606H74L124
595L86 636L64 677L108 703Z" />
<glyph unicode="+" glyph-name="plus" horiz-adv-x="415" d="M34 373H173V529H241V373H380V308H241V150H173V308H34V373Z" />
<glyph unicode="," glyph-name="comma" horiz-adv-x="162" d="M36 43Q36 68 50 83T88 98Q114 98 130 77T147 11Q147 -22 139 -48T117 -95T87 -128T56 -147L31 -113Q44 -106 55 -95T74 -69T86 -40T90 -9Q70 -15 53 -1T36 43Z" />
<glyph unicode="-" glyph-name="hyphen" horiz-adv-x="291" d="M47 320H244V251H47V320Z" />
<glyph unicode="." glyph-name="period" horiz-adv-x="155" d="M39 45Q39 73 52 87T89 101Q112 101 125 87T139 45Q139 16 126 2T89 -12Q66 -12 53 2T39 45Z" />
<glyph unicode="/" glyph-name="slash" horiz-adv-x="295" d="M266 712L322 690L30 -140L-28 -119L266 712Z" />
<glyph unicode="0" glyph-name="zero" horiz-adv-x="475" d="M51 350Q51 446 63 515T98 627T157 691T237 712Q286 712 321 692T379 628T413 515T424 350Q424 253 412 185T377 73T318 9T238 -12Q189 -12 154 9T96 74T62 186T51 350ZM126 350Q126 207 152 130T239
53Q297 53 323 123T349 350Q349 492 325 569T237 647Q179 647 153 577T126 350Z" />
<glyph unicode="1" glyph-name="one" horiz-adv-x="475" d="M108 67H219V554L228 613L194 565L110 497L72 542L254 712H291V67H402V0H108V67Z" />
<glyph unicode="2" glyph-name="two" horiz-adv-x="475" d="M392 0H68V32Q87 55 111 90T162 166T214 254T260 349T292 444T305 534Q305 585 282 616T213 647Q184 647 157 636T109 609L81 661Q109 685 147 698T229 712Q303 712 341 667T380 547Q380 492 364 432T322
314T265 201T204 105L163 61V58L216 67H392V0Z" />
<glyph unicode="3" glyph-name="three" horiz-adv-x="475" d="M105 76Q124 65 148 59T205 53Q232 53 254 64T293 95T319 142T328 203Q328 277 296 311T205 345H145V374L261 598L300 640L245 633H88V700H378V671L250 432L220 403V401L249 407Q280 407 308 395T356
358T388 297T400 213Q400 159 385 117T343 47T281 3T205 -12Q170 -12 139 -6T85 11L105 76Z" />
<glyph unicode="4" glyph-name="four" horiz-adv-x="475" d="M443 215H350V0H280V215H32V249L297 711H350V280H443V215ZM280 504L290 590H287L257 513L147 322L109 273L164 280H280V504Z" />
<glyph unicode="5" glyph-name="five" horiz-adv-x="475" d="M369 700V631H180V426L214 429Q294 428 340 374T386 219Q386 163 371 120T328 48T265 3T188 -12Q119 -12 77 7L95 71Q113 62 135 59T186 55Q243 55 278 96T314 213Q314 290 279 327T180 364L114 359V700H369Z" />
<glyph unicode="6" glyph-name="six" horiz-adv-x="475" d="M417 211Q417 161 406 120T372 49T317 4T243 -12Q159 -12 112 49T64 235Q64 341 85 424T144 567T231 663T337 712L357 654Q313 642 276 614T211 546T165 456T139 349Q152 376 182 396T258 416Q330 416
373 365T417 211ZM345 204Q345 351 239 351Q201 351 174 327T136 273Q134 260 134 248T134 224Q134 191 140 161T160 106T194 68T243 53Q288 53 316 93T345 204Z" />
<glyph unicode="7" glyph-name="seven" horiz-adv-x="475" d="M107 0L309 591L345 640L297 631H68V700H410V673L179 0H107Z" />
<glyph unicode="8" glyph-name="eight" horiz-adv-x="475" d="M70 162Q70 229 97 276T179 361Q159 376 142 392T111 430T91 477T83 537Q83 618 125 665T242 712Q311 712 351 670T392 553Q392 496 370 452T301 366Q322 351 341 333T374 293T397 242T405 176Q405
91 360 40T233 -12Q194 -12 164 1T113 37T81 92T70 162ZM226 333Q180 299 160 257T139 173Q139 122 164 88T237 53Q276 53 304 81T333 172Q333 203 324 227T300 269T266 303T226 333ZM253 392Q287 426 305 460T323 537Q323 592 299 619T241 647Q220 647 204 639T176
615T159 581T153 539Q153 512 161 491T183 452T215 420T253 392Z" />
<glyph unicode="9" glyph-name="nine" horiz-adv-x="475" d="M58 488Q58 592 102 652T235 712Q319 712 366 650T413 460Q413 347 392 264T334 123T247 32T138 -12L119 47Q215 72 268 147T335 337Q315 308 290 296T222 284Q189 284 160 296T108 334T72 398T58 488ZM130
496Q130 425 159 387T237 349Q275 349 301 365T340 408Q342 421 342 433T341 456Q341 494 335 528T316 589T281 631T231 647Q184 647 157 606T130 496Z" />
<glyph unicode=":" glyph-name="colon" horiz-adv-x="206" d="M76 448Q76 476 89 490T126 504Q149 504 162 490T176 448Q176 419 163 405T126 391Q103 391 90 405T76 448ZM76 45Q76 73 89 87T126 101Q149 101 162 87T176 45Q176 16 163 2T126 -12Q103 -12 90 2T76 45Z" />
<glyph unicode=";" glyph-name="semicolon" horiz-adv-x="216" d="M75 43Q75 68 89 83T127 98Q153 98 169 77T186 11Q186 -22 178 -48T156 -95T126 -128T95 -147L70 -113Q83 -106 94 -95T113 -69T125 -40T129 -9Q109 -15 92 -1T75 43ZM85 448Q85 476 98 490T135
504Q158 504 171 490T185 448Q185 419 172 405T135 391Q112 391 99 405T85 448Z" />
<glyph unicode="&lt;" glyph-name="less" horiz-adv-x="415" d="M36 305V334L336 557L375 503L184 358L110 320L183 288L379 144L341 90L36 305Z" />
<glyph unicode="=" glyph-name="equal" horiz-adv-x="415" d="M35 456H379V389H35V456ZM35 547H379V480H35V547Z" />
<glyph unicode="&gt;" glyph-name="greater" horiz-adv-x="415" d="M74 90L36 144L232 288L305 320L231 358L40 503L79 557L379 334V305L74 90Z" />
<glyph unicode="?" glyph-name="question" horiz-adv-x="357" d="M122 177Q119 221 127 255T151 317T183 371T217 422T243 478T254 545Q254 591 234 619T166 647Q137 647 109 637T59 610L31 666Q61 686 96 699T183 712Q255 712 292 670T329 555Q329 512 318 478T291
416T256 361T221 308T193 249T182 177H122ZM107 45Q107 73 120 87T157 101Q180 101 193 87T207 45Q207 16 194 2T157 -12Q134 -12 121 2T107 45Z" />
<glyph unicode="@" glyph-name="at" horiz-adv-x="857" d="M565 491H598L557 200Q548 133 551 101T581 68Q607 68 633 85T679 135T712 216T725 326Q725 397 705 450T648 540T559 594T444 613Q379 613 322 587T223 511T157 394T132 242Q132 155 154 91T218 -16T315
-80T439 -101Q463 -101 494 -95T549 -77L567 -133Q533 -149 500 -155T429 -162Q356 -162 291 -139T176 -68T97 56T68 236Q68 339 98 420T180 558T301 644T447 674Q521 674 583 652T692 586T763 477T789 326Q789 257 771 198T723 96T652 29T565 4Q546 4 531 9T506
26T492 58T492 107H488Q477 87 462 69T430 36T392 13T349 4Q307 4 278 41T248 150Q248 224 264 288T309 399T376 472T457 499Q486 499 504 489T540 462L565 491ZM519 400Q506 418 493 426T459 434Q429 434 403 412T358 352T328 266T317 167Q317 122 330 96T376
69Q391 69 407 80T438 108T468 148T492 192L519 400Z" />
<glyph unicode="A" glyph-name="A" horiz-adv-x="473" d="M333 196H135L79 0H5L216 711H257L468 0H390L333 196ZM155 263H315L254 479L235 584H233L214 477L155 263Z" />
<glyph unicode="B" glyph-name="B" horiz-adv-x="471" d="M411 541Q411 515 405 489T386 440T354 399T306 372V368Q330 363 352 352T391 320T418 270T428 199Q428 145 411 106T365 41T297 4T215 -8Q201 -8 183 -8T143 -7T102 -3T64 5V694Q94 700 134 704T222 708Q256
708 290 702T351 677T394 627T411 541ZM221 61Q248 61 271 69T311 95T339 136T349 194Q349 235 337 260T304 300T259 319T206 324H139V68Q145 66 154 65T175 63T199 62T221 61ZM180 389Q194 389 212 390T242 393Q279 408 305 441T332 524Q332 557 323 579T299 615T262
633T218 639Q192 639 171 638T139 634V389H180Z" />
<glyph unicode="C" glyph-name="C" horiz-adv-x="458" d="M430 27Q405 6 367 -3T287 -12Q234 -12 189 8T112 71T61 184T43 350Q43 450 63 519T118 631T196 693T288 712Q336 712 367 705T422 688L404 620Q384 631 357 637T295 643Q260 643 229 628T174 578T136
487T122 350Q122 204 172 131T305 57Q339 57 366 66T412 89L430 27Z" />
<glyph unicode="D" glyph-name="D" horiz-adv-x="525" d="M64 700Q80 703 99 704T139 706T178 707T215 708Q288 708 339 683T422 612T468 500T482 355Q482 283 469 217T423 101T339 21T207 -9Q194 -9 174 -9T133 -7T93 -4T64 -1V700ZM219 639Q209 639 198 639T175
638T155 636T139 634V64Q143 63 153 63T175 62T197 61T213 60Q268 60 305 84T363 148T394 242T403 356Q403 409 395 460T367 550T311 614T219 639Z" />
<glyph unicode="E" glyph-name="E" horiz-adv-x="429" d="M64 700H375V631H139V394H356V325H139V69H380V0H64V700Z" />
<glyph unicode="F" glyph-name="F" horiz-adv-x="413" d="M64 700H375V631H139V384H359V315H139V0H64V700Z" />
<glyph unicode="G" glyph-name="G" horiz-adv-x="492" d="M257 349H450V41Q422 15 378 2T289 -12Q233 -12 188 9T110 74T61 187T43 350Q43 448 64 516T120 628T201 692T295 712Q343 712 375 706T431 688L413 620Q393 631 366 637T302 643Q267 643 235 628T178
579T137 488T122 350Q122 200 169 129T300 57Q352 57 386 82V286L257 305V349Z" />
<glyph unicode="H" glyph-name="H" horiz-adv-x="536" d="M397 323H139V0H64V700H139V392H397V700H472V0H397V323Z" />
<glyph unicode="I" glyph-name="I" horiz-adv-x="233" d="M79 700H154V0H79V700Z" />
<glyph unicode="J" glyph-name="J" horiz-adv-x="241" d="M93 700H168V157Q168 75 142 33T49 -10Q33 -10 11 -6T-26 6L-10 71Q0 65 12 62T38 59Q56 59 67 67T84 89T91 124T93 171V700Z" />
<glyph unicode="K" glyph-name="K" horiz-adv-x="493" d="M175 324H139V0H64V700H139V374L174 388L356 700H442L259 398L224 366L265 326L468 0H373L175 324Z" />
<glyph unicode="L" glyph-name="L" horiz-adv-x="415" d="M401 0H64V700H139V69H401V0Z" />
<glyph unicode="M" glyph-name="M" horiz-adv-x="637" d="M498 460L507 566H503L471 467L330 163H305L157 467L126 566H122L136 460V0H64V700H127L296 356L321 274H323L347 357L507 700H573V0H498V460Z" />
<glyph unicode="N" glyph-name="N" horiz-adv-x="538" d="M171 444L128 554H125L136 444V0H64V711H109L368 257L409 152H413L402 257V700H474V-11H428L171 444Z" />
<glyph unicode="O" glyph-name="O" horiz-adv-x="549" d="M43 350Q43 528 100 620T274 712Q337 712 381 687T452 614T493 500T506 350Q506 172 449 80T274 -12Q212 -12 168 13T96 86T56 200T43 350ZM122 350Q122 291 130 238T157 145T204 81T274 57Q349 57 388
129T427 350Q427 408 419 461T392 554T345 619T274 643Q200 643 161 571T122 350Z" />
<glyph unicode="P" glyph-name="P" horiz-adv-x="451" d="M64 693Q96 702 132 705T203 708Q243 708 282 699T352 666T403 600T423 493Q423 430 405 386T356 315T286 275T204 262Q200 262 191 262T172 262T153 264T139 266V0H64V693ZM207 639Q187 639 169 638T139
633V335Q143 333 151 333T169 332T186 331T199 331Q227 331 253 338T299 363T331 413T344 493Q344 535 333 563T303 608T259 632T207 639Z" />
<glyph unicode="Q" glyph-name="Q" horiz-adv-x="549" d="M566 -166Q546 -173 528 -175T490 -178Q450 -178 412 -168T338 -145T269 -123T206 -112Q188 -112 170 -118V-50Q192 -44 214 -44Q247 -44 280 -54T348 -76T418 -98T494 -108Q530 -108 566 -98V-166ZM43
350Q43 528 100 620T274 712Q337 712 381 687T452 614T493 500T506 350Q506 172 449 80T274 -12Q212 -12 168 13T96 86T56 200T43 350ZM122 350Q122 291 130 238T157 145T204 81T274 57Q349 57 388 129T427 350Q427 408 419 461T392 554T345 619T274 643Q200 643
161 571T122 350Z" />
<glyph unicode="R" glyph-name="R" horiz-adv-x="480" d="M64 693Q97 701 136 704T209 708Q248 708 283 699T344 667T385 608T401 516Q401 433 367 383T275 316L313 279L451 0H364L214 305L139 320V0H64V693ZM139 370H199Q256 370 289 405T322 512Q322 567 295
603T213 639Q193 639 172 638T139 633V370Z" />
<glyph unicode="S" glyph-name="S" horiz-adv-x="428" d="M59 93Q78 80 112 69T191 57Q247 57 282 84T317 171Q317 210 297 239T247 292T183 340T118 392T68 458T48 547Q48 631 98 671T230 712Q280 712 319 703T382 680L358 614Q340 625 307 634T229 643Q175 643
149 617T123 550Q123 515 143 488T193 437T257 389T322 334T372 266T392 176Q392 88 340 38T193 -12Q133 -12 95 -1T33 24L59 93Z" />
<glyph unicode="T" glyph-name="T" horiz-adv-x="447" d="M433 631H261V0H186V631H14V700H433V631Z" />
<glyph unicode="U" glyph-name="U" horiz-adv-x="521" d="M385 700H457V231Q457 104 408 48T267 -9Q161 -9 113 46T64 215V700H139V254Q139 200 146 163T169 103T209 70T268 60Q334 60 359 106T385 254V700Z" />
<glyph unicode="V" glyph-name="V" horiz-adv-x="463" d="M218 221L236 114H238L258 223L388 700H465L253 -11H213L-2 700H81L218 221Z" />
<glyph unicode="W" glyph-name="W" horiz-adv-x="672" d="M182 237L194 120H196L208 239L320 700H363L475 238L487 120H488L502 239L591 700H666L510 -11H464L353 450L339 557H336L322 449L211 -11H164L5 700H86L182 237Z" />
<glyph unicode="X" glyph-name="X" horiz-adv-x="500" d="M203 356L35 700H125L234 463L254 404L274 463L389 700H472L298 363L480 0H392L271 251L248 313L227 251L103 0H19L203 356Z" />
<glyph unicode="Y" glyph-name="Y" horiz-adv-x="455" d="M191 278L5 700H93L219 395L232 334H234L247 397L369 700H450L266 279V0H191V278Z" />
<glyph unicode="Z" glyph-name="Z" horiz-adv-x="439" d="M29 69L307 591L340 631H29V700H410V631L131 106L99 69H410V0H29V69Z" />
<glyph unicode="[" glyph-name="bracketleft" horiz-adv-x="248" d="M64 700H220V635H136V-165H220V-230H64V700Z" />
<glyph unicode="\" glyph-name="backslash" horiz-adv-x="316" d="M330 -117L270 -140L-28 689L33 712L330 -117Z" />
<glyph unicode="]" glyph-name="bracketright" horiz-adv-x="249" d="M185 -230H29V-165H113V635H29V700H185V-230Z" />
<glyph unicode="^" glyph-name="asciicircum" horiz-adv-x="412" d="M191 711H221L360 435H285L223 570L205 639L181 569L109 435H40L191 711Z" />
<glyph unicode="_" glyph-name="underscore" horiz-adv-x="334" d="M0 -140H334V-205H0V-140Z" />
<glyph unicode="`" glyph-name="grave" horiz-adv-x="255" d="M195 571H154L60 699V720H143L195 571Z" />
<glyph unicode="a" glyph-name="a" horiz-adv-x="400" d="M54 470Q83 488 124 498T212 508Q254 508 279 496T319 462T338 413T343 355Q343 295 341 238T338 130Q338 92 340 60T350 -2H295L278 57H274Q259 31 230 12T152 -7Q98 -7 64 30T29 134Q29 177 43 206T84
253T147 278T229 286Q239 286 249 286T270 285Q273 316 273 340Q273 397 256 420T194 443Q166 443 133 435T78 413L54 470ZM271 228Q261 229 251 229T231 230Q207 230 184 226T143 212T115 185T104 142Q104 102 123 80T174 58Q216 58 239 78T271 122V228Z" />
<glyph unicode="b" glyph-name="b" horiz-adv-x="434" d="M59 700H131V462H134Q175 512 243 512Q320 512 358 451T397 258Q397 123 346 57T200 -9Q154 -9 116 1T59 26V700ZM131 73Q145 65 165 61T209 56Q261 56 291 105T322 258Q322 301 317 335T300 395T270 433T225
447Q189 447 166 426T131 367V73Z" />
<glyph unicode="c" glyph-name="c" horiz-adv-x="356" d="M335 25Q310 6 278 -3T211 -12Q163 -12 130 6T77 59T47 142T37 250Q37 378 82 445T213 512Q252 512 280 505T328 487L308 424Q268 447 221 447Q167 447 140 400T112 250Q112 209 118 173T138 111T174 69T229
53Q255 53 277 62T314 83L335 25Z" />
<glyph unicode="d" glyph-name="d" horiz-adv-x="433" d="M374 172Q374 121 375 80T382 -2H333L317 58H313Q299 28 269 8T197 -12Q116 -12 77 51T37 249Q37 377 85 443T219 509Q248 509 265 506T302 494V700H374V172ZM302 421Q288 433 271 438T224 444Q171 444
142 396T112 248Q112 204 117 169T134 107T164 67T210 53Q282 53 302 138V421Z" />
<glyph unicode="e" glyph-name="e" horiz-adv-x="413" d="M358 34Q334 12 297 0T219 -12Q172 -12 138 6T81 59T48 142T37 250Q37 378 84 445T217 512Q245 512 272 505T322 477T357 418T371 319Q371 302 370 283T366 242H112Q112 199 119 164T141 105T179 67T238
53Q265 53 291 63T332 87L358 34ZM302 302Q304 377 281 412T218 447Q172 447 145 412T113 302H302Z" />
<glyph unicode="f" glyph-name="f" horiz-adv-x="257" d="M16 500H77V528Q77 622 104 664T196 706Q222 706 243 703T286 690L268 628Q250 636 235 638T205 641Q185 641 174 633T158 608T151 565T149 500H253V435H149V0H77V435H16V500Z" />
<glyph unicode="g" glyph-name="g" d="M374 -23Q374 -120 331 -166T206 -212Q156 -212 124 -204T72 -184L93 -122Q113 -131 137 -139T196 -147Q257 -147 279 -113T302 1V38H299Q283 15 258 2T194 -11Q113 -11 75 51T37 248Q37 377 86 443T233 509Q280 509 314
500T374 479V-23ZM302 428Q272 444 225 444Q174 444 143 398T112 249Q112 207 117 172T134 110T164 69T210 54Q248 54 270 74T302 134V428Z" />
<glyph unicode="h" glyph-name="h" horiz-adv-x="440" d="M315 0V304Q315 374 299 410T233 447Q198 447 170 422T131 359V0H59V700H131V453H134Q154 479 183 495T257 512Q290 512 314 503T355 472T379 414T387 323V0H315Z" />
<glyph unicode="i" glyph-name="i" horiz-adv-x="217" d="M71 500H143V0H71V500ZM58 652Q58 676 71 691T107 706Q129 706 143 692T158 652Q158 628 144 615T107 601Q85 601 72 615T58 652Z" />
<glyph unicode="j" glyph-name="j" horiz-adv-x="215" d="M72 500H144V-27Q144 -130 111 -175T4 -210V-145Q26 -145 39 -136T60 -109T70 -63T72 2V500ZM58 652Q58 676 71 691T107 706Q129 706 143 692T158 652Q158 628 144 615T107 601Q85 601 72 615T58 652Z" />
<glyph unicode="k" glyph-name="k" horiz-adv-x="388" d="M168 225H131V0H59V700H131V274L164 288L281 500H364L246 298L211 266L252 227L381 0H294L168 225Z" />
<glyph unicode="l" glyph-name="l" horiz-adv-x="233" d="M136 119Q136 84 145 69T172 54Q193 54 221 65L228 7Q215 -1 192 -6T149 -11Q111 -11 88 12T64 95V700H136V119Z" />
<glyph unicode="m" glyph-name="m" horiz-adv-x="651" d="M293 0V297Q293 337 291 365T280 412T258 438T221 447Q187 447 164 421T131 360V0H59V500H110L123 447H126Q147 476 176 494T250 512Q288 512 312 496T351 437Q369 472 402 492T476 512Q509 512 532 504T570
474T592 417T599 327V0H527V318Q527 383 515 415T457 447Q419 447 397 424T365 360V0H293Z" />
<glyph unicode="n" glyph-name="n" horiz-adv-x="439" d="M315 0V305Q315 380 298 413T235 447Q195 447 169 423T131 364V0H59V500H111L124 447H127Q146 474 178 493T256 512Q288 512 312 503T353 473T378 415T387 324V0H315Z" />
<glyph unicode="o" glyph-name="o" d="M37 250Q37 385 83 448T216 512Q308 512 351 447T395 250Q395 114 348 51T216 -12Q124 -12 81 53T37 250ZM112 250Q112 206 117 170T135 108T168 68T216 53Q268 53 294 99T320 250Q320 293 315 329T297 392T264 432T216 447Q165
447 139 400T112 250Z" />
<glyph unicode="p" glyph-name="p" horiz-adv-x="435" d="M59 500H110L121 446H125Q162 512 241 512Q320 512 359 453T399 260Q399 197 386 147T349 61T291 7T214 -12Q185 -12 168 -9T131 6V-200H59V500ZM131 79Q145 67 162 60T209 53Q262 53 293 107T324 261Q324
303 319 337T301 395T271 433T225 447Q152 447 131 358V79Z" />
<glyph unicode="q" glyph-name="q" d="M374 -200H302V41H298Q282 16 258 2T194 -12Q115 -12 76 51T37 248Q37 377 88 443T236 509Q278 509 316 499T374 478V-200ZM302 427Q274 444 223 444Q171 444 142 396T112 249Q112 207 117 171T133 109T163 68T209 53Q247
53 269 75T302 139V427Z" />
<glyph unicode="r" glyph-name="r" horiz-adv-x="274" d="M59 500H110L123 447H126Q140 476 162 492T217 509Q240 509 269 500L255 427Q229 436 209 436Q177 436 157 418T131 368V0H59V500Z" />
<glyph unicode="s" glyph-name="s" horiz-adv-x="338" d="M51 82Q71 70 98 62T155 53Q188 53 211 69T234 123Q234 154 220 174T185 210T138 239T92 272T56 317T42 383Q42 447 76 479T174 512Q215 512 245 505T297 484L278 424Q259 434 234 440T183 447Q147 447
131 432T114 385Q114 360 128 343T163 311T210 281T256 246T292 197T306 125Q306 97 297 72T270 29T224 -1T159 -12Q115 -12 83 -4T29 19L51 82Z" />
<glyph unicode="t" glyph-name="t" horiz-adv-x="275" d="M9 500H70V599L142 622V500H250V435H142V137Q142 93 152 74T187 54Q207 54 221 58T253 70L267 13Q245 2 219 -4T163 -11Q113 -11 92 21T70 127V435H9V500Z" />
<glyph unicode="u" glyph-name="u" horiz-adv-x="434" d="M124 500V194Q124 118 139 86T196 53Q217 53 233 61T263 84T286 116T302 153V500H374V142Q374 106 376 68T384 0H333L315 70H312Q295 37 263 13T183 -12Q151 -12 127 -4T86 25T61 82T52 176V500H124Z" />
<glyph unicode="v" glyph-name="v" horiz-adv-x="388" d="M180 207L200 108H202L220 209L308 500H384L213 -11H178L4 500H86L180 207Z" />
<glyph unicode="w" glyph-name="w" horiz-adv-x="590" d="M326 500L415 208L433 112H435L450 210L518 500H586L453 -11H412L311 317L297 401H295L281 316L183 -11H142L5 500H82L159 209L171 112H173L191 211L273 500H326Z" />
<glyph unicode="x" glyph-name="x" horiz-adv-x="412" d="M161 256L29 500H115L189 357L209 301L230 357L306 500H385L252 260L393 0H311L227 157L205 217L182 157L98 0H19L161 256Z" />
<glyph unicode="y" glyph-name="y" horiz-adv-x="376" d="M183 177L204 80H209L224 177L300 500H373L254 51Q240 -3 226 -50T196 -131T159 -185T110 -205Q82 -205 61 -196L73 -128Q87 -133 101 -130T127 -113T150 -72T169 0L7 500H89L183 177Z" />
<glyph unicode="z" glyph-name="z" horiz-adv-x="360" d="M32 65L218 392L253 435H32V500H324V435L137 105L103 65H324V0H32V65Z" />
<glyph unicode="{" glyph-name="braceleft" horiz-adv-x="282" d="M107 114Q107 165 91 184T43 203V268Q74 268 90 288T107 352V599Q107 646 125 673T186 701H260V636H221Q198 636 189 624T179 579V335Q179 291 163 268T123 240V234Q146 230 162 204T179 135V-108Q179
-139 188 -152T222 -165H260V-230H186Q107 -230 107 -129V114Z" />
<glyph unicode="|" glyph-name="bar" horiz-adv-x="190" d="M65 700H126V-130H65V700Z" />
<glyph unicode="}" glyph-name="braceright" horiz-adv-x="282" d="M175 -129Q175 -230 96 -230H22V-165H60Q84 -165 93 -152T103 -108V135Q103 177 119 203T159 234V240Q136 245 120 268T103 335V579Q103 611 94 623T61 636H22V701H96Q138 701 156 674T175 599V352Q175
308 191 288T239 268V203Q208 203 192 184T175 114V-129Z" />
<glyph unicode="~" glyph-name="asciitilde" horiz-adv-x="415" d="M23 361Q59 394 88 407T142 420Q165 420 185 412T223 394T258 376T294 367Q308 367 324 374T357 400L391 340Q359 313 334 303T288 292Q266 292 248 300T212 319T177 338T140 347Q122 347 102
337T56 302L23 361Z" />
<glyph unicode="&#xa0;" glyph-name="uni00A0" horiz-adv-x="212" />
<glyph unicode="&#xa1;" glyph-name="exclamdown" horiz-adv-x="246" d="M70 -204H145V143L130 319H85L70 143V-204ZM57 451Q57 423 70 409T107 395Q130 395 143 409T157 451Q157 480 144 494T107 508Q84 508 71 494T57 451Z" />
<glyph unicode="&#xa2;" glyph-name="cent" horiz-adv-x="475" d="M394 27Q376 12 352 3T301 -9V-100H236V-10Q195 -4 167 17T122 71T96 150T88 250Q88 364 126 430T236 509V600H301V511Q328 509 349 503T387 487L368 424Q352 433 334 438T295 446V53Q320 55 340
64T374 84L394 27ZM163 250Q163 214 167 183T182 126T208 83T247 58V443Q204 432 184 385T163 250Z" />
<glyph unicode="&#xa3;" glyph-name="sterling" horiz-adv-x="475" d="M54 381H109Q99 410 92 443T85 522Q85 619 130 665T254 712Q303 712 339 704T400 684L376 618Q357 628 328 635T256 643Q210 643 185 612T160 519Q160 477 168 445T188 381H315V316H211Q218
293 222 269T227 212Q227 183 219 149T195 94L156 59V55L215 69H417V0H54V69H56Q81 70 99 82T129 113T146 157T152 206Q152 240 146 265T132 316H54V381Z" />
<glyph unicode="&#xa4;" glyph-name="currency" horiz-adv-x="475" d="M58 579L127 512L146 481Q183 510 237 510Q263 510 286 503T328 481L347 512L417 579L459 536L392 467L361 448Q389 409 389 358Q389 302 361 267L392 248L459 179L417 136L347 204L329 234Q290
206 237 206Q183 206 146 234L127 204L58 136L15 179L83 248L113 267Q85 304 85 358Q85 384 92 406T113 448L83 467L15 536L58 579ZM147 358Q147 317 172 291T237 264Q277 264 302 290T328 358Q328 397 303 424T237 451Q197 451 172 424T147 358Z" />
<glyph unicode="&#xa5;" glyph-name="yen" horiz-adv-x="475" d="M101 326H180L15 700H103L229 395L242 334H244L257 397L379 700H460L296 326H376V268H276V203H376V145H276V0H201V145H101V203H201V268H101V326Z" />
<glyph unicode="&#xa6;" glyph-name="brokenbar" horiz-adv-x="189" d="M64 213H125V-130H64V213ZM125 357H64V700H125V357Z" />
<glyph unicode="&#xa7;" glyph-name="section" horiz-adv-x="405" d="M45 353Q45 384 58 414T94 468L128 483Q106 500 91 524T75 590Q75 643 108 677T208 712Q250 712 281 704T334 685L316 623Q295 633 270 640T216 647Q180 647 164 630T147 588Q147 562 163 546T202
518T253 493T304 463T344 418T360 347Q360 316 348 285T313 230L277 216Q298 200 314 176T330 110Q330 50 293 19T194 -12Q152 -12 122 -5T70 17L89 78Q108 67 133 60T186 53Q258 53 258 114Q258 138 242 153T203 181T152 206T101 236T61 282T45 353ZM288 345Q288
369 279 385T253 412T217 433T174 453Q150 439 134 415T117 355Q117 332 126 316T152 287T188 265T231 245Q253 259 270 286T288 345Z" />
<glyph unicode="&#xa8;" glyph-name="dieresis" horiz-adv-x="365" d="M60 653Q60 676 71 689T103 702Q123 702 134 689T146 653Q146 632 135 619T103 606Q83 606 72 619T60 653ZM219 653Q219 676 230 689T262 702Q282 702 293 689T305 653Q305 632 294 619T262
606Q242 606 231 619T219 653Z" />
<glyph unicode="&#xa9;" glyph-name="copyright" horiz-adv-x="693" d="M50 293Q50 363 73 418T137 511T232 569T347 590Q408 590 462 570T556 511T620 418T644 293Q644 223 621 168T557 75T462 16T347 -4Q279 -4 225 16T131 74T71 168T50 293ZM110 293Q110 235
128 190T179 115T254 68T347 52Q396 52 439 68T515 114T565 190T584 293Q584 351 566 396T515 471T440 518T347 534Q297 534 254 518T179 472T129 396T110 293ZM446 155Q426 144 402 138T346 132Q278 132 242 175T206 293Q206 370 244 411T346 453Q377 453 396
447T440 430L418 375Q399 384 383 388T354 392Q319 392 299 370T278 293Q278 194 361 194Q399 194 428 210L446 155Z" />
<glyph unicode="&#xaa;" glyph-name="ordfeminine" horiz-adv-x="318" d="M54 681Q75 692 108 700T184 708Q237 708 256 682T275 607Q275 538 273 481T279 380H229L218 422H215Q205 405 186 391T133 376Q88 376 63 401T38 471Q38 504 52 526T90 561T145 578T213
581Q216 621 208 638T167 655Q138 655 113 649T70 634L54 681ZM145 430Q175 430 190 444T213 474V531Q193 532 173 532T137 526T111 510T101 477Q101 457 112 444T145 430Z" />
<glyph unicode="&#xab;" glyph-name="guillemotleft" horiz-adv-x="386" d="M178 259L305 487L353 454L273 301L235 260L273 224L358 74L310 40L178 259ZM29 259L158 489L208 455L126 301L88 260L126 224L214 73L163 38L29 259Z" />
<glyph unicode="&#xac;" glyph-name="logicalnot" horiz-adv-x="415" d="M36 391H379V200H314V322H36V391Z" />
<glyph unicode="&#xad;" glyph-name="uni00AD" horiz-adv-x="291" d="M47 320H244V251H47V320Z" />
<glyph unicode="&#xae;" glyph-name="registered" horiz-adv-x="591" d="M72 490Q72 544 90 585T138 655T209 698T295 713Q342 713 383 699T454 656T501 586T519 490Q519 436 501 394T453 324T382 281T295 266Q248 266 208 280T137 323T90 394T72 490ZM126 490Q126
446 139 414T176 359T229 327T295 316Q332 316 363 326T416 358T452 412T465 490Q465 533 452 565T415 620T361 652T295 663Q258 663 227 653T174 620T139 566T126 490ZM208 599Q222 603 246 605T293 608Q328 608 353 593T379 542Q379 515 362 501T319 484L343
473L405 380H353L293 468L252 481V380H208V599ZM283 570Q275 570 266 570T252 566V506H281Q332 506 332 540Q332 570 283 570Z" />
<glyph unicode="&#xaf;" glyph-name="overscore" horiz-adv-x="363" d="M60 643H303V583H60V643Z" />
<glyph unicode="&#xb0;" glyph-name="degree" horiz-adv-x="342" d="M62 571Q62 634 94 673T179 712Q231 712 264 676T297 571Q297 503 264 467T179 430Q126 430 94 466T62 571ZM119 571Q119 532 135 508T179 483Q206 483 223 507T240 571Q240 610 223 634T179
659Q152 659 136 635T119 571Z" />
<glyph unicode="&#xb1;" glyph-name="plusminus" horiz-adv-x="415" d="M35 469H174V624H241V469H380V402H241V297H174V402H35V469ZM35 247H380V180H35V247Z" />
<glyph unicode="&#xb2;" glyph-name="uni00B2" horiz-adv-x="322" d="M263 695Q263 663 255 633T232 573T198 515T157 458L120 426V424L166 439H278V380H40V412Q61 433 88 465T141 535T183 611T200 685Q200 715 185 731T146 747Q124 747 104 740T69 723L49 775Q69
791 98 799T157 807Q208 807 235 778T263 695Z" />
<glyph unicode="&#xb3;" glyph-name="uni00B3" horiz-adv-x="322" d="M137 430Q175 430 194 450T214 508Q214 540 197 560T138 580H94V603L171 722L200 749L159 743H55V800H265V768L183 642L162 625V622L182 625Q227 625 252 594T278 508Q278 447 241 410T143
373Q114 373 92 378T53 391L67 447Q81 439 98 435T137 430Z" />
<glyph unicode="&#xb4;" glyph-name="acute" horiz-adv-x="245" d="M107 720H185V699L103 571H60L107 720Z" />
<glyph unicode="&#xb5;" glyph-name="mu" horiz-adv-x="450" d="M125 500V198Q125 126 145 90T213 53Q255 53 283 78T324 145V500H396V163Q396 122 398 81T408 0H357L334 62H331Q315 30 283 9T205 -12Q168 -12 148 1T113 34H108L126 -67V-200H53V500H125Z" />
<glyph unicode="&#xb6;" glyph-name="paragraph" horiz-adv-x="403" d="M278 700H339V-130H278V700ZM148 310Q121 310 100 325T62 368T38 430T29 506Q29 545 38 580T66 642T109 684T168 700H209V-130H148V310Z" />
<glyph unicode="&#xb7;" glyph-name="middot" horiz-adv-x="213" d="M57 295Q57 323 70 337T107 351Q130 351 143 337T157 295Q157 266 144 252T107 238Q84 238 71 252T57 295Z" />
<glyph unicode="&#xb8;" glyph-name="cedilla" horiz-adv-x="262" d="M137 -43Q202 -58 202 -118Q202 -141 192 -160T163 -191T118 -206T60 -204L67 -165Q90 -167 103 -164T124 -155T133 -142T135 -127Q135 -99 66 -90L106 0H156L137 -43Z" />
<glyph unicode="&#xb9;" glyph-name="uni00B9" horiz-adv-x="322" d="M60 437H144V694L150 730L127 702L68 662L41 704L166 807H207V437H282V380H60V437Z" />
<glyph unicode="&#xba;" glyph-name="ordmasculine" horiz-adv-x="325" d="M35 542Q35 588 44 620T71 673T112 703T163 712Q190 712 213 704T254 676T281 623T291 542Q291 494 282 461T255 409T214 381T163 372Q136 372 113 380T72 408T45 461T35 542ZM100 542Q100
477 117 452T163 427Q177 427 188 432T208 449T220 484T225 542Q225 576 221 598T208 634T189 652T163 657Q148 657 137 652T117 634T105 599T100 542Z" />
<glyph unicode="&#xbb;" glyph-name="guillemotright" horiz-adv-x="386" d="M208 268L81 40L32 72L113 226L151 267L113 303L28 454L76 487L208 268ZM357 268L228 38L177 71L260 226L298 267L260 303L172 455L223 489L357 268Z" />
<glyph unicode="&#xbc;" glyph-name="onequarter" horiz-adv-x="683" d="M505 713L554 686L170 -12L120 16L505 713ZM636 96H571V0H510V96H345V130L526 430H571V152H636V96ZM510 277L517 330H513L495 280L436 178L409 148L450 152H510V277ZM391 595L397 631L375
602L316 561L290 605L414 707H455V280H391V595Z" />
<glyph unicode="&#xbd;" glyph-name="onehalf" horiz-adv-x="701" d="M505 713L554 686L170 -12L120 16L505 713ZM640 315Q640 283 632 253T609 193T575 135T534 78L497 46V44L543 59H655V0H417V32Q438 53 465 85T518 155T560 231T577 305Q577 335 562 351T523
367Q501 367 481 360T446 343L426 395Q446 411 475 419T534 427Q585 427 612 398T640 315ZM391 595L397 631L375 602L316 561L290 605L414 707H455V280H391V595Z" />
<glyph unicode="&#xbe;" glyph-name="threequarters" horiz-adv-x="710" d="M533 713L582 686L198 -12L148 16L533 713ZM664 96H599V0H538V96H373V130L554 430H599V152H664V96ZM538 277L545 330H541L523 280L464 178L437 148L478 152H538V277ZM131 330Q169 330
188 350T208 408Q208 440 191 460T132 480H88V503L165 622L194 649L153 643H49V700H259V668L177 542L156 525V522L176 525Q221 525 246 494T272 408Q272 347 235 310T137 273Q108 273 86 278T47 291L61 347Q75 339 92 335T131 330Z" />
<glyph unicode="&#xbf;" glyph-name="questiondown" horiz-adv-x="358" d="M235 323Q238 279 230 245T206 183T174 129T140 78T114 22T103 -45Q103 -91 123 -119T191 -147Q220 -147 248 -137T298 -110L326 -166Q296 -186 261 -199T174 -212Q102 -212 65 -170T28
-55Q28 -12 39 22T66 84T101 139T136 192T164 251T175 323H235ZM250 455Q250 427 237 413T200 399Q177 399 164 413T150 455Q150 484 163 498T200 512Q223 512 236 498T250 455Z" />
<glyph unicode="&#xc0;" glyph-name="Agrave" horiz-adv-x="473" d="M333 196H135L79 0H5L216 711H257L468 0H390L333 196ZM155 263H315L254 479L235 584H233L214 477L155 263ZM258 752H193L66 849V870H165L258 752Z" />
<glyph unicode="&#xc1;" glyph-name="Aacute" horiz-adv-x="473" d="M333 196H135L79 0H5L216 711H257L468 0H390L333 196ZM155 263H315L254 479L235 584H233L214 477L155 263ZM308 870H407V849L276 752H215L308 870Z" />
<glyph unicode="&#xc2;" glyph-name="Acircumflex" horiz-adv-x="473" d="M333 196H135L79 0H5L216 711H257L468 0H390L333 196ZM155 263H315L254 479L235 584H233L214 477L155 263ZM213 870H263L365 768V747H299L252 796L237 831L222 797L170 747H106V769L213 870Z" />
<glyph unicode="&#xc3;" glyph-name="Atilde" horiz-adv-x="473" d="M333 196H135L79 0H5L216 711H257L468 0H390L333 196ZM155 263H315L254 479L235 584H233L214 477L155 263ZM100 780Q128 814 151 826T196 839Q212 839 226 834T254 824T280 813T306 808Q317
808 327 812T349 828L375 791Q351 763 330 753T291 743Q276 743 262 748T235 758T208 769T181 774Q167 774 154 768T124 745L100 780Z" />
<glyph unicode="&#xc4;" glyph-name="Adieresis" horiz-adv-x="473" d="M333 196H135L79 0H5L216 711H257L468 0H390L333 196ZM155 263H315L254 479L235 584H233L214 477L155 263ZM111 794Q111 815 123 828T158 841Q179 841 191 828T204 794Q204 773 192 761T158
748Q136 748 124 760T111 794ZM269 794Q269 815 281 828T315 841Q337 841 349 828T362 794Q362 773 350 761T315 748Q294 748 282 760T269 794Z" />
<glyph unicode="&#xc5;" glyph-name="Aring" horiz-adv-x="473" d="M148 768Q148 805 169 829T238 852Q281 853 304 832T328 768Q328 737 312 716T264 687L468 0H390L333 196H135L79 0H5L209 687Q179 695 164 715T148 768ZM155 263H315L254 479L235 584H233L214
477L155 263ZM202 768Q202 750 210 739T238 727Q274 727 274 768Q274 811 238 812Q202 811 202 768Z" />
<glyph unicode="&#xc6;" glyph-name="AE" horiz-adv-x="683" d="M315 589L289 491L186 266H318V589H315ZM318 199H153L63 0H-18L317 700H630V631H393V394H610V325H393V69H634V0H318V199Z" />
<glyph unicode="&#xc7;" glyph-name="Ccedilla" horiz-adv-x="458" d="M430 27Q409 9 378 0T312 -11L298 -43Q363 -58 363 -118Q363 -157 335 -182T258 -208Q238 -208 221 -204L228 -165Q251 -167 264 -164T285 -155T294 -142T296 -127Q296 -99 227 -90L262 -10Q214
-6 174 16T104 82T59 192T43 350Q43 450 63 519T118 631T196 693T288 712Q336 712 367 705T422 688L404 620Q384 631 357 637T295 643Q260 643 229 628T174 578T136 487T122 350Q122 204 172 131T305 58Q339 58 366 67T412 90L430 27Z" />
<glyph unicode="&#xc8;" glyph-name="Egrave" horiz-adv-x="429" d="M64 700H375V631H139V394H356V325H139V69H380V0H64V700ZM267 752H202L75 849V870H174L267 752Z" />
<glyph unicode="&#xc9;" glyph-name="Eacute" horiz-adv-x="429" d="M64 700H375V631H139V394H356V325H139V69H380V0H64V700ZM258 870H357V849L226 752H165L258 870Z" />
<glyph unicode="&#xca;" glyph-name="Ecircumflex" horiz-adv-x="429" d="M64 700H375V631H139V394H356V325H139V69H380V0H64V700ZM192 870H242L344 768V747H278L231 796L216 831L201 797L149 747H85V769L192 870Z" />
<glyph unicode="&#xcb;" glyph-name="Edieresis" horiz-adv-x="429" d="M64 700H375V631H139V394H356V325H139V69H380V0H64V700ZM90 794Q90 815 102 828T137 841Q158 841 170 828T183 794Q183 773 171 761T137 748Q115 748 103 760T90 794ZM248 794Q248 815 260
828T294 841Q316 841 328 828T341 794Q341 773 329 761T294 748Q273 748 261 760T248 794Z" />
<glyph unicode="&#xcc;" glyph-name="Igrave" horiz-adv-x="233" d="M79 700H154V0H79V700ZM416 752H351L224 849V870H323L416 752Z" />
<glyph unicode="&#xcd;" glyph-name="Iacute" horiz-adv-x="233" d="M79 700H154V0H79V700ZM169 870H268V849L137 752H76L169 870Z" />
<glyph unicode="&#xce;" glyph-name="Icircumflex" horiz-adv-x="233" d="M79 700H154V0H79V700ZM350 870H400L502 768V747H436L389 796L374 831L359 797L307 747H243V769L350 870Z" />
<glyph unicode="&#xcf;" glyph-name="Idieresis" horiz-adv-x="233" d="M79 700H154V0H79V700ZM248 794Q248 815 260 828T295 841Q316 841 328 828T341 794Q341 773 329 761T295 748Q273 748 261 760T248 794ZM406 794Q406 815 418 828T452 841Q474 841 486 828T499
794Q499 773 487 761T452 748Q431 748 419 760T406 794Z" />
<glyph unicode="&#xd0;" glyph-name="Eth" horiz-adv-x="531" d="M-1 392H70V700Q86 703 105 704T145 706T184 707T221 708Q294 708 345 683T428 612T474 500T488 355Q488 283 475 217T429 101T345 21T213 -9Q200 -9 180 -9T139 -7T99 -4T70 -1V334H-1V392ZM225
639Q215 639 204 639T181 638T161 636T145 634V392H262V334H145V64Q149 63 159 63T181 62T203 61T219 60Q274 60 311 84T369 148T400 242T409 356Q409 409 401 460T373 550T317 614T225 639Z" />
<glyph unicode="&#xd1;" glyph-name="Ntilde" horiz-adv-x="538" d="M171 444L128 554H125L136 444V0H64V711H109L368 257L409 152H413L402 257V700H474V-11H428L171 444ZM135 780Q163 814 186 826T231 839Q247 839 261 834T289 824T315 813T341 808Q352 808 362
812T384 828L410 791Q386 763 365 753T326 743Q311 743 297 748T270 758T243 769T216 774Q202 774 189 768T159 745L135 780Z" />
<glyph unicode="&#xd2;" glyph-name="Ograve" horiz-adv-x="549" d="M43 350Q43 528 100 620T274 712Q337 712 381 687T452 614T493 500T506 350Q506 172 449 80T274 -12Q212 -12 168 13T96 86T56 200T43 350ZM122 350Q122 291 130 238T157 145T204 81T274 57Q349
57 388 129T427 350Q427 408 419 461T392 554T345 619T274 643Q200 643 161 571T122 350ZM333 752H268L141 849V870H240L333 752Z" />
<glyph unicode="&#xd3;" glyph-name="Oacute" horiz-adv-x="549" d="M43 350Q43 528 100 620T274 712Q337 712 381 687T452 614T493 500T506 350Q506 172 449 80T274 -12Q212 -12 168 13T96 86T56 200T43 350ZM122 350Q122 291 130 238T157 145T204 81T274 57Q349
57 388 129T427 350Q427 408 419 461T392 554T345 619T274 643Q200 643 161 571T122 350ZM335 870H434V849L303 752H242L335 870Z" />
<glyph unicode="&#xd4;" glyph-name="Ocircumflex" horiz-adv-x="549" d="M43 350Q43 528 100 620T274 712Q337 712 381 687T452 614T493 500T506 350Q506 172 449 80T274 -12Q212 -12 168 13T96 86T56 200T43 350ZM122 350Q122 291 130 238T157 145T204 81T274
57Q349 57 388 129T427 350Q427 408 419 461T392 554T345 619T274 643Q200 643 161 571T122 350ZM250 870H300L402 768V747H336L289 796L274 831L259 797L207 747H143V769L250 870Z" />
<glyph unicode="&#xd5;" glyph-name="Otilde" horiz-adv-x="549" d="M43 350Q43 528 100 620T274 712Q337 712 381 687T452 614T493 500T506 350Q506 172 449 80T274 -12Q212 -12 168 13T96 86T56 200T43 350ZM122 350Q122 291 130 238T157 145T204 81T274 57Q349
57 388 129T427 350Q427 408 419 461T392 554T345 619T274 643Q200 643 161 571T122 350ZM139 780Q167 814 190 826T235 839Q251 839 265 834T293 824T319 813T345 808Q356 808 366 812T388 828L414 791Q390 763 369 753T330 743Q315 743 301 748T274 758T247 769T220
774Q206 774 193 768T163 745L139 780Z" />
<glyph unicode="&#xd6;" glyph-name="Odieresis" horiz-adv-x="549" d="M43 350Q43 528 100 620T274 712Q337 712 381 687T452 614T493 500T506 350Q506 172 449 80T274 -12Q212 -12 168 13T96 86T56 200T43 350ZM122 350Q122 291 130 238T157 145T204 81T274
57Q349 57 388 129T427 350Q427 408 419 461T392 554T345 619T274 643Q200 643 161 571T122 350ZM148 794Q148 815 160 828T195 841Q216 841 228 828T241 794Q241 773 229 761T195 748Q173 748 161 760T148 794ZM306 794Q306 815 318 828T352 841Q374 841 386 828T399
794Q399 773 387 761T352 748Q331 748 319 760T306 794Z" />
<glyph unicode="&#xd7;" glyph-name="multiply" horiz-adv-x="415" d="M104 513L208 391L313 513L362 467L253 339L362 209L313 164L208 286L103 163L53 208L164 339L54 467L104 513Z" />
<glyph unicode="&#xd8;" glyph-name="Oslash" horiz-adv-x="549" d="M43 350Q43 528 100 620T274 712Q319 712 354 699T416 660L446 713L494 686L453 613Q481 565 493 499T506 350Q506 172 449 80T274 -12Q187 -12 134 38L107 -12L58 16L96 85Q68 133 56 199T43
350ZM122 350Q122 301 127 257T145 174L375 586Q357 613 332 628T274 643Q200 643 161 571T122 350ZM427 350Q427 398 422 442T404 523L175 111Q193 85 217 71T274 57Q349 57 388 129T427 350Z" />
<glyph unicode="&#xd9;" glyph-name="Ugrave" horiz-adv-x="521" d="M385 700H457V231Q457 104 408 48T267 -9Q161 -9 113 46T64 215V700H139V254Q139 200 146 163T169 103T209 70T268 60Q334 60 359 106T385 254V700ZM326 752H261L134 849V870H233L326 752Z" />
<glyph unicode="&#xda;" glyph-name="Uacute" horiz-adv-x="521" d="M385 700H457V231Q457 104 408 48T267 -9Q161 -9 113 46T64 215V700H139V254Q139 200 146 163T169 103T209 70T268 60Q334 60 359 106T385 254V700ZM311 870H410V849L279 752H218L311 870Z" />
<glyph unicode="&#xdb;" glyph-name="Ucircumflex" horiz-adv-x="521" d="M385 700H457V231Q457 104 408 48T267 -9Q161 -9 113 46T64 215V700H139V254Q139 200 146 163T169 103T209 70T268 60Q334 60 359 106T385 254V700ZM240 870H290L392 768V747H326L279 796L264
831L249 797L197 747H133V769L240 870Z" />
<glyph unicode="&#xdc;" glyph-name="Udieresis" horiz-adv-x="521" d="M385 700H457V231Q457 104 408 48T267 -9Q161 -9 113 46T64 215V700H139V254Q139 200 146 163T169 103T209 70T268 60Q334 60 359 106T385 254V700ZM136 794Q136 815 148 828T183 841Q204
841 216 828T229 794Q229 773 217 761T183 748Q161 748 149 760T136 794ZM294 794Q294 815 306 828T340 841Q362 841 374 828T387 794Q387 773 375 761T340 748Q319 748 307 760T294 794Z" />
<glyph unicode="&#xdd;" glyph-name="Yacute" horiz-adv-x="455" d="M191 278L5 700H93L219 395L232 334H234L247 397L369 700H450L266 279V0H191V278ZM282 870H381V849L250 752H189L282 870Z" />
<glyph unicode="&#xde;" glyph-name="Thorn" horiz-adv-x="451" d="M64 800H139V706Q155 707 171 707T203 708Q243 708 282 699T352 666T403 600T423 493Q423 430 405 386T356 315T286 275T204 262Q200 262 191 262T172 262T153 264T139 266V0H64V800ZM207 639Q187
639 169 638T139 633V336Q143 334 151 334T169 332T186 331T199 331Q227 331 253 338T299 363T331 413T344 493Q344 535 333 563T303 608T259 632T207 639Z" />
<glyph unicode="&#xdf;" glyph-name="germandbls" horiz-adv-x="522" d="M16 500H77V528Q77 622 104 664T195 706Q223 706 244 703T287 689L269 629Q250 637 236 639T207 641Q187 641 176 633T158 608T151 565T149 500V0H77V435H16V500ZM234 82Q254 70 281 62T338
53Q371 53 394 69T417 123Q417 154 403 174T368 210T321 239T275 272T239 317T225 383Q225 447 259 479T357 512Q398 512 428 505T480 484L461 424Q442 434 417 440T366 447Q330 447 314 432T297 385Q297 360 311 343T346 311T393 281T439 246T475 197T489 125Q489
97 480 72T453 29T407 -1T342 -12Q298 -12 266 -4T212 19L234 82Z" />
<glyph unicode="&#xe0;" glyph-name="agrave" horiz-adv-x="400" d="M54 470Q83 488 124 498T212 508Q254 508 279 496T319 462T338 413T343 355Q343 295 341 238T338 130Q338 92 340 60T350 -2H295L278 57H274Q259 31 230 12T152 -7Q98 -7 64 30T29 134Q29 177
43 206T84 253T147 278T229 286Q239 286 249 286T270 285Q273 316 273 340Q273 397 256 420T194 443Q166 443 133 435T78 413L54 470ZM271 228Q261 229 251 229T231 230Q207 230 184 226T143 212T115 185T104 142Q104 102 123 80T174 58Q216 58 239 78T271 122V228ZM244
571H203L109 699V720H192L244 571Z" />
<glyph unicode="&#xe1;" glyph-name="aacute" horiz-adv-x="400" d="M54 470Q83 488 124 498T212 508Q254 508 279 496T319 462T338 413T343 355Q343 295 341 238T338 130Q338 92 340 60T350 -2H295L278 57H274Q259 31 230 12T152 -7Q98 -7 64 30T29 134Q29 177
43 206T84 253T147 278T229 286Q239 286 249 286T270 285Q273 316 273 340Q273 397 256 420T194 443Q166 443 133 435T78 413L54 470ZM271 228Q261 229 251 229T231 230Q207 230 184 226T143 212T115 185T104 142Q104 102 123 80T174 58Q216 58 239 78T271 122V228ZM194
720H272V699L190 571H147L194 720Z" />
<glyph unicode="&#xe2;" glyph-name="acircumflex" horiz-adv-x="400" d="M54 470Q83 488 124 498T212 508Q254 508 279 496T319 462T338 413T343 355Q343 295 341 238T338 130Q338 92 340 60T350 -2H295L278 57H274Q259 31 230 12T152 -7Q98 -7 64 30T29 134Q29
177 43 206T84 253T147 278T229 286Q239 286 249 286T270 285Q273 316 273 340Q273 397 256 420T194 443Q166 443 133 435T78 413L54 470ZM271 228Q261 229 251 229T231 230Q207 230 184 226T143 212T115 185T104 142Q104 102 123 80T174 58Q216 58 239 78T271
122V228ZM190 732H225L314 550H251L219 616L203 674L186 616L150 550H91L190 732Z" />
<glyph unicode="&#xe3;" glyph-name="atilde" horiz-adv-x="400" d="M54 470Q83 488 124 498T212 508Q254 508 279 496T319 462T338 413T343 355Q343 295 341 238T338 130Q338 92 340 60T350 -2H295L278 57H274Q259 31 230 12T152 -7Q98 -7 64 30T29 134Q29 177
43 206T84 253T147 278T229 286Q239 286 249 286T270 285Q273 316 273 340Q273 397 256 420T194 443Q166 443 133 435T78 413L54 470ZM271 228Q261 229 251 229T231 230Q207 230 184 226T143 212T115 185T104 142Q104 102 123 80T174 58Q216 58 239 78T271 122V228ZM80
653Q107 687 128 699T166 712Q180 712 192 706T215 694T237 681T260 675Q269 675 278 679T299 696L322 658Q298 629 280 618T245 607Q231 607 219 612T196 625T173 637T150 643Q139 643 128 638T104 618L80 653Z" />
<glyph unicode="&#xe4;" glyph-name="adieresis" horiz-adv-x="400" d="M54 470Q83 488 124 498T212 508Q254 508 279 496T319 462T338 413T343 355Q343 295 341 238T338 130Q338 92 340 60T350 -2H295L278 57H274Q259 31 230 12T152 -7Q98 -7 64 30T29 134Q29
177 43 206T84 253T147 278T229 286Q239 286 249 286T270 285Q273 316 273 340Q273 397 256 420T194 443Q166 443 133 435T78 413L54 470ZM271 228Q261 229 251 229T231 230Q207 230 184 226T143 212T115 185T104 142Q104 102 123 80T174 58Q216 58 239 78T271
122V228ZM78 653Q78 676 89 689T121 702Q141 702 152 689T164 653Q164 632 153 619T121 606Q101 606 90 619T78 653ZM237 653Q237 676 248 689T280 702Q300 702 311 689T323 653Q323 632 312 619T280 606Q260 606 249 619T237 653Z" />
<glyph unicode="&#xe5;" glyph-name="aring" horiz-adv-x="400" d="M54 470Q83 488 124 498T212 508Q254 508 279 496T319 462T338 413T343 355Q343 295 341 238T338 130Q338 92 340 60T350 -2H295L278 57H274Q259 31 230 12T152 -7Q98 -7 64 30T29 134Q29 177
43 206T84 253T147 278T229 286Q239 286 249 286T270 285Q273 316 273 340Q273 397 256 420T194 443Q166 443 133 435T78 413L54 470ZM271 228Q261 229 251 229T231 230Q207 230 184 226T143 212T115 185T104 142Q104 102 123 80T174 58Q216 58 239 78T271 122V228ZM118
643Q118 685 140 708T200 732Q236 732 259 711T283 643Q283 603 261 579T200 555Q162 555 140 577T118 643ZM166 643Q166 620 176 609T200 597Q216 597 225 608T235 643Q235 667 225 678T200 690Q186 690 176 679T166 643Z" />
<glyph unicode="&#xe6;" glyph-name="ae" horiz-adv-x="642" d="M173 57Q194 57 210 63T239 80T259 103T271 129V230Q261 231 251 231T231 232Q207 232 184 228T143 214T115 187T104 144Q104 109 123 83T173 57ZM294 73Q274 38 240 15T154 -8Q98 -8 64 31T29 136Q29
180 43 209T84 256T146 281T226 289Q237 289 248 289T270 287Q273 318 273 342Q273 399 256 421T194 444Q166 444 132 434T75 408L53 464Q84 487 125 497T212 508Q296 508 321 444Q341 480 376 496T447 512Q475 512 502 505T552 476T587 416T601 316Q601 299 600
280T596 240H343Q344 148 371 101T466 53Q494 53 521 63T562 85L588 32Q563 12 527 0T447 -12Q397 -12 358 9T300 73H294ZM447 447Q402 447 375 411T343 299H531Q533 374 511 410T447 447Z" />
<glyph unicode="&#xe7;" glyph-name="ccedilla" horiz-adv-x="356" d="M335 25Q315 10 291 2T241 -10L227 -43Q292 -58 292 -118Q292 -157 264 -182T187 -208Q167 -208 150 -204L157 -165Q180 -167 193 -164T214 -155T223 -142T225 -127Q225 -99 156 -90L191 -11Q149
-7 120 13T72 67T46 147T37 250Q37 378 82 445T213 512Q252 512 280 505T328 487L308 425Q270 447 221 447Q167 447 140 400T112 250Q112 209 118 174T138 112T174 70T229 55Q255 55 277 63T314 84L335 25Z" />
<glyph unicode="&#xe8;" glyph-name="egrave" horiz-adv-x="413" d="M358 34Q334 12 297 0T219 -12Q172 -12 138 6T81 59T48 142T37 250Q37 378 84 445T217 512Q245 512 272 505T322 477T357 418T371 319Q371 302 370 283T366 242H112Q112 199 119 164T141 105T179
67T238 53Q265 53 291 63T332 87L358 34ZM302 302Q304 377 281 412T218 447Q172 447 145 412T113 302H302ZM261 571H220L126 699V720H209L261 571Z" />
<glyph unicode="&#xe9;" glyph-name="eacute" horiz-adv-x="413" d="M358 34Q334 12 297 0T219 -12Q172 -12 138 6T81 59T48 142T37 250Q37 378 84 445T217 512Q245 512 272 505T322 477T357 418T371 319Q371 302 370 283T366 242H112Q112 199 119 164T141 105T179
67T238 53Q265 53 291 63T332 87L358 34ZM302 302Q304 377 281 412T218 447Q172 447 145 412T113 302H302ZM232 720H310V699L228 571H185L232 720Z" />
<glyph unicode="&#xea;" glyph-name="ecircumflex" horiz-adv-x="413" d="M358 34Q334 12 297 0T219 -12Q172 -12 138 6T81 59T48 142T37 250Q37 378 84 445T217 512Q245 512 272 505T322 477T357 418T371 319Q371 302 370 283T366 242H112Q112 199 119 164T141
105T179 67T238 53Q265 53 291 63T332 87L358 34ZM302 302Q304 377 281 412T218 447Q172 447 145 412T113 302H302ZM197 732H232L321 550H258L226 616L210 674L193 616L157 550H98L197 732Z" />
<glyph unicode="&#xeb;" glyph-name="edieresis" horiz-adv-x="413" d="M358 34Q334 12 297 0T219 -12Q172 -12 138 6T81 59T48 142T37 250Q37 378 84 445T217 512Q245 512 272 505T322 477T357 418T371 319Q371 302 370 283T366 242H112Q112 199 119 164T141
105T179 67T238 53Q265 53 291 63T332 87L358 34ZM302 302Q304 377 281 412T218 447Q172 447 145 412T113 302H302ZM93 653Q93 676 104 689T136 702Q156 702 167 689T179 653Q179 632 168 619T136 606Q116 606 105 619T93 653ZM252 653Q252 676 263 689T295 702Q315
702 326 689T338 653Q338 632 327 619T295 606Q275 606 264 619T252 653Z" />
<glyph unicode="&#xec;" glyph-name="igrave" horiz-adv-x="217" d="M72 500H144V0H72V500ZM396 571H355L261 699V720H344L396 571Z" />
<glyph unicode="&#xed;" glyph-name="iacute" horiz-adv-x="217" d="M72 500H144V0H72V500ZM123 720H201V699L119 571H76L123 720Z" />
<glyph unicode="&#xee;" glyph-name="icircumflex" horiz-adv-x="217" d="M72 500H144V0H72V500ZM350 732H385L474 550H411L379 616L363 674L346 616L310 550H251L350 732Z" />
<glyph unicode="&#xef;" glyph-name="idieresis" horiz-adv-x="217" d="M72 500H144V0H72V500ZM241 653Q241 676 252 689T284 702Q304 702 315 689T327 653Q327 632 316 619T284 606Q264 606 253 619T241 653ZM400 653Q400 676 411 689T443 702Q463 702 474 689T486
653Q486 632 475 619T443 606Q423 606 412 619T400 653Z" />
<glyph unicode="&#xf0;" glyph-name="eth" horiz-adv-x="450" d="M162 569L195 643Q156 655 111 654V712Q140 712 167 709T219 698L244 754L286 734L262 681Q296 662 323 631T370 553T399 443T409 297Q409 211 395 152T355 57T297 4T224 -12Q176 -12 141 7T84
60T52 143T41 251Q41 308 53 355T88 437T145 491T222 510Q257 510 286 498T328 468Q318 518 296 558T236 622L204 551L162 569ZM116 251Q116 146 147 100T229 53Q252 53 271 66T305 107T328 181T337 290Q337 300 337 314T336 343T334 371T331 392Q317 418 288 431T230
445Q200 445 179 431T143 391T123 330T116 251Z" />
<glyph unicode="&#xf1;" glyph-name="ntilde" horiz-adv-x="439" d="M315 0V305Q315 380 298 413T235 447Q195 447 169 423T131 364V0H59V500H111L124 447H127Q146 474 178 493T256 512Q288 512 312 503T353 473T378 415T387 324V0H315ZM100 653Q127 687 148 699T186
712Q200 712 212 706T235 694T257 681T280 675Q289 675 298 679T319 696L342 658Q318 629 300 618T265 607Q251 607 239 612T216 625T193 637T170 643Q159 643 148 638T124 618L100 653Z" />
<glyph unicode="&#xf2;" glyph-name="ograve" d="M37 250Q37 385 83 448T216 512Q308 512 351 447T395 250Q395 114 348 51T216 -12Q124 -12 81 53T37 250ZM112 250Q112 206 117 170T135 108T168 68T216 53Q268 53 294 99T320 250Q320 293 315 329T297 392T264
432T216 447Q165 447 139 400T112 250ZM254 571H213L119 699V720H202L254 571Z" />
<glyph unicode="&#xf3;" glyph-name="oacute" d="M37 250Q37 385 83 448T216 512Q308 512 351 447T395 250Q395 114 348 51T216 -12Q124 -12 81 53T37 250ZM112 250Q112 206 117 170T135 108T168 68T216 53Q268 53 294 99T320 250Q320 293 315 329T297 392T264
432T216 447Q165 447 139 400T112 250ZM227 720H305V699L223 571H180L227 720Z" />
<glyph unicode="&#xf4;" glyph-name="ocircumflex" d="M37 250Q37 385 83 448T216 512Q308 512 351 447T395 250Q395 114 348 51T216 -12Q124 -12 81 53T37 250ZM112 250Q112 206 117 170T135 108T168 68T216 53Q268 53 294 99T320 250Q320 293 315 329T297 392T264
432T216 447Q165 447 139 400T112 250ZM206 732H241L330 550H267L235 616L219 674L202 616L166 550H107L206 732Z" />
<glyph unicode="&#xf5;" glyph-name="otilde" d="M37 250Q37 385 83 448T216 512Q308 512 351 447T395 250Q395 114 348 51T216 -12Q124 -12 81 53T37 250ZM112 250Q112 206 117 170T135 108T168 68T216 53Q268 53 294 99T320 250Q320 293 315 329T297 392T264
432T216 447Q165 447 139 400T112 250ZM96 653Q123 687 144 699T182 712Q196 712 208 706T231 694T253 681T276 675Q285 675 294 679T315 696L338 658Q314 629 296 618T261 607Q247 607 235 612T212 625T189 637T166 643Q155 643 144 638T120 618L96 653Z" />
<glyph unicode="&#xf6;" glyph-name="odieresis" d="M37 250Q37 385 83 448T216 512Q308 512 351 447T395 250Q395 114 348 51T216 -12Q124 -12 81 53T37 250ZM112 250Q112 206 117 170T135 108T168 68T216 53Q268 53 294 99T320 250Q320 293 315 329T297 392T264
432T216 447Q165 447 139 400T112 250ZM92 653Q92 676 103 689T135 702Q155 702 166 689T178 653Q178 632 167 619T135 606Q115 606 104 619T92 653ZM251 653Q251 676 262 689T294 702Q314 702 325 689T337 653Q337 632 326 619T294 606Q274 606 263 619T251 653Z"
/>
<glyph unicode="&#xf7;" glyph-name="divide" horiz-adv-x="415" d="M35 373H379V306H35V373ZM159 510Q159 538 172 552T209 566Q232 566 245 552T259 510Q259 481 246 467T209 453Q186 453 173 467T159 510ZM159 170Q159 198 172 212T209 226Q232 226 245 212T259
170Q259 141 246 127T209 113Q186 113 173 127T159 170Z" />
<glyph unicode="&#xf8;" glyph-name="oslash" horiz-adv-x="436" d="M40 250Q40 381 86 446T219 512Q277 512 317 483L336 515L385 485L358 437Q378 404 388 357T398 250Q398 117 352 53T219 -12Q157 -12 116 20L95 -14L46 18L76 69Q40 135 40 250ZM323 250Q323
282 321 310T311 362L151 87Q177 53 219 53Q271 53 297 100T323 250ZM115 250Q115 220 117 193T125 143L282 418Q270 432 255 439T219 447Q168 447 142 400T115 250Z" />
<glyph unicode="&#xf9;" glyph-name="ugrave" horiz-adv-x="434" d="M124 500V194Q124 118 139 86T196 53Q217 53 233 61T263 84T286 116T302 153V500H374V142Q374 106 376 68T384 0H333L315 70H312Q295 37 263 13T183 -12Q151 -12 127 -4T86 25T61 82T52 176V500H124ZM249
571H208L114 699V720H197L249 571Z" />
<glyph unicode="&#xfa;" glyph-name="uacute" horiz-adv-x="434" d="M124 500V194Q124 118 139 86T196 53Q217 53 233 61T263 84T286 116T302 153V500H374V142Q374 106 376 68T384 0H333L315 70H312Q295 37 263 13T183 -12Q151 -12 127 -4T86 25T61 82T52 176V500H124ZM226
720H304V699L222 571H179L226 720Z" />
<glyph unicode="&#xfb;" glyph-name="ucircumflex" horiz-adv-x="434" d="M124 500V194Q124 118 139 86T196 53Q217 53 233 61T263 84T286 116T302 153V500H374V142Q374 106 376 68T384 0H333L315 70H312Q295 37 263 13T183 -12Q151 -12 127 -4T86 25T61 82T52
176V500H124ZM203 732H238L327 550H264L232 616L216 674L199 616L163 550H104L203 732Z" />
<glyph unicode="&#xfc;" glyph-name="udieresis" horiz-adv-x="434" d="M124 500V194Q124 118 139 86T196 53Q217 53 233 61T263 84T286 116T302 153V500H374V142Q374 106 376 68T384 0H333L315 70H312Q295 37 263 13T183 -12Q151 -12 127 -4T86 25T61 82T52 176V500H124ZM91
653Q91 676 102 689T134 702Q154 702 165 689T177 653Q177 632 166 619T134 606Q114 606 103 619T91 653ZM250 653Q250 676 261 689T293 702Q313 702 324 689T336 653Q336 632 325 619T293 606Q273 606 262 619T250 653Z" />
<glyph unicode="&#xfd;" glyph-name="yacute" horiz-adv-x="376" d="M183 177L204 80H209L224 177L300 500H373L254 51Q240 -3 226 -50T196 -131T159 -185T110 -205Q82 -205 61 -196L73 -128Q87 -133 101 -130T127 -113T150 -72T169 0L7 500H89L183 177ZM219 720H297V699L215
571H172L219 720Z" />
<glyph unicode="&#xfe;" glyph-name="thorn" horiz-adv-x="435" d="M59 700H131V460H134Q150 484 176 498T241 512Q320 512 359 453T398 260Q398 197 385 147T348 61T290 7T214 -12Q185 -12 167 -8T131 5V-200H59V700ZM224 447Q189 447 165 425T131 362V78Q145
66 162 60T209 53Q262 53 292 107T323 261Q323 303 318 337T301 395T270 433T224 447Z" />
<glyph unicode="&#xff;" glyph-name="ydieresis" horiz-adv-x="376" d="M183 177L204 80H209L224 177L300 500H373L254 51Q240 -3 226 -50T196 -131T159 -185T110 -205Q82 -205 61 -196L73 -128Q87 -133 101 -130T127 -113T150 -72T169 0L7 500H89L183 177ZM66
653Q66 676 77 689T109 702Q129 702 140 689T152 653Q152 632 141 619T109 606Q89 606 78 619T66 653ZM225 653Q225 676 236 689T268 702Q288 702 299 689T311 653Q311 632 300 619T268 606Q248 606 237 619T225 653Z" />
<glyph unicode="&#x100;" glyph-name="Amacron" horiz-adv-x="473" d="M333 196H135L79 0H5L216 711H257L468 0H390L333 196ZM155 263H315L254 479L235 584H233L214 477L155 263ZM107 823H366V761H107V823Z" />
<glyph unicode="&#x101;" glyph-name="amacron" horiz-adv-x="400" d="M54 470Q83 488 124 498T212 508Q254 508 279 496T319 462T338 413T343 355Q343 295 341 238T338 130Q338 92 340 60T350 -2H295L278 57H274Q259 31 230 12T152 -7Q98 -7 64 30T29 134Q29
177 43 206T84 253T147 278T229 286Q239 286 249 286T270 285Q273 316 273 340Q273 397 256 420T194 443Q166 443 133 435T78 413L54 470ZM271 228Q261 229 251 229T231 230Q207 230 184 226T143 212T115 185T104 142Q104 102 123 80T174 58Q216 58 239 78T271
122V228ZM76 643H319V583H76V643Z" />
<glyph unicode="&#x102;" glyph-name="Abreve" horiz-adv-x="473" d="M333 196H135L79 0H5L216 711H257L468 0H390L333 196ZM155 263H315L254 479L235 584H233L214 477L155 263ZM133 871Q147 837 175 816T241 795Q280 795 305 817T344 871L380 855Q365 792 326
761T240 730Q197 730 156 759T95 851L133 871Z" />
<glyph unicode="&#x103;" glyph-name="abreve" horiz-adv-x="400" d="M54 470Q83 488 124 498T212 508Q254 508 279 496T319 462T338 413T343 355Q343 295 341 238T338 130Q338 92 340 60T350 -2H295L278 57H274Q259 31 230 12T152 -7Q98 -7 64 30T29 134Q29 177
43 206T84 253T147 278T229 286Q239 286 249 286T270 285Q273 316 273 340Q273 397 256 420T194 443Q166 443 133 435T78 413L54 470ZM271 228Q261 229 251 229T231 230Q207 230 184 226T143 212T115 185T104 142Q104 102 123 80T174 58Q216 58 239 78T271 122V228ZM114
717Q128 681 152 660T205 638Q233 638 254 659T289 717L326 702Q324 676 314 653T287 612T250 584T204 573Q157 573 122 606T75 699L114 717Z" />
<glyph unicode="&#x104;" glyph-name="Aogonek" horiz-adv-x="473" d="M333 196H135L79 0H5L216 711H257L468 0H447Q425 -16 413 -38T400 -88Q401 -117 419 -132T475 -133L485 -173Q474 -184 454 -190T414 -196Q374 -196 351 -172T328 -110Q328 -72 346 -45T395
0H390L333 196ZM155 263H315L254 479L235 584H233L214 477L155 263Z" />
<glyph unicode="&#x105;" glyph-name="aogonek" horiz-adv-x="400" d="M54 470Q83 488 124 498T212 508Q254 508 279 496T319 462T338 413T343 355Q343 295 341 238T338 130Q338 92 340 60T350 -2H331Q310 -18 298 -39T286 -88Q287 -117 305 -132T361 -133L371
-173Q360 -184 340 -190T300 -196Q260 -196 237 -172T213 -110Q213 -68 235 -40T292 6L278 57H274Q259 31 230 12T152 -7Q98 -7 64 30T29 134Q29 177 43 206T84 253T147 278T229 286Q239 286 249 286T270 285Q273 316 273 341Q273 398 256 420T194 443Q166 443
133 435T78 413L54 470ZM271 228Q261 229 251 229T230 230Q206 230 183 226T143 212T115 185T104 142Q104 102 123 80T173 58Q215 58 238 78T271 122V228Z" />
<glyph unicode="&#x106;" glyph-name="Cacute" horiz-adv-x="458" d="M430 27Q405 6 367 -3T287 -12Q234 -12 189 8T112 71T61 184T43 350Q43 450 63 519T118 631T196 693T288 712Q336 712 367 705T422 688L404 620Q384 631 357 637T295 643Q260 643 229 628T174
578T136 487T122 350Q122 204 172 131T305 57Q339 57 366 66T412 89L430 27ZM331 870H430V849L299 752H238L331 870Z" />
<glyph unicode="&#x107;" glyph-name="cacute" horiz-adv-x="356" d="M335 25Q310 6 278 -3T211 -12Q163 -12 130 6T77 59T47 142T37 250Q37 378 82 445T213 512Q252 512 280 505T328 487L308 424Q268 447 221 447Q167 447 140 400T112 250Q112 209 118 173T138
111T174 69T229 53Q255 53 277 62T314 83L335 25ZM232 720H310V699L228 571H185L232 720Z" />
<glyph unicode="&#x10c;" glyph-name="Ccaron" horiz-adv-x="458" d="M430 27Q405 6 367 -3T287 -12Q234 -12 189 8T112 71T61 184T43 350Q43 450 63 519T118 631T196 693T288 712Q336 712 367 705T422 688L404 620Q384 631 357 637T295 643Q260 643 229 628T174
578T136 487T122 350Q122 204 172 131T305 57Q339 57 366 66T412 89L430 27ZM308 746H255L153 849V870H222L269 820L283 786L298 819L348 870H414V848L308 746Z" />
<glyph unicode="&#x10d;" glyph-name="ccaron" horiz-adv-x="356" d="M335 25Q310 6 278 -3T211 -12Q163 -12 130 6T77 59T47 142T37 250Q37 378 82 445T213 512Q252 512 280 505T328 487L308 424Q268 447 221 447Q167 447 140 400T112 250Q112 209 118 173T138
111T174 69T229 53Q255 53 277 62T314 83L335 25ZM222 550H184L91 732H159L190 666L207 608L224 666L260 732H321L222 550Z" />
<glyph unicode="&#x10e;" glyph-name="Dcaron" horiz-adv-x="525" d="M64 700Q80 703 99 704T139 706T178 707T215 708Q288 708 339 683T422 612T468 500T482 355Q482 283 469 217T423 101T339 21T207 -9Q194 -9 174 -9T133 -7T93 -4T64 -1V700ZM219 639Q209 639
198 639T175 638T155 636T139 634V64Q143 63 153 63T175 62T197 61T213 60Q268 60 305 84T363 148T394 242T403 356Q403 409 395 460T367 550T311 614T219 639ZM244 746H191L89 849V870H158L205 820L219 786L234 819L284 870H350V848L244 746Z" />
<glyph unicode="&#x10f;" glyph-name="dcaron" horiz-adv-x="464" d="M374 172Q374 121 375 80T382 -2H333L317 58H313Q299 28 269 8T197 -12Q116 -12 77 51T37 249Q37 377 85 443T219 509Q248 509 265 506T302 494V700H374V172ZM302 421Q288 433 271 438T224
444Q171 444 142 396T112 248Q112 204 117 169T134 107T164 67T210 53Q282 53 302 138V421ZM504 700Q502 671 494 641T475 585T453 540T434 511L404 526Q418 562 425 608T432 700H504Z" />
<glyph unicode="&#x110;" glyph-name="Dcroat" horiz-adv-x="531" d="M-1 392H70V700Q86 703 105 704T145 706T184 707T221 708Q294 708 345 683T428 612T474 500T488 355Q488 283 475 217T429 101T345 21T213 -9Q200 -9 180 -9T139 -7T99 -4T70 -1V334H-1V392ZM225
639Q215 639 204 639T181 638T161 636T145 634V392H262V334H145V64Q149 63 159 63T181 62T203 61T219 60Q274 60 311 84T369 148T400 242T409 356Q409 409 401 460T373 550T317 614T225 639Z" />
<glyph unicode="&#x111;" glyph-name="" horiz-adv-x="434" d="M374 632H438V574H374V172Q374 121 375 80T382 -2H333L317 58H313Q299 28 269 8T197 -12Q116 -12 77 51T37 249Q37 377 85 443T219 509Q248 509 265 506T302 494V574H177V632H302V700H374V632ZM302
421Q288 433 271 438T224 444Q171 444 142 396T112 248Q112 204 117 169T134 107T164 67T210 53Q282 53 302 138V421Z" />
<glyph unicode="&#x112;" glyph-name="Emacron" horiz-adv-x="429" d="M64 700H375V631H139V394H356V325H139V69H380V0H64V700ZM84 823H343V761H84V823Z" />
<glyph unicode="&#x113;" glyph-name="emacron" horiz-adv-x="413" d="M358 34Q334 12 297 0T219 -12Q172 -12 138 6T81 59T48 142T37 250Q37 378 84 445T217 512Q245 512 272 505T322 477T357 418T371 319Q371 302 370 283T366 242H112Q112 199 119 164T141 105T179
67T238 53Q265 53 291 63T332 87L358 34ZM302 302Q304 377 281 412T218 447Q172 447 145 412T113 302H302ZM85 643H328V583H85V643Z" />
<glyph unicode="&#x116;" glyph-name="Edotaccent" horiz-adv-x="429" d="M64 700H375V631H139V394H356V325H139V69H380V0H64V700ZM166 797Q166 818 180 833T220 849Q246 849 260 834T275 797Q275 774 261 759T220 744Q194 744 180 759T166 797Z" />
<glyph unicode="&#x117;" glyph-name="edotaccent" horiz-adv-x="413" d="M358 34Q334 12 297 0T219 -12Q172 -12 138 6T81 59T48 142T37 250Q37 378 84 445T217 512Q245 512 272 505T322 477T357 418T371 319Q371 302 370 283T366 242H112Q112 199 119 164T141
105T179 67T238 53Q265 53 291 63T332 87L358 34ZM302 302Q304 377 281 412T218 447Q172 447 145 412T113 302H302ZM167 652Q167 676 180 691T216 706Q238 706 252 692T267 652Q267 628 253 615T216 601Q194 601 181 615T167 652Z" />
<glyph unicode="&#x118;" glyph-name="Eogonek" horiz-adv-x="429" d="M64 700H375V631H139V394H356V325H139V69H380V0H349Q327 -16 315 -38T302 -88Q303 -117 321 -132T377 -133L387 -173Q376 -184 356 -190T316 -196Q276 -196 253 -172T229 -110Q229 -72 247
-45T297 0H64V700Z" />
<glyph unicode="&#x119;" glyph-name="eogonek" horiz-adv-x="409" d="M358 34Q348 25 337 18T311 5Q287 -11 272 -34T258 -87Q258 -101 263 -112T277 -130T301 -137T333 -128L343 -171Q331 -183 310 -189T269 -195Q231 -195 209 -171T187 -106Q187 -76 200 -52T236
-11Q231 -12 227 -12T219 -12Q172 -12 138 6T81 59T48 142T37 250Q37 378 84 445T217 512Q245 512 272 505T322 477T357 418T371 319Q371 302 370 283T366 242H112Q112 199 119 164T141 105T179 67T238 53Q265 53 291 63T332 87L358 34ZM302 302Q304 377 281 412T218
447Q172 447 145 412T113 302H302Z" />
<glyph unicode="&#x11a;" glyph-name="Ecaron" horiz-adv-x="429" d="M64 700H375V631H139V394H356V325H139V69H380V0H64V700ZM242 746H189L87 849V870H156L203 820L217 786L232 819L282 870H348V848L242 746Z" />
<glyph unicode="&#x11b;" glyph-name="ecaron" horiz-adv-x="413" d="M358 34Q334 12 297 0T219 -12Q172 -12 138 6T81 59T48 142T37 250Q37 378 84 445T217 512Q245 512 272 505T322 477T357 418T371 319Q371 302 370 283T366 242H112Q112 199 119 164T141 105T179
67T238 53Q265 53 291 63T332 87L358 34ZM302 302Q304 377 281 412T218 447Q172 447 145 412T113 302H302ZM229 550H191L98 732H166L197 666L214 608L231 666L267 732H328L229 550Z" />
<glyph unicode="&#x11e;" glyph-name="Gbreve" horiz-adv-x="492" d="M257 349H450V41Q422 15 378 2T289 -12Q233 -12 188 9T110 74T61 187T43 350Q43 448 64 516T120 628T201 692T295 712Q343 712 375 706T431 688L413 620Q393 631 366 637T302 643Q267 643 235
628T178 579T137 488T122 350Q122 200 169 129T300 57Q352 57 386 82V286L257 305V349ZM178 871Q192 837 220 816T286 795Q325 795 350 817T389 871L425 855Q410 792 371 761T285 730Q242 730 201 759T140 851L178 871Z" />
<glyph unicode="&#x11f;" glyph-name="gbreve" d="M374 -23Q374 -120 331 -166T206 -212Q156 -212 124 -204T72 -184L93 -122Q113 -131 137 -139T196 -147Q257 -147 279 -113T302 1V38H299Q283 15 258 2T194 -11Q113 -11 75 51T37 248Q37 377 86 443T233 509Q280
509 314 500T374 479V-23ZM302 428Q272 444 225 444Q174 444 143 398T112 249Q112 207 117 172T134 110T164 69T210 54Q248 54 270 74T302 134V428ZM133 717Q147 681 171 660T224 638Q252 638 273 659T308 717L345 702Q343 676 333 653T306 612T269 584T223 573Q176
573 141 606T94 699L133 717Z" />
<glyph unicode="&#x122;" glyph-name="Gcommaaccent" horiz-adv-x="492" d="M257 349H450V41Q422 15 378 2T289 -12Q233 -12 188 9T110 74T61 187T43 350Q43 448 64 516T120 628T201 692T295 712Q343 712 375 706T431 688L413 620Q393 631 366 637T302 643Q267
643 235 628T178 579T137 488T122 350Q122 200 169 129T300 57Q352 57 386 82V286L257 305V349ZM238 -102Q238 -81 251 -68T282 -55Q304 -55 320 -72T336 -130Q336 -156 329 -175T311 -209T289 -232T268 -245L241 -218Q258 -205 269 -187T280 -144Q263 -146 251
-135T238 -102Z" />
<glyph unicode="&#x123;" glyph-name="gcommaaccent" d="M374 -23Q374 -120 331 -166T206 -212Q156 -212 124 -204T72 -184L93 -122Q113 -131 137 -139T196 -147Q257 -147 279 -113T302 1V38H299Q283 15 258 2T194 -11Q113 -11 75 51T37 248Q37 377 86 443T233
509Q280 509 314 500T374 479V-23ZM302 428Q272 444 225 444Q174 444 143 398T112 249Q112 207 117 172T134 110T164 69T210 54Q248 54 270 74T302 134V428ZM280 609Q280 588 268 575T237 562Q215 562 199 579T183 637Q183 661 190 680T208 714T230 738T251 752L277
722Q261 713 250 694T238 650Q255 655 267 643T280 609Z" />
<glyph unicode="&#x126;" glyph-name="Hbar" horiz-adv-x="549" d="M8 585H71V700H146V585H404V700H479V585H542V525H479V0H404V323H146V0H71V525H8V585ZM404 392V525H146V392H404Z" />
<glyph unicode="&#x127;" glyph-name="hbar" horiz-adv-x="441" d="M-4 632H60V700H132V632H261V574H132V453H135Q155 479 184 495T258 512Q291 512 315 503T356 472T380 414T388 323V0H316V304Q316 374 300 410T234 447Q199 447 171 422T132 359V0H60V574H-4V632Z" />
<glyph unicode="&#x12a;" glyph-name="Imacron" horiz-adv-x="233" d="M79 700H154V0H79V700ZM244 823H503V761H244V823Z" />
<glyph unicode="&#x12b;" glyph-name="imacron" horiz-adv-x="217" d="M72 500H144V0H72V500ZM244 643H487V583H244V643Z" />
<glyph unicode="&#x12e;" glyph-name="Iogonek" horiz-adv-x="234" d="M79 700H154V0H141Q121 -15 109 -36T97 -88Q97 -116 115 -132T171 -133L181 -172Q169 -184 149 -189T109 -195Q71 -195 47 -172T23 -108Q23 -73 41 -45T91 0H79V700Z" />
<glyph unicode="&#x12f;" glyph-name="iogonek" horiz-adv-x="217" d="M72 500H144V0H130Q110 -16 97 -38T85 -88Q85 -102 90 -113T105 -132T129 -139T161 -129L170 -172Q158 -184 137 -189T96 -195Q58 -195 36 -172T14 -107Q14 -72 31 -45T79 0H72V500ZM58 652Q58
676 71 691T107 706Q129 706 143 692T158 652Q158 628 144 615T107 601Q85 601 72 615T58 652Z" />
<glyph unicode="&#x130;" glyph-name="Idot" horiz-adv-x="233" d="M79 700H154V0H79V700ZM62 797Q62 818 76 833T116 849Q142 849 156 834T171 797Q171 774 157 759T116 744Q90 744 76 759T62 797Z" />
<glyph unicode="&#x131;" glyph-name="dotlessi" horiz-adv-x="217" d="M72 500H144V0H72V500Z" />
<glyph unicode="&#x136;" glyph-name="Kcommaaccent" horiz-adv-x="493" d="M175 324H139V0H64V700H139V374L174 388L356 700H442L259 398L224 366L265 326L468 0H373L175 324ZM188 -102Q188 -81 201 -68T232 -55Q254 -55 270 -72T286 -130Q286 -156 279 -175T261
-209T239 -232T218 -245L191 -218Q208 -205 219 -187T230 -144Q213 -146 201 -135T188 -102Z" />
<glyph unicode="&#x137;" glyph-name="kcommaaccent" horiz-adv-x="388" d="M168 225H131V0H59V700H131V274L164 288L281 500H364L246 298L211 266L252 227L381 0H294L168 225ZM146 -102Q146 -81 159 -68T190 -55Q212 -55 228 -72T244 -130Q244 -156 237 -175T219
-209T197 -232T176 -245L149 -218Q166 -205 177 -187T188 -144Q171 -146 159 -135T146 -102Z" />
<glyph unicode="&#x139;" glyph-name="Lacute" horiz-adv-x="415" d="M401 0H64V700H139V69H401V0ZM173 870H272V849L141 752H80L173 870Z" />
<glyph unicode="&#x13a;" glyph-name="lacute" horiz-adv-x="233" d="M136 119Q136 84 145 69T172 54Q193 54 221 65L228 7Q215 -1 192 -6T149 -11Q111 -11 88 12T64 95V700H136V119ZM162 870H261V849L130 752H69L162 870Z" />
<glyph unicode="&#x13b;" glyph-name="Lcommaaccent" horiz-adv-x="415" d="M401 0H64V700H139V69H401V0ZM154 -102Q154 -81 167 -68T198 -55Q220 -55 236 -72T252 -130Q252 -156 245 -175T227 -209T205 -232T184 -245L157 -218Q174 -205 185 -187T196 -144Q179
-146 167 -135T154 -102Z" />
<glyph unicode="&#x13c;" glyph-name="lcommaaccent" horiz-adv-x="233" d="M136 119Q136 84 145 69T172 54Q193 54 221 65L228 7Q215 -1 192 -6T149 -11Q111 -11 88 12T64 95V700H136V119ZM92 -102Q92 -81 105 -68T136 -55Q158 -55 174 -72T190 -130Q190 -156
183 -175T165 -209T143 -232T122 -245L95 -218Q112 -205 123 -187T134 -144Q117 -146 105 -135T92 -102Z" />
<glyph unicode="&#x13d;" glyph-name="Lcaron" horiz-adv-x="415" d="M401 0H64V700H139V69H401V0ZM355 700Q353 671 345 641T326 585T304 540T285 511L255 526Q269 562 276 608T283 700H355Z" />
<glyph unicode="&#x13e;" glyph-name="lcaron" horiz-adv-x="239" d="M136 119Q136 84 145 69T172 54Q193 54 221 65L228 7Q215 -1 192 -6T149 -11Q111 -11 88 12T64 95V700H136V119ZM266 700Q264 671 256 641T237 585T215 540T196 511L166 526Q180 562 187 608T194
700H266Z" />
<glyph unicode="&#x141;" glyph-name="Lslash" horiz-adv-x="418" d="M15 290L67 338V700H142V407L232 491V408L142 326V69H404V0H67V258L15 211V290Z" />
<glyph unicode="&#x142;" glyph-name="lslash" horiz-adv-x="234" d="M8 288L68 343V700H140V410L225 489V406L140 329V119Q140 84 149 69T176 54Q197 54 225 65L232 7Q219 -1 196 -6T153 -11Q115 -11 92 12T68 95V263L8 209V288Z" />
<glyph unicode="&#x143;" glyph-name="Nacute" horiz-adv-x="538" d="M171 444L128 554H125L136 444V0H64V711H109L368 257L409 152H413L402 257V700H474V-11H428L171 444ZM327 870H426V849L295 752H234L327 870Z" />
<glyph unicode="&#x144;" glyph-name="nacute" horiz-adv-x="439" d="M315 0V305Q315 380 298 413T235 447Q195 447 169 423T131 364V0H59V500H111L124 447H127Q146 474 178 493T256 512Q288 512 312 503T353 473T378 415T387 324V0H315ZM241 720H319V699L237
571H194L241 720Z" />
<glyph unicode="&#x145;" glyph-name="Ncommaaccent" horiz-adv-x="538" d="M171 444L128 554H125L136 444V0H64V711H109L368 257L409 152H413L402 257V700H474V-11H428L171 444ZM223 -102Q223 -81 236 -68T267 -55Q289 -55 305 -72T321 -130Q321 -156 314 -175T296
-209T274 -232T253 -245L226 -218Q243 -205 254 -187T265 -144Q248 -146 236 -135T223 -102Z" />
<glyph unicode="&#x146;" glyph-name="ncommaaccent" horiz-adv-x="439" d="M315 0V305Q315 380 298 413T235 447Q195 447 169 423T131 364V0H59V500H111L124 447H127Q146 474 178 493T256 512Q288 512 312 503T353 473T378 415T387 324V0H315ZM171 -102Q171 -81
184 -68T215 -55Q237 -55 253 -72T269 -130Q269 -156 262 -175T244 -209T222 -232T201 -245L174 -218Q191 -205 202 -187T213 -144Q196 -146 184 -135T171 -102Z" />
<glyph unicode="&#x147;" glyph-name="Ncaron" horiz-adv-x="538" d="M171 444L128 554H125L136 444V0H64V711H109L368 257L409 152H413L402 257V700H474V-11H428L171 444ZM295 746H242L140 849V870H209L256 820L270 786L285 819L335 870H401V848L295 746Z" />
<glyph unicode="&#x148;" glyph-name="ncaron" horiz-adv-x="439" d="M315 0V305Q315 380 298 413T235 447Q195 447 169 423T131 364V0H59V500H111L124 447H127Q146 474 178 493T256 512Q288 512 312 503T353 473T378 415T387 324V0H315ZM237 550H199L106 732H174L205
666L222 608L239 666L275 732H336L237 550Z" />
<glyph unicode="&#x14c;" glyph-name="Omacron" horiz-adv-x="549" d="M43 350Q43 528 100 620T274 712Q337 712 381 687T452 614T493 500T506 350Q506 172 449 80T274 -12Q212 -12 168 13T96 86T56 200T43 350ZM122 350Q122 291 130 238T157 145T204 81T274 57Q349
57 388 129T427 350Q427 408 419 461T392 554T345 619T274 643Q200 643 161 571T122 350ZM149 823H408V761H149V823Z" />
<glyph unicode="&#x14d;" glyph-name="omacron" d="M37 250Q37 385 83 448T216 512Q308 512 351 447T395 250Q395 114 348 51T216 -12Q124 -12 81 53T37 250ZM112 250Q112 206 117 170T135 108T168 68T216 53Q268 53 294 99T320 250Q320 293 315 329T297 392T264
432T216 447Q165 447 139 400T112 250ZM94 643H337V583H94V643Z" />
<glyph unicode="&#x150;" glyph-name="Ohungarumlaut" horiz-adv-x="549" d="M43 350Q43 528 100 620T274 712Q337 712 381 687T452 614T493 500T506 350Q506 172 449 80T274 -12Q212 -12 168 13T96 86T56 200T43 350ZM122 350Q122 291 130 238T157 145T204 81T274
57Q349 57 388 129T427 350Q427 408 419 461T392 554T345 619T274 643Q200 643 161 571T122 350ZM239 850H320V834L240 741H188L239 850ZM375 850H461V834L346 741H294L375 850Z" />
<glyph unicode="&#x151;" glyph-name="ohungarumlaut" d="M37 250Q37 385 83 448T216 512Q308 512 351 447T395 250Q395 114 348 51T216 -12Q124 -12 81 53T37 250ZM112 250Q112 206 117 170T135 108T168 68T216 53Q268 53 294 99T320 250Q320 293 315 329T297
392T264 432T216 447Q165 447 139 400T112 250ZM164 700H233V684L175 571H136L164 700ZM287 700H362V684L270 571H228L287 700Z" />
<glyph unicode="&#x152;" glyph-name="OE" horiz-adv-x="748" d="M383 623Q361 634 333 638T275 643Q202 643 162 571T122 350Q122 291 130 238T158 145T207 81T280 57Q303 57 327 59T383 73V623ZM383 0Q363 -5 335 -8T273 -12Q213 -12 170 13T98 86T57 200T43
350Q43 527 101 619T273 712Q309 712 333 709T383 700H694V631H458V394H674V325H458V69H699V0H383Z" />
<glyph unicode="&#x153;" glyph-name="oe" horiz-adv-x="692" d="M112 250Q112 211 117 176T135 113T168 70T216 53Q319 53 319 250Q319 289 314 324T296 387T264 431T216 447Q112 447 112 250ZM355 75Q312 -12 215 -12Q124 -12 81 56T37 250Q37 378 83 445T216
512Q267 512 301 490T356 426Q376 464 411 488T496 512Q524 512 551 505T601 476T636 417T650 318Q650 301 649 282T645 242H389Q390 155 419 104T517 52Q544 52 572 63T614 88L640 35Q616 12 578 0T497 -12Q447 -12 411 12T355 75ZM496 448Q451 448 424 412T391
301H581Q583 376 560 412T496 448Z" />
<glyph unicode="&#x154;" glyph-name="Racute" horiz-adv-x="480" d="M64 693Q97 701 136 704T209 708Q248 708 283 699T344 667T385 608T401 516Q401 433 367 383T275 316L313 279L451 0H364L214 305L139 320V0H64V693ZM139 370H199Q256 370 289 405T322 512Q322
567 295 603T213 639Q193 639 172 638T139 633V370ZM255 870H354V849L223 752H162L255 870Z" />
<glyph unicode="&#x155;" glyph-name="racute" horiz-adv-x="274" d="M59 500H110L123 447H126Q140 476 162 492T217 509Q240 509 269 500L255 427Q229 436 209 436Q177 436 157 418T131 368V0H59V500ZM157 720H235V699L153 571H110L157 720Z" />
<glyph unicode="&#x156;" glyph-name="Rcommaaccent" horiz-adv-x="480" d="M64 693Q97 701 136 704T209 708Q248 708 283 699T344 667T385 608T401 516Q401 433 367 383T275 316L313 279L451 0H364L214 305L139 320V0H64V693ZM139 370H199Q256 370 289 405T322
512Q322 567 295 603T213 639Q193 639 172 638T139 633V370ZM192 -102Q192 -81 205 -68T236 -55Q258 -55 274 -72T290 -130Q290 -156 283 -175T265 -209T243 -232T222 -245L195 -218Q212 -205 223 -187T234 -144Q217 -146 205 -135T192 -102Z" />
<glyph unicode="&#x157;" glyph-name="rcommaaccent" horiz-adv-x="274" d="M59 500H110L123 447H126Q140 476 162 492T217 509Q240 509 269 500L255 427Q229 436 209 436Q177 436 157 418T131 368V0H59V500ZM63 -102Q63 -81 76 -68T107 -55Q129 -55 145 -72T161
-130Q161 -156 154 -175T136 -209T114 -232T93 -245L66 -218Q83 -205 94 -187T105 -144Q88 -146 76 -135T63 -102Z" />
<glyph unicode="&#x158;" glyph-name="Rcaron" horiz-adv-x="480" d="M64 693Q97 701 136 704T209 708Q248 708 283 699T344 667T385 608T401 516Q401 433 367 383T275 316L313 279L451 0H364L214 305L139 320V0H64V693ZM139 370H199Q256 370 289 405T322 512Q322
567 295 603T213 639Q193 639 172 638T139 633V370ZM228 746H175L73 849V870H142L189 820L203 786L218 819L268 870H334V848L228 746Z" />
<glyph unicode="&#x159;" glyph-name="rcaron" horiz-adv-x="274" d="M59 500H110L123 447H126Q140 476 162 492T217 509Q240 509 269 500L255 427Q229 436 209 436Q177 436 157 418T131 368V0H59V500ZM426 550H388L295 732H363L394 666L411 608L428 666L464 732H525L426
550Z" />
<glyph unicode="&#x15a;" glyph-name="Sacute" horiz-adv-x="428" d="M59 93Q78 80 112 69T191 57Q247 57 282 84T317 171Q317 210 297 239T247 292T183 340T118 392T68 458T48 547Q48 631 98 671T230 712Q280 712 319 703T382 680L358 614Q340 625 307 634T229
643Q175 643 149 617T123 550Q123 515 143 488T193 437T257 389T322 334T372 266T392 176Q392 88 340 38T193 -12Q133 -12 95 -1T33 24L59 93ZM279 870H378V849L247 752H186L279 870Z" />
<glyph unicode="&#x15b;" glyph-name="sacute" horiz-adv-x="338" d="M51 82Q71 70 98 62T155 53Q188 53 211 69T234 123Q234 154 220 174T185 210T138 239T92 272T56 317T42 383Q42 447 76 479T174 512Q215 512 245 505T297 484L278 424Q259 434 234 440T183
447Q147 447 131 432T114 385Q114 360 128 343T163 311T210 281T256 246T292 197T306 125Q306 97 297 72T270 29T224 -1T159 -12Q115 -12 83 -4T29 19L51 82ZM190 720H268V699L186 571H143L190 720Z" />
<glyph unicode="&#x15e;" glyph-name="Scedilla" horiz-adv-x="428" d="M59 93Q78 80 112 69T191 57Q247 57 282 84T317 171Q317 210 297 239T247 292T183 340T118 392T68 458T48 547Q48 631 98 671T230 712Q280 712 319 703T382 680L358 614Q340 625 307 634T229
643Q175 643 149 617T123 550Q123 515 143 488T193 437T257 389T322 334T372 266T392 176Q392 98 351 50T234 -9L219 -43Q284 -58 284 -118Q284 -157 256 -182T179 -208Q159 -208 142 -204L149 -165Q172 -167 185 -164T206 -155T215 -142T217 -127Q217 -99 148
-90L182 -12Q126 -10 90 0T33 24L59 93Z" />
<glyph unicode="&#x15f;" glyph-name="scedilla" horiz-adv-x="338" d="M51 82Q71 70 98 62T155 54Q188 54 211 70T234 123Q234 154 220 174T185 210T138 239T92 272T56 317T42 383Q42 447 76 479T174 512Q215 512 245 505T297 484L278 424Q259 434 234 440T183
447Q147 447 131 432T114 385Q114 360 128 343T163 311T210 281T256 246T292 197T306 125Q306 75 277 37T190 -9L175 -43Q240 -58 240 -118Q240 -157 212 -182T135 -208Q115 -208 98 -204L105 -165Q128 -167 141 -164T162 -155T171 -142T173 -127Q173 -99 104 -90L139
-11Q103 -9 76 -1T29 19L51 82Z" />
<glyph unicode="&#x160;" glyph-name="Scaron" horiz-adv-x="428" d="M59 93Q78 80 112 69T191 57Q247 57 282 84T317 171Q317 210 297 239T247 292T183 340T118 392T68 458T48 547Q48 631 98 671T230 712Q280 712 319 703T382 680L358 614Q340 625 307 634T229
643Q175 643 149 617T123 550Q123 515 143 488T193 437T257 389T322 334T372 266T392 176Q392 88 340 38T193 -12Q133 -12 95 -1T33 24L59 93ZM259 746H206L104 849V870H173L220 820L234 786L249 819L299 870H365V848L259 746Z" />
<glyph unicode="&#x161;" glyph-name="scaron" horiz-adv-x="338" d="M51 82Q71 70 98 62T155 53Q188 53 211 69T234 123Q234 154 220 174T185 210T138 239T92 272T56 317T42 383Q42 447 76 479T174 512Q215 512 245 505T297 484L278 424Q259 434 234 440T183
447Q147 447 131 432T114 385Q114 360 128 343T163 311T210 281T256 246T292 197T306 125Q306 97 297 72T270 29T224 -1T159 -12Q115 -12 83 -4T29 19L51 82ZM442 550H404L311 732H379L410 666L427 608L444 666L480 732H541L442 550Z" />
<glyph unicode="&#x162;" glyph-name="uni021A" horiz-adv-x="447" d="M433 631H261V0H186V631H14V700H433V631ZM175 -102Q175 -81 188 -68T219 -55Q241 -55 257 -72T273 -130Q273 -156 266 -175T248 -209T226 -232T205 -245L178 -218Q195 -205 206 -187T217 -144Q200
-146 188 -135T175 -102Z" />
<glyph unicode="&#x163;" glyph-name="uni021B" horiz-adv-x="275" d="M9 500H70V599L142 622V500H250V435H142V137Q142 93 152 74T187 54Q207 54 221 58T253 70L267 13Q245 2 219 -4T163 -11Q113 -11 92 21T70 127V435H9V500ZM104 -102Q104 -81 117 -68T148 -55Q170
-55 186 -72T202 -130Q202 -156 195 -175T177 -209T155 -232T134 -245L107 -218Q124 -205 135 -187T146 -144Q129 -146 117 -135T104 -102Z" />
<glyph unicode="&#x164;" glyph-name="Tcaron" horiz-adv-x="447" d="M433 631H261V0H186V631H14V700H433V631ZM249 746H196L94 849V870H163L210 820L224 786L239 819L289 870H355V848L249 746Z" />
<glyph unicode="&#x165;" glyph-name="tcaron" horiz-adv-x="276" d="M9 500H70V599L142 622V500H250V435H142V137Q142 93 152 74T187 54Q207 54 221 58T253 70L267 13Q245 2 219 -4T163 -11Q113 -11 92 21T70 127V435H9V500ZM268 714Q266 685 258 655T239 599T217
554T198 525L168 540Q182 576 189 622T196 714H268Z" />
<glyph unicode="&#x16a;" glyph-name="Umacron" horiz-adv-x="521" d="M385 700H457V231Q457 104 408 48T267 -9Q161 -9 113 46T64 215V700H139V254Q139 200 146 163T169 103T209 70T268 60Q334 60 359 106T385 254V700ZM133 823H392V761H133V823Z" />
<glyph unicode="&#x16b;" glyph-name="umacron" horiz-adv-x="434" d="M124 500V194Q124 118 139 86T196 53Q217 53 233 61T263 84T286 116T302 153V500H374V142Q374 106 376 68T384 0H333L315 70H312Q295 37 263 13T183 -12Q151 -12 127 -4T86 25T61 82T52 176V500H124ZM94
643H337V583H94V643Z" />
<glyph unicode="&#x16e;" glyph-name="Uring" horiz-adv-x="521" d="M385 700H457V231Q457 104 408 48T267 -9Q161 -9 113 46T64 215V700H139V254Q139 200 146 163T169 103T209 70T268 60Q334 60 359 106T385 254V700ZM174 768Q174 805 195 829T264 853Q307 853
330 832T354 768Q354 732 332 709T264 685Q219 685 197 707T174 768ZM228 768Q228 750 236 739T264 727Q300 727 300 768Q300 811 264 811Q228 811 228 768Z" />
<glyph unicode="&#x16f;" glyph-name="uring" horiz-adv-x="434" d="M124 500V194Q124 118 139 86T196 53Q217 53 233 61T263 84T286 116T302 153V500H374V142Q374 106 376 68T384 0H333L315 70H312Q295 37 263 13T183 -12Q151 -12 127 -4T86 25T61 82T52 176V500H124ZM131
643Q131 685 153 708T213 732Q249 732 272 711T296 643Q296 603 274 579T213 555Q175 555 153 577T131 643ZM179 643Q179 620 189 609T213 597Q229 597 238 608T248 643Q248 667 238 678T213 690Q199 690 189 679T179 643Z" />
<glyph unicode="&#x170;" glyph-name="Uhungarumlaut" horiz-adv-x="521" d="M385 700H457V231Q457 104 408 48T267 -9Q161 -9 113 46T64 215V700H139V254Q139 200 146 163T169 103T209 70T268 60Q334 60 359 106T385 254V700ZM217 850H298V834L218 741H166L217
850ZM353 850H439V834L324 741H272L353 850Z" />
<glyph unicode="&#x171;" glyph-name="uhungarumlaut" horiz-adv-x="434" d="M124 500V194Q124 118 139 86T196 53Q217 53 233 61T263 84T286 116T302 153V500H374V142Q374 106 376 68T384 0H333L315 70H312Q295 37 263 13T183 -12Q151 -12 127 -4T86 25T61 82T52
176V500H124ZM163 700H232V684L174 571H135L163 700ZM286 700H361V684L269 571H227L286 700Z" />
<glyph unicode="&#x172;" glyph-name="Uogonek" horiz-adv-x="521" d="M385 700H457V231Q457 134 428 79T344 3Q321 -14 309 -36T296 -87Q296 -101 301 -112T315 -131T337 -139T370 -132L381 -172Q369 -183 348 -189T308 -195Q269 -195 246 -171T223 -107Q223
-78 236 -53T275 -9H267Q161 -9 113 46T64 215V700H139V254Q139 200 146 163T169 103T209 70T268 60Q334 60 359 106T385 254V700Z" />
<glyph unicode="&#x173;" glyph-name="uogonek" horiz-adv-x="434" d="M124 500V194Q124 118 139 86T196 53Q217 53 233 61T263 84T286 116T302 153V500H374V142Q374 106 376 68T384 0H371Q348 -16 333 -37T319 -87Q319 -101 324 -112T339 -131T363 -138T394 -128L405
-171Q393 -183 372 -189T331 -195Q293 -195 271 -171T248 -106Q248 -65 270 -38T331 6L315 70H312Q295 37 263 13T183 -12Q151 -12 127 -4T86 25T61 82T52 176V500H124Z" />
<glyph unicode="&#x178;" glyph-name="Ydieresis" horiz-adv-x="455" d="M191 278L5 700H93L219 395L232 334H234L247 397L369 700H450L266 279V0H191V278ZM105 794Q105 815 117 828T152 841Q173 841 185 828T198 794Q198 773 186 761T152 748Q130 748 118 760T105
794ZM263 794Q263 815 275 828T309 841Q331 841 343 828T356 794Q356 773 344 761T309 748Q288 748 276 760T263 794Z" />
<glyph unicode="&#x179;" glyph-name="Zacute" horiz-adv-x="439" d="M29 69L307 591L340 631H29V700H410V631L131 106L99 69H410V0H29V69ZM266 870H365V849L234 752H173L266 870Z" />
<glyph unicode="&#x17a;" glyph-name="zacute" horiz-adv-x="360" d="M32 65L218 392L253 435H32V500H324V435L137 105L103 65H324V0H32V65ZM193 720H271V699L189 571H146L193 720Z" />
<glyph unicode="&#x17b;" glyph-name="Zdotaccent" horiz-adv-x="439" d="M29 69L307 591L340 631H29V700H410V631L131 106L99 69H410V0H29V69ZM167 797Q167 818 181 833T221 849Q247 849 261 834T276 797Q276 774 262 759T221 744Q195 744 181 759T167 797Z" />
<glyph unicode="&#x17c;" glyph-name="zdotaccent" horiz-adv-x="360" d="M32 65L218 392L253 435H32V500H324V435L137 105L103 65H324V0H32V65ZM134 652Q134 676 147 691T183 706Q205 706 219 692T234 652Q234 628 220 615T183 601Q161 601 148 615T134 652Z" />
<glyph unicode="&#x17d;" glyph-name="Zcaron" horiz-adv-x="439" d="M29 69L307 591L340 631H29V700H410V631L131 106L99 69H410V0H29V69ZM237 746H184L82 849V870H151L198 820L212 786L227 819L277 870H343V848L237 746Z" />
<glyph unicode="&#x17e;" glyph-name="zcaron" horiz-adv-x="360" d="M32 65L218 392L253 435H32V500H324V435L137 105L103 65H324V0H32V65ZM195 550H157L64 732H132L163 666L180 608L197 666L233 732H294L195 550Z" />
<glyph unicode="&#x17f;" glyph-name="longs" horiz-adv-x="206" d="M16 500H77V528Q77 622 104 664T195 706Q223 706 244 703T287 689L269 629Q250 637 236 639T207 641Q187 641 176 633T158 608T151 565T149 500V0H77V435H16V500Z" />
<glyph unicode="&#x192;" glyph-name="florin" horiz-adv-x="475" d="M272 435L210 -34Q205 -71 196 -102T172 -157T135 -194T82 -208Q58 -208 30 -203T-19 -187L1 -126Q19 -134 35 -138T72 -143Q102 -143 118 -107T144 8L197 435H130V500H207L216 567Q226 640
251 676T337 712Q364 712 391 707T440 691L420 631Q384 647 348 647Q318 647 306 622T287 541L282 500H379V435H272Z" />
<glyph unicode="&#x1f4;" glyph-name="uni01F4" horiz-adv-x="492" d="M257 349H450V41Q422 15 378 2T289 -12Q233 -12 188 9T110 74T61 187T43 350Q43 448 64 516T120 628T201 692T295 712Q343 712 375 706T431 688L413 620Q393 631 366 637T302 643Q267 643
235 628T178 579T137 488T122 350Q122 200 169 129T300 57Q352 57 386 82V286L257 305V349ZM341 870H440V849L309 752H248L341 870Z" />
<glyph unicode="&#x1f5;" glyph-name="uni01F5" d="M374 -23Q374 -120 331 -166T206 -212Q156 -212 124 -204T72 -184L93 -122Q113 -131 137 -139T196 -147Q257 -147 279 -113T302 1V38H299Q283 15 258 2T194 -11Q113 -11 75 51T37 248Q37 377 86 443T233 509Q280
509 314 500T374 479V-23ZM302 428Q272 444 225 444Q174 444 143 398T112 249Q112 207 117 172T134 110T164 69T210 54Q248 54 270 74T302 134V428ZM246 720H324V699L242 571H199L246 720Z" />
<glyph unicode="&#x218;" glyph-name="Scommaaccent" horiz-adv-x="428" d="M59 93Q78 80 112 69T191 57Q247 57 282 84T317 171Q317 210 297 239T247 292T183 340T118 392T68 458T48 547Q48 631 98 671T230 712Q280 712 319 703T382 680L358 614Q340 625 307
634T229 643Q175 643 149 617T123 550Q123 515 143 488T193 437T257 389T322 334T372 266T392 176Q392 88 340 38T193 -12Q133 -12 95 -1T33 24L59 93ZM157 -102Q157 -81 170 -68T201 -55Q223 -55 239 -72T255 -130Q255 -156 248 -175T230 -209T208 -232T187 -245L160
-218Q177 -205 188 -187T199 -144Q182 -146 170 -135T157 -102Z" />
<glyph unicode="&#x219;" glyph-name="scommaaccent" horiz-adv-x="338" d="M51 82Q71 70 98 62T155 53Q188 53 211 69T234 123Q234 154 220 174T185 210T138 239T92 272T56 317T42 383Q42 447 76 479T174 512Q215 512 245 505T297 484L278 424Q259 434 234 440T183
447Q147 447 131 432T114 385Q114 360 128 343T163 311T210 281T256 246T292 197T306 125Q306 97 297 72T270 29T224 -1T159 -12Q115 -12 83 -4T29 19L51 82ZM117 -102Q117 -81 130 -68T161 -55Q183 -55 199 -72T215 -130Q215 -156 208 -175T190 -209T168 -232T147
-245L120 -218Q137 -205 148 -187T159 -144Q142 -146 130 -135T117 -102Z" />
<glyph unicode="&#x21a;" glyph-name="uni021A" horiz-adv-x="447" d="M433 631H261V0H186V631H14V700H433V631ZM175 -102Q175 -81 188 -68T219 -55Q241 -55 257 -72T273 -130Q273 -156 266 -175T248 -209T226 -232T205 -245L178 -218Q195 -205 206 -187T217 -144Q200
-146 188 -135T175 -102Z" />
<glyph unicode="&#x21b;" glyph-name="uni021B" horiz-adv-x="275" d="M9 500H70V599L142 622V500H250V435H142V137Q142 93 152 74T187 54Q207 54 221 58T253 70L267 13Q245 2 219 -4T163 -11Q113 -11 92 21T70 127V435H9V500ZM104 -102Q104 -81 117 -68T148 -55Q170
-55 186 -72T202 -130Q202 -156 195 -175T177 -209T155 -232T134 -245L107 -218Q124 -205 135 -187T146 -144Q129 -146 117 -135T104 -102Z" />
<glyph unicode="&#x2bc;" glyph-name="afii57929" horiz-adv-x="161" d="M31 659Q31 682 44 695T77 708Q101 708 116 692T131 641Q131 609 123 585T104 545T79 518T57 502L34 532Q51 543 63 563T75 611Q57 608 44 621T31 659Z" />
<glyph unicode="&#x2c6;" glyph-name="circumflex" horiz-adv-x="343" d="M159 732H194L283 550H220L188 616L172 674L155 616L119 550H60L159 732Z" />
<glyph unicode="&#x2c7;" glyph-name="caron" horiz-adv-x="350" d="M191 550H153L60 732H128L159 666L176 608L193 666L229 732H290L191 550Z" />
<glyph unicode="&#x2d8;" glyph-name="breve" horiz-adv-x="371" d="M99 717Q113 681 137 660T190 638Q218 638 239 659T274 717L311 702Q309 676 299 653T272 612T235 584T189 573Q142 573 107 606T60 699L99 717Z" />
<glyph unicode="&#x2d9;" glyph-name="dotaccent" horiz-adv-x="220" d="M60 652Q60 676 73 691T109 706Q131 706 145 692T160 652Q160 628 146 615T109 601Q87 601 74 615T60 652Z" />
<glyph unicode="&#x2da;" glyph-name="ring" horiz-adv-x="285" d="M60 643Q60 685 82 708T142 732Q178 732 201 711T225 643Q225 603 203 579T142 555Q104 555 82 577T60 643ZM108 643Q108 620 118 609T142 597Q158 597 167 608T177 643Q177 667 167 678T142
690Q128 690 118 679T108 643Z" />
<glyph unicode="&#x2db;" glyph-name="ogonek" horiz-adv-x="278" d="M195 10Q166 -6 149 -30T132 -87Q133 -116 152 -131T208 -132L218 -172Q207 -183 187 -189T147 -195Q107 -195 84 -171T60 -109Q60 -66 84 -37T147 10H195Z" />
<glyph unicode="&#x2dc;" glyph-name="tilde" horiz-adv-x="362" d="M60 653Q87 687 108 699T146 712Q160 712 172 706T195 694T217 681T240 675Q249 675 258 679T279 696L302 658Q278 629 260 618T225 607Q211 607 199 612T176 625T153 637T130 643Q119 643 108
638T84 618L60 653Z" />
<glyph unicode="&#x2dd;" glyph-name="hungarumlaut" horiz-adv-x="346" d="M88 700H157V684L99 571H60L88 700ZM211 700H286V684L194 571H152L211 700Z" />
<glyph unicode="&#x301;" glyph-name="acutecomb" horiz-adv-x="2" d="M-290 720H-212V699L-294 571H-337L-290 720Z" />
<glyph unicode="&#x394;" glyph-name="uni2206" horiz-adv-x="459" d="M11 0V37L212 711H247L451 37V0H11ZM91 65H368L247 467L229 581H226L205 465L91 65Z" />
<glyph unicode="&#x3a9;" glyph-name="uni2126" horiz-adv-x="640" d="M58 65H149L224 55V82L181 92Q156 107 134 134T95 197T68 279T58 376Q58 455 76 517T129 622T211 689T319 712Q382 712 431 687T513 617T564 510T582 372Q582 318 571 274T543 194T503 133T460
93L415 82V55L491 65H582V0H349V116Q372 122 399 139T449 187T487 266T503 377Q503 425 493 473T460 558T403 619T319 643Q231 643 184 575T137 374Q137 311 151 265T188 188T237 139T290 116V0H58V65Z" />
<glyph unicode="&#x3bc;" glyph-name="mu" horiz-adv-x="450" d="M125 500V198Q125 126 145 90T213 53Q255 53 283 78T324 145V500H396V163Q396 122 398 81T408 0H357L334 62H331Q315 30 283 9T205 -12Q168 -12 148 1T113 34H108L126 -67V-200H53V500H125Z" />
<glyph unicode="&#x3c0;" glyph-name="pi" horiz-adv-x="535" d="M421 112Q421 84 428 73T447 61Q455 61 465 63T482 68L498 15Q484 9 464 3T418 -4Q377 -4 363 25T349 106V435H204V0H132V435H119Q89 435 67 394L24 428Q40 464 65 482T133 500H488V435H421V112Z" />
<glyph unicode="&#x401;" glyph-name="afii10023" horiz-adv-x="429" d="M64 700H375V631H139V394H356V325H139V69H380V0H64V700ZM90 794Q90 815 102 828T137 841Q158 841 170 828T183 794Q183 773 171 761T137 748Q115 748 103 760T90 794ZM248 794Q248 815 260
828T294 841Q316 841 328 828T341 794Q341 773 329 761T294 748Q273 748 261 760T248 794Z" />
<glyph unicode="&#x402;" glyph-name="afii10051" horiz-adv-x="588" d="M262 0H187V631H14V700H435V631H262V415Q272 419 301 428T375 437Q408 437 438 428T493 394T531 330T546 226Q546 106 500 49T358 -8Q332 -8 320 -8T301 -5V64Q312 62 324 62T358 61Q467
61 467 219Q467 262 459 291T434 337T397 361T350 368Q336 368 322 366T296 359T275 352T262 346V0Z" />
<glyph unicode="&#x403;" glyph-name="afii10052" horiz-adv-x="357" d="M370 631H139V0H64V700H370V631ZM250 870H349V849L218 752H157L250 870Z" />
<glyph unicode="&#x404;" glyph-name="afii10053" horiz-adv-x="469" d="M432 27Q407 6 368 -3T287 -12Q234 -12 189 8T112 71T61 184T43 350Q43 450 63 519T118 631T196 693T288 712Q336 712 369 705T425 688L406 620Q387 631 359 637T295 643Q263 643 234 630T181
588T143 511T123 396H365V327H122Q127 192 177 125T307 57Q342 57 369 66T414 89L432 27Z" />
<glyph unicode="&#x405;" glyph-name="afii10054" horiz-adv-x="428" d="M59 93Q78 80 112 69T191 57Q247 57 282 84T317 171Q317 210 297 239T247 292T183 340T118 392T68 458T48 547Q48 631 98 671T230 712Q280 712 319 703T382 680L358 614Q340 625 307 634T229
643Q175 643 149 617T123 550Q123 515 143 488T193 437T257 389T322 334T372 266T392 176Q392 88 340 38T193 -12Q133 -12 95 -1T33 24L59 93Z" />
<glyph unicode="&#x406;" glyph-name="afii10055" horiz-adv-x="233" d="M79 700H154V0H79V700Z" />
<glyph unicode="&#x407;" glyph-name="afii10056" horiz-adv-x="236" d="M19 793Q19 815 31 828T63 841Q83 841 94 828T106 793Q106 771 95 759T63 746Q43 746 31 758T19 793ZM130 793Q130 815 141 828T173 841Q193 841 205 828T217 793Q217 771 205 759T173 746Q153
746 142 758T130 793ZM80 700H155V0H80V700Z" />
<glyph unicode="&#x408;" glyph-name="afii10057" horiz-adv-x="241" d="M93 700H168V157Q168 75 142 33T49 -10Q33 -10 11 -6T-26 6L-10 71Q0 65 12 62T38 59Q56 59 67 67T84 89T91 124T93 171V700Z" />
<glyph unicode="&#x409;" glyph-name="afii10058" horiz-adv-x="747" d="M363 631H205Q197 430 184 295T144 87Q127 39 102 17T45 -5Q16 -5 -4 5L7 73Q27 67 44 75T76 122Q87 149 96 194T113 310T126 476T133 700H438V428Q451 431 475 434T519 437Q559 437 595
428T660 394T704 330T721 227Q721 166 706 122T661 49T591 6T499 -8Q488 -8 472 -8T437 -6T399 -2T363 6V631ZM438 66Q450 63 469 62T507 61Q568 61 605 100T642 220Q642 263 632 291T603 337T559 361T506 368Q499 368 489 367T470 365T451 362T438 359V66Z" />
<glyph unicode="&#x40a;" glyph-name="afii10059" horiz-adv-x="782" d="M397 338H139V0H64V700H139V407H397V700H472V407Q476 408 485 409T507 412T531 414T553 415Q592 415 628 407T693 377T738 316T755 216Q755 156 739 114T694 44T625 5T534 -8Q523 -8 506
-8T471 -6T433 -1T397 6V338ZM472 67Q483 63 503 62T543 61Q603 61 639 96T676 210Q676 252 666 278T637 320T594 340T542 346Q535 346 525 345T504 343T485 340T472 337V67Z" />
<glyph unicode="&#x40b;" glyph-name="afii10060" horiz-adv-x="606" d="M262 0H187V631H14V700H435V631H262V397Q283 412 319 426T401 440Q436 440 464 431T513 399T544 339T555 245V0H480V233Q480 308 457 339T384 371Q348 371 315 359T262 326V0Z" />
<glyph unicode="&#x40c;" glyph-name="afii10061" horiz-adv-x="493" d="M175 324H139V0H64V700H139V374L174 388L356 700H442L259 398L224 366L265 326L468 0H373L175 324ZM276 870H375V849L244 752H183L276 870Z" />
<glyph unicode="&#x40e;" glyph-name="afii10062" horiz-adv-x="448" d="M228 341L247 252H252L268 344L372 700H449L306 245Q284 175 268 127T235 50T198 8T149 -5Q123 -5 106 0T74 16L96 80Q112 69 125 67T149 64Q171 64 186 94T212 181L3 700H91L228 341ZM170
870Q172 833 190 811T241 789Q273 789 290 811T311 869L375 854Q367 797 334 766T240 735Q181 735 143 763T98 853L170 870Z" />
<glyph unicode="&#x40f;" glyph-name="afii10145" horiz-adv-x="526" d="M64 0V700H139V69H387V700H462V0H300L287 -179H240L224 0H64Z" />
<glyph unicode="&#x410;" glyph-name="afii10017" horiz-adv-x="473" d="M333 196H135L79 0H5L216 711H257L468 0H390L333 196ZM155 263H315L254 479L235 584H233L214 477L155 263Z" />
<glyph unicode="&#x411;" glyph-name="afii10018" horiz-adv-x="445" d="M64 700H377V631H139V416Q153 419 173 422T213 425Q255 425 292 416T356 383T400 321T416 221Q416 161 401 118T358 47T292 6T208 -8Q194 -8 176 -8T138 -6T99 -1T64 6V700ZM139 67Q150
63 172 62T215 61Q269 61 303 96T337 207Q337 255 327 284T298 330T256 351T203 356Q196 356 187 355T169 353T151 350T139 347V67Z" />
<glyph unicode="&#x412;" glyph-name="afii10019" horiz-adv-x="471" d="M411 541Q411 515 405 489T386 440T354 399T306 372V368Q330 363 352 352T391 320T418 270T428 199Q428 145 411 106T365 41T297 4T215 -8Q201 -8 183 -8T143 -7T102 -3T64 5V694Q94 700
134 704T222 708Q256 708 290 702T351 677T394 627T411 541ZM221 61Q248 61 271 69T311 95T339 136T349 194Q349 235 337 260T304 300T259 319T206 324H139V68Q145 66 154 65T175 63T199 62T221 61ZM180 389Q194 389 212 390T242 393Q279 408 305 441T332 524Q332
557 323 579T299 615T262 633T218 639Q192 639 171 638T139 634V389H180Z" />
<glyph unicode="&#x413;" glyph-name="afii10020" horiz-adv-x="357" d="M370 631H139V0H64V700H370V631Z" />
<glyph unicode="&#x414;" glyph-name="afii10021" horiz-adv-x="542" d="M521 -129H468L456 0H68L56 -129H3V69H61Q67 80 80 121T107 238T131 429T140 700H448V69H521V-129ZM373 69V631H212Q207 410 186 273T140 69H373Z" />
<glyph unicode="&#x415;" glyph-name="afii10022" horiz-adv-x="429" d="M64 700H375V631H139V394H356V325H139V69H380V0H64V700Z" />
<glyph unicode="&#x416;" glyph-name="afii10024" horiz-adv-x="654" d="M287 700H359V374L393 388L547 700H631L474 396L441 364L482 324L656 0H563L395 325H359V0H287V337L254 323L86 0H-2L170 314L209 351L172 386L10 700H98L252 386H287V700Z" />
<glyph unicode="&#x417;" glyph-name="afii10025" horiz-adv-x="434" d="M109 333V398H127Q142 398 164 399T199 403Q239 413 267 444T296 524Q296 590 264 616T183 643Q144 643 114 636T65 618L45 679Q63 690 104 701T198 712Q232 712 264 704T320 677T360 624T375
540Q375 489 350 445T271 378V374Q327 363 359 321T392 206Q392 148 375 107T328 40T259 1T178 -12Q125 -12 90 -5T31 14L51 82Q71 71 103 64T181 57Q208 57 232 66T274 94T302 139T313 203Q313 268 279 297T186 332Q176 333 169 333T150 333H109Z" />
<glyph unicode="&#x418;" glyph-name="afii10026" horiz-adv-x="544" d="M405 458L411 550H408L373 456L114 0H64V700H139V235L132 145H136L171 239L431 700H480V0H405V458Z" />
<glyph unicode="&#x419;" glyph-name="afii10027" horiz-adv-x="544" d="M405 458L411 550H408L373 456L114 0H64V700H139V235L132 145H136L171 239L431 700H480V0H405V458ZM209 870Q211 833 229 811T280 789Q312 789 329 811T350 869L414 854Q406 797 373 766T279
735Q220 735 182 763T137 853L209 870Z" />
<glyph unicode="&#x41a;" glyph-name="afii10028" horiz-adv-x="493" d="M175 324H139V0H64V700H139V374L174 388L356 700H442L259 398L224 366L265 326L468 0H373L175 324Z" />
<glyph unicode="&#x41b;" glyph-name="afii10029" horiz-adv-x="502" d="M363 631H205Q197 430 184 295T144 87Q127 39 102 17T45 -5Q16 -5 -4 5L7 74Q27 68 44 76T76 122Q87 149 96 194T113 310T126 476T133 700H438V0H363V631Z" />
<glyph unicode="&#x41c;" glyph-name="afii10030" horiz-adv-x="637" d="M498 460L507 566H503L471 467L330 163H305L157 467L126 566H122L136 460V0H64V700H127L296 356L321 274H323L347 357L507 700H573V0H498V460Z" />
<glyph unicode="&#x41d;" glyph-name="afii10031" horiz-adv-x="536" d="M397 323H139V0H64V700H139V392H397V700H472V0H397V323Z" />
<glyph unicode="&#x41e;" glyph-name="afii10032" horiz-adv-x="549" d="M43 350Q43 528 100 620T274 712Q337 712 381 687T452 614T493 500T506 350Q506 172 449 80T274 -12Q212 -12 168 13T96 86T56 200T43 350ZM122 350Q122 291 130 238T157 145T204 81T274
57Q349 57 388 129T427 350Q427 408 419 461T392 554T345 619T274 643Q200 643 161 571T122 350Z" />
<glyph unicode="&#x41f;" glyph-name="afii10033" horiz-adv-x="526" d="M387 631H139V0H64V700H462V0H387V631Z" />
<glyph unicode="&#x420;" glyph-name="afii10034" horiz-adv-x="451" d="M64 693Q96 702 132 705T203 708Q243 708 282 699T352 666T403 600T423 493Q423 430 405 386T356 315T286 275T204 262Q200 262 191 262T172 262T153 264T139 266V0H64V693ZM207 639Q187
639 169 638T139 633V335Q143 333 151 333T169 332T186 331T199 331Q227 331 253 338T299 363T331 413T344 493Q344 535 333 563T303 608T259 632T207 639Z" />
<glyph unicode="&#x421;" glyph-name="afii10035" horiz-adv-x="458" d="M430 27Q405 6 367 -3T287 -12Q234 -12 189 8T112 71T61 184T43 350Q43 450 63 519T118 631T196 693T288 712Q336 712 367 705T422 688L404 620Q384 631 357 637T295 643Q260 643 229 628T174
578T136 487T122 350Q122 204 172 131T305 57Q339 57 366 66T412 89L430 27Z" />
<glyph unicode="&#x422;" glyph-name="afii10036" horiz-adv-x="447" d="M433 631H261V0H186V631H14V700H433V631Z" />
<glyph unicode="&#x423;" glyph-name="afii10037" horiz-adv-x="448" d="M228 341L247 252H252L268 344L372 700H449L306 245Q284 175 268 127T235 50T198 8T149 -5Q123 -5 106 0T74 16L96 80Q112 69 125 67T149 64Q171 64 186 94T212 181L3 700H91L228 341Z" />
<glyph unicode="&#x424;" glyph-name="afii10038" horiz-adv-x="633" d="M279 78Q265 75 246 74T210 73Q171 73 139 88T82 136T45 222T31 350Q31 491 83 564T226 638Q237 638 253 637T279 634V720H354V631Q368 636 389 637T423 638Q462 638 495 622T552 571T589
485T602 360Q602 286 587 232T546 143T485 91T409 73Q400 73 382 74T354 80V-20H279V78ZM410 573Q399 573 381 572T352 566V141Q360 139 374 139T399 138Q455 138 490 192T525 360Q525 408 518 447T496 514T460 557T410 573ZM226 138Q235 138 252 138T281 144V569Q271
571 257 572T232 573Q177 573 143 518T108 350Q108 251 138 195T226 138Z" />
<glyph unicode="&#x425;" glyph-name="afii10039" horiz-adv-x="500" d="M203 356L35 700H125L234 463L254 404L274 463L389 700H472L298 363L480 0H392L271 251L248 313L227 251L103 0H19L203 356Z" />
<glyph unicode="&#x426;" glyph-name="afii10040" horiz-adv-x="551" d="M530 -129H478L465 0H64V700H139V69H381V700H456V69H530V-129Z" />
<glyph unicode="&#x427;" glyph-name="afii10041" horiz-adv-x="487" d="M130 700V456Q130 383 155 355T228 326Q263 326 295 339T348 373V700H423V0H348V300Q328 285 292 271T212 257Q180 257 152 265T102 293T68 349T55 439V700H130Z" />
<glyph unicode="&#x428;" glyph-name="afii10042" horiz-adv-x="699" d="M64 0V700H139V69H312V700H387V69H560V700H635V0H64Z" />
<glyph unicode="&#x429;" glyph-name="afii10043" horiz-adv-x="731" d="M64 0V700H139V69H312V700H387V69H560V700H635V69H710V-129H657L645 0H64Z" />
<glyph unicode="&#x42a;" glyph-name="afii10044" horiz-adv-x="513" d="M128 631H-1V700H203V428Q209 429 219 431T240 434T264 436T285 437Q324 437 360 428T425 394T470 330T487 226Q487 164 471 120T426 48T356 6T265 -8Q254 -8 237 -8T202 -6T164 -2T128
6V631ZM273 61Q333 61 370 99T408 220Q408 264 397 293T368 338T324 361T272 368Q265 368 255 367T234 365T216 362T203 359V67Q214 64 234 63T273 61Z" />
<glyph unicode="&#x42b;" glyph-name="afii10045" horiz-adv-x="622" d="M483 700H558V0H483V700ZM64 700H139V428Q148 430 169 433T210 437Q249 437 284 428T347 396T390 331T406 227Q406 105 350 49T192 -8Q169 -8 133 -6T64 6V700ZM199 61Q259 61 293 100T327
220Q327 264 317 292T290 338T248 361T196 368Q182 368 165 365T139 359V68Q159 61 199 61Z" />
<glyph unicode="&#x42c;" glyph-name="afii10046" horiz-adv-x="449" d="M64 700H139V428Q151 431 176 434T221 437Q261 437 297 428T362 394T406 330T423 227Q423 166 408 122T363 49T293 6T201 -8Q190 -8 173 -8T138 -6T100 -2T64 6V700ZM209 61Q270 61 307
100T344 220Q344 263 334 291T305 337T261 361T208 368Q201 368 191 367T171 365T152 362T139 359V67Q151 64 170 63T209 61Z" />
<glyph unicode="&#x42d;" glyph-name="afii10047" horiz-adv-x="465" d="M118 390H347Q342 517 294 580T169 643Q131 643 102 634T52 612L30 674Q58 692 96 702T177 712Q232 712 277 693T354 630T404 518T422 351Q422 252 402 183T347 70T265 8T163 -12Q122 -12
89 -5T32 13L53 81Q72 71 103 64T167 57Q201 57 232 71T289 117T329 199T347 323H118V390Z" />
<glyph unicode="&#x42e;" glyph-name="afii10048" horiz-adv-x="719" d="M139 392H234Q239 547 293 629T456 712Q517 712 559 687T627 614T664 500T676 350Q676 173 624 81T455 -12Q396 -12 355 11T287 79T247 184T233 323H139V0H64V700H139V392ZM310 350Q310
291 317 238T342 145T387 81T456 57Q531 57 564 128T597 350Q597 408 591 461T568 555T525 619T456 643Q381 643 346 571T310 350Z" />
<glyph unicode="&#x42f;" glyph-name="afii10049" horiz-adv-x="461" d="M397 0H322V307L242 286L106 0H19L142 253L190 295Q132 310 96 359T59 496Q59 558 76 599T122 664T190 698T273 708Q300 708 333 705T397 693V0ZM267 639Q241 639 218 633T177 610T149 566T138
496Q138 419 175 385T268 351H322V633Q311 637 298 638T267 639Z" />
<glyph unicode="&#x430;" glyph-name="afii10065" horiz-adv-x="400" d="M54 470Q83 488 124 498T212 508Q254 508 279 496T319 462T338 413T343 355Q343 295 341 238T338 130Q338 92 340 60T350 -2H295L278 57H274Q259 31 230 12T152 -7Q98 -7 64 30T29 134Q29
177 43 206T84 253T147 278T229 286Q239 286 249 286T270 285Q273 316 273 340Q273 397 256 420T194 443Q166 443 133 435T78 413L54 470ZM271 228Q261 229 251 229T231 230Q207 230 184 226T143 212T115 185T104 142Q104 102 123 80T174 58Q216 58 239 78T271
122V228Z" />
<glyph unicode="&#x431;" glyph-name="afii10066" d="M102 415Q128 462 160 480T240 498Q314 498 354 440T395 261Q395 122 348 55T217 -12Q172 -12 139 5T83 60T49 158T37 303Q37 389 44 450T65 553T98 620T141 659T193 680T254 690Q296 695 321 702T361 726L366
655Q358 647 348 642T324 632T292 626T248 621Q214 618 189 608T145 576T115 514T100 415H102ZM112 249Q112 208 118 173T137 111T169 69T216 53Q268 53 294 102T320 254Q320 336 298 384T226 433Q167 433 140 385T112 249Z" />
<glyph unicode="&#x432;" glyph-name="afii10067" horiz-adv-x="403" d="M59 499Q87 501 120 504T199 507Q280 507 315 477T350 384Q350 349 334 316T278 266V262Q326 251 346 222T366 141Q366 63 320 28T183 -7Q149 -7 118 -5T59 1V499ZM131 62Q146 60 159 59T193
58Q244 58 267 79T291 147Q291 183 271 206T198 230H131V62ZM205 287Q219 287 232 293T255 311T272 336T278 367Q278 406 260 424T196 442Q172 442 158 441T131 439V287H205Z" />
<glyph unicode="&#x433;" glyph-name="afii10068" horiz-adv-x="296" d="M297 435H131V0H59V500H297V435Z" />
<glyph unicode="&#x434;" glyph-name="afii10069" horiz-adv-x="439" d="M423 -127H373L361 0H65L52 -127H3V65H50Q56 76 66 105T87 187T104 317T113 500H364V65H423V-127ZM292 65V435H179Q177 392 174 341T163 240T146 143T123 65H292Z" />
<glyph unicode="&#x435;" glyph-name="afii10070" horiz-adv-x="413" d="M358 34Q334 12 297 0T219 -12Q172 -12 138 6T81 59T48 142T37 250Q37 378 84 445T217 512Q245 512 272 505T322 477T357 418T371 319Q371 302 370 283T366 242H112Q112 199 119 164T141
105T179 67T238 53Q265 53 291 63T332 87L358 34ZM302 302Q304 377 281 412T218 447Q172 447 145 412T113 302H302Z" />
<glyph unicode="&#x436;" glyph-name="afii10072" horiz-adv-x="537" d="M193 221L81 0H0L123 229L150 259L109 297L9 500H85L189 284H230V500H302V274L339 288L443 500H518L413 297L381 265L422 225L537 0H454L342 225H302V0H230V235L193 221Z" />
<glyph unicode="&#x437;" glyph-name="afii10073" horiz-adv-x="351" d="M97 224V286H152Q166 286 179 292T203 310T220 335T227 366Q227 405 207 423T144 441Q113 441 88 432T48 413L27 470Q52 486 85 496T162 506Q228 506 263 476T299 384Q299 346 280 314T228
268V264Q274 253 294 222T314 140Q314 77 272 35T143 -8Q103 -8 76 -1T26 19L45 81Q64 69 90 63T144 57Q193 57 217 80T242 146Q242 182 219 203T142 224H97Z" />
<glyph unicode="&#x438;" glyph-name="afii10074" horiz-adv-x="439" d="M308 288L314 364H310L275 280L106 0H59V500H131V203L125 130H129L162 212L333 500H380V0H308V288Z" />
<glyph unicode="&#x439;" glyph-name="afii10075" horiz-adv-x="439" d="M308 288L314 364H310L275 280L106 0H59V500H131V203L125 130H129L162 212L333 500H380V0H308V288ZM157 702Q162 656 181 637T227 617Q253 617 272 638T297 701L352 685Q344 625 309 594T225
562Q202 562 181 568T142 589T112 627T96 683L157 702Z" />
<glyph unicode="&#x43a;" glyph-name="afii10076" horiz-adv-x="387" d="M168 225H131V0H59V500H131V274L165 288L287 500H364L245 299L210 266L253 226L381 0H295L168 225Z" />
<glyph unicode="&#x43b;" glyph-name="afii10077" horiz-adv-x="407" d="M276 435H167Q164 350 159 271T142 130T106 33T45 -4Q28 -4 16 -2T-6 5L5 68Q26 62 42 70T71 122T90 255T101 500H348V0H276V435Z" />
<glyph unicode="&#x43c;" glyph-name="afii10078" horiz-adv-x="522" d="M391 297L398 392H394L364 307L271 115H245L148 307L121 392H116L124 298V0H59V500H131L240 283L262 218H264L288 285L389 500H463V0H391V297Z" />
<glyph unicode="&#x43d;" glyph-name="afii10079" horiz-adv-x="434" d="M304 223H131V0H59V500H131V288H304V500H376V0H304V223Z" />
<glyph unicode="&#x43e;" glyph-name="afii10080" d="M37 250Q37 385 83 448T216 512Q308 512 351 447T395 250Q395 114 348 51T216 -12Q124 -12 81 53T37 250ZM112 250Q112 206 117 170T135 108T168 68T216 53Q268 53 294 99T320 250Q320 293 315 329T297 392T264
432T216 447Q165 447 139 400T112 250Z" />
<glyph unicode="&#x43f;" glyph-name="afii10081" horiz-adv-x="430" d="M299 435H131V0H59V500H371V0H299V435Z" />
<glyph unicode="&#x440;" glyph-name="afii10082" horiz-adv-x="435" d="M59 500H110L121 446H125Q162 512 241 512Q320 512 359 453T399 260Q399 197 386 147T349 61T291 7T214 -12Q185 -12 168 -9T131 6V-200H59V500ZM131 79Q145 67 162 60T209 53Q262 53 293
107T324 261Q324 303 319 337T301 395T271 433T225 447Q152 447 131 358V79Z" />
<glyph unicode="&#x441;" glyph-name="afii10083" horiz-adv-x="356" d="M335 25Q310 6 278 -3T211 -12Q163 -12 130 6T77 59T47 142T37 250Q37 378 82 445T213 512Q252 512 280 505T328 487L308 424Q268 447 221 447Q167 447 140 400T112 250Q112 209 118 173T138
111T174 69T229 53Q255 53 277 62T314 83L335 25Z" />
<glyph unicode="&#x442;" glyph-name="afii10084" horiz-adv-x="320" d="M319 435H196V0H124V435H1V500H319V435Z" />
<glyph unicode="&#x443;" glyph-name="afii10085" horiz-adv-x="376" d="M183 177L204 80H209L224 177L300 500H373L254 51Q240 -3 226 -50T196 -131T159 -185T110 -205Q82 -205 61 -196L73 -128Q87 -133 101 -130T127 -113T150 -72T169 0L7 500H89L183 177Z" />
<glyph unicode="&#x444;" glyph-name="afii10086" horiz-adv-x="550" d="M240 -4Q226 -10 212 -11T185 -12Q111 -12 72 50T33 250Q33 383 76 445T201 508Q224 508 240 504V700H310V503Q324 506 335 507T357 508Q397 508 427 495T477 453T507 377T517 260Q517 125
475 57T354 -12Q346 -12 332 -11T310 -5V-200H240V-4ZM343 446Q333 446 326 446T308 441V53Q316 51 325 51T347 50Q445 50 445 260Q445 352 423 399T343 446ZM203 50Q213 50 222 51T242 55V442Q225 446 205 446Q158 446 132 401T105 250Q105 158 128 104T203 50Z"
/>
<glyph unicode="&#x445;" glyph-name="afii10087" horiz-adv-x="412" d="M161 256L29 500H115L189 357L209 301L230 357L306 500H385L252 260L393 0H311L227 157L205 217L182 157L98 0H19L161 256Z" />
<glyph unicode="&#x446;" glyph-name="afii10088" horiz-adv-x="442" d="M426 -127H376L364 0H59V500H131V65H296V500H368V65H426V-127Z" />
<glyph unicode="&#x447;" glyph-name="afii10089" horiz-adv-x="396" d="M108 500V354Q108 329 110 309T120 275T140 253T174 245Q209 245 231 254T265 274V500H337V0H265V210Q253 201 228 191T159 180Q130 180 107 187T69 212T45 258T36 331V500H108Z" />
<glyph unicode="&#x448;" glyph-name="afii10090" horiz-adv-x="594" d="M59 0V500H131V65H261V500H333V65H463V500H535V0H59Z" />
<glyph unicode="&#x449;" glyph-name="afii10091" horiz-adv-x="609" d="M593 -130H543L531 0H59V500H131V65H261V500H333V65H463V500H535V65H593V-130Z" />
<glyph unicode="&#x44a;" glyph-name="afii10092" horiz-adv-x="407" d="M160 65Q174 62 188 61T215 59Q264 59 286 83T309 158Q309 203 287 228T217 254Q204 254 189 253T160 247V65ZM160 309Q179 313 197 314T232 316Q274 316 303 305T350 273T376 226T384 167Q384
76 341 35T200 -6Q143 -6 88 0V435H0V500H160V309Z" />
<glyph unicode="&#x44b;" glyph-name="afii10093" horiz-adv-x="538" d="M131 65Q161 59 186 59Q234 59 253 84T272 158Q272 203 254 228T188 254Q175 254 160 253T131 247V65ZM131 309Q151 313 169 314T203 316Q244 316 272 305T316 273T340 226T347 167Q347
76 307 35T172 -6Q114 -6 59 0V500H131V309ZM407 500H479V0H407V500Z" />
<glyph unicode="&#x44c;" glyph-name="afii10094" horiz-adv-x="377" d="M131 65Q161 59 186 59Q280 59 280 158Q280 203 258 228T188 254Q175 254 160 253T131 247V65ZM131 309Q151 313 169 314T203 316Q245 316 274 305T321 273T347 226T355 167Q355 76 311
35T173 -6Q114 -6 59 0V500H131V309Z" />
<glyph unicode="&#x44d;" glyph-name="afii10095" horiz-adv-x="372" d="M94 283H260Q257 361 229 404T148 447Q116 447 92 438T53 418L28 475Q51 492 84 502T160 512Q250 512 292 447T335 250Q335 119 287 54T150 -12Q73 -12 28 12L48 76Q67 65 93 59T143 53Q254
53 260 221H94V283Z" />
<glyph unicode="&#x44e;" glyph-name="afii10096" horiz-adv-x="581" d="M377 -11Q289 -11 251 50T208 225H131V0H59V500H131V290H209Q216 401 256 456T378 511Q467 511 505 443T544 250Q544 117 503 53T377 -11ZM279 250Q279 210 283 175T299 112T330 70T378
54Q427 54 448 99T469 250Q469 293 465 329T450 391T422 431T377 446Q325 446 302 398T279 250Z" />
<glyph unicode="&#x44f;" glyph-name="afii10097" horiz-adv-x="387" d="M262 207L201 195L100 0H15L108 172L140 208Q99 216 71 250T42 342Q42 432 90 472T223 512Q254 512 281 508T334 497V0H262V207ZM262 253V438Q252 443 239 445T216 447Q168 447 143 422T117
346Q117 300 146 275T223 251L262 253Z" />
<glyph unicode="&#x451;" glyph-name="afii10071" horiz-adv-x="413" d="M358 34Q334 12 297 0T219 -12Q172 -12 138 6T81 59T48 142T37 250Q37 378 84 445T217 512Q245 512 272 505T322 477T357 418T371 319Q371 302 370 283T366 242H112Q112 199 119 164T141
105T179 67T238 53Q265 53 291 63T332 87L358 34ZM302 302Q304 377 281 412T218 447Q172 447 145 412T113 302H302ZM90 890Q90 913 101 926T133 939Q153 939 164 926T176 890Q176 869 165 856T133 843Q113 843 102 856T90 890ZM249 890Q249 913 260 926T292 939Q312
939 323 926T335 890Q335 869 324 856T292 843Q272 843 261 856T249 890Z" />
<glyph unicode="&#x452;" glyph-name="afii10099" horiz-adv-x="443" d="M-2 500H63V700H135V500H263V442H135V301H138Q158 328 187 344T261 360Q294 360 318 351T359 321T383 265T391 178V-29Q391 -130 358 -173T251 -206V-141Q273 -141 286 -133T307 -108T317
-63T319 0V150Q319 228 303 261T236 295Q201 295 174 272T135 212V0H63V442H-2V500Z" />
<glyph unicode="&#x453;" glyph-name="afii10100" horiz-adv-x="296" d="M297 435H131V0H59V500H297V435ZM188 720H266V699L184 571H141L188 720Z" />
<glyph unicode="&#x454;" glyph-name="afii10101" horiz-adv-x="376" d="M351 24Q328 7 294 -2T225 -11Q177 -11 142 7T83 60T48 142T37 250Q37 377 89 444T230 511Q268 511 295 505T344 487L325 424Q305 435 282 440T235 446Q181 446 150 406T112 285H294V223H112Q114
189 122 159T146 105T185 68T241 54Q268 54 292 62T330 82L351 24Z" />
<glyph unicode="&#x455;" glyph-name="afii10102" horiz-adv-x="338" d="M51 82Q71 70 98 62T155 53Q188 53 211 69T234 123Q234 154 220 174T185 210T138 239T92 272T56 317T42 383Q42 447 76 479T174 512Q215 512 245 505T297 484L278 424Q259 434 234 440T183
447Q147 447 131 432T114 385Q114 360 128 343T163 311T210 281T256 246T292 197T306 125Q306 97 297 72T270 29T224 -1T159 -12Q115 -12 83 -4T29 19L51 82Z" />
<glyph unicode="&#x456;" glyph-name="afii10103" horiz-adv-x="217" d="M71 500H143V0H71V500ZM58 652Q58 676 71 691T107 706Q129 706 143 692T158 652Q158 628 144 615T107 601Q85 601 72 615T58 652Z" />
<glyph unicode="&#x457;" glyph-name="afii10104" horiz-adv-x="230" d="M22 651Q22 674 32 686T63 699Q83 699 93 687T104 651Q104 630 94 617T63 604Q43 604 33 617T22 651ZM127 651Q127 674 137 686T168 699Q188 699 198 687T209 651Q209 630 199 617T168 604Q148
604 138 617T127 651ZM76 500H148V0H76V500Z" />
<glyph unicode="&#x458;" glyph-name="afii10105" horiz-adv-x="215" d="M72 500H144V-27Q144 -130 111 -175T4 -210V-145Q26 -145 39 -136T60 -109T70 -63T72 2V500ZM58 652Q58 676 71 691T107 706Q129 706 143 692T158 652Q158 628 144 615T107 601Q85 601 72
615T58 652Z" />
<glyph unicode="&#x459;" glyph-name="afii10106" horiz-adv-x="597" d="M350 309Q370 313 388 314T422 316Q464 316 493 305T540 273T566 226T574 167Q574 76 530 35T392 -6Q333 -6 278 0V435H169Q166 350 161 271T144 130T108 33T47 -4Q30 -4 18 -2T-4 5L7 68Q28
62 44 70T73 122T92 255T103 500H350V309ZM350 65Q380 59 405 59Q499 59 499 158Q499 203 477 228T407 254Q394 254 379 253T350 247V65Z" />
<glyph unicode="&#x45a;" glyph-name="afii10107" horiz-adv-x="621" d="M375 64Q390 61 404 60T430 59Q524 59 524 156Q524 249 432 249Q419 249 404 248T375 243V64ZM375 305Q395 309 413 310T447 311Q489 311 518 301T565 271T591 225T599 167Q599 76 556 35T417
-6Q358 -6 303 0V226H131V0H59V500H131V291H303V500H375V305Z" />
<glyph unicode="&#x45b;" glyph-name="afii10108" horiz-adv-x="443" d="M-2 500H63V700H135V500H263V442H135V301H138Q158 328 187 344T261 360Q294 360 318 351T359 319T383 261T391 170V0H319V156Q319 226 303 260T236 295Q201 295 173 272T135 210V0H63V442H-2V500Z" />
<glyph unicode="&#x45c;" glyph-name="afii10109" horiz-adv-x="387" d="M168 225H131V0H59V500H131V274L165 288L287 500H364L245 299L210 266L253 226L381 0H295L168 225ZM205 720H283V699L201 571H158L205 720Z" />
<glyph unicode="&#x45e;" glyph-name="afii10110" horiz-adv-x="376" d="M183 177L204 80H209L224 177L300 500H373L254 51Q240 -3 226 -50T196 -131T159 -185T110 -205Q82 -205 61 -196L73 -128Q87 -133 101 -130T127 -113T150 -72T169 0L7 500H89L183 177ZM129
702Q134 656 153 637T199 617Q225 617 244 638T269 701L324 685Q316 625 281 594T197 562Q174 562 153 568T114 589T84 627T68 683L129 702Z" />
<glyph unicode="&#x45f;" glyph-name="afii10193" horiz-adv-x="430" d="M59 0V500H131V69H299V500H371V0H253L240 -179H193L177 0H59Z" />
<glyph unicode="&#x462;" glyph-name="afii10146" horiz-adv-x="504" d="M0 617H119V721H194V617H360V552H194V427Q198 428 208 429T229 432T253 434T275 435Q315 435 351 426T416 393T461 329T478 226Q478 106 418 49T256 -8Q245 -8 228 -8T193 -6T155 -2T119
6V552H0V617ZM264 61Q323 61 361 99T399 220Q399 264 388 292T359 337T315 360T263 366Q256 366 246 365T226 363T207 360T194 357V67Q205 64 224 63T264 61Z" />
<glyph unicode="&#x463;" glyph-name="afii10194" horiz-adv-x="407" d="M0 500H88V700H160V500H289V438H160V309Q179 313 197 314T232 316Q274 316 303 305T350 273T376 226T384 167Q384 76 341 35T201 -6Q143 -6 88 0V438H0V500ZM160 64Q174 61 188 60T215 59Q264
59 286 86T309 158Q309 198 287 226T217 254Q204 254 189 253T160 247V64Z" />
<glyph unicode="&#x472;" glyph-name="afii10147" horiz-adv-x="549" d="M43 350Q43 528 100 620T274 712Q337 712 381 687T452 614T493 500T506 350Q506 172 449 80T274 -12Q212 -12 168 13T96 86T56 200T43 350ZM274 57Q345 57 384 122T427 322H122Q124 268
133 220T161 136T207 78T274 57ZM274 643Q205 643 166 580T122 389H427Q424 441 414 487T386 567T340 622T274 643Z" />
<glyph unicode="&#x473;" glyph-name="afii10195" d="M37 250Q37 381 83 446T216 512Q308 512 351 444T395 250Q395 117 349 53T216 -12Q124 -12 81 56T37 250ZM320 279Q315 370 287 408T216 447Q196 447 178 439T146 411T123 359T112 279H320ZM112 219Q115 134
144 94T216 53Q235 53 253 61T286 88T309 139T320 219H112Z" />
<glyph unicode="&#x474;" glyph-name="afii10148" horiz-adv-x="487" d="M252 -11H213L-3 700H81L217 221L236 114H237L250 223L310 476Q327 550 342 595T373 665T410 698T459 707Q486 707 503 702T534 687L513 622Q498 631 486 634T462 638Q439 638 424 607T393
520L252 -11Z" />
<glyph unicode="&#x475;" glyph-name="afii10196" horiz-adv-x="410" d="M88 500L181 211L201 112H203L221 213L246 300Q260 349 272 387T299 452T332 493T377 507Q393 507 405 505T428 498L418 431Q407 435 397 437T377 434T357 409T334 356L214 -11H180L5 500H88Z" />
<glyph unicode="&#x48a;" glyph-name="uni048A" horiz-adv-x="558" d="M405 458L411 550H408L373 456L114 0H64V700H139V235L132 145H136L171 239L431 700H480V65H563V44L489 -130H439L475 0H405V458ZM207 870Q209 833 227 811T278 789Q310 789 327 811T348 869L412
854Q404 797 371 766T277 735Q218 735 180 763T135 853L207 870Z" />
<glyph unicode="&#x48b;" glyph-name="uni048B" horiz-adv-x="456" d="M308 288L314 364H310L275 280L106 0H59V500H131V203L125 130H129L162 212L333 500H380V65H460V44L386 -130H336L372 0H308V288ZM158 702Q163 656 182 637T228 617Q254 617 273 638T298 701L353
685Q345 625 310 594T226 562Q203 562 182 568T143 589T113 627T97 683L158 702Z" />
<glyph unicode="&#x48c;" glyph-name="uni048C" horiz-adv-x="459" d="M0 698H73V780H148V698H265V640H148V428Q159 431 184 434T228 437Q268 437 305 427T370 393T416 329T433 226Q433 106 373 49T210 -8Q199 -8 182 -8T147 -6T109 -2T73 6V640H0V698ZM219 61Q278
61 316 99T354 220Q354 264 343 293T313 338T269 361T217 368Q210 368 200 367T179 365T161 362T148 359V67Q159 64 179 63T219 61Z" />
<glyph unicode="&#x48d;" glyph-name="uni048D" horiz-adv-x="407" d="M0 500H88V700H160V500H289V438H160V309Q179 313 197 314T232 316Q274 316 303 305T350 273T376 226T384 167Q384 76 341 35T201 -6Q143 -6 88 0V438H0V500ZM160 64Q174 61 188 60T215 59Q264
59 286 86T309 158Q309 198 287 226T217 254Q204 254 189 253T160 247V64Z" />
<glyph unicode="&#x48e;" glyph-name="uni048E" horiz-adv-x="451" d="M64 693Q96 702 132 705T203 708Q243 708 282 699T352 666T403 600T423 493Q423 421 399 374T337 300L396 207L349 175L285 274Q247 262 204 262Q200 262 191 262T172 262T153 264T139 266V0H64V693ZM231
462L294 359Q317 377 330 409T344 493Q344 535 333 563T303 608T259 632T207 639Q187 639 169 638T139 633V336Q143 334 151 334T169 332T186 331T199 331Q213 331 227 332T254 338L195 434L231 462Z" />
<glyph unicode="&#x48f;" glyph-name="uni048F" horiz-adv-x="435" d="M59 500H110L121 446H125Q162 512 241 512Q320 512 359 453T399 260Q399 185 381 129T329 37L375 -26L331 -61L284 3Q252 -12 214 -12Q185 -12 168 -9T131 6V-200H59V500ZM234 160L283 92Q303
118 313 160T324 261Q324 303 319 337T301 395T271 433T225 447Q152 447 131 358V79Q145 67 162 60T209 53Q231 53 249 62L200 132L234 160Z" />
<glyph unicode="&#x490;" glyph-name="afii10050" horiz-adv-x="357" d="M306 700L320 834H370V631H139V0H64V700H306Z" />
<glyph unicode="&#x491;" glyph-name="afii10098" horiz-adv-x="296" d="M297 435H131V0H59V500H233L247 634H297V435Z" />
<glyph unicode="&#x492;" glyph-name="uni0492" horiz-adv-x="390" d="M392 631H161V383H333V320H161V0H86V320H7V383H86V700H392V631Z" />
<glyph unicode="&#x493;" glyph-name="uni0493" horiz-adv-x="306" d="M306 435H140V279H278V221H140V0H68V221H0V279H68V500H306V435Z" />
<glyph unicode="&#x494;" glyph-name="uni0494" horiz-adv-x="465" d="M139 0H64V700H370V631H139V355Q149 359 178 367T250 376Q284 376 315 366T370 328T408 255T423 138Q423 0 376 -64T234 -128Q208 -128 196 -127T178 -125V-56Q189 -58 201 -58T236 -59Q292
-59 318 -11T344 131Q344 182 336 216T312 270T276 298T228 307Q201 307 176 300T139 287V0Z" />
<glyph unicode="&#x495;" glyph-name="uni0495" horiz-adv-x="430" d="M131 0H59V500H297V435H131V252Q141 256 165 264T232 273Q263 273 291 263T342 228T376 158T389 45Q389 -86 348 -147T214 -209Q188 -209 176 -208T158 -205V-140Q168 -142 179 -143T212 -144Q266
-144 290 -99T314 36Q314 85 307 118T285 171T252 199T208 208Q181 208 160 201T131 189V0Z" />
<glyph unicode="&#x496;" glyph-name="uni0496" horiz-adv-x="678" d="M287 700H359V374L393 388L547 700H631L474 396L441 364L482 324L619 69H673V-129H620L608 0H563L395 325H359V0H287V337L254 323L86 0H-2L170 314L209 351L172 386L10 700H98L252 386H287V700Z" />
<glyph unicode="&#x497;" glyph-name="uni0497" horiz-adv-x="567" d="M342 225H302V0H230V235L193 221L81 0H0L123 229L150 259L109 297L9 500H85L189 284H230V500H302V274L338 288L443 500H518L413 297L381 265L422 225L503 65H564V-127H515L502 0H454L342 225Z" />
<glyph unicode="&#x498;" glyph-name="uni0498" horiz-adv-x="434" d="M109 333V398H127Q142 398 164 399T199 403Q239 413 267 444T296 524Q296 590 264 616T183 643Q144 643 114 636T65 617L45 679Q63 690 104 701T198 712Q232 712 264 704T320 677T360 624T375
540Q375 489 350 445T271 378V374Q327 363 359 321T392 206Q392 155 378 116T340 51T284 9T214 -11L202 -179H155L140 -12Q103 -10 77 -3T31 14L51 82Q71 71 103 64T181 57Q208 57 232 66T274 94T302 139T313 203Q313 268 279 297T186 332Q176 333 169 333T150
333H109Z" />
<glyph unicode="&#x499;" glyph-name="uni0499" horiz-adv-x="351" d="M96 224V286H149Q163 286 176 292T200 310T217 335T224 366Q224 405 204 423T141 441Q110 441 86 432T48 413L27 470Q52 486 85 496T162 506Q228 506 263 476T299 384Q299 346 280 314T228
268V264Q274 253 294 222T314 140Q314 86 284 47T191 -4L179 -179H132L116 -7Q87 -5 66 2T26 19L45 81Q64 69 88 64T141 58Q239 58 239 146Q239 182 216 203T139 224H96Z" />
<glyph unicode="&#x49a;" glyph-name="uni049A" horiz-adv-x="505" d="M175 324H139V0H64V700H139V374L174 388L356 700H442L259 398L224 366L265 326L425 69H497V-129H444L432 0H373L175 324Z" />
<glyph unicode="&#x49b;" glyph-name="uni049B" horiz-adv-x="410" d="M168 225H131V0H59V500H131V274L165 288L287 500H364L245 299L210 266L253 226L343 65H402V-127H353L340 0H295L168 225Z" />
<glyph unicode="&#x49c;" glyph-name="uni049C" horiz-adv-x="541" d="M168 324H139V0H64V700H139V374L168 378V505H225V385L243 388L406 700H491L326 399L290 366L332 326L516 0H423L246 324H225V195H168V324Z" />
<glyph unicode="&#x49d;" glyph-name="uni049D" horiz-adv-x="426" d="M155 225H131V0H59V500H131V274L155 277V402H207V285L227 288L326 500H402L305 299L268 266L311 226L417 0H334L229 225H207V98H155V225Z" />
<glyph unicode="&#x49e;" glyph-name="uni049E" horiz-adv-x="539" d="M0 633H110V700H185V633H280V570H185V374L224 388L403 700H489L309 399L272 366L314 326L514 0H420L224 324H185V0H110V568H0V633Z" />
<glyph unicode="&#x49f;" glyph-name="uni049F" horiz-adv-x="388" d="M-5 613H60V700H132V613H260V555H132V274L165 288L282 500H365L247 298L212 266L253 227L382 0H295L169 225H132V0H60V555H-5V613Z" />
<glyph unicode="&#x4a0;" glyph-name="uni04A0" horiz-adv-x="558" d="M129 631H0V700H204V374L239 388L421 700H507L324 398L289 366L330 326L533 0H438L240 324H204V0H129V627V631Z" />
<glyph unicode="&#x4a1;" glyph-name="uni04A1" horiz-adv-x="416" d="M160 274L195 288L316 500H393L274 299L239 266L282 227L411 0H325L198 225H160V0H88V435H0V500H160V274Z" />
<glyph unicode="&#x4a2;" glyph-name="uni04A2" horiz-adv-x="568" d="M397 323H139V0H64V700H139V392H397V700H472V69H546V-129H494L482 0H397V323Z" />
<glyph unicode="&#x4a3;" glyph-name="uni04A3" horiz-adv-x="444" d="M304 223H131V0H59V500H131V288H304V500H376V65H436V-127H387L374 0H304V223Z" />
<glyph unicode="&#x4a4;" glyph-name="uni04A4" horiz-adv-x="690" d="M703 631H472V0H397V323H139V0H64V700H139V392H397V700H703V631Z" />
<glyph unicode="&#x4a5;" glyph-name="uni04A5" horiz-adv-x="541" d="M542 435H376V0H304V223H131V0H59V500H131V288H304V500H542V435Z" />
<glyph unicode="&#x4a6;" glyph-name="uni04A6" horiz-adv-x="787" d="M462 0H387V631H139V0H64V700H462V355Q472 360 501 368T572 376Q606 376 637 366T693 328T731 255T745 138Q745 1 699 -63T557 -128Q531 -128 519 -128T501 -125V-56Q511 -58 523 -58T559
-59Q614 -59 640 -11T666 130Q666 181 658 215T634 269T598 298T551 307Q524 307 498 300T462 287V0Z" />
<glyph unicode="&#x4a7;" glyph-name="uni04A7" horiz-adv-x="668" d="M371 0H299V435H131V0H59V500H371V254Q381 258 405 265T472 273Q503 273 531 263T581 226T616 157T629 46Q629 -86 588 -147T453 -209Q427 -209 416 -208T398 -205V-140Q408 -142 420 -143T454
-144Q508 -144 532 -97T557 36Q557 84 549 117T527 170T494 199T450 208Q423 208 401 201T371 189V0Z" />
<glyph unicode="&#x4a8;" glyph-name="uni04A8" horiz-adv-x="662" d="M284 643Q210 643 166 573T122 351Q122 289 135 235T171 142T228 80T302 57Q310 57 321 57T341 61Q316 81 297 112T264 183T243 268T235 362Q235 520 288 600T425 680Q519 680 564 606T609
398Q609 336 599 283T572 185T532 109T483 57Q489 55 494 56T505 57Q532 57 554 64T592 84L615 23Q599 8 575 -2T508 -12Q482 -12 455 -4T408 18Q363 -12 301 -12Q239 -12 191 13T110 85T60 199T43 350Q43 531 105 621T284 712V643ZM314 354Q314 318 320 279T339
203T371 135T417 85Q438 100 458 127T494 194T520 283T530 392Q530 438 525 478T507 547T476 594T427 611Q380 611 347 549T314 354Z" />
<glyph unicode="&#x4a9;" glyph-name="uni04A9" horiz-adv-x="540" d="M217 447Q112 445 112 251Q112 209 119 173T142 110T181 68T236 53Q245 53 256 55T274 64Q247 86 227 138T207 259Q207 306 214 349T239 426T285 480T357 500Q396 500 422 483T466 437T490
369T498 286Q498 246 490 209T469 142T440 90T406 57Q426 46 451 52T495 79L518 25Q504 8 479 -2T425 -12Q400 -12 377 -4T338 23Q314 2 285 -5T227 -12Q135 -12 86 56T37 250Q37 375 81 443T217 512V447ZM282 256Q282 199 299 149T345 74Q377 95 400 152T423 285Q423
315 419 342T407 390T386 423T356 435Q333 435 319 421T296 383T285 326T282 256Z" />
<glyph unicode="&#x4aa;" glyph-name="uni04AA" horiz-adv-x="458" d="M430 27Q410 10 381 1T319 -11L307 -179H260L245 -9Q200 -2 163 22T99 90T58 198T43 350Q43 450 63 519T118 631T196 693T288 712Q336 712 367 705T422 688L404 620Q384 631 357 637T295 643Q260
643 229 628T174 578T136 487T122 350Q122 204 172 132T305 60Q339 60 366 68T412 89L430 27Z" />
<glyph unicode="&#x4ab;" glyph-name="uni04AB" horiz-adv-x="356" d="M335 25Q318 11 297 3T252 -9L240 -179H193L178 -9Q140 -3 113 18T69 72T45 151T37 250Q37 378 82 445T213 512Q252 512 280 505T328 487L308 425Q270 447 221 447Q167 447 140 400T112 250Q112
209 118 174T138 112T174 70T229 54Q255 54 277 62T314 83L335 25Z" />
<glyph unicode="&#x4ac;" glyph-name="uni04AC" horiz-adv-x="449" d="M186 631H14V700H435V631H261V69H337V-129H285L273 0H186V631Z" />
<glyph unicode="&#x4ad;" glyph-name="uni04AD" horiz-adv-x="320" d="M124 435H1V500H319V435H196V65H256V-127H207L194 0H124V435Z" />
<glyph unicode="&#x4ae;" glyph-name="uni04AE" horiz-adv-x="455" d="M191 278L5 700H93L219 395L232 334H234L247 397L369 700H450L266 279V0H191V278Z" />
<glyph unicode="&#x4af;" glyph-name="uni04AF" horiz-adv-x="391" d="M5 500H89L182 180L203 70H205L223 182L307 500H385L235 0V-200H163V0L5 500Z" />
<glyph unicode="&#x4b0;" glyph-name="uni04B0" horiz-adv-x="455" d="M69 285H188L5 700H93L219 395L232 334H234L247 397L369 700H450L268 285H388V226H266V0H191V226H69V285Z" />
<glyph unicode="&#x4b1;" glyph-name="uni04B1" horiz-adv-x="391" d="M67 0H163L5 500H89L182 180L203 70H205L223 182L307 500H385L235 0H331V-58H235V-200H163V-58H67V0Z" />
<glyph unicode="&#x4b2;" glyph-name="uni04B2" horiz-adv-x="530" d="M203 356L35 700H125L234 463L254 404L274 463L389 700H472L298 363L445 69H522V-129H469L457 0H392L271 251L248 313L227 251L103 0H19L203 356Z" />
<glyph unicode="&#x4b3;" glyph-name="uni04B3" horiz-adv-x="426" d="M227 157L205 217L182 157L98 0H19L161 256L29 500H115L189 357L209 301L230 357L306 500H385L252 260L357 65H419V-127H370L357 0H311L227 157Z" />
<glyph unicode="&#x4b4;" glyph-name="uni04B4" horiz-adv-x="674" d="M653 -129H601L588 0H187V631H14V700H402V631H262V69H504V700H579V69H653V-129Z" />
<glyph unicode="&#x4b5;" glyph-name="uni04B5" horiz-adv-x="509" d="M493 -127H443L431 0H125V435H1V500H307V435H197V65H362V500H434V65H493V-127Z" />
<glyph unicode="&#x4b6;" glyph-name="uni04B6" horiz-adv-x="518" d="M130 700V456Q130 383 155 355T228 326Q263 326 295 339T348 373V700H423V69H497V-129H445L433 0H348V300Q328 285 292 271T212 257Q180 257 152 265T102 293T68 349T55 439V700H130Z" />
<glyph unicode="&#x4b7;" glyph-name="uni04B7" horiz-adv-x="414" d="M265 210Q253 201 228 191T159 180Q130 180 107 187T69 212T45 258T36 331V500H108V354Q108 329 110 309T120 275T140 253T174 245Q209 245 231 254T265 274V500H337V65H398V-127H349L336 0H265V210Z" />
<glyph unicode="&#x4b8;" glyph-name="uni04B8" horiz-adv-x="498" d="M219 257H215Q179 257 150 266T99 296T67 353T55 442V700H130V458Q130 392 151 361T219 326V455H276V331Q301 336 323 347T359 373V700H434V0H359V300Q345 290 324 281T276 264V145H219V257Z" />
<glyph unicode="&#x4b9;" glyph-name="uni04B9" horiz-adv-x="405" d="M167 176H162Q131 176 108 184T68 212T44 265T36 348V500H108V359Q108 334 110 314T118 278T136 253T167 241V373H219V244Q238 248 252 256T275 272V500H347V0H275V210Q267 203 253 196T219
183V68H167V176Z" />
<glyph unicode="&#x4ba;" glyph-name="uni04BA" horiz-adv-x="487" d="M357 0V236Q357 307 334 340T260 374Q224 374 192 362T139 329V0H64V700H139V400Q160 414 196 428T278 443Q313 443 341 434T390 403T421 343T432 249V0H357Z" />
<glyph unicode="&#x4bb;" glyph-name="uni04BB" horiz-adv-x="440" d="M315 0V304Q315 374 299 410T233 447Q198 447 170 422T131 359V0H59V700H131V453H134Q154 479 183 495T257 512Q290 512 314 503T355 472T379 414T387 323V0H315Z" />
<glyph unicode="&#x4bc;" glyph-name="uni04BC" horiz-adv-x="632" d="M234 319Q240 186 282 122T410 57Q446 57 477 70T529 98L551 35Q523 15 485 2T396 -12Q288 -12 224 67T155 319H127Q58 319 29 349T1 436Q1 465 8 485T26 519H95Q81 505 75 484T69 445Q69
431 72 420T84 400T110 388T155 386Q160 542 216 627T379 712Q482 712 532 639T583 430Q583 404 582 377T576 319H234ZM506 386Q508 400 508 413T508 441Q508 481 501 517T479 582T439 626T380 643Q306 643 271 575T233 386H506Z" />
<glyph unicode="&#x4bd;" glyph-name="uni04BD" horiz-adv-x="502" d="M450 34Q426 12 389 0T311 -12Q264 -12 231 6T175 57T141 136T129 241H120Q60 241 32 272T5 357Q6 394 17 416T44 454H113Q95 440 82 417T69 360Q69 336 81 318T131 303Q141 406 186 459T309
512Q337 512 364 505T414 477T449 418T463 319Q463 302 462 283T458 242H204Q204 199 211 164T233 105T271 67T330 53Q357 53 383 63T424 87L450 34ZM394 302Q396 377 373 412T310 447Q264 447 237 412T205 302H394Z" />
<glyph unicode="&#x4be;" glyph-name="uni04BE" horiz-adv-x="627" d="M234 319Q240 186 282 122T410 58Q446 58 477 71T529 98L551 35Q527 18 496 6T425 -11L413 -179H366L351 -11Q262 3 211 83T155 319H127Q58 319 29 349T1 436Q1 465 8 485T26 519H95Q81 505
75 484T69 445Q69 431 72 420T84 400T110 388T155 386Q160 542 216 627T379 712Q482 712 532 639T583 430Q583 404 582 377T576 319H234ZM501 386Q504 413 504 441Q504 481 498 517T477 582T438 626T380 643Q306 643 271 575T233 386H501Z" />
<glyph unicode="&#x4bf;" glyph-name="uni04BF" horiz-adv-x="502" d="M451 34Q432 17 406 6T349 -11L337 -179H290L275 -10Q201 4 167 71T130 242H121Q61 242 33 272T6 357Q7 394 18 416T45 454H114Q96 440 83 417T70 360Q70 348 73 337T83 318T102 305T132 303Q142
406 187 459T310 512Q338 512 365 505T415 477T450 418T464 319Q464 302 463 283T459 242H205Q206 155 234 105T331 54Q358 54 384 63T425 87L451 34ZM395 302Q397 377 374 412T311 447Q265 447 238 412T206 302H395Z" />
<glyph unicode="&#x4c0;" glyph-name="uni04C0" horiz-adv-x="233" d="M79 700H154V0H79V700Z" />
<glyph unicode="&#x4c3;" glyph-name="uni04C3" horiz-adv-x="484" d="M351 71Q351 141 341 189T310 268T255 311T176 324H139V0H64V700H139V374L174 388L356 700H442L266 414L220 376H268Q310 364 340 343T389 287T417 201T426 75V56Q426 -22 413 -75T376 -159T317
-203T239 -210V-141Q271 -141 292 -130T327 -94T345 -28T351 71Z" />
<glyph unicode="&#x4c4;" glyph-name="uni04C4" horiz-adv-x="390" d="M131 500V265L165 279L286 500H364L244 290L214 263L248 258Q283 248 304 225T338 172T354 105T359 33V16Q359 -52 346 -98T310 -170T254 -205T184 -208V-143Q233 -151 260 -110T287 16Q287
124 256 171T167 220H131V0H59V500H131Z" />
<glyph unicode="&#x4c5;" glyph-name="uni04C5" horiz-adv-x="509" d="M363 631H205Q197 430 184 295T144 87Q127 39 102 17T45 -5Q16 -5 -4 5L7 73Q27 67 44 75T76 122Q87 149 96 194T113 310T126 476T133 700H438V65H514V44L440 -130H390L426 0H363V631Z" />
<glyph unicode="&#x4c6;" glyph-name="uni04C6" horiz-adv-x="423" d="M276 435H167Q164 350 159 271T142 130T106 33T45 -4Q28 -4 16 -2T-6 5L5 68Q26 62 42 70T71 122T90 255T101 500H348V65H427V44L353 -130H303L339 0H276V435Z" />
<glyph unicode="&#x4c7;" glyph-name="uni04C7" horiz-adv-x="536" d="M472 0V-28Q472 -131 440 -175T332 -210V-145Q355 -145 368 -136T387 -109T395 -64T397 0V323H139V0H64V700H139V392H397V700H472V0Z" />
<glyph unicode="&#x4c8;" glyph-name="uni04C8" horiz-adv-x="434" d="M304 223H131V0H59V500H131V288H304V500H376V-29Q376 -121 349 -165T261 -208Q255 -208 249 -208T236 -206V-143Q281 -144 292 -109T304 0V223Z" />
<glyph unicode="&#x4c9;" glyph-name="uni04C9" horiz-adv-x="550" d="M397 323H139V0H64V700H139V392H397V700H472V65H554V44L480 -130H430L466 0H397V323Z" />
<glyph unicode="&#x4ca;" glyph-name="uni04CA" horiz-adv-x="451" d="M304 223H131V0H59V500H131V288H304V500H376V65H455V44L381 -130H331L367 0H304V223Z" />
<glyph unicode="&#x4cb;" glyph-name="uni04CB" horiz-adv-x="487" d="M130 700V456Q130 383 155 355T228 326Q263 326 295 339T348 373V700H423V0H337L324 -129H272V69H348V300Q328 285 292 271T212 257Q180 257 152 265T102 293T68 349T55 439V700H130Z" />
<glyph unicode="&#x4cc;" glyph-name="uni04CC" horiz-adv-x="396" d="M265 213Q252 204 227 194T157 183Q127 183 105 190T67 217T44 268T36 350V500H108V365Q108 339 110 318T120 281T140 257T174 248Q209 248 231 256T265 276V500H337V0H262L250 -127H200V65H265V213Z" />
<glyph unicode="&#x4cd;" glyph-name="uni04CD" horiz-adv-x="651" d="M498 460L507 566H503L471 467L330 163H305L157 467L126 566H122L136 460V0H64V700H127L296 356L321 274H323L347 357L507 700H573V65H656V44L582 -130H532L568 0H498V460Z" />
<glyph unicode="&#x4ce;" glyph-name="uni04CE" horiz-adv-x="538" d="M391 297L398 392H394L364 307L271 115H245L148 307L121 392H116L124 298V0H59V500H131L240 283L262 218H264L288 285L389 500H463V65H542V44L468 -130H418L454 0H391V297Z" />
<glyph unicode="&#x4cf;" glyph-name="uni04CF" horiz-adv-x="205" d="M67 700H139V0H67V700Z" />
<glyph unicode="&#x4d0;" glyph-name="uni04D0" horiz-adv-x="473" d="M333 196H135L79 0H5L216 711H257L468 0H390L333 196ZM155 263H315L254 479L235 584H233L214 477L155 263ZM168 870Q170 833 188 811T239 789Q271 789 288 811T309 869L373 854Q365 797 332
766T238 735Q179 735 141 763T96 853L168 870Z" />
<glyph unicode="&#x4d1;" glyph-name="uni04D1" horiz-adv-x="400" d="M54 470Q83 488 124 498T212 508Q254 508 279 496T319 462T338 413T343 355Q343 295 341 238T338 130Q338 92 340 60T350 -2H295L278 57H274Q259 31 230 12T152 -7Q98 -7 64 30T29 134Q29
177 43 206T84 253T147 278T229 286Q239 286 249 286T270 285Q273 316 273 340Q273 397 256 420T194 443Q166 443 133 435T78 413L54 470ZM271 228Q261 229 251 229T231 230Q207 230 184 226T143 212T115 185T104 142Q104 102 123 80T174 58Q216 58 239 78T271
122V228ZM131 702Q136 656 155 637T201 617Q227 617 246 638T271 701L326 685Q318 625 283 594T199 562Q176 562 155 568T116 589T86 627T70 683L131 702Z" />
<glyph unicode="&#x4d2;" glyph-name="uni04D2" horiz-adv-x="473" d="M333 196H135L79 0H5L216 711H257L468 0H390L333 196ZM155 263H315L254 479L235 584H233L214 477L155 263ZM110 794Q110 815 122 828T157 841Q178 841 190 828T203 794Q203 773 191 761T157
748Q135 748 123 760T110 794ZM268 794Q268 815 280 828T314 841Q336 841 348 828T361 794Q361 773 349 761T314 748Q293 748 281 760T268 794Z" />
<glyph unicode="&#x4d3;" glyph-name="uni04D3" horiz-adv-x="400" d="M54 470Q83 488 124 498T212 508Q254 508 279 496T319 462T338 413T343 355Q343 295 341 238T338 130Q338 92 340 60T350 -2H295L278 57H274Q259 31 230 12T152 -7Q98 -7 64 30T29 134Q29
177 43 206T84 253T147 278T229 286Q239 286 249 286T270 285Q273 316 273 340Q273 397 256 420T194 443Q166 443 133 435T78 413L54 470ZM271 228Q261 229 251 229T231 230Q207 230 184 226T143 212T115 185T104 142Q104 102 123 80T174 58Q216 58 239 78T271
122V228ZM75 890Q75 913 86 926T118 939Q138 939 149 926T161 890Q161 869 150 856T118 843Q98 843 87 856T75 890ZM234 890Q234 913 245 926T277 939Q297 939 308 926T320 890Q320 869 309 856T277 843Q257 843 246 856T234 890Z" />
<glyph unicode="&#x4d4;" glyph-name="uni04D4" horiz-adv-x="683" d="M315 589L289 491L186 266H318V589H315ZM318 199H153L63 0H-18L317 700H630V631H393V394H610V325H393V69H634V0H318V199Z" />
<glyph unicode="&#x4d5;" glyph-name="uni04D5" horiz-adv-x="642" d="M173 57Q194 57 210 63T239 80T259 103T271 129V230Q261 231 251 231T231 232Q207 232 184 228T143 214T115 187T104 144Q104 109 123 83T173 57ZM294 73Q274 38 240 15T154 -8Q98 -8 64 31T29
136Q29 180 43 209T84 256T146 281T226 289Q237 289 248 289T270 287Q273 318 273 342Q273 399 256 421T194 444Q166 444 132 434T75 408L53 464Q84 487 125 497T212 508Q296 508 321 444Q341 480 376 496T447 512Q475 512 502 505T552 476T587 416T601 316Q601
299 600 280T596 240H343Q344 148 371 101T466 53Q494 53 521 63T562 85L588 32Q563 12 527 0T447 -12Q397 -12 358 9T300 73H294ZM447 447Q402 447 375 411T343 299H531Q533 374 511 410T447 447Z" />
<glyph unicode="&#x4d6;" glyph-name="uni04D6" horiz-adv-x="429" d="M64 700H375V631H139V394H356V325H139V69H380V0H64V700ZM151 870Q153 833 171 811T222 789Q254 789 271 811T292 869L356 854Q348 797 315 766T221 735Q162 735 124 763T79 853L151 870Z" />
<glyph unicode="&#x4d7;" glyph-name="uni04D7" horiz-adv-x="413" d="M358 34Q334 12 297 0T219 -12Q172 -12 138 6T81 59T48 142T37 250Q37 378 84 445T217 512Q245 512 272 505T322 477T357 418T371 319Q371 302 370 283T366 242H112Q112 199 119 164T141 105T179
67T238 53Q265 53 291 63T332 87L358 34ZM302 302Q304 377 281 412T218 447Q172 447 145 412T113 302H302ZM145 702Q150 656 169 637T215 617Q241 617 260 638T285 701L340 685Q332 625 297 594T213 562Q190 562 169 568T130 589T100 627T84 683L145 702Z" />
<glyph unicode="&#x4d8;" glyph-name="uni04D8" horiz-adv-x="514" d="M120 323Q118 308 117 293T116 262Q116 221 123 184T147 118T188 74T248 57Q321 57 358 124T396 323H120ZM396 390Q389 518 350 580T229 643Q192 643 158 630T104 603L82 666Q108 683 149
697T241 712Q298 712 341 692T413 628T456 515T471 350Q471 177 417 83T246 -12Q195 -12 157 8T93 65T54 155T41 275Q41 302 42 330T49 390H396Z" />
<glyph unicode="&#x4d9;" glyph-name="afii10846" horiz-adv-x="408" d="M50 468Q75 488 112 500T192 512Q285 512 328 443T371 250Q371 117 325 53T198 -12Q170 -12 142 -3T90 31T52 97T37 203Q37 220 38 238T42 276H298Q295 364 268 405T172 447Q144 447 118
438T77 414L50 468ZM199 53Q244 53 271 94T296 216H107Q103 138 129 96T199 53Z" />
<glyph unicode="&#x4da;" glyph-name="uni04DA" horiz-adv-x="514" d="M120 323Q118 308 117 293T116 262Q116 221 123 184T147 118T188 74T248 57Q321 57 358 124T396 323H120ZM396 390Q389 518 350 580T229 643Q192 643 158 630T104 603L82 666Q108 683 149
697T241 712Q298 712 341 692T413 628T456 515T471 350Q471 177 417 83T246 -12Q195 -12 157 8T93 65T54 155T41 275Q41 302 42 330T49 390H396ZM123 794Q123 815 135 828T170 841Q191 841 203 828T216 794Q216 773 204 761T170 748Q148 748 136 760T123 794ZM281
794Q281 815 293 828T327 841Q349 841 361 828T374 794Q374 773 362 761T327 748Q306 748 294 760T281 794Z" />
<glyph unicode="&#x4db;" glyph-name="uni04DB" horiz-adv-x="408" d="M50 468Q75 488 112 500T192 512Q285 512 328 443T371 250Q371 117 325 53T198 -12Q170 -12 142 -3T90 31T52 97T37 203Q37 220 38 238T42 276H298Q295 364 268 405T172 447Q144 447 118 438T77
414L50 468ZM199 53Q244 53 271 94T296 216H107Q103 138 129 96T199 53ZM75 890Q75 913 86 926T118 939Q138 939 149 926T161 890Q161 869 150 856T118 843Q98 843 87 856T75 890ZM234 890Q234 913 245 926T277 939Q297 939 308 926T320 890Q320 869 309 856T277
843Q257 843 246 856T234 890Z" />
<glyph unicode="&#x4dc;" glyph-name="uni04DC" horiz-adv-x="654" d="M287 700H359V374L393 388L547 700H631L474 396L441 364L482 324L656 0H563L395 325H359V0H287V337L254 323L86 0H-2L170 314L209 351L172 386L10 700H98L252 386H287V700ZM199 794Q199 815
211 828T246 841Q267 841 279 828T292 794Q292 773 280 761T246 748Q224 748 212 760T199 794ZM357 794Q357 815 369 828T403 841Q425 841 437 828T450 794Q450 773 438 761T403 748Q382 748 370 760T357 794Z" />
<glyph unicode="&#x4dd;" glyph-name="uni04DD" horiz-adv-x="537" d="M193 221L81 0H0L123 229L150 259L109 297L9 500H85L189 284H230V500H302V274L339 288L443 500H518L413 297L381 265L422 225L537 0H454L342 225H302V0H230V235L193 221ZM145 890Q145 913
156 926T188 939Q208 939 219 926T231 890Q231 869 220 856T188 843Q168 843 157 856T145 890ZM304 890Q304 913 315 926T347 939Q367 939 378 926T390 890Q390 869 379 856T347 843Q327 843 316 856T304 890Z" />
<glyph unicode="&#x4de;" glyph-name="uni04DE" horiz-adv-x="434" d="M109 333V398H127Q142 398 164 399T199 403Q239 413 267 444T296 524Q296 590 264 616T183 643Q144 643 114 636T65 618L45 679Q63 690 104 701T198 712Q232 712 264 704T320 677T360 624T375
540Q375 489 350 445T271 378V374Q327 363 359 321T392 206Q392 148 375 107T328 40T259 1T178 -12Q125 -12 90 -5T31 14L51 82Q71 71 103 64T181 57Q208 57 232 66T274 94T302 139T313 203Q313 268 279 297T186 332Q176 333 169 333T150 333H109ZM70 794Q70 815
82 828T117 841Q138 841 150 828T163 794Q163 773 151 761T117 748Q95 748 83 760T70 794ZM228 794Q228 815 240 828T274 841Q296 841 308 828T321 794Q321 773 309 761T274 748Q253 748 241 760T228 794Z" />
<glyph unicode="&#x4df;" glyph-name="uni04DF" horiz-adv-x="351" d="M97 224V286H152Q166 286 179 292T203 310T220 335T227 366Q227 405 207 423T144 441Q113 441 88 432T48 413L27 470Q52 486 85 496T162 506Q228 506 263 476T299 384Q299 346 280 314T228
268V264Q274 253 294 222T314 140Q314 77 272 35T143 -8Q103 -8 76 -1T26 19L45 81Q64 69 90 63T144 57Q193 57 217 80T242 146Q242 182 219 203T142 224H97ZM294 890Q294 913 305 926T337 939Q357 939 368 926T380 890Q380 869 369 856T337 843Q317 843 306 856T294
890ZM453 890Q453 913 464 926T496 939Q516 939 527 926T539 890Q539 869 528 856T496 843Q476 843 465 856T453 890Z" />
<glyph unicode="&#x4e0;" glyph-name="uni04E0" horiz-adv-x="451" d="M184 57Q251 57 289 98T327 205Q327 274 288 308T172 342H102V369L249 597L284 640L235 631H45V700H381V671L222 429L192 399V396L221 404Q260 404 293 391T351 354T388 295T402 213Q402 159
387 118T343 47T275 3T185 -12Q145 -12 105 -3T41 20L60 89Q80 76 114 67T184 57Z" />
<glyph unicode="&#x4e1;" glyph-name="uni04E1" horiz-adv-x="384" d="M147 -145Q175 -145 198 -135T239 -105T266 -58T276 3Q276 75 242 110T147 145H90V171L206 397L243 441L191 435H31V500H326V471L200 233L171 204V202L198 208Q229 206 256 193T304 155T336
95T348 14Q348 -40 333 -82T290 -152T226 -195T146 -210Q111 -210 81 -204T28 -186L49 -122Q68 -133 93 -139T147 -145Z" />
<glyph unicode="&#x4e2;" glyph-name="uni04E2" horiz-adv-x="544" d="M405 458L411 550H408L373 456L114 0H64V700H139V235L132 145H136L171 239L431 700H480V0H405V458ZM147 823H406V761H147V823Z" />
<glyph unicode="&#x4e3;" glyph-name="uni04E3" horiz-adv-x="439" d="M308 288L314 364H310L275 280L106 0H59V500H131V203L125 130H129L162 212L333 500H380V0H308V288ZM100 643H343V583H100V643Z" />
<glyph unicode="&#x4e4;" glyph-name="uni04E4" horiz-adv-x="544" d="M405 458L411 550H408L373 456L114 0H64V700H139V235L132 145H136L171 239L431 700H480V0H405V458ZM149 794Q149 815 161 828T196 841Q217 841 229 828T242 794Q242 773 230 761T196 748Q174
748 162 760T149 794ZM307 794Q307 815 319 828T353 841Q375 841 387 828T400 794Q400 773 388 761T353 748Q332 748 320 760T307 794Z" />
<glyph unicode="&#x4e5;" glyph-name="uni04E5" horiz-adv-x="439" d="M308 288L314 364H310L275 280L106 0H59V500H131V203L125 130H129L162 212L333 500H380V0H308V288ZM101 890Q101 913 112 926T144 939Q164 939 175 926T187 890Q187 869 176 856T144 843Q124
843 113 856T101 890ZM260 890Q260 913 271 926T303 939Q323 939 334 926T346 890Q346 869 335 856T303 843Q283 843 272 856T260 890Z" />
<glyph unicode="&#x4e6;" glyph-name="uni04E6" horiz-adv-x="549" d="M43 350Q43 528 100 620T274 712Q337 712 381 687T452 614T493 500T506 350Q506 172 449 80T274 -12Q212 -12 168 13T96 86T56 200T43 350ZM122 350Q122 291 130 238T157 145T204 81T274 57Q349
57 388 129T427 350Q427 408 419 461T392 554T345 619T274 643Q200 643 161 571T122 350ZM149 794Q149 815 161 828T196 841Q217 841 229 828T242 794Q242 773 230 761T196 748Q174 748 162 760T149 794ZM307 794Q307 815 319 828T353 841Q375 841 387 828T400
794Q400 773 388 761T353 748Q332 748 320 760T307 794Z" />
<glyph unicode="&#x4e7;" glyph-name="uni04E7" d="M37 250Q37 385 83 448T216 512Q308 512 351 447T395 250Q395 114 348 51T216 -12Q124 -12 81 53T37 250ZM112 250Q112 206 117 170T135 108T168 68T216 53Q268 53 294 99T320 250Q320 293 315 329T297 392T264
432T216 447Q165 447 139 400T112 250ZM93 890Q93 913 104 926T136 939Q156 939 167 926T179 890Q179 869 168 856T136 843Q116 843 105 856T93 890ZM252 890Q252 913 263 926T295 939Q315 939 326 926T338 890Q338 869 327 856T295 843Q275 843 264 856T252 890Z"
/>
<glyph unicode="&#x4e8;" glyph-name="uni04E8" horiz-adv-x="549" d="M43 350Q43 528 100 620T274 712Q337 712 381 687T452 614T493 500T506 350Q506 172 449 80T274 -12Q212 -12 168 13T96 86T56 200T43 350ZM274 57Q345 57 384 122T427 322H122Q124 268 133
220T161 136T207 78T274 57ZM274 643Q205 643 166 580T122 389H427Q424 441 414 487T386 567T340 622T274 643Z" />
<glyph unicode="&#x4e9;" glyph-name="uni04E9" d="M37 250Q37 381 83 446T216 512Q308 512 351 444T395 250Q395 117 349 53T216 -12Q124 -12 81 56T37 250ZM320 279Q315 370 287 408T216 447Q196 447 178 439T146 411T123 359T112 279H320ZM112 219Q115 134
144 94T216 53Q235 53 253 61T286 88T309 139T320 219H112Z" />
<glyph unicode="&#x4ea;" glyph-name="uni04EA" horiz-adv-x="549" d="M43 350Q43 528 100 620T274 712Q337 712 381 687T452 614T493 500T506 350Q506 172 449 80T274 -12Q212 -12 168 13T96 86T56 200T43 350ZM274 57Q345 57 384 122T427 322H122Q124 268 133
220T161 136T207 78T274 57ZM274 643Q205 643 166 580T122 389H427Q424 441 414 487T386 567T340 622T274 643ZM149 794Q149 815 161 828T196 841Q217 841 229 828T242 794Q242 773 230 761T196 748Q174 748 162 760T149 794ZM307 794Q307 815 319 828T353 841Q375
841 387 828T400 794Q400 773 388 761T353 748Q332 748 320 760T307 794Z" />
<glyph unicode="&#x4eb;" glyph-name="uni04EB" d="M37 250Q37 381 83 446T216 512Q308 512 351 444T395 250Q395 117 349 53T216 -12Q124 -12 81 56T37 250ZM320 279Q315 370 287 408T216 447Q196 447 178 439T146 411T123 359T112 279H320ZM112 219Q115 134
144 94T216 53Q235 53 253 61T286 88T309 139T320 219H112ZM92 890Q92 913 103 926T135 939Q155 939 166 926T178 890Q178 869 167 856T135 843Q115 843 104 856T92 890ZM251 890Q251 913 262 926T294 939Q314 939 325 926T337 890Q337 869 326 856T294 843Q274
843 263 856T251 890Z" />
<glyph unicode="&#x4ec;" glyph-name="uni04EC" horiz-adv-x="465" d="M118 390H347Q342 517 294 580T169 643Q131 643 102 634T52 612L30 674Q58 692 96 702T177 712Q232 712 277 693T354 630T404 518T422 351Q422 252 402 183T347 70T265 8T163 -12Q122 -12
89 -5T32 13L53 81Q72 71 103 64T167 57Q201 57 232 71T289 117T329 199T347 323H118V390ZM60 794Q60 815 72 828T107 841Q128 841 140 828T153 794Q153 773 141 761T107 748Q85 748 73 760T60 794ZM218 794Q218 815 230 828T264 841Q286 841 298 828T311 794Q311
773 299 761T264 748Q243 748 231 760T218 794Z" />
<glyph unicode="&#x4ed;" glyph-name="uni04ED" horiz-adv-x="372" d="M94 283H260Q257 361 229 404T148 447Q116 447 92 438T53 418L28 475Q51 492 84 502T160 512Q250 512 292 447T335 250Q335 119 287 54T150 -12Q73 -12 28 12L48 76Q67 65 93 59T143 53Q254
53 260 221H94V283ZM294 890Q294 913 305 926T337 939Q357 939 368 926T380 890Q380 869 369 856T337 843Q317 843 306 856T294 890ZM453 890Q453 913 464 926T496 939Q516 939 527 926T539 890Q539 869 528 856T496 843Q476 843 465 856T453 890Z" />
<glyph unicode="&#x4ee;" glyph-name="uni04EE" horiz-adv-x="448" d="M228 341L247 252H252L268 344L372 700H449L306 245Q284 175 268 127T235 50T198 8T149 -5Q123 -5 106 0T74 16L96 80Q112 69 125 67T149 64Q171 64 186 94T212 181L3 700H91L228 341ZM109
823H368V761H109V823Z" />
<glyph unicode="&#x4ef;" glyph-name="uni04EF" horiz-adv-x="376" d="M183 177L204 80H209L224 177L300 500H373L254 51Q240 -3 226 -50T196 -131T159 -185T110 -205Q82 -205 61 -196L73 -128Q87 -133 101 -130T127 -113T150 -72T169 0L7 500H89L183 177ZM74
643H317V583H74V643Z" />
<glyph unicode="&#x4f0;" glyph-name="uni04F0" horiz-adv-x="448" d="M228 341L247 252H252L268 344L372 700H449L306 245Q284 175 268 127T235 50T198 8T149 -5Q123 -5 106 0T74 16L96 80Q112 69 125 67T149 64Q171 64 186 94T212 181L3 700H91L228 341ZM111
794Q111 815 123 828T158 841Q179 841 191 828T204 794Q204 773 192 761T158 748Q136 748 124 760T111 794ZM269 794Q269 815 281 828T315 841Q337 841 349 828T362 794Q362 773 350 761T315 748Q294 748 282 760T269 794Z" />
<glyph unicode="&#x4f1;" glyph-name="uni04F1" horiz-adv-x="376" d="M183 177L204 80H209L224 177L300 500H373L254 51Q240 -3 226 -50T196 -131T159 -185T110 -205Q82 -205 61 -196L73 -128Q87 -133 101 -130T127 -113T150 -72T169 0L7 500H89L183 177ZM75
890Q75 913 86 926T118 939Q138 939 149 926T161 890Q161 869 150 856T118 843Q98 843 87 856T75 890ZM234 890Q234 913 245 926T277 939Q297 939 308 926T320 890Q320 869 309 856T277 843Q257 843 246 856T234 890Z" />
<glyph unicode="&#x4f2;" glyph-name="uni04F2" horiz-adv-x="448" d="M228 341L247 252H252L268 344L372 700H449L306 245Q284 175 268 127T235 50T198 8T149 -5Q123 -5 106 0T74 16L96 80Q112 69 125 67T149 64Q171 64 186 94T212 181L3 700H91L228 341ZM190
850H271V834L191 741H139L190 850ZM326 850H412V834L297 741H245L326 850Z" />
<glyph unicode="&#x4f3;" glyph-name="uni04F3" horiz-adv-x="376" d="M183 177L204 80H209L224 177L300 500H373L254 51Q240 -3 226 -50T196 -131T159 -185T110 -205Q82 -205 61 -196L73 -128Q87 -133 101 -130T127 -113T150 -72T169 0L7 500H89L183 177ZM152
700H221V684L163 571H124L152 700ZM275 700H350V684L258 571H216L275 700Z" />
<glyph unicode="&#x4f4;" glyph-name="uni04F4" horiz-adv-x="487" d="M130 700V456Q130 383 155 355T228 326Q263 326 295 339T348 373V700H423V0H348V300Q328 285 292 271T212 257Q180 257 152 265T102 293T68 349T55 439V700H130ZM119 794Q119 815 131 828T166
841Q187 841 199 828T212 794Q212 773 200 761T166 748Q144 748 132 760T119 794ZM277 794Q277 815 289 828T323 841Q345 841 357 828T370 794Q370 773 358 761T323 748Q302 748 290 760T277 794Z" />
<glyph unicode="&#x4f5;" glyph-name="uni04F5" horiz-adv-x="396" d="M108 500V354Q108 329 110 309T120 275T140 253T174 245Q209 245 231 254T265 274V500H337V0H265V210Q253 201 228 191T159 180Q130 180 107 187T69 212T45 258T36 331V500H108ZM64 890Q64
913 75 926T107 939Q127 939 138 926T150 890Q150 869 139 856T107 843Q87 843 76 856T64 890ZM223 890Q223 913 234 926T266 939Q286 939 297 926T309 890Q309 869 298 856T266 843Q246 843 235 856T223 890Z" />
<glyph unicode="&#x4f6;" glyph-name="uni04F6" horiz-adv-x="357" d="M370 631H139V69H215V-129H163L151 0H64V700H370V631Z" />
<glyph unicode="&#x4f7;" glyph-name="uni04F7" horiz-adv-x="296" d="M59 500H297V435H131V65H193V-127H144L131 0H59V500Z" />
<glyph unicode="&#x4f8;" glyph-name="uni04F8" horiz-adv-x="622" d="M483 700H558V0H483V700ZM64 700H139V428Q148 430 169 433T210 437Q249 437 284 428T347 396T390 331T406 227Q406 105 350 49T192 -8Q169 -8 133 -6T64 6V700ZM199 61Q259 61 293 100T327
220Q327 264 317 292T290 338T248 361T196 368Q182 368 165 365T139 359V68Q159 61 199 61ZM182 794Q182 815 194 828T229 841Q250 841 262 828T275 794Q275 773 263 761T229 748Q207 748 195 760T182 794ZM340 794Q340 815 352 828T386 841Q408 841 420 828T433
794Q433 773 421 761T386 748Q365 748 353 760T340 794Z" />
<glyph unicode="&#x4f9;" glyph-name="uni04F9" horiz-adv-x="538" d="M131 65Q161 59 186 59Q234 59 253 84T272 158Q272 203 254 228T188 254Q175 254 160 253T131 247V65ZM131 309Q151 313 169 314T203 316Q244 316 272 305T316 273T340 226T347 167Q347 76
307 35T172 -6Q114 -6 59 0V500H131V309ZM407 500H479V0H407V500ZM141 890Q141 913 152 926T184 939Q204 939 215 926T227 890Q227 869 216 856T184 843Q164 843 153 856T141 890ZM300 890Q300 913 311 926T343 939Q363 939 374 926T386 890Q386 869 375 856T343
843Q323 843 312 856T300 890Z" />
<glyph unicode="&#x4fc;" glyph-name="uni04FC" horiz-adv-x="498" d="M382 -45Q382 5 370 42T341 112L272 251L248 313L227 251L103 0H19L203 356L35 700H125L234 463L254 404L274 463L389 700H472L298 363L407 148Q457 50 457 -31Q457 -133 422 -175T311 -208V-143Q335
-143 349 -135T370 -114T380 -82T382 -45Z" />
<glyph unicode="&#x4fd;" glyph-name="uni04FD" horiz-adv-x="414" d="M331 126Q354 84 367 43T381 -36Q381 -132 343 -174T231 -206V-141Q276 -142 292 -120T309 -53Q309 -12 296 24T267 89L231 152L206 211L182 152L100 0H19L161 256L29 500H117L189 362L211
300L234 362L308 500H389L255 260L331 126Z" />
<glyph unicode="&#x510;" glyph-name="uni0510" horiz-adv-x="447" d="M290 333Q280 333 273 333T256 332Q197 327 163 298T128 201Q128 130 164 94T263 57Q297 57 329 67T379 89L402 28Q381 14 343 1T251 -12Q159 -12 104 39T49 197Q49 272 80 315T167 370V374Q141
384 122 402T91 442T72 490T66 540Q66 586 80 618T120 672T180 702T252 712Q297 712 336 702T394 677L373 613Q351 625 320 634T260 643Q206 643 176 618T145 533Q145 504 154 482T178 444T212 417T252 402Q265 400 284 399T317 398H331V333H290Z" />
<glyph unicode="&#x511;" glyph-name="uni0511" horiz-adv-x="353" d="M210 225Q156 225 133 204T109 146Q109 108 134 82T208 56Q238 56 263 63T306 82L325 22Q306 10 277 1T205 -9Q120 -9 79 31T37 140Q37 191 56 220T121 264V268Q88 282 70 312T52 383Q52 445
88 476T187 507Q234 507 266 498T324 472L302 414Q285 425 262 433T208 442Q124 442 124 366Q124 350 130 336T148 310T172 293T200 286H255V225H210Z" />
<glyph unicode="&#x512;" glyph-name="uni0512" horiz-adv-x="503" d="M439 -28Q439 -131 407 -175T299 -210V-145Q321 -145 334 -137T354 -112T362 -67T364 0V631H206Q198 430 185 295T145 87Q127 39 103 17T46 -5Q16 -5 -4 5L8 73Q17 70 26 70T44 75T61 91T78
122Q89 149 98 194T115 310T127 476T134 700H439V-28Z" />
<glyph unicode="&#x513;" glyph-name="uni0513" horiz-adv-x="407" d="M348 500V-29Q348 -121 321 -165T233 -208Q227 -208 221 -208T208 -206V-143Q253 -144 264 -109T276 -1V435H167Q164 350 159 271T142 130T106 33T45 -4Q28 -4 16 -2T-6 5L5 68Q26 62 42 70T71
122T90 255T101 500H348Z" />
<glyph unicode="&#x51c;" glyph-name="uni051C" horiz-adv-x="672" d="M182 237L194 120H196L208 239L320 700H363L475 238L487 120H488L502 239L591 700H666L510 -11H464L353 450L339 557H336L322 449L211 -11H164L5 700H86L182 237Z" />
<glyph unicode="&#x51d;" glyph-name="uni051D" horiz-adv-x="590" d="M326 500L415 208L433 112H435L450 210L518 500H586L453 -11H412L311 317L297 401H295L281 316L183 -11H142L5 500H82L159 209L171 112H173L191 211L273 500H326Z" />
<glyph unicode="&#x524;" glyph-name="uni0524" horiz-adv-x="558" d="M387 631H139V0H64V700H462V69H537V-129H485L473 0H387V631Z" />
<glyph unicode="&#x525;" glyph-name="uni0525" horiz-adv-x="448" d="M299 435H131V0H59V500H371V65H432V-127H383L370 0H299V435Z" />
<glyph unicode="&#x526;" glyph-name="uni0526" horiz-adv-x="521" d="M357 236Q357 307 334 340T260 374Q224 374 192 362T139 329V0H64V700H139V400Q160 414 196 428T278 443Q313 443 341 434T390 403T421 343T432 249V69H505V-129H453L441 0H357V236Z" />
<glyph unicode="&#x527;" glyph-name="uni0527" horiz-adv-x="463" d="M387 65H447V-127H398L385 0H315V304Q315 374 299 410T233 447Q198 447 170 422T131 359V0H59V700H131V453H134Q154 479 183 495T257 512Q290 512 314 503T355 472T379 414T387 323V65Z" />
<glyph unicode="&#x1e30;" glyph-name="uni1E30" horiz-adv-x="493" d="M175 324H139V0H64V700H139V374L174 388L356 700H442L259 398L224 366L265 326L468 0H373L175 324ZM260 870H359V849L228 752H167L260 870Z" />
<glyph unicode="&#x1e31;" glyph-name="uni1E31" horiz-adv-x="388" d="M168 225H131V0H59V700H131V274L164 288L281 500H364L246 298L211 266L252 227L381 0H294L168 225ZM239 720H317V699L235 571H192L239 720Z" />
<glyph unicode="&#x1e3e;" glyph-name="uni1E3E" horiz-adv-x="637" d="M498 460L507 566H503L471 467L330 163H305L157 467L126 566H122L136 460V0H64V700H127L296 356L321 274H323L347 357L507 700H573V0H498V460ZM362 870H461V849L330 752H269L362 870Z" />
<glyph unicode="&#x1e3f;" glyph-name="uni1E3F" horiz-adv-x="651" d="M293 0V297Q293 337 291 365T280 412T258 438T221 447Q187 447 164 421T131 360V0H59V500H110L123 447H126Q147 476 176 494T250 512Q288 512 312 496T351 437Q369 472 402 492T476 512Q509
512 532 504T570 474T592 417T599 327V0H527V318Q527 383 515 415T457 447Q419 447 397 424T365 360V0H293ZM343 720H421V699L339 571H296L343 720Z" />
<glyph unicode="&#x1e54;" glyph-name="uni1E54" horiz-adv-x="451" d="M64 693Q96 702 132 705T203 708Q243 708 282 699T352 666T403 600T423 493Q423 430 405 386T356 315T286 275T204 262Q200 262 191 262T172 262T153 264T139 266V0H64V693ZM207 639Q187
639 169 638T139 633V335Q143 333 151 333T169 332T186 331T199 331Q227 331 253 338T299 363T331 413T344 493Q344 535 333 563T303 608T259 632T207 639ZM257 870H356V849L225 752H164L257 870Z" />
<glyph unicode="&#x1e55;" glyph-name="uni1E55" horiz-adv-x="435" d="M59 500H110L121 446H125Q162 512 241 512Q320 512 359 453T399 260Q399 197 386 147T349 61T291 7T214 -12Q185 -12 168 -9T131 6V-200H59V500ZM131 79Q145 67 162 60T209 53Q262 53 293
107T324 261Q324 303 319 337T301 395T271 433T225 447Q152 447 131 358V79ZM232 720H310V699L228 571H185L232 720Z" />
<glyph unicode="&#x1e9e;" glyph-name="uni1E9E" horiz-adv-x="538" d="M345 613Q329 629 298 638T235 647Q201 647 182 634T153 597T141 542T138 476V0H63V502Q63 549 71 588T99 654T153 697T239 712Q305 712 354 691T439 638L314 431L287 402V400L313 407Q397
405 444 354T491 213Q491 105 438 47T289 -12Q281 -12 267 -11T238 -8T210 -3T187 7L199 72Q206 67 217 63T241 57T266 54T287 53Q348 53 380 95T412 204Q412 274 373 310T260 347H197V374L345 613Z" />
<glyph unicode="&#x2013;" glyph-name="endash" horiz-adv-x="530" d="M93 322H437V253H93V322Z" />
<glyph unicode="&#x2014;" glyph-name="emdash" horiz-adv-x="662" d="M95 322H567V253H95V322Z" />
<glyph unicode="&#x2018;" glyph-name="quoteleft" horiz-adv-x="162" d="M130 620Q130 597 118 584T85 570Q62 570 47 587T31 639Q31 672 39 696T60 737T84 764T106 779L129 746Q112 734 100 714T88 667Q107 670 118 657T130 620Z" />
<glyph unicode="&#x2019;" glyph-name="quoteright" horiz-adv-x="162" d="M31 659Q31 682 44 695T77 708Q101 708 116 692T131 641Q131 609 123 585T104 545T79 518T57 502L34 532Q51 543 63 563T75 611Q57 608 44 621T31 659Z" />
<glyph unicode="&#x201a;" glyph-name="quotesinglbase" horiz-adv-x="162" d="M31 50Q31 73 44 86T77 99Q101 99 116 83T131 32Q131 0 123 -24T104 -64T79 -91T57 -107L34 -77Q51 -66 63 -46T75 2Q57 -1 44 12T31 50Z" />
<glyph unicode="&#x201c;" glyph-name="quotedblleft" horiz-adv-x="288" d="M256 620Q256 597 244 584T211 570Q188 570 173 587T157 639Q157 672 165 696T186 737T210 764T232 779L255 746Q238 734 226 714T214 667Q233 670 244 657T256 620ZM130 620Q130 597
118 584T85 570Q62 570 47 587T31 639Q31 672 39 696T60 737T84 764T106 779L129 746Q112 734 100 714T88 667Q107 670 118 657T130 620Z" />
<glyph unicode="&#x201d;" glyph-name="quotedblright" horiz-adv-x="288" d="M157 659Q157 682 170 695T203 708Q227 708 242 692T257 641Q257 609 249 585T230 545T205 518T183 502L160 532Q177 543 189 563T201 611Q183 608 170 621T157 659ZM31 659Q31 682
44 695T77 708Q101 708 116 692T131 641Q131 609 123 585T104 545T79 518T57 502L34 532Q51 543 63 563T75 611Q57 608 44 621T31 659Z" />
<glyph unicode="&#x201e;" glyph-name="quotedblbase" horiz-adv-x="288" d="M157 50Q157 73 170 86T203 99Q227 99 242 83T257 32Q257 0 249 -24T230 -64T205 -91T183 -107L160 -77Q177 -66 189 -46T201 2Q183 -1 170 12T157 50ZM31 50Q31 73 44 86T77 99Q101
99 116 83T131 32Q131 0 123 -24T104 -64T79 -91T57 -107L34 -77Q51 -66 63 -46T75 2Q57 -1 44 12T31 50Z" />
<glyph unicode="&#x2020;" glyph-name="dagger" horiz-adv-x="394" d="M32 499H135L171 488L161 535V700H233V535L223 488L259 499H362V434H258L223 445L233 402V0L220 -200H173L161 1V402L171 445L135 434H32V499Z" />
<glyph unicode="&#x2021;" glyph-name="daggerdbl" horiz-adv-x="394" d="M161 403L171 445L135 434H32V499H135L171 488L161 534V700H233V534L223 488L259 499H362V434H258L223 445L233 403V273L223 231L258 242H362V177H259L223 188L233 142V0L220 -200H174L161
1V142L171 188L135 177H32V242H135L171 231L161 273V403Z" />
<glyph unicode="&#x2022;" glyph-name="bullet" horiz-adv-x="363" d="M68 311Q68 374 99 412T182 450Q232 450 264 414T296 311Q296 245 264 209T182 172Q131 172 100 208T68 311Z" />
<glyph unicode="&#x2026;" glyph-name="ellipsis" horiz-adv-x="657" d="M508 45Q508 73 521 87T558 101Q581 101 594 87T608 45Q608 16 595 2T558 -12Q535 -12 522 2T508 45ZM284 45Q284 73 297 87T334 101Q357 101 370 87T384 45Q384 16 371 2T334 -12Q311 -12
298 2T284 45ZM61 45Q61 73 74 87T111 101Q134 101 147 87T161 45Q161 16 148 2T111 -12Q88 -12 75 2T61 45Z" />
<glyph unicode="&#x2030;" glyph-name="perthousand" horiz-adv-x="948" d="M55 542Q55 588 64 620T91 673T132 703T183 712Q210 712 233 704T274 676T301 623T311 542Q311 494 302 461T275 409T234 381T183 372Q156 372 133 380T92 408T65 461T55 542ZM120 542Q120
477 137 452T183 427Q197 427 208 432T228 449T240 484T245 542Q245 576 241 598T228 634T209 652T183 657Q168 657 157 652T137 634T125 599T120 542ZM353 171Q353 217 362 249T389 302T430 332T481 341Q508 341 531 333T572 305T599 252T609 171Q609 123 600
90T573 38T532 10T481 1Q454 1 431 9T390 37T363 90T353 171ZM418 171Q418 106 435 81T481 56Q495 56 506 61T526 78T538 113T543 171Q543 205 539 227T526 263T507 281T481 286Q466 286 455 281T435 263T423 228T418 171ZM649 171Q649 217 658 249T685 302T726
332T777 341Q804 341 827 333T868 305T895 252T905 171Q905 123 896 90T869 38T828 10T777 1Q750 1 727 9T686 37T659 90T649 171ZM714 171Q714 106 731 81T777 56Q791 56 802 61T822 78T834 113T839 171Q839 205 835 227T822 263T803 281T777 286Q762 286 751
281T731 263T719 228T714 171ZM521 713L568 683L142 -12L95 18L521 713Z" />
<glyph unicode="&#x2039;" glyph-name="guilsinglleft" horiz-adv-x="241" d="M29 259L158 489L208 456L126 301L88 260L126 224L213 72L163 38L29 259Z" />
<glyph unicode="&#x203a;" glyph-name="guilsinglright" horiz-adv-x="242" d="M212 268L84 38L34 71L115 226L154 267L115 303L28 454L79 489L212 268Z" />
<glyph unicode="&#x2044;" glyph-name="fraction" horiz-adv-x="149" d="M243 713L292 686L-92 -12L-142 16L243 713Z" />
<glyph unicode="&#x2081;" glyph-name="uni2081" horiz-adv-x="322" d="M60 -43H144V214L150 250L127 222L68 182L41 224L166 327H207V-43H282V-100H60V-43Z" />
<glyph unicode="&#x2082;" glyph-name="uni2082" horiz-adv-x="322" d="M263 215Q263 183 255 153T232 93T198 35T157 -22L120 -54V-56L166 -41H278V-100H40V-68Q61 -47 88 -15T141 55T183 131T200 205Q200 235 185 251T146 267Q124 267 104 260T69 243L49 295Q69
311 98 319T157 327Q208 327 235 298T263 215Z" />
<glyph unicode="&#x2083;" glyph-name="uni2083" horiz-adv-x="322" d="M137 -50Q175 -50 194 -30T214 28Q214 60 197 80T138 100H94V123L171 242L200 269L159 263H55V320H265V288L183 162L162 145V142L182 145Q227 145 252 114T278 28Q278 -33 241 -70T143 -107Q114
-107 92 -102T53 -89L67 -33Q81 -41 98 -45T137 -50Z" />
<glyph unicode="&#x2084;" glyph-name="uni2084" horiz-adv-x="322" d="M311 -4H246V-100H185V-4H20V30L201 330H246V52H311V-4ZM185 177L192 230H188L170 180L111 78L84 48L125 52H185V177Z" />
<glyph unicode="&#x20ac;" glyph-name="Euro" horiz-adv-x="475" d="M41 459H90Q100 526 121 574T172 652T238 697T316 712Q357 712 386 707T439 690L419 624Q400 633 376 638T318 643Q291 643 267 633T223 602T188 545T165 459H388L374 397H159Q158 386 158 374T158
350Q158 340 158 331T159 313H357L342 251H164Q178 152 220 105T328 57Q391 57 430 85L447 25Q423 5 387 -3T314 -12Q222 -12 163 51T88 251H24L41 313H83V350Q83 362 83 374T84 397H24L41 459Z" />
<glyph unicode="&#x20b4;" glyph-name="uni20B4" horiz-adv-x="475" d="M388 317V255H205Q188 234 173 199T158 131Q158 96 179 75T251 53Q289 53 313 60T357 81L379 22Q361 8 328 -2T237 -12Q160 -12 122 23T83 121Q83 140 88 160T100 199T115 232T128 255H53V317H388ZM53
388V450H241Q261 476 273 510T286 575Q286 610 268 628T205 647Q173 647 152 639T111 620L87 682Q111 696 139 704T219 712Q358 712 358 587Q358 549 345 513T315 450H388V388H53Z" />
<glyph unicode="&#x20b6;" glyph-name="uni20B6" horiz-adv-x="475" d="M41 334H100V693Q131 702 166 705T237 708Q275 708 311 699T376 666T421 601T438 496Q438 433 420 390T374 320T309 281T235 269Q230 269 222 269T204 269T185 271T172 273V209H306V149H172V0H100V149H41V209H100V274H41V334ZM241
643Q221 643 202 642T172 638V338Q176 337 184 336T202 335T219 334T232 334Q254 334 277 341T320 366T351 416T363 495Q363 536 353 564T327 609T288 635T241 643Z" />
<glyph unicode="&#x20b7;" glyph-name="uni20B7" horiz-adv-x="475" d="M41 334H100V693Q131 702 166 705T237 708Q275 708 311 699T376 666T421 601T438 496Q438 433 420 390T374 320T309 281T235 269Q230 269 222 269T204 269T185 271T172 273V209H306V149H172V0H100V149H41V209H100V274H41V334ZM241
643Q221 643 202 642T172 638V338Q176 337 184 336T202 335T219 334T232 334Q254 334 277 341T320 366T351 416T363 495Q363 536 353 564T327 609T288 635T241 643Z" />
<glyph unicode="&#x20b9;" glyph-name="uni20B9" horiz-adv-x="475" d="M41 334H100V693Q131 702 166 705T237 708Q275 708 311 699T376 666T421 601T438 496Q438 433 420 390T374 320T309 281T235 269Q230 269 222 269T204 269T185 271T172 273V209H306V149H172V0H100V149H41V209H100V274H41V334ZM241
643Q221 643 202 642T172 638V338Q176 337 184 336T202 335T219 334T232 334Q254 334 277 341T320 366T351 416T363 495Q363 536 353 564T327 609T288 635T241 643Z" />
<glyph unicode="&#x20ba;" glyph-name="uni20BA" horiz-adv-x="475" d="M41 334H100V693Q131 702 166 705T237 708Q275 708 311 699T376 666T421 601T438 496Q438 433 420 390T374 320T309 281T235 269Q230 269 222 269T204 269T185 271T172 273V209H306V149H172V0H100V149H41V209H100V274H41V334ZM241
643Q221 643 202 642T172 638V338Q176 337 184 336T202 335T219 334T232 334Q254 334 277 341T320 366T351 416T363 495Q363 536 353 564T327 609T288 635T241 643Z" />
<glyph unicode="&#x20bb;" glyph-name="uni20BB" horiz-adv-x="475" d="M41 334H100V693Q131 702 166 705T237 708Q275 708 311 699T376 666T421 601T438 496Q438 433 420 390T374 320T309 281T235 269Q230 269 222 269T204 269T185 271T172 273V209H306V149H172V0H100V149H41V209H100V274H41V334ZM241
643Q221 643 202 642T172 638V338Q176 337 184 336T202 335T219 334T232 334Q254 334 277 341T320 366T351 416T363 495Q363 536 353 564T327 609T288 635T241 643Z" />
<glyph unicode="&#x20bc;" glyph-name="uni20BC" horiz-adv-x="475" d="M41 334H100V693Q131 702 166 705T237 708Q275 708 311 699T376 666T421 601T438 496Q438 433 420 390T374 320T309 281T235 269Q230 269 222 269T204 269T185 271T172 273V209H306V149H172V0H100V149H41V209H100V274H41V334ZM241
643Q221 643 202 642T172 638V338Q176 337 184 336T202 335T219 334T232 334Q254 334 277 341T320 366T351 416T363 495Q363 536 353 564T327 609T288 635T241 643Z" />
<glyph unicode="&#x20bd;" glyph-name="uni20BD" horiz-adv-x="475" d="M41 334H100V693Q131 702 166 705T237 708Q275 708 311 699T376 666T421 601T438 496Q438 433 420 390T374 320T309 281T235 269Q230 269 222 269T204 269T185 271T172 273V209H306V149H172V0H100V149H41V209H100V274H41V334ZM241
643Q221 643 202 642T172 638V338Q176 337 184 336T202 335T219 334T232 334Q254 334 277 341T320 366T351 416T363 495Q363 536 353 564T327 609T288 635T241 643Z" />
<glyph unicode="&#x20be;" glyph-name="uni20BE" horiz-adv-x="475" d="M41 334H100V693Q131 702 166 705T237 708Q275 708 311 699T376 666T421 601T438 496Q438 433 420 390T374 320T309 281T235 269Q230 269 222 269T204 269T185 271T172 273V209H306V149H172V0H100V149H41V209H100V274H41V334ZM241
643Q221 643 202 642T172 638V338Q176 337 184 336T202 335T219 334T232 334Q254 334 277 341T320 366T351 416T363 495Q363 536 353 564T327 609T288 635T241 643Z" />
<glyph unicode="&#x20bf;" glyph-name="uni20BF" horiz-adv-x="475" d="M41 334H100V693Q131 702 166 705T237 708Q275 708 311 699T376 666T421 601T438 496Q438 433 420 390T374 320T309 281T235 269Q230 269 222 269T204 269T185 271T172 273V209H306V149H172V0H100V149H41V209H100V274H41V334ZM241
643Q221 643 202 642T172 638V338Q176 337 184 336T202 335T219 334T232 334Q254 334 277 341T320 366T351 416T363 495Q363 536 353 564T327 609T288 635T241 643Z" />
<glyph unicode="&#x20c0;" glyph-name="uni20C0" horiz-adv-x="475" d="M41 334H100V693Q131 702 166 705T237 708Q275 708 311 699T376 666T421 601T438 496Q438 433 420 390T374 320T309 281T235 269Q230 269 222 269T204 269T185 271T172 273V209H306V149H172V0H100V149H41V209H100V274H41V334ZM241
643Q221 643 202 642T172 638V338Q176 337 184 336T202 335T219 334T232 334Q254 334 277 341T320 366T351 416T363 495Q363 536 353 564T327 609T288 635T241 643Z" />
<glyph unicode="&#x20c1;" glyph-name="uni20C1" horiz-adv-x="475" d="M41 334H100V693Q131 702 166 705T237 708Q275 708 311 699T376 666T421 601T438 496Q438 433 420 390T374 320T309 281T235 269Q230 269 222 269T204 269T185 271T172 273V209H306V149H172V0H100V149H41V209H100V274H41V334ZM241
643Q221 643 202 642T172 638V338Q176 337 184 336T202 335T219 334T232 334Q254 334 277 341T320 366T351 416T363 495Q363 536 353 564T327 609T288 635T241 643Z" />
<glyph unicode="&#x20c2;" glyph-name="uni20C2" horiz-adv-x="475" d="M41 334H100V693Q131 702 166 705T237 708Q275 708 311 699T376 666T421 601T438 496Q438 433 420 390T374 320T309 281T235 269Q230 269 222 269T204 269T185 271T172 273V209H306V149H172V0H100V149H41V209H100V274H41V334ZM241
643Q221 643 202 642T172 638V338Q176 337 184 336T202 335T219 334T232 334Q254 334 277 341T320 366T351 416T363 495Q363 536 353 564T327 609T288 635T241 643Z" />
<glyph unicode="&#x20c3;" glyph-name="uni20C3" horiz-adv-x="475" d="M41 334H100V693Q131 702 166 705T237 708Q275 708 311 699T376 666T421 601T438 496Q438 433 420 390T374 320T309 281T235 269Q230 269 222 269T204 269T185 271T172 273V209H306V149H172V0H100V149H41V209H100V274H41V334ZM241
643Q221 643 202 642T172 638V338Q176 337 184 336T202 335T219 334T232 334Q254 334 277 341T320 366T351 416T363 495Q363 536 353 564T327 609T288 635T241 643Z" />
<glyph unicode="&#x20c4;" glyph-name="uni20C4" horiz-adv-x="475" d="M41 334H100V693Q131 702 166 705T237 708Q275 708 311 699T376 666T421 601T438 496Q438 433 420 390T374 320T309 281T235 269Q230 269 222 269T204 269T185 271T172 273V209H306V149H172V0H100V149H41V209H100V274H41V334ZM241
643Q221 643 202 642T172 638V338Q176 337 184 336T202 335T219 334T232 334Q254 334 277 341T320 366T351 416T363 495Q363 536 353 564T327 609T288 635T241 643Z" />
<glyph unicode="&#x20c5;" glyph-name="uni20C5" horiz-adv-x="475" d="M41 334H100V693Q131 702 166 705T237 708Q275 708 311 699T376 666T421 601T438 496Q438 433 420 390T374 320T309 281T235 269Q230 269 222 269T204 269T185 271T172 273V209H306V149H172V0H100V149H41V209H100V274H41V334ZM241
643Q221 643 202 642T172 638V338Q176 337 184 336T202 335T219 334T232 334Q254 334 277 341T320 366T351 416T363 495Q363 536 353 564T327 609T288 635T241 643Z" />
<glyph unicode="&#x20c6;" glyph-name="uni20C6" horiz-adv-x="475" d="M41 334H100V693Q131 702 166 705T237 708Q275 708 311 699T376 666T421 601T438 496Q438 433 420 390T374 320T309 281T235 269Q230 269 222 269T204 269T185 271T172 273V209H306V149H172V0H100V149H41V209H100V274H41V334ZM241
643Q221 643 202 642T172 638V338Q176 337 184 336T202 335T219 334T232 334Q254 334 277 341T320 366T351 416T363 495Q363 536 353 564T327 609T288 635T241 643Z" />
<glyph unicode="&#x20c7;" glyph-name="uni20C7" horiz-adv-x="475" d="M41 334H100V693Q131 702 166 705T237 708Q275 708 311 699T376 666T421 601T438 496Q438 433 420 390T374 320T309 281T235 269Q230 269 222 269T204 269T185 271T172 273V209H306V149H172V0H100V149H41V209H100V274H41V334ZM241
643Q221 643 202 642T172 638V338Q176 337 184 336T202 335T219 334T232 334Q254 334 277 341T320 366T351 416T363 495Q363 536 353 564T327 609T288 635T241 643Z" />
<glyph unicode="&#x20c8;" glyph-name="uni20C8" horiz-adv-x="475" d="M41 334H100V693Q131 702 166 705T237 708Q275 708 311 699T376 666T421 601T438 496Q438 433 420 390T374 320T309 281T235 269Q230 269 222 269T204 269T185 271T172 273V209H306V149H172V0H100V149H41V209H100V274H41V334ZM241
643Q221 643 202 642T172 638V338Q176 337 184 336T202 335T219 334T232 334Q254 334 277 341T320 366T351 416T363 495Q363 536 353 564T327 609T288 635T241 643Z" />
<glyph unicode="&#x20c9;" glyph-name="uni20C9" horiz-adv-x="475" d="M41 334H100V693Q131 702 166 705T237 708Q275 708 311 699T376 666T421 601T438 496Q438 433 420 390T374 320T309 281T235 269Q230 269 222 269T204 269T185 271T172 273V209H306V149H172V0H100V149H41V209H100V274H41V334ZM241
643Q221 643 202 642T172 638V338Q176 337 184 336T202 335T219 334T232 334Q254 334 277 341T320 366T351 416T363 495Q363 536 353 564T327 609T288 635T241 643Z" />
<glyph unicode="&#x20ca;" glyph-name="uni20CA" horiz-adv-x="475" d="M41 334H100V693Q131 702 166 705T237 708Q275 708 311 699T376 666T421 601T438 496Q438 433 420 390T374 320T309 281T235 269Q230 269 222 269T204 269T185 271T172 273V209H306V149H172V0H100V149H41V209H100V274H41V334ZM241
643Q221 643 202 642T172 638V338Q176 337 184 336T202 335T219 334T232 334Q254 334 277 341T320 366T351 416T363 495Q363 536 353 564T327 609T288 635T241 643Z" />
<glyph unicode="&#x20cb;" glyph-name="uni20CB" horiz-adv-x="475" d="M41 334H100V693Q131 702 166 705T237 708Q275 708 311 699T376 666T421 601T438 496Q438 433 420 390T374 320T309 281T235 269Q230 269 222 269T204 269T185 271T172 273V209H306V149H172V0H100V149H41V209H100V274H41V334ZM241
643Q221 643 202 642T172 638V338Q176 337 184 336T202 335T219 334T232 334Q254 334 277 341T320 366T351 416T363 495Q363 536 353 564T327 609T288 635T241 643Z" />
<glyph unicode="&#x20cc;" glyph-name="uni20CC" horiz-adv-x="475" d="M41 334H100V693Q131 702 166 705T237 708Q275 708 311 699T376 666T421 601T438 496Q438 433 420 390T374 320T309 281T235 269Q230 269 222 269T204 269T185 271T172 273V209H306V149H172V0H100V149H41V209H100V274H41V334ZM241
643Q221 643 202 642T172 638V338Q176 337 184 336T202 335T219 334T232 334Q254 334 277 341T320 366T351 416T363 495Q363 536 353 564T327 609T288 635T241 643Z" />
<glyph unicode="&#x20cd;" glyph-name="uni20CD" horiz-adv-x="475" d="M41 334H100V693Q131 702 166 705T237 708Q275 708 311 699T376 666T421 601T438 496Q438 433 420 390T374 320T309 281T235 269Q230 269 222 269T204 269T185 271T172 273V209H306V149H172V0H100V149H41V209H100V274H41V334ZM241
643Q221 643 202 642T172 638V338Q176 337 184 336T202 335T219 334T232 334Q254 334 277 341T320 366T351 416T363 495Q363 536 353 564T327 609T288 635T241 643Z" />
<glyph unicode="&#x20ce;" glyph-name="uni20CE" horiz-adv-x="475" d="M41 334H100V693Q131 702 166 705T237 708Q275 708 311 699T376 666T421 601T438 496Q438 433 420 390T374 320T309 281T235 269Q230 269 222 269T204 269T185 271T172 273V209H306V149H172V0H100V149H41V209H100V274H41V334ZM241
643Q221 643 202 642T172 638V338Q176 337 184 336T202 335T219 334T232 334Q254 334 277 341T320 366T351 416T363 495Q363 536 353 564T327 609T288 635T241 643Z" />
<glyph unicode="&#x20cf;" glyph-name="uni20CF" horiz-adv-x="475" d="M41 334H100V693Q131 702 166 705T237 708Q275 708 311 699T376 666T421 601T438 496Q438 433 420 390T374 320T309 281T235 269Q230 269 222 269T204 269T185 271T172 273V209H306V149H172V0H100V149H41V209H100V274H41V334ZM241
643Q221 643 202 642T172 638V338Q176 337 184 336T202 335T219 334T232 334Q254 334 277 341T320 366T351 416T363 495Q363 536 353 564T327 609T288 635T241 643Z" />
<glyph unicode="&#x2113;" glyph-name="afii61289" horiz-adv-x="500" d="M406 30Q384 16 349 2T278 -12Q215 -12 187 18T158 114V218L108 174L73 218L158 292V546Q158 590 168 621T195 673T236 702T287 712Q335 712 366 683T397 593Q397 519 357 436T226 265V125Q226
81 243 65T284 48Q309 48 339 58T389 80L406 30ZM333 588Q333 622 319 637T287 652Q275 652 264 649T245 635T231 606T226 557V345Q282 410 307 470T333 588Z" />
<glyph unicode="&#x2116;" glyph-name="afii61352" horiz-adv-x="826" d="M536 332H766V265H536V332ZM170 447L128 562H124L136 452V0H64V711H109L356 254L397 144H401L388 249V700H460V-11H415L170 447ZM521 542Q521 588 530 620T557 673T598 703T649 712Q676
712 699 704T740 676T767 623T777 542Q777 494 768 461T741 409T700 381T649 372Q622 372 599 380T558 408T531 461T521 542ZM586 542Q586 477 603 452T649 427Q663 427 674 432T694 449T707 484T712 542Q712 576 708 598T695 634T675 652T649 657Q634 657 623
652T603 634T591 599T586 542Z" />
<glyph unicode="&#x2122;" glyph-name="trademark" horiz-adv-x="731" d="M319 635H213V340H141V635H35V700H319V635ZM629 507L639 610H635L604 525L537 385H503L435 524L406 610H402L415 508V340H350V700H421L503 533L525 475L549 535L624 700H696V340H629V507Z" />
<glyph unicode="&#x2126;" glyph-name="uni2126" horiz-adv-x="640" d="M58 65H149L224 55V82L181 92Q156 107 134 134T95 197T68 279T58 376Q58 455 76 517T129 622T211 689T319 712Q382 712 431 687T513 617T564 510T582 372Q582 318 571 274T543 194T503 133T460
93L415 82V55L491 65H582V0H349V116Q372 122 399 139T449 187T487 266T503 377Q503 425 493 473T460 558T403 619T319 643Q231 643 184 575T137 374Q137 311 151 265T188 188T237 139T290 116V0H58V65Z" />
<glyph unicode="&#x212e;" glyph-name="estimated" horiz-adv-x="600" d="M157 259V78Q219 19 302 19Q426 19 495 139L530 118Q487 52 431 18T302 -17Q243 -17 195 4T114 63T62 150T44 259Q44 318 62 368T115 456T196 514T302 535Q364 535 411 513T492 454T542
366T561 259H157ZM448 295V440Q385 500 301 500Q215 500 157 440V295H448Z" />
<glyph unicode="&#x2202;" glyph-name="partialdiff" horiz-adv-x="416" d="M233 510Q265 510 282 503T313 483H317Q314 532 297 565T253 617T196 644T135 649L148 712Q204 713 249 699T326 649T375 555T392 408Q392 297 376 218T332 87T264 12T178 -12Q100 -12
60 39T19 184Q19 249 32 308T73 412T140 483T233 510ZM231 445Q203 445 178 427T135 375T105 291T94 178Q94 154 99 132T115 92T143 64T184 53Q223 53 248 85T289 168T310 281T317 405Q302 424 283 434T231 445Z" />
<glyph unicode="&#x2206;" glyph-name="uni2206" horiz-adv-x="459" d="M11 0V37L212 711H247L451 37V0H11ZM91 65H368L247 467L229 581H226L205 465L91 65Z" />
<glyph unicode="&#x220f;" glyph-name="product" horiz-adv-x="541" d="M402 631H139V-200H64V700H477V-200H402V631Z" />
<glyph unicode="&#x2211;" glyph-name="summation" horiz-adv-x="415" d="M112 -95L80 -131H386V-200H16V-131L193 220L221 250L192 282L16 631V700H386V631H84L119 595L287 256L112 -95Z" />
<glyph unicode="&#x2212;" glyph-name="minus" horiz-adv-x="415" d="M35 373H379V306H35V373Z" />
<glyph unicode="&#x2215;" glyph-name="uni2215" horiz-adv-x="415" d="M376 713L425 686L41 -12L-9 16L376 713Z" />
<glyph unicode="&#x221a;" glyph-name="radical" horiz-adv-x="415" d="M138 446L208 236L228 105H230L245 238L361 700H428L246 -11H214L86 381H-6V446H138Z" />
<glyph unicode="&#x221e;" glyph-name="infinity" horiz-adv-x="695" d="M343 286Q314 227 272 195T182 163Q153 163 128 175T83 212T53 270T42 346Q42 436 82 487T188 539Q246 539 286 507T352 426Q387 487 429 513T521 539Q580 539 616 491T653 357Q653 265
613 214T506 163Q477 163 453 173T408 200T372 239T343 286ZM507 228Q540 228 561 263T583 355Q583 377 579 398T565 436T541 463T505 474Q472 474 440 447T379 371Q389 344 402 319T431 273T467 240T507 228ZM189 474Q172 474 158 464T134 437T118 397T112 349Q112
324 117 302T134 264T161 238T197 228Q215 228 231 238T263 263T292 299T317 340Q306 368 293 392T264 435T229 463T189 474Z" />
<glyph unicode="&#x222b;" glyph-name="integral'" horiz-adv-x="284" d="M178 -58Q178 -136 150 -172T64 -208Q34 -208 8 -203T-38 -188L-19 -127Q17 -143 52 -143Q84 -143 95 -119T106 -35V562Q106 640 132 676T219 712Q247 712 273 707T319 692L300 632Q283
640 266 643T229 647Q199 647 189 624T178 541V-58Z" />
<glyph unicode="&#x2248;" glyph-name="approxequal" horiz-adv-x="418" d="M24 444Q60 477 89 490T143 503Q166 503 186 495T224 477T259 459T295 450Q309 450 325 457T358 483L392 423Q360 396 335 386T289 375Q267 375 249 383T213 402T178 421T141 430Q123
430 103 420T57 385L24 444ZM24 534Q60 567 89 580T143 593Q166 593 186 585T224 567T259 549T295 540Q309 540 325 547T358 573L392 513Q360 486 335 476T289 465Q267 465 249 473T213 492T178 511T141 520Q123 520 103 510T57 475L24 534Z" />
<glyph unicode="&#x2260;" glyph-name="notequal" horiz-adv-x="412" d="M33 456H214L263 594H329L279 456H377V389H255L219 290H377V223H195L139 66H75L131 223H33V290H155L190 389H33V456Z" />
<glyph unicode="&#x2264;" glyph-name="lessequal" horiz-adv-x="415" d="M375 82L337 27L46 231L84 286L375 82ZM32 426V455L332 678L371 624L180 479L106 441L179 409L375 265L337 211L32 426Z" />
<glyph unicode="&#x2265;" glyph-name="greaterequal" horiz-adv-x="415" d="M372 234L82 27L42 81L333 288L372 234ZM376 463V434L76 211L37 265L228 410L302 448L229 480L33 624L71 678L376 463Z" />
<glyph unicode="&#x25ca;" glyph-name="lozenge" horiz-adv-x="415" d="M222 -11H189L29 342L189 711H222L385 347L222 -11ZM233 164L312 337L227 529L205 619H203L181 527L102 353L187 162L210 71H211L233 164Z" />
<glyph unicode="&#x2c67;" glyph-name="uni2C67" horiz-adv-x="568" d="M397 323H139V0H64V700H139V392H397V700H472V69H546V-129H494L482 0H397V323Z" />
<glyph unicode="&#x2c68;" glyph-name="uni2C68" horiz-adv-x="467" d="M387 65H447V-127H398L385 0H315V304Q315 374 299 410T233 447Q198 447 170 422T131 359V0H59V700H131V453H134Q154 479 183 495T257 512Q290 512 314 503T355 472T379 414T387 323V65Z" />
<glyph unicode="&#xf401;" glyph-name="uniF401" horiz-adv-x="2" d="M-301 870H-202V849L-333 752H-394L-301 870Z" />
<glyph unicode="&#xf406;" glyph-name="uniF406" horiz-adv-x="405" d="M98 871Q112 837 140 816T206 795Q245 795 270 817T309 871L345 855Q330 792 291 761T205 730Q162 730 121 759T60 851L98 871Z" />
<glyph unicode="&#xf407;" glyph-name="uniF407" horiz-adv-x="262" d="M137 -43Q202 -58 202 -118Q202 -141 192 -160T163 -191T118 -206T60 -204L67 -165Q90 -167 103 -164T124 -155T133 -142T135 -127Q135 -99 66 -90L106 0H156L137 -43Z" />
<glyph unicode="&#xf408;" glyph-name="uniF408" horiz-adv-x="379" d="M167 870H217L319 768V747H253L206 796L191 831L176 797L124 747H60V769L167 870Z" />
<glyph unicode="&#xf409;" glyph-name="uniF409" horiz-adv-x="219" d="M61 -102Q61 -81 74 -68T105 -55Q127 -55 143 -72T159 -130Q159 -156 152 -175T134 -209T112 -232T91 -245L64 -218Q81 -205 92 -187T103 -144Q86 -146 74 -135T61 -102Z" />
<glyph unicode="&#xf40a;" glyph-name="uniF40A" horiz-adv-x="161" d="M31 659Q31 682 44 695T77 708Q101 708 116 692T131 641Q131 609 123 585T104 545T79 518T57 502L34 532Q51 543 63 563T75 611Q57 608 44 621T31 659Z" />
<glyph unicode="&#xf40b;" glyph-name="uniF40B" horiz-adv-x="229" d="M60 797Q60 818 74 833T114 849Q140 849 154 834T169 797Q169 774 155 759T114 744Q88 744 74 759T60 797Z" />
<glyph unicode="&#xf40c;" glyph-name="uniF40C" horiz-adv-x="300" d="M60 768Q60 805 81 829T150 853Q193 853 216 832T240 768Q240 732 218 709T150 685Q105 685 83 707T60 768ZM114 768Q114 750 122 739T150 727Q186 727 186 768Q186 811 150 811Q114 811 114 768Z" />
<glyph unicode="&#xf40d;" glyph-name="uniF40D" horiz-adv-x="395" d="M60 780Q88 814 111 826T156 839Q172 839 186 834T214 824T240 813T266 808Q277 808 287 812T309 828L335 791Q311 763 290 753T251 743Q236 743 222 748T195 758T168 769T141 774Q127 774
114 768T84 745L60 780Z" />
<glyph unicode="&#xf40e;" glyph-name="uniF40E" horiz-adv-x="278" d="M195 10Q166 -6 149 -30T132 -87Q133 -116 152 -131T208 -132L218 -172Q207 -183 187 -189T147 -195Q107 -195 84 -171T60 -109Q60 -66 84 -37T147 10H195Z" />
<glyph unicode="&#xf486;" glyph-name="uniF486" horiz-adv-x="471" d="M411 541Q411 515 405 489T386 440T354 399T306 372V368Q330 363 352 352T391 320T418 270T428 199Q428 145 411 106T365 41T297 4T215 -8Q201 -8 183 -8T143 -7T102 -3T64 5V694Q94 700
134 704T222 708Q256 708 290 702T351 677T394 627T411 541ZM221 61Q248 61 271 69T311 95T339 136T349 194Q349 235 337 260T304 300T259 319T206 324H139V68Q145 66 154 65T175 63T199 62T221 61ZM180 389Q194 389 212 390T242 393Q279 408 305 441T332 524Q332
557 323 579T299 615T262 633T218 639Q192 639 171 638T139 634V389H180ZM246 870H345V849L214 752H153L246 870Z" />
<glyph unicode="&#xf487;" glyph-name="uniF487" horiz-adv-x="434" d="M59 700H131V462H134Q175 512 243 512Q320 512 358 451T397 258Q397 123 346 57T200 -9Q154 -9 116 1T59 26V700ZM131 73Q145 65 165 61T209 56Q261 56 291 105T322 258Q322 301 317 335T300
395T270 433T225 447Q189 447 166 426T131 367V73ZM250 720H328V699L246 571H203L250 720Z" />
<glyph unicode="&#xf488;" glyph-name="uniF488" horiz-adv-x="413" d="M64 700H375V631H139V384H359V315H139V0H64V700ZM245 870H344V849L213 752H152L245 870Z" />
<glyph unicode="&#xf489;" glyph-name="uniF489" horiz-adv-x="257" d="M16 500H77V528Q77 622 104 664T196 706Q222 706 243 703T286 690L268 628Q250 636 235 638T205 641Q185 641 174 633T158 608T151 565T149 500H253V435H149V0H77V435H16V500ZM233 870H332V849L201
752H140L233 870Z" />
<glyph unicode="&#xf49e;" glyph-name="uniF49E" horiz-adv-x="490" d="M-2 587H67V700H142V587H319V525H142V400Q163 414 199 428T281 443Q316 443 344 434T393 403T424 343T435 249V0H360V236Q360 307 337 340T263 374Q227 374 195 362T142 329V0H67V525H-2V587Z" />
<glyph unicode="&#xf49f;" glyph-name="uniF49F" horiz-adv-x="441" d="M-4 632H60V700H132V632H261V574H132V453H135Q155 479 184 495T258 512Q291 512 315 503T356 472T380 414T388 323V0H316V304Q316 374 300 410T234 447Q199 447 171 422T132 359V0H60V574H-4V632Z" />
<glyph unicode="&#xf4c6;" glyph-name="uniF4C6" horiz-adv-x="487" d="M130 700V456Q130 383 155 355T228 326Q263 326 295 339T348 373V700H423V-28Q423 -131 389 -175T280 -210V-145Q303 -145 316 -136T337 -109T346 -64T348 0V300Q328 285 292 271T212 257Q180
257 152 265T102 293T68 349T55 439V700H130Z" />
<glyph unicode="&#xf4c7;" glyph-name="uniF4C7" horiz-adv-x="396" d="M108 500V354Q108 329 110 309T120 275T140 253T174 245Q209 245 231 254T265 274V500H337V-29Q337 -121 310 -165T222 -208Q216 -208 210 -208T197 -206V-143Q242 -144 253 -109T265 0V210Q253
201 228 191T159 180Q130 180 107 187T69 212T45 258T36 331V500H108Z" />
<glyph unicode="&#xf4cc;" glyph-name="uniF4CC" horiz-adv-x="448" d="M228 341L247 252H252L268 344L372 700H449L306 245Q284 175 268 127T235 50T198 8T149 -5Q123 -5 106 0T74 16L96 80Q112 69 125 67T149 64Q171 64 186 94T212 181L3 700H91L228 341ZM257
870H356V849L225 752H164L257 870Z" />
<glyph unicode="&#xf4cd;" glyph-name="uniF4CD" horiz-adv-x="376" d="M183 177L204 80H209L224 177L300 500H373L254 51Q240 -3 226 -50T196 -131T159 -185T110 -205Q82 -205 61 -196L73 -128Q87 -133 101 -130T127 -113T150 -72T169 0L7 500H89L183 177ZM212
720H290V699L208 571H165L212 720Z" />
<glyph unicode="&#xf4d6;" glyph-name="uniF4D6" horiz-adv-x="465" d="M118 390H347Q342 517 294 580T169 643Q131 643 102 634T52 612L30 674Q58 692 96 702T177 712Q232 712 277 693T354 630T404 518T422 351Q422 252 402 183T347 70T265 8T163 -12Q122 -12
89 -5T32 13L53 81Q72 71 103 64T167 57Q201 57 232 71T289 117T329 199T347 323H118V390ZM130 797Q130 818 144 833T184 849Q210 849 224 834T239 797Q239 774 225 759T184 744Q158 744 144 759T130 797Z" />
<glyph unicode="&#xf4d7;" glyph-name="uniF4D7" horiz-adv-x="372" d="M94 283H260Q257 361 229 404T148 447Q116 447 92 438T53 418L28 475Q51 492 84 502T160 512Q250 512 292 447T335 250Q335 119 287 54T150 -12Q73 -12 28 12L48 76Q67 65 93 59T143 53Q254
53 260 221H94V283ZM105 652Q105 676 118 691T154 706Q176 706 190 692T205 652Q205 628 191 615T154 601Q132 601 119 615T105 652Z" />
<glyph unicode="&#xf50a;" glyph-name="uniF50A" horiz-adv-x="434" d="M109 333V398H127Q142 398 164 399T199 403Q239 413 267 444T296 524Q296 590 264 616T183 643Q144 643 114 636T65 617L45 679Q63 690 104 701T198 712Q232 712 264 704T320 677T360 624T375
540Q375 489 350 445T271 378V374Q327 363 359 321T392 206Q392 155 378 116T340 51T284 9T214 -11L202 -179H155L140 -12Q103 -10 77 -3T31 14L51 82Q71 71 103 64T181 57Q208 57 232 66T274 94T302 139T313 203Q313 268 279 297T186 332Q176 333 169 333T150
333H109Z" />
<glyph unicode="&#xf50b;" glyph-name="uniF50B" horiz-adv-x="351" d="M96 224V286H149Q163 286 176 292T200 310T217 335T224 366Q224 405 204 423T141 441Q110 441 86 432T48 413L27 470Q52 486 85 496T162 506Q228 506 263 476T299 384Q299 346 280 314T228
268V264Q274 253 294 222T314 140Q314 86 284 47T191 -4L179 -179H132L116 -7Q87 -5 66 2T26 19L45 81Q64 69 88 64T141 58Q239 58 239 146Q239 182 216 203T139 224H96Z" />
<glyph unicode="&#xf50c;" glyph-name="uniF50C" horiz-adv-x="458" d="M430 27Q409 9 378 0T312 -11L298 -43Q363 -58 363 -118Q363 -157 335 -182T258 -208Q238 -208 221 -204L228 -165Q251 -167 264 -164T285 -155T294 -142T296 -127Q296 -99 227 -90L262 -10Q214
-6 174 16T104 82T59 192T43 350Q43 450 63 519T118 631T196 693T288 712Q336 712 367 705T422 688L404 620Q384 631 357 637T295 643Q260 643 229 628T174 578T136 487T122 350Q122 204 172 131T305 58Q339 58 366 67T412 90L430 27Z" />
<glyph unicode="&#xf50d;" glyph-name="uniF50D" horiz-adv-x="356" d="M335 25Q315 10 291 2T241 -10L227 -43Q292 -58 292 -118Q292 -157 264 -182T187 -208Q167 -208 150 -204L157 -165Q180 -167 193 -164T214 -155T223 -142T225 -127Q225 -99 156 -90L191
-11Q149 -7 120 13T72 67T46 147T37 250Q37 378 82 445T213 512Q252 512 280 505T328 487L308 425Q270 447 221 447Q167 447 140 400T112 250Q112 209 118 174T138 112T174 70T229 55Q255 55 277 63T314 84L335 25Z" />
<glyph unicode="&#xf50e;" glyph-name="uniF50E" horiz-adv-x="473" d="M333 196H135L79 0H5L216 711H257L468 0H390L333 196ZM155 263H315L254 479L235 584H233L214 477L155 263ZM109 823H368V761H109V823Z" />
<glyph unicode="&#xf50f;" glyph-name="uniF50F" horiz-adv-x="400" d="M54 470Q83 488 124 498T212 508Q254 508 279 496T319 462T338 413T343 355Q343 295 341 238T338 130Q338 92 340 60T350 -2H295L278 57H274Q259 31 230 12T152 -7Q98 -7 64 30T29 134Q29
177 43 206T84 253T147 278T229 286Q239 286 249 286T270 285Q273 316 273 340Q273 397 256 420T194 443Q166 443 133 435T78 413L54 470ZM271 228Q261 229 251 229T231 230Q207 230 184 226T143 212T115 185T104 142Q104 102 123 80T174 58Q216 58 239 78T271
122V228ZM77 643H320V583H77V643Z" />
<glyph unicode="&#xf510;" glyph-name="uniF510" horiz-adv-x="429" d="M64 700H375V631H139V394H356V325H139V69H380V0H64V700ZM87 823H346V761H87V823Z" />
<glyph unicode="&#xf511;" glyph-name="uniF511" horiz-adv-x="413" d="M358 34Q334 12 297 0T219 -12Q172 -12 138 6T81 59T48 142T37 250Q37 378 84 445T217 512Q245 512 272 505T322 477T357 418T371 319Q371 302 370 283T366 242H112Q112 199 119 164T141
105T179 67T238 53Q265 53 291 63T332 87L358 34ZM302 302Q304 377 281 412T218 447Q172 447 145 412T113 302H302ZM86 643H329V583H86V643Z" />
<glyph unicode="&#xf512;" glyph-name="uniF512" horiz-adv-x="429" d="M64 700H375V631H139V394H356V325H139V69H380V0H64V700ZM88 794Q88 815 100 828T135 841Q156 841 168 828T181 794Q181 773 169 761T135 748Q113 748 101 760T88 794ZM246 794Q246 815 258
828T292 841Q314 841 326 828T339 794Q339 773 327 761T292 748Q271 748 259 760T246 794ZM84 934H343V872H84V934Z" />
<glyph unicode="&#xf513;" glyph-name="uniF513" horiz-adv-x="413" d="M358 34Q334 12 297 0T219 -12Q172 -12 138 6T81 59T48 142T37 250Q37 378 84 445T217 512Q245 512 272 505T322 477T357 418T371 319Q371 302 370 283T366 242H112Q112 199 119 164T141
105T179 67T238 53Q265 53 291 63T332 87L358 34ZM302 302Q304 377 281 412T218 447Q172 447 145 412T113 302H302ZM91 871Q91 894 102 907T134 920Q154 920 165 907T177 871Q177 850 166 837T134 824Q114 824 103 837T91 871ZM250 871Q250 894 261 907T293 920Q313
920 324 907T336 871Q336 850 325 837T293 824Q273 824 262 837T250 871ZM83 1044H342V982H83V1044Z" />
<glyph unicode="&#xf514;" glyph-name="uniF514" horiz-adv-x="429" d="M64 700H375V631H139V394H356V325H139V69H380V0H64V700ZM90 794Q90 815 102 828T137 841Q158 841 170 828T183 794Q183 773 171 761T137 748Q115 748 103 760T90 794ZM248 794Q248 815 260
828T294 841Q316 841 328 828T341 794Q341 773 329 761T294 748Q273 748 261 760T248 794ZM150 994Q152 957 170 935T221 913Q253 913 270 935T291 993L355 978Q347 921 314 890T220 859Q161 859 123 887T78 977L150 994Z" />
<glyph unicode="&#xf515;" glyph-name="uniF515" horiz-adv-x="413" d="M358 34Q334 12 297 0T219 -12Q172 -12 138 6T81 59T48 142T37 250Q37 378 84 445T217 512Q245 512 272 505T322 477T357 418T371 319Q371 302 370 283T366 242H112Q112 199 119 164T141
105T179 67T238 53Q265 53 291 63T332 87L358 34ZM302 302Q304 377 281 412T218 447Q172 447 145 412T113 302H302ZM90 871Q90 894 101 907T133 920Q153 920 164 907T176 871Q176 850 165 837T133 824Q113 824 102 837T90 871ZM249 871Q249 894 260 907T292 920Q312
920 323 907T335 871Q335 850 324 837T292 824Q272 824 261 837T249 871ZM145 1091Q147 1054 165 1032T216 1010Q248 1010 265 1032T286 1090L350 1075Q342 1018 309 987T215 956Q156 956 118 984T73 1074L145 1091Z" />
<glyph unicode="&#xf516;" glyph-name="uniF516" horiz-adv-x="434" d="M109 333V398H127Q142 398 164 399T199 403Q239 413 267 444T296 524Q296 590 264 616T183 643Q144 643 114 636T65 618L45 679Q63 690 104 701T198 712Q232 712 264 704T320 677T360 624T375
540Q375 489 350 445T271 378V374Q327 363 359 321T392 206Q392 148 375 107T328 40T259 1T178 -12Q125 -12 90 -5T31 14L51 82Q71 71 103 64T181 57Q208 57 232 66T274 94T302 139T313 203Q313 268 279 297T186 332Q176 333 169 333T150 333H109ZM227 746H174L72
849V870H141L188 820L202 786L217 819L267 870H333V848L227 746Z" />
<glyph unicode="&#xf517;" glyph-name="uniF517" horiz-adv-x="351" d="M97 224V286H152Q166 286 179 292T203 310T220 335T227 366Q227 405 207 423T144 441Q113 441 88 432T48 413L27 470Q52 486 85 496T162 506Q228 506 263 476T299 384Q299 346 280 314T228
268V264Q274 253 294 222T314 140Q314 77 272 35T143 -8Q103 -8 76 -1T26 19L45 81Q64 69 90 63T144 57Q193 57 217 80T242 146Q242 182 219 203T142 224H97ZM445 550H407L314 732H382L413 666L430 608L447 666L483 732H544L445 550Z" />
<glyph unicode="&#xf518;" glyph-name="uniF518" horiz-adv-x="549" d="M43 350Q43 528 100 620T274 712Q337 712 381 687T452 614T493 500T506 350Q506 172 449 80T274 -12Q212 -12 168 13T96 86T56 200T43 350ZM122 350Q122 291 130 238T157 145T204 81T274
57Q349 57 388 129T427 350Q427 408 419 461T392 554T345 619T274 643Q200 643 161 571T122 350ZM149 823H408V761H149V823Z" />
<glyph unicode="&#xf519;" glyph-name="uniF519" d="M37 250Q37 385 83 448T216 512Q308 512 351 447T395 250Q395 114 348 51T216 -12Q124 -12 81 53T37 250ZM112 250Q112 206 117 170T135 108T168 68T216 53Q268 53 294 99T320 250Q320 293 315 329T297 392T264
432T216 447Q165 447 139 400T112 250ZM95 643H338V583H95V643Z" />
<glyph unicode="&#xf51a;" glyph-name="uniF51A" horiz-adv-x="549" d="M43 350Q43 528 100 620T274 712Q337 712 381 687T452 614T493 500T506 350Q506 172 449 80T274 -12Q212 -12 168 13T96 86T56 200T43 350ZM122 350Q122 291 130 238T157 145T204 81T274
57Q349 57 388 129T427 350Q427 408 419 461T392 554T345 619T274 643Q200 643 161 571T122 350ZM205 870Q207 833 225 811T276 789Q308 789 325 811T346 869L410 854Q402 797 369 766T275 735Q216 735 178 763T133 853L205 870Z" />
<glyph unicode="&#xf51b;" glyph-name="uniF51B" d="M37 250Q37 385 83 448T216 512Q308 512 351 447T395 250Q395 114 348 51T216 -12Q124 -12 81 53T37 250ZM112 250Q112 206 117 170T135 108T168 68T216 53Q268 53 294 99T320 250Q320 293 315 329T297 392T264
432T216 447Q165 447 139 400T112 250ZM148 702Q153 656 172 637T218 617Q244 617 263 638T288 701L343 685Q335 625 300 594T216 562Q193 562 172 568T133 589T103 627T87 683L148 702Z" />
<glyph unicode="&#xf51c;" glyph-name="uniF51C" horiz-adv-x="549" d="M43 350Q43 528 100 620T274 712Q337 712 381 687T452 614T493 500T506 350Q506 172 449 80T274 -12Q212 -12 168 13T96 86T56 200T43 350ZM274 57Q345 57 384 122T427 322H122Q124 268 133
220T161 136T207 78T274 57ZM274 643Q205 643 166 580T122 389H427Q424 441 414 487T386 567T340 622T274 643ZM205 870Q207 833 225 811T276 789Q308 789 325 811T346 869L410 854Q402 797 369 766T275 735Q216 735 178 763T133 853L205 870Z" />
<glyph unicode="&#xf51d;" glyph-name="uniF51D" d="M37 250Q37 381 83 446T216 512Q308 512 351 444T395 250Q395 117 349 53T216 -12Q124 -12 81 56T37 250ZM320 279Q315 370 287 408T216 447Q196 447 178 439T146 411T123 359T112 279H320ZM112 219Q115 134
144 94T216 53Q235 53 253 61T286 88T309 139T320 219H112ZM147 702Q152 656 171 637T217 617Q243 617 262 638T287 701L342 685Q334 625 299 594T215 562Q192 562 171 568T132 589T102 627T86 683L147 702Z" />
<glyph unicode="&#xf51e;" glyph-name="uniF51E" horiz-adv-x="549" d="M43 350Q43 528 100 620T274 712Q337 712 381 687T452 614T493 500T506 350Q506 172 449 80T274 -12Q212 -12 168 13T96 86T56 200T43 350ZM274 57Q345 57 384 122T427 322H122Q124 268 133
220T161 136T207 78T274 57ZM274 643Q205 643 166 580T122 389H427Q424 441 414 487T386 567T340 622T274 643ZM149 794Q149 815 161 828T196 841Q217 841 229 828T242 794Q242 773 230 761T196 748Q174 748 162 760T149 794ZM307 794Q307 815 319 828T353 841Q375
841 387 828T400 794Q400 773 388 761T353 748Q332 748 320 760T307 794ZM207 994Q209 957 227 935T278 913Q310 913 327 935T348 993L412 978Q404 921 371 890T277 859Q218 859 180 887T135 977L207 994Z" />
<glyph unicode="&#xf51f;" glyph-name="uniF51F" d="M37 250Q37 381 83 446T216 512Q308 512 351 444T395 250Q395 117 349 53T216 -12Q124 -12 81 56T37 250ZM320 279Q315 370 287 408T216 447Q196 447 178 439T146 411T123 359T112 279H320ZM112 219Q115 134
144 94T216 53Q235 53 253 61T286 88T309 139T320 219H112ZM92 890Q92 913 103 926T135 939Q155 939 166 926T178 890Q178 869 167 856T135 843Q115 843 104 856T92 890ZM251 890Q251 913 262 926T294 939Q314 939 325 926T337 890Q337 869 326 856T294 843Q274
843 263 856T251 890ZM150 1092Q152 1055 170 1033T221 1011Q253 1011 270 1033T291 1091L355 1076Q347 1019 314 988T220 957Q161 957 123 985T78 1075L150 1092Z" />
<glyph unicode="&#xf520;" glyph-name="uniF520" horiz-adv-x="622" d="M483 700H558V0H483V700ZM64 700H139V428Q148 430 169 433T210 437Q249 437 284 428T347 396T390 331T406 227Q406 105 350 49T192 -8Q169 -8 133 -6T64 6V700ZM199 61Q259 61 293 100T327
220Q327 264 317 292T290 338T248 361T196 368Q182 368 165 365T139 359V68Q159 61 199 61ZM174 823H433V761H174V823Z" />
<glyph unicode="&#xf521;" glyph-name="uniF521" horiz-adv-x="538" d="M131 65Q161 59 186 59Q234 59 253 84T272 158Q272 203 254 228T188 254Q175 254 160 253T131 247V65ZM131 309Q151 313 169 314T203 316Q244 316 272 305T316 273T340 226T347 167Q347 76
307 35T172 -6Q114 -6 59 0V500H131V309ZM407 500H479V0H407V500ZM141 643H384V583H141V643Z" />
<glyph unicode="&#xf522;" glyph-name="uniF522" horiz-adv-x="465" d="M118 390H347Q342 517 294 580T169 643Q131 643 102 634T52 612L30 674Q58 692 96 702T177 712Q232 712 277 693T354 630T404 518T422 351Q422 252 402 183T347 70T265 8T163 -12Q122 -12
89 -5T32 13L53 81Q72 71 103 64T167 57Q201 57 232 71T289 117T329 199T347 323H118V390ZM64 823H323V761H64V823Z" />
<glyph unicode="&#xf523;" glyph-name="uniF523" horiz-adv-x="372" d="M94 283H260Q257 361 229 404T148 447Q116 447 92 438T53 418L28 475Q51 492 84 502T160 512Q250 512 292 447T335 250Q335 119 287 54T150 -12Q73 -12 28 12L48 76Q67 65 93 59T143 53Q254
53 260 221H94V283ZM296 643H539V583H296V643Z" />
<glyph unicode="&#xf524;" glyph-name="uniF524" horiz-adv-x="465" d="M118 390H347Q342 517 294 580T169 643Q131 643 102 634T52 612L30 674Q58 692 96 702T177 712Q232 712 277 693T354 630T404 518T422 351Q422 252 402 183T347 70T265 8T163 -12Q122 -12
89 -5T32 13L53 81Q72 71 103 64T167 57Q201 57 232 71T289 117T329 199T347 323H118V390ZM379 870Q381 833 399 811T450 789Q482 789 499 811T520 869L584 854Q576 797 543 766T449 735Q390 735 352 763T307 853L379 870Z" />
<glyph unicode="&#xf525;" glyph-name="uniF525" horiz-adv-x="372" d="M94 283H260Q257 361 229 404T148 447Q116 447 92 438T53 418L28 475Q51 492 84 502T160 512Q250 512 292 447T335 250Q335 119 287 54T150 -12Q73 -12 28 12L48 76Q67 65 93 59T143 53Q254
53 260 221H94V283ZM353 702Q358 656 377 637T423 617Q449 617 468 638T493 701L548 685Q540 625 505 594T421 562Q398 562 377 568T338 589T308 627T292 683L353 702Z" />
</font>
</defs>
</svg>
