<svg xmlns="http://www.w3.org/2000/svg">
<defs>
<font id="PTSans-Caption" horiz-adv-x="597" ><font-face
    font-family="PT Sans Caption"
    units-per-em="1000"
    panose-1="2 11 6 3 2 2 3 2 2 4"
    ascent="999"
    descent="-251"
    alphabetic="0" />
<missing-glyph horiz-adv-x="750" d="M50 700H700V0H50V700ZM570 620L375 403L180 620L130 570L327 350L130 130L180 80L375 297L570 80L620 130L422 350L620 570L570 620ZM129 27H137V39H141Q147 39 152 41T157 51Q157 59 152 61T140 63H129V27ZM141 57Q149 57
149 52Q149 47 147 47T140 46H137V57H141ZM189 63H158V57H170V27H177V57H189V63ZM222 37Q222 33 215 33Q208 33 206 35L203 28Q205 28 208 27T216 26Q230 26 230 38Q230 47 221 48T212 54Q212 57 218 57Q223 57 227 55L229 62Q223 64 218 64Q204 64 204 53Q204
48 207 46T213 43T219 40T222 37ZM237 47Q241 49 246 49Q251 49 251 45V43Q250 43 249 43T246 44Q234 44 234 34Q234 26 242 26Q248 26 251 31L253 27H259Q258 29 258 34V45Q258 55 248 55Q244 55 241 54T235 52L237 47ZM245 32Q241 32 241 36Q241 40 246 40Q248
40 249 40T251 39V36Q249 32 245 32ZM292 27V43Q292 55 283 55Q276 55 273 50L271 54H266V27H273V44Q275 48 279 48Q284 48 284 42V27H292ZM297 28Q301 26 307 26Q318 26 318 35Q318 40 316 41T310 44Q305 46 305 47Q305 49 308 49Q312 49 316 47L318 53Q314 55
308 55Q298 55 298 46Q298 41 301 40T306 37Q311 37 311 34Q311 32 308 32Q303 32 299 34L297 28ZM338 42Q338 21 358 21Q378 21 378 42Q378 62 358 62Q350 62 344 57T338 42ZM344 42Q344 57 358 57Q372 57 372 42Q372 27 358 27Q344 27 344 42ZM364 38Q362 37
360 37Q356 37 356 42Q356 46 360 46H363L365 50Q361 52 358 52Q349 52 349 42Q349 31 358 31Q363 31 365 33L364 38ZM399 27H407V39H411Q417 39 422 41T427 51Q427 59 422 61T410 63H399V27ZM411 57Q419 57 419 52Q419 47 417 47T410 46H407V57H411ZM432 47Q436
49 441 49Q446 49 446 45V43Q445 43 444 43T441 44Q428 44 428 34Q428 26 437 26Q443 26 446 31L448 27H454Q453 29 453 34V45Q453 55 443 55Q439 55 436 54T430 52L432 47ZM440 32Q436 32 436 36Q436 40 441 40Q443 40 444 40T446 39V36Q444 32 440 32ZM478 54Q477

<glyph unicode=" " glyph-name="space" horiz-adv-x="291" />
<glyph unicode="!" glyph-name="exclam" horiz-adv-x="331" d="M134 700H232V357L212 184H154L134 357V700ZM115 51Q115 80 133 97T182 114Q212 114 230 97T249 51Q249 24 231 6T182 -12Q152 -12 134 6T115 51Z" />
<glyph unicode="&quot;" glyph-name="quotedbl" horiz-adv-x="375" d="M98 700H190L155 502H98V700ZM228 700H320L285 502H228V700Z" />
<glyph unicode="#" glyph-name="numbersign" horiz-adv-x="634" d="M325 221H212L170 57H89L131 221H46L63 293H150L182 417H101L118 489H201L241 643H322L282 489H395L435 643H516L476 489H559L540 417H457L425 293H504L485 221H406L363 57H283L325 221ZM231
293H344L376 417H263L231 293Z" />
<glyph unicode="$" glyph-name="dollar" horiz-adv-x="634" d="M283 -13Q222 -11 175 -2T100 22L131 106Q154 94 191 84T283 71V321Q250 335 218 351T160 391T119 447T103 526Q103 604 148 651T283 710V800H362V712Q417 710 453 702T518 681L489 599Q469 609 438
617T362 628V399Q396 384 430 367T491 325T534 269T551 192Q551 109 503 58T362 -8V-100H283V-13ZM340 73Q391 79 422 105T453 182Q453 204 444 221T420 251T384 276T340 297V73ZM305 628Q247 623 224 597T201 533Q201 493 231 469T305 424V628Z" />
<glyph unicode="%" glyph-name="percent" horiz-adv-x="854" d="M74 542Q74 586 87 618T123 671T177 702T246 712Q283 712 314 703T369 673T406 621T419 542Q419 496 406 464T370 411T315 382T246 372Q209 372 178 381T123 411T87 463T74 542ZM162 542Q162 488
183 463T246 437Q286 437 308 460T331 542Q331 602 309 624T246 647Q206 647 184 625T162 542ZM473 170Q473 214 486 246T522 299T576 330T645 340Q682 340 713 331T768 301T805 249T818 170Q818 124 805 92T769 39T714 10T645 0Q608 0 577 9T522 39T486 91T473
170ZM561 170Q561 116 582 91T645 65Q685 65 707 88T730 170Q730 230 708 252T645 275Q605 275 583 253T561 170ZM704 713L762 665L190 -13L133 36L704 713Z" />
<glyph unicode="&amp;" glyph-name="ampersand" horiz-adv-x="891" d="M125 189Q125 229 140 264T180 331T239 389T310 435Q284 470 266 505T247 582Q247 606 256 629T284 671T335 701T410 713Q456 713 487 702T538 674T565 634T573 590Q573 549 539 504T427 420Q465
362 516 304T620 196Q632 208 644 226T668 265T689 307T706 349L778 312Q772 295 760 272T734 226T704 181T676 144Q698 125 715 112T748 88T778 70T807 55L751 -13Q723 1 690 24T621 79Q601 61 578 45T525 16T459 -5T380 -13Q328 -13 282 0T201 40T146 103T125
189ZM563 136Q533 164 503 197T445 262T395 325T354 378Q295 338 258 295T220 193Q220 164 234 141T271 101T326 76T393 67Q419 67 444 73T492 88T533 110T563 136ZM342 580Q342 552 354 525T388 468Q444 500 466 526T489 572Q489 604 473 622T414 641Q376 641
359 625T342 580Z" />
<glyph unicode="&apos;" glyph-name="quotesingle" horiz-adv-x="244" d="M98 700H190L155 502H98V700Z" />
<glyph unicode="(" glyph-name="parenleft" horiz-adv-x="314" d="M249 -220Q198 -172 164 -115T107 3T76 125T66 243Q66 298 75 359T107 481T164 602T252 712L310 669Q267 619 238 566T192 458T168 349T160 243Q160 195 168 140T195 30T242 -79T311 -175L249 -220Z" />
<glyph unicode=")" glyph-name="parenright" horiz-adv-x="313" d="M65 712Q115 664 150 607T206 489T237 367T247 249Q247 194 238 133T206 11T149 -110T61 -220L3 -176Q47 -125 76 -72T122 36T146 144T153 249Q153 297 145 352T118 462T72 569T4 666L65 712Z" />
<glyph unicode="*" glyph-name="asterisk" horiz-adv-x="387" d="M144 724L172 680L191 621L212 679L239 724L293 694L264 647L214 598L288 612H341V549H290L221 563L271 513L296 472L243 441L215 486L190 549L171 489L144 444L87 475L117 520L163 563L100 549H45V612H100L168
598L118 645L89 693L144 724Z" />
<glyph unicode="+" glyph-name="plus" horiz-adv-x="554" d="M43 379H234V569H320V379H511V295H320V104H234V295H43V379Z" />
<glyph unicode="," glyph-name="comma" horiz-adv-x="219" d="M53 47Q53 73 72 89T118 106Q153 106 175 83T197 17Q197 -22 186 -50T156 -99T117 -132T74 -150L46 -104Q84 -91 103 -63T122 -5Q95 -13 74 1T53 47Z" />
<glyph unicode="-" glyph-name="hyphen" horiz-adv-x="394" d="M64 332H330V246H64V332Z" />
<glyph unicode="." glyph-name="period" horiz-adv-x="238" d="M52 51Q52 80 70 97T119 114Q149 114 167 97T186 51Q186 24 168 6T119 -12Q89 -12 71 6T52 51Z" />
<glyph unicode="/" glyph-name="slash" horiz-adv-x="396" d="M360 712L434 678L35 -140L-38 -104L360 712Z" />
<glyph unicode="0" glyph-name="zero" horiz-adv-x="634" d="M64 350Q64 525 128 619T317 713Q449 713 510 620T571 350Q571 176 506 82T316 -13Q250 -13 203 13T125 86T79 201T64 350ZM162 350Q162 289 171 238T198 148T246 89T317 67Q398 67 435 137T473 350Q473
411 465 462T439 552T390 611T317 633Q236 633 199 562T162 350Z" />
<glyph unicode="1" glyph-name="one" horiz-adv-x="634" d="M133 84H285V549L297 610L253 560L134 480L92 539L333 712H377V84H527V0H133V84Z" />
<glyph unicode="2" glyph-name="two" horiz-adv-x="634" d="M509 536Q509 485 488 432T434 325T359 220T275 120L221 77V73L293 84H526V0H85V36Q109 59 142 92T212 166T284 252T348 343T393 435T411 520Q411 567 382 598T293 629Q251 629 212 613T145 574L104
641Q145 674 197 693T312 713Q405 713 457 665T509 536Z" />
<glyph unicode="3" glyph-name="three" horiz-adv-x="634" d="M275 69Q312 69 343 79T396 107T430 150T443 205Q443 271 399 303T274 335H193V373L346 581L398 625L324 616H114V700H509V661L340 434L300 405V402L338 409Q381 408 417 394T481 355T523 294T538
214Q538 158 517 116T460 45T376 2T273 -13Q224 -13 183 -6T112 15L137 97Q163 85 197 77T275 69Z" />
<glyph unicode="4" glyph-name="four" horiz-adv-x="634" d="M596 211H468V0H376V211H39V253L401 710H468V289H596V211ZM376 492L385 572H382L345 507L197 328L144 281L219 289H376V492Z" />
<glyph unicode="5" glyph-name="five" horiz-adv-x="634" d="M126 90Q151 81 179 76T252 71Q327 71 375 107T423 215Q423 284 375 318T240 353L149 349V700H496V612H237V431L284 433Q338 433 381 418T454 376T501 310T518 220Q518 163 497 120T440 47T354 2T249
-13Q201 -13 166 -7T100 10L126 90V90Z" />
<glyph unicode="6" glyph-name="six" horiz-adv-x="634" d="M560 212Q560 168 544 128T498 56T424 6T324 -13Q270 -13 226 4T149 53T100 132T82 239Q82 335 110 417T187 563T304 665T452 713L471 637Q411 629 362 602T275 535T213 447T181 348Q190 361 204 374T239
397T284 413T338 419Q389 419 430 405T500 363T544 298T560 212ZM465 205Q465 271 429 305T319 339Q266 339 229 316T176 264Q174 251 174 244T174 226Q174 197 183 169T211 118T258 81T325 67Q356 67 381 78T425 108T454 152T465 205Z" />
<glyph unicode="7" glyph-name="seven" horiz-adv-x="634" d="M135 0L405 573L453 622L388 612H82V700H546V671L231 0H135Z" />
<glyph unicode="8" glyph-name="eight" horiz-adv-x="634" d="M237 360Q210 375 187 391T146 429T118 476T108 535Q108 573 123 605T166 662T234 699T324 713Q370 713 407 701T471 667T512 616T527 551Q527 494 499 451T406 368Q435 352 460 335T504 295T533 246T544
185Q544 142 529 106T483 44T410 2T311 -13Q258 -13 218 1T149 40T106 98T91 170Q91 233 127 278T237 360ZM299 329Q235 297 208 258T181 183Q181 160 190 139T216 102T258 77T316 67Q343 67 368 74T411 96T441 131T452 181Q452 208 439 229T405 268T356 300T299
329ZM344 395Q390 428 413 461T436 532Q436 556 427 574T402 606T365 626T321 633Q292 633 270 625T233 603T209 572T201 537Q201 510 213 489T244 452T290 422T344 395Z" />
<glyph unicode="9" glyph-name="nine" horiz-adv-x="634" d="M73 487Q73 534 88 575T134 647T209 695T313 713Q369 713 413 695T489 644T536 564T553 458Q553 345 525 260T446 117T328 26T182 -13L162 62Q225 69 275 92T361 152T420 235T452 336Q437 320 422 309T388
292T347 283T295 280Q251 280 211 294T140 334T91 398T73 487ZM169 494Q169 427 210 393T316 358Q369 358 405 375T459 416Q461 428 461 437T461 457Q461 490 452 522T425 579T377 619T308 635Q242 635 206 598T169 494Z" />
<glyph unicode=":" glyph-name="colon" horiz-adv-x="273" d="M99 445Q99 474 117 491T166 508Q196 508 214 491T233 445Q233 418 215 400T166 382Q136 382 118 400T99 445ZM99 51Q99 80 117 97T166 114Q196 114 214 97T233 51Q233 24 215 6T166 -12Q136 -12 118
6T99 51Z" />
<glyph unicode=";" glyph-name="semicolon" horiz-adv-x="277" d="M93 47Q93 73 112 89T158 106Q193 106 215 83T237 17Q237 -22 226 -50T196 -99T157 -132T114 -150L86 -104Q124 -91 143 -63T162 -5Q135 -13 114 1T93 47ZM98 445Q98 474 116 491T165 508Q195
508 213 491T232 445Q232 418 214 400T165 382Q135 382 117 400T98 445Z" />
<glyph unicode="&lt;" glyph-name="less" horiz-adv-x="554" d="M44 300V338L463 574L505 502L249 358L149 321L248 289L510 146L469 76L44 300Z" />
<glyph unicode="=" glyph-name="equal" horiz-adv-x="554" d="M43 465H511V381H43V465ZM43 293H511V209H43V293Z" />
<glyph unicode="&gt;" glyph-name="greater" horiz-adv-x="554" d="M510 348V310L90 75L49 147L305 291L405 328L306 360L44 503L84 574L510 348Z" />
<glyph unicode="?" glyph-name="question" horiz-adv-x="479" d="M160 184Q156 234 167 270T199 334T243 384T289 428T325 475T340 533Q340 577 314 605T221 633Q181 633 140 618T69 586L37 658Q79 684 126 698T242 713Q291 713 328 700T390 665T427 612T440 546Q440
499 425 466T388 406T340 358T292 312T255 257T240 184H160ZM138 51Q138 80 156 97T205 114Q235 114 253 97T272 51Q272 24 254 6T205 -12Q175 -12 157 6T138 51Z" />
<glyph unicode="@" glyph-name="at" horiz-adv-x="1163" d="M770 490H812L756 208Q744 145 748 115T788 85Q824 85 859 102T922 150T967 226T985 326Q985 405 956 465T876 567T755 629T602 650Q513 650 436 619T302 534T212 405T179 242Q179 155 208 85T291 -35T423
-111T597 -138Q629 -138 668 -131T741 -109L764 -184Q716 -204 674 -211T582 -218Q478 -218 389 -188T234 -99T131 43T93 236Q93 348 134 439T245 594T409 694T607 730Q705 730 789 702T936 621T1034 494T1070 326Q1070 264 1046 207T981 105T884 34T767 7Q739
7 718 13T683 35T665 77T668 142H664Q648 118 627 94T581 51T527 19T464 7Q438 7 415 18T375 49T347 98T337 160Q337 220 359 280T421 388T511 466T620 496Q660 496 685 485T733 457L770 490ZM706 383Q688 402 670 410T624 418Q582 418 547 395T485 337T444 259T429
176Q429 140 445 113T507 85Q528 85 551 99T596 136T639 188T676 247L706 383Z" />
<glyph unicode="A" glyph-name="A" horiz-adv-x="645" d="M457 183H180L106 0H8L296 710H348L637 0H533L457 183ZM210 267H428L347 466L320 573H318L291 464L210 267Z" />
<glyph unicode="B" glyph-name="B" horiz-adv-x="641" d="M559 538Q559 512 551 487T525 439T480 399T416 374V370Q448 366 478 354T531 321T568 270T582 199Q582 145 557 106T491 41T399 3T295 -9Q277 -9 251 -9T197 -7T140 -3T89 5V694Q130 701 185 705T303
709Q346 709 391 702T474 675T535 623T559 538ZM187 82Q194 80 208 79T238 77T271 76T302 75Q336 75 367 82T423 104T461 142T476 197Q476 237 459 260T413 296T350 312T281 316H187V82ZM242 394Q261 394 286 395T328 399Q353 406 375 416T415 441T442 475T452
520Q452 554 439 574T403 606T353 621T296 625Q261 625 232 624T187 620V394H242Z" />
<glyph unicode="C" glyph-name="C" horiz-adv-x="624" d="M584 30Q551 6 500 -3T392 -13Q325 -13 265 8T158 74T85 187T58 350Q58 448 88 517T166 629T274 693T393 713Q459 713 501 706T572 688L550 602Q501 625 401 625Q356 625 314 611T238 564T184 479T164
350Q164 282 183 231T235 145T314 93T414 75Q463 75 499 84T560 107L584 30Z" />
<glyph unicode="D" glyph-name="D" horiz-adv-x="715" d="M89 700Q109 703 135 704T190 707T246 708T297 709Q389 709 456 683T568 609T635 497T657 355Q657 285 637 220T571 103T456 21T285 -10Q268 -10 240 -9T181 -7T126 -5T89 -1V700ZM300 621Q286 621 270
621T238 620T209 618T189 616V82Q194 81 208 81T239 80T269 79T289 78Q364 78 414 101T495 164T538 252T551 355Q551 400 539 447T498 532T421 596T300 621Z" />
<glyph unicode="E" glyph-name="E" horiz-adv-x="585" d="M89 700H512V614H189V401H484V315H189V86H517V0H89V700Z" />
<glyph unicode="F" glyph-name="F" horiz-adv-x="565" d="M89 700H512V614H189V391H489V305H189V0H89V700Z" />
<glyph unicode="G" glyph-name="G" horiz-adv-x="668" d="M348 353H610V44Q592 30 567 20T514 2T455 -9T396 -13Q324 -13 263 8T156 75T84 188T58 350Q58 447 89 516T171 629T282 693T405 713Q471 713 514 706T587 687L563 602Q511 625 413 625Q368 625 324 611T244
565T186 480T164 350Q164 279 182 227T234 141T312 91T410 75Q443 75 473 81T527 100V277L348 295V353Z" />
<glyph unicode="H" glyph-name="H" horiz-adv-x="733" d="M544 313H189V0H89V700H189V401H544V700H644V0H544V313Z" />
<glyph unicode="I" glyph-name="I" horiz-adv-x="398" d="M149 634H69V700H329V634H249V66H329V0H69V66H149V634Z" />
<glyph unicode="J" glyph-name="J" horiz-adv-x="325" d="M125 700H225V160Q225 82 185 36T65 -10Q55 -10 42 -9T14 -6T-13 0T-35 7L-16 90Q12 78 51 78Q96 78 110 107T125 187V700Z" />
<glyph unicode="K" glyph-name="K" horiz-adv-x="669" d="M238 318H189V0H89V700H189V378L235 392L487 700H601L349 400L302 366L357 326L635 0H509L238 318Z" />
<glyph unicode="L" glyph-name="L" horiz-adv-x="566" d="M547 0H89V700H189V88H547V0Z" />
<glyph unicode="M" glyph-name="M" horiz-adv-x="868" d="M679 451L690 563H686L643 466L448 156H418L213 467L172 562H167L183 452V0H89V700H164L401 343L438 267H440L475 345L700 700H779V0H679V451Z" />
<glyph unicode="N" glyph-name="N" horiz-adv-x="735" d="M235 445L175 543H171L183 445V0H89V710H145L502 256L559 163H564L552 256V700H646V-10H590L235 445Z" />
<glyph unicode="O" glyph-name="O" horiz-adv-x="747" d="M58 350Q58 436 79 503T141 617T240 688T373 713Q452 713 511 687T610 613T669 498T689 350Q689 264 668 197T605 83T506 12T373 -13Q293 -13 234 13T136 87T78 202T58 350ZM164 350Q164 293 176 243T214
155T279 95T373 73Q470 73 526 140T583 350Q583 406 571 456T533 544T468 604T373 627Q277 627 221 559T164 350Z" />
<glyph unicode="P" glyph-name="P" horiz-adv-x="614" d="M89 693Q131 702 180 705T278 709Q329 709 381 700T477 667T547 601T575 491Q575 428 550 384T484 311T389 270T278 257Q272 257 260 257T234 258T208 260T189 262V0H89V693ZM281 623Q254 623 229 622T189
617V348Q194 346 205 346T229 344T253 343T271 343Q307 343 342 348T405 370T451 415T469 490Q469 530 452 556T408 597T348 617T281 623Z" />
<glyph unicode="Q" glyph-name="Q" horiz-adv-x="747" d="M771 -181Q745 -188 719 -190T667 -193Q612 -193 560 -183T459 -160T365 -137T280 -126Q255 -126 231 -132V-46Q261 -40 291 -40Q336 -40 381 -50T473 -73T569 -95T673 -106Q696 -106 720 -104T771 -95V-181ZM58
350Q58 436 79 503T141 617T240 688T373 713Q452 713 511 687T610 613T669 498T689 350Q689 264 668 197T605 83T506 12T373 -13Q293 -13 234 13T136 87T78 202T58 350ZM164 350Q164 293 176 243T214 155T279 95T373 73Q470 73 526 140T583 350Q583 406 571 456T533
544T468 604T373 627Q277 627 221 559T164 350Z" />
<glyph unicode="R" glyph-name="R" horiz-adv-x="653" d="M89 693Q110 697 135 700T187 705T239 708T288 709Q338 709 384 699T466 666T523 606T545 515Q545 473 532 439T496 379T442 336T373 309L425 274L613 0H498L290 295L189 309V0H89V693ZM291 623Q277 623
263 623T234 622T208 620T189 617V375H271Q307 375 337 382T390 405T426 446T439 507Q439 561 401 592T291 623Z" />
<glyph unicode="S" glyph-name="S" horiz-adv-x="581" d="M433 184Q433 225 406 249T338 290T250 323T162 363T94 425T67 524Q67 609 129 661T308 713Q375 713 431 703T519 677L488 593Q463 606 413 616T303 627Q235 627 201 598T167 531Q167 492 194 468T262
426T350 390T438 348T506 287T533 193Q533 146 515 108T463 43T381 2T272 -13Q190 -13 134 -1T48 26L81 113Q106 100 156 87T268 73Q303 73 333 79T385 99T420 134T433 184Z" />
<glyph unicode="T" glyph-name="T" horiz-adv-x="610" d="M591 612H355V0H255V612H19V700H591V612Z" />
<glyph unicode="U" glyph-name="U" horiz-adv-x="710" d="M527 700H621V243Q621 178 603 131T550 53T470 6T366 -9Q231 -9 160 49T89 223V700H189V261Q189 159 233 119T365 79Q449 79 488 123T527 264V700Z" />
<glyph unicode="V" glyph-name="V" horiz-adv-x="628" d="M296 234L322 125H324L351 236L531 700H631L341 -10H291L-3 700H107L296 234Z" />
<glyph unicode="W" glyph-name="W" horiz-adv-x="913" d="M247 246L263 129H265L283 248L438 700H488L644 246L662 129H664L683 248L807 700H905L692 -10H635L482 445L461 551H456L436 444L283 -10H225L8 700H113L247 246Z" />
<glyph unicode="X" glyph-name="X" horiz-adv-x="678" d="M280 356L49 700H168L319 470L346 412L372 470L530 700H640L402 363L651 0H534L367 244L336 305L308 244L137 0H27L280 356Z" />
<glyph unicode="Y" glyph-name="Y" horiz-adv-x="617" d="M261 274L7 700H124L299 403L316 339H318L337 405L504 700H610L361 275V0H261V274Z" />
<glyph unicode="Z" glyph-name="Z" horiz-adv-x="596" d="M39 88L416 572L465 612H39V700H557V612L177 125L130 88H557V0H39V88Z" />
<glyph unicode="[" glyph-name="bracketleft" horiz-adv-x="336" d="M89 700H295V620H181V-150H295V-230H89V700Z" />
<glyph unicode="\" glyph-name="backslash" horiz-adv-x="421" d="M442 -103L366 -140L-36 676L40 712L442 -103Z" />
<glyph unicode="]" glyph-name="bracketright" horiz-adv-x="336" d="M247 -230H41V-150H155V620H41V700H247V-230Z" />
<glyph unicode="^" glyph-name="asciicircum" horiz-adv-x="554" d="M266 710H304L492 430H394L309 562L283 631L251 561L151 430H61L266 710Z" />
<glyph unicode="_" glyph-name="underscore" horiz-adv-x="452" d="M0 -131H452V-209H0V-131Z" />
<glyph unicode="`" glyph-name="grave" horiz-adv-x="301" d="M241 570H187L60 697V720H170L241 570Z" />
<glyph unicode="a" glyph-name="a" horiz-adv-x="582" d="M82 492Q172 535 305 535Q365 535 401 520T458 480T484 427T491 368Q491 313 487 258T483 137Q483 99 486 64T498 -2H431L406 78H396Q385 63 369 48T331 20T281 0T215 -8Q178 -8 147 2T94 32T58 78T45
140Q45 185 64 218T115 272T185 303T264 313Q295 313 316 312T352 310T377 307T395 304Q397 319 398 330T399 358Q399 386 393 405T374 435T337 452T281 457Q262 457 239 454T193 446T148 432T107 415L82 492ZM395 238Q387 239 378 241T356 244T324 246T278 247Q216
247 180 225T143 150Q143 110 171 90T245 70Q278 70 303 78T347 99T377 127T395 158V238Z" />
<glyph unicode="b" glyph-name="b" horiz-adv-x="629" d="M88 700H180V460H190Q213 500 256 519T347 539Q456 539 512 473T569 272Q569 135 495 63T287 -9Q221 -9 168 2T88 28V700ZM334 461Q302 461 278 451T234 424T202 384T180 337V88Q229 69 299 69Q378 69
424 117T471 273Q471 313 463 347T438 407T396 446T334 461Z" />
<glyph unicode="c" glyph-name="c" horiz-adv-x="529" d="M484 36Q449 11 402 -1T303 -14Q237 -14 191 6T115 62T73 149T60 262Q60 395 124 467T310 540Q363 540 402 531T472 507L448 432Q421 446 390 454T321 462Q158 462 158 262Q158 224 167 189T196 126T248
81T328 64Q370 64 401 75T454 103L484 36Z" />
<glyph unicode="d" glyph-name="d" horiz-adv-x="629" d="M538 181Q538 130 539 86T549 -2H488L465 78H455Q432 38 388 12T284 -14Q171 -14 116 53T60 259Q60 393 128 464T321 536Q342 536 358 535T389 531T417 525T446 517V700H538V181ZM446 428Q423 445 397
451T326 458Q245 458 201 411T156 258Q156 216 164 181T189 119T234 79T303 64Q364 64 398 94T446 185V428Z" />
<glyph unicode="e" glyph-name="e" horiz-adv-x="598" d="M515 43Q480 17 428 2T315 -14Q249 -14 201 5T121 61T75 148T60 262Q60 397 126 468T316 540Q355 540 394 532T464 500T514 435T534 328Q534 312 533 291T529 250H154Q156 158 198 111T341 64Q383 64 421
78T480 113L515 43ZM446 316Q448 396 414 429T317 462Q247 462 206 429T158 316H446Z" />
<glyph unicode="f" glyph-name="f" horiz-adv-x="364" d="M24 525H113V539Q113 588 122 621T150 675T201 705T278 714Q316 714 344 710T404 694L384 619Q358 630 336 633T292 636Q264 636 247 631T221 614T208 580T205 525H359V447H205V0H113V447H24V525Z" />
<glyph unicode="g" glyph-name="g" horiz-adv-x="627" d="M537 -3Q537 -106 477 -156T299 -207Q231 -207 189 -199T117 -177L139 -94Q152 -100 169 -106T205 -118T243 -126T281 -129Q330 -129 362 -121T413 -94T439 -48T446 19V56H435Q419 30 379 14T282 -2Q168
-2 114 59T60 258Q60 393 130 466T338 539Q404 539 451 531T537 510V-3ZM302 76Q363 76 397 107T445 188V446Q422 453 392 457T324 461Q246 461 202 412T158 260Q158 172 190 124T302 76Z" />
<glyph unicode="h" glyph-name="h" horiz-adv-x="641" d="M461 0V290Q461 333 456 364T436 417T397 448T335 458Q309 458 284 449T238 424T202 386T180 335V0H88V700H180V460H191Q221 496 263 518T367 540Q415 540 450 530T508 493T542 422T553 310V0H461Z" />
<glyph unicode="i" glyph-name="i" horiz-adv-x="317" d="M114 525H206V0H114V525ZM95 650Q95 673 113 691T160 710Q189 710 208 692T227 650Q227 627 208 610T160 592Q131 592 113 609T95 650Z" />
<glyph unicode="j" glyph-name="j" horiz-adv-x="312" d="M112 525H204V-18Q204 -115 168 -162T50 -210Q42 -210 33 -210T12 -208V-132Q45 -133 64 -124T94 -97T108 -51T112 15V525ZM91 650Q91 673 109 691T156 710Q185 710 204 692T223 650Q223 627 204 610T156
592Q127 592 109 609T91 650Z" />
<glyph unicode="k" glyph-name="k" horiz-adv-x="557" d="M237 236H180V0H88V700H180V286L232 303L406 525H514L347 322H348L293 282L356 237L541 0H425L237 236Z" />
<glyph unicode="l" glyph-name="l" horiz-adv-x="336" d="M192 139Q192 98 207 81T249 64Q265 64 280 66T316 74L328 6Q318 2 304 -1T275 -8T245 -12T218 -14Q164 -14 132 13T100 105V700H192V139Z" />
<glyph unicode="m" glyph-name="m" horiz-adv-x="948" d="M428 0V288Q428 330 424 362T408 415T375 447T319 458Q266 458 231 429T180 353V0H88V525H151L169 455H179Q211 491 252 515T358 540Q412 540 448 517T504 440Q534 486 580 513T683 540Q731 540 764 529T819
491T850 418T860 302V0H768V302Q768 342 764 371T747 419T714 448T657 458Q600 458 567 428T520 338V0H428Z" />
<glyph unicode="n" glyph-name="n" horiz-adv-x="641" d="M461 0V290Q461 374 434 416T338 458Q277 458 237 427T180 346V0H88V525H152L170 455H179Q208 491 254 515T366 540Q412 540 447 530T505 493T541 422T553 309V0H461Z" />
<glyph unicode="o" glyph-name="o" horiz-adv-x="631" d="M60 262Q60 327 77 378T127 466T207 521T316 540Q380 540 428 519T508 461T555 373T571 262Q571 198 554 147T504 60T424 5T316 -14Q250 -14 202 7T123 65T76 152T60 262ZM158 262Q158 225 166 190T194
126T243 81T317 64Q473 64 473 262Q473 301 465 337T438 400T389 445T317 462Q239 462 199 413T158 262Z" />
<glyph unicode="p" glyph-name="p" horiz-adv-x="630" d="M88 525H150L168 458H177Q204 497 247 518T344 540Q458 540 514 477T570 274Q570 208 552 155T499 64T415 6T304 -14Q284 -14 268 -13T237 -8T209 0T180 11V-200H88V525ZM323 462Q263 462 229 432T180
340V98Q203 82 230 73T299 64Q380 64 426 117T472 275Q472 360 438 411T323 462Z" />
<glyph unicode="q" glyph-name="q" horiz-adv-x="625" d="M537 -200H446L445 57H434Q411 23 376 5T283 -14Q60 -14 60 258Q60 395 131 465T342 536Q372 536 401 533T456 526T502 516T537 504V-200ZM445 438Q399 458 325 458Q244 458 201 409T158 260Q158 216 165
180T190 119T235 79T303 64Q363 64 396 94T445 184V438Z" />
<glyph unicode="r" glyph-name="r" horiz-adv-x="380" d="M362 438Q345 443 329 447T299 451Q246 451 217 424T180 356V0H88V525H152L170 455H179Q202 494 232 515T309 537Q323 537 342 535T380 526L362 438Z" />
<glyph unicode="s" glyph-name="s" horiz-adv-x="499" d="M353 147Q353 167 344 180T318 203T281 220T237 234Q208 242 179 251T126 277T87 320T72 386Q72 464 118 502T249 540Q312 540 355 528T430 502L408 424Q381 437 344 449T261 462Q212 462 188 446T164
388Q164 371 173 360T197 340T232 325T274 312Q304 304 334 294T389 266T429 221T445 153Q445 79 395 33T245 -14Q181 -14 134 -1T54 29L80 109Q108 94 152 79T241 64Q290 64 321 81T353 147Z" />
<glyph unicode="t" glyph-name="t" horiz-adv-x="405" d="M24 525H113V631L205 655V525H363V447H205V179Q205 116 221 90T276 64Q301 64 321 69T368 84L389 19Q357 5 321 -4T242 -14Q172 -14 143 24T113 148V447H24V525Z" />
<glyph unicode="u" glyph-name="u" horiz-adv-x="644" d="M180 525V236Q180 194 185 162T203 109T238 76T296 64Q356 64 394 98T452 182V525H544V149Q544 111 547 72T556 0H494L470 87H460Q434 42 388 14T273 -14Q227 -14 193 -3T135 34T100 105T88 215V525H180Z" />
<glyph unicode="v" glyph-name="v" horiz-adv-x="535" d="M242 223L277 115L310 225L435 525H535L290 -11H250L0 525H108L242 223Z" />
<glyph unicode="w" glyph-name="w" horiz-adv-x="840" d="M468 525L554 326L597 225L624 124H631L654 228L752 525H840L649 -11H599L452 328V327L426 424L396 326V327L255 -11H207L8 525H109L220 228L239 123H248L276 230L397 525H468Z" />
<glyph unicode="x" glyph-name="x" horiz-adv-x="592" d="M233 269L44 525H161L263 391L298 320L339 391L445 525H549L358 273Q408 206 460 137T562 0H448L333 149L293 224L252 149L136 0H30L233 269Z" />
<glyph unicode="y" glyph-name="y" horiz-adv-x="531" d="M251 193L282 92H295L320 194L429 525H523L351 50Q332 1 313 -45T270 -126T218 -183T152 -205Q112 -205 84 -196L99 -118Q114 -123 129 -123Q149 -123 165 -118T196 -100T221 -64T243 -3L8 525H117L251 193Z" />
<glyph unicode="z" glyph-name="z" horiz-adv-x="515" d="M48 79L307 395L377 447H48V525H461V446L199 127L129 78H461V0H48V79Z" />
<glyph unicode="{" glyph-name="braceleft" horiz-adv-x="383" d="M146 108Q146 159 124 178T59 197V273Q101 273 123 293T146 358V591Q146 639 172 670T251 701H351V621H295Q238 621 238 559V335Q238 291 215 269T161 241V233Q190 229 214 203T238 135V-88Q238
-119 251 -134T296 -150H351V-230H251Q202 -230 174 -202T146 -121V108Z" />
<glyph unicode="|" glyph-name="bar" horiz-adv-x="258" d="M89 700H169V-130H89V700Z" />
<glyph unicode="}" glyph-name="braceright" horiz-adv-x="383" d="M263 363Q263 312 286 293T351 274V198Q309 198 286 178T263 113V-120Q263 -168 237 -199T156 -230H59V-150H114Q171 -150 171 -88V136Q171 180 194 202T247 230V238Q218 242 195 268T171 336V559Q171
621 113 621H59V701H157Q206 701 234 673T263 592V363Z" />
<glyph unicode="~" glyph-name="asciitilde" horiz-adv-x="554" d="M34 365Q82 399 120 412T190 425Q221 425 247 417T297 398T345 380T393 371Q413 371 435 378T483 406L520 335Q479 309 447 299T388 288Q359 288 335 296T287 315T240 335T190 344Q165 344 136
333T70 295L34 365Z" />
<glyph unicode="&#xa0;" glyph-name="uni00A0" horiz-adv-x="291" />
<glyph unicode="&#xa1;" glyph-name="exclamdown" horiz-adv-x="329" d="M195 -200H95V143L115 316H175L195 143V-200ZM76 463Q76 492 94 509T143 526Q173 526 191 509T210 463Q210 436 192 418T143 400Q113 400 95 418T76 463Z" />
<glyph unicode="&#xa2;" glyph-name="cent" horiz-adv-x="634" d="M537 34Q510 18 475 7T402 -10V-107H323V-12Q265 -8 224 14T158 71T120 155T108 261Q108 383 163 453T323 536V630H402V537Q440 535 470 528T527 509L500 433Q476 445 449 451T394 459V63Q428
65 458 76T511 100L537 34ZM334 457Q198 439 198 261Q198 228 205 196T228 138T270 93T334 66V457Z" />
<glyph unicode="&#xa3;" glyph-name="sterling" horiz-adv-x="634" d="M64 385H136Q123 411 114 440T105 511Q105 560 121 597T168 660T240 699T336 713Q403 713 453 702T536 677L506 592Q483 604 441 615T337 627Q274 627 240 596T205 514Q205 475 217 445T244
385H415V305H282Q288 286 292 265T296 220Q296 190 286 159T255 107L215 75V70L279 84H556V0H64V84H66Q100 85 125 96T166 124T189 164T197 211Q197 239 191 262T177 305H64V385Z" />
<glyph unicode="&#xa4;" glyph-name="currency" horiz-adv-x="634" d="M114 602L192 525L213 490Q234 506 260 513T317 521Q378 521 420 490L442 525L520 602L574 546L497 468L462 447Q493 404 493 345Q493 315 486 289T462 243L497 223L574 145L520 89L442 166L421
200Q401 186 374 178T317 169Q256 169 213 200L192 166L114 89L60 145L137 223L171 243Q141 287 141 345Q141 374 149 399T171 448L137 468L60 546L114 602ZM219 345Q219 301 246 272T317 243Q360 243 387 272T415 345Q415 388 388 417T317 447Q273 447 246 418T219
345Z" />
<glyph unicode="&#xa5;" glyph-name="yen" horiz-adv-x="634" d="M134 331H236L16 700H133L308 403L325 339H327L346 405L513 700H619L403 331H506V265H370V205H506V139H370V0H270V139H134V205H270V265H134V331Z" />
<glyph unicode="&#xa6;" glyph-name="brokenbar" horiz-adv-x="258" d="M89 213H169V-130H89V213ZM169 357H89V700H169V357Z" />
<glyph unicode="&#xa7;" glyph-name="section" horiz-adv-x="554" d="M64 353Q64 384 80 413T124 465L168 479Q140 494 123 519T105 584Q105 641 150 677T277 713Q339 713 382 703T455 679L431 602Q407 613 370 623T291 633Q243 633 221 618T199 577Q199 553 220
540T274 517T344 497T414 470T468 423T490 347Q490 316 474 288T431 237L381 223Q411 207 430 182T449 116Q449 84 436 60T400 20T345 -5T277 -13Q211 -13 170 -1T98 25L122 100Q148 89 183 78T263 67Q306 67 330 79T355 123Q355 148 334 161T280 185T210 205T140
232T86 278T64 353ZM395 345Q395 369 381 384T345 410T293 429T233 447Q203 434 181 411T159 355Q159 331 172 316T207 290T257 272T316 255Q330 261 344 270T369 291T388 316T395 345Z" />
<glyph unicode="&#xa8;" glyph-name="dieresis" horiz-adv-x="449" d="M60 653Q60 677 76 693T118 709Q143 709 158 693T174 653Q174 630 159 614T118 598Q92 598 76 614T60 653ZM275 653Q275 677 290 693T332 709Q358 709 373 693T389 653Q389 630 374 614T332
598Q306 598 291 614T275 653Z" />
<glyph unicode="&#xa9;" glyph-name="copyright" horiz-adv-x="868" d="M53 288Q53 377 83 448T164 568T285 643T434 669Q513 669 582 643T703 568T785 448T815 288Q815 199 785 128T703 8T582 -67T434 -93Q347 -93 277 -67T157 8T80 128T53 288ZM135 288Q135
215 158 159T221 64T316 5T434 -15Q497 -15 551 5T646 63T710 158T733 288Q733 361 710 417T647 512T552 571T434 591Q371 591 317 571T222 513T158 418T135 288ZM560 114Q536 100 504 92T431 84Q344 84 299 139T253 288Q253 386 301 439T431 492Q451 492 466 490T496
484T523 475T553 462L524 393Q501 404 481 409T445 414Q403 414 376 387T348 288Q348 229 374 196T453 162Q479 162 499 167T536 181L560 114Z" />
<glyph unicode="&#xaa;" glyph-name="ordfeminine" horiz-adv-x="437" d="M78 675Q105 689 151 698T254 708Q324 708 350 682T376 604Q376 566 375 532T373 465Q373 442 374 421T381 380H312L298 428H294Q287 420 277 411T254 394T222 381T180 376Q124 376 90
402T56 472Q56 503 72 524T116 558T182 577T264 583Q272 583 279 583T294 582Q298 618 287 632T232 647Q187 647 151 639T94 620L78 675ZM294 527Q282 528 270 528T246 529Q225 529 206 527T172 519T149 504T140 479Q140 460 155 450T196 439Q219 439 236 444T264
457T283 474T294 493V527Z" />
<glyph unicode="&#xab;" glyph-name="guillemotleft" horiz-adv-x="524" d="M242 260L416 485L474 434L373 300L321 260L373 224L480 92L422 42L242 260ZM40 259L216 489L276 437L174 301L121 260L174 224L283 91L222 38L40 259Z" />
<glyph unicode="&#xac;" glyph-name="logicalnot" horiz-adv-x="554" d="M45 398H512V197H426V314H45V398Z" />
<glyph unicode="&#xad;" glyph-name="uni00AD" horiz-adv-x="394" d="M64 332H330V246H64V332Z" />
<glyph unicode="&#xae;" glyph-name="registered" horiz-adv-x="751" d="M86 432Q86 502 109 556T171 646T263 702T375 721Q436 721 488 702T580 647T641 556T664 432Q664 362 641 309T579 219T487 163T375 144Q315 144 262 163T170 218T109 308T86 432ZM160 432Q160
377 177 336T224 268T292 228T375 214Q421 214 460 227T528 267T573 335T590 432Q590 487 573 528T527 596T458 637T375 651Q328 651 289 637T221 596T176 527T160 432ZM265 572Q282 577 313 580T372 583Q394 583 414 579T449 564T473 538T482 499Q482 465 460
447T405 426L436 411L513 294H447L372 406L320 422V294H265V572ZM360 535Q349 535 338 535T320 530V454H357Q389 454 406 464T423 497Q423 515 407 525T360 535Z" />
<glyph unicode="&#xaf;" glyph-name="overscore" horiz-adv-x="448" d="M60 666H388V597H60V666Z" />
<glyph unicode="&#xb0;" glyph-name="degree" horiz-adv-x="467" d="M90 566Q90 598 103 625T137 671T187 702T248 713Q280 713 309 703T359 674T394 628T407 566Q407 532 394 505T360 459T309 430T248 420Q216 420 188 430T138 459T103 505T90 566ZM165 566Q165
530 190 511T248 491Q264 491 279 496T306 510T325 534T332 566Q332 584 325 598T306 622T279 637T248 642Q216 642 191 622T165 566Z" />
<glyph unicode="&#xb1;" glyph-name="plusminus" horiz-adv-x="554" d="M43 512H234V699H320V512H511V428H320V303H234V428H43V512ZM43 252H511V168H43V252Z" />
<glyph unicode="&#xb2;" glyph-name="uni00B2" horiz-adv-x="436" d="M355 685Q355 655 345 628T316 575T272 524T219 472L169 442V440L232 453H376V380H55V422Q80 440 117 470T188 535T246 606T271 673Q271 703 251 717T198 732Q168 732 141 722T93 699L66 765Q96
785 134 796T213 807Q282 807 318 775T355 685Z" />
<glyph unicode="&#xb3;" glyph-name="uni00B3" horiz-adv-x="436" d="M185 442Q292 442 292 511Q292 541 268 559T186 578H129V604L230 711L268 737L213 731H74V800H359V760L249 645L220 627V624L246 627Q307 626 341 595T375 509Q375 445 325 409T194 373Q154
373 125 379T72 394L90 462Q109 454 132 448T185 442Z" />
<glyph unicode="&#xb4;" glyph-name="acute" horiz-adv-x="288" d="M124 720H228V697L116 570H60L124 720Z" />
<glyph unicode="&#xb5;" glyph-name="mu" horiz-adv-x="636" d="M171 525V239Q171 151 199 107T300 62Q366 62 411 100T473 201V525H565V169Q565 127 567 84T580 0H520L487 86H475Q463 67 445 49T404 18T352 -4T290 -13Q237 -13 208 2T158 43H144L171 -77V-201H79V525H171Z"
/>
<glyph unicode="&#xb6;" glyph-name="paragraph" horiz-adv-x="546" d="M376 700H456V-130H376V700ZM202 307Q167 307 138 324T86 369T52 432T40 504Q40 540 53 575T90 638T150 683T229 700H282V-130H202V307Z" />
<glyph unicode="&#xb7;" glyph-name="middot" horiz-adv-x="290" d="M78 301Q78 330 96 347T145 364Q175 364 193 347T212 301Q212 274 194 256T145 238Q115 238 97 256T78 301Z" />
<glyph unicode="&#xb8;" glyph-name="cedilla" horiz-adv-x="325" d="M165 -53Q214 -61 237 -79T261 -130Q261 -172 224 -197T121 -223Q108 -223 95 -222T67 -218L76 -182Q111 -184 131 -181T161 -171T173 -156T176 -139Q176 -122 151 -113T77 -98L131 -8H192L165 -53Z" />
<glyph unicode="&#xb9;" glyph-name="uni00B9" horiz-adv-x="436" d="M80 452H195V684L203 722L173 693L90 645L58 704L226 807H279V452H381V380H80V452Z" />
<glyph unicode="&#xba;" glyph-name="ordmasculine" horiz-adv-x="445" d="M50 542Q50 586 63 618T99 671T153 702T222 712Q259 712 290 703T345 673T382 621T395 542Q395 496 382 464T346 411T291 382T222 372Q185 372 154 381T99 411T63 463T50 542ZM138 542Q138
488 159 463T222 437Q262 437 284 460T307 542Q307 602 285 624T222 647Q182 647 160 625T138 542Z" />
<glyph unicode="&#xbb;" glyph-name="guillemotright" horiz-adv-x="523" d="M281 267L108 42L50 93L150 227L202 267L150 303L44 434L101 485L281 267ZM483 268L308 38L247 91L350 226L402 267L350 303L241 436L301 489L483 268Z" />
<glyph unicode="&#xbc;" glyph-name="onequarter" horiz-adv-x="922" d="M685 714L745 671L221 -13L161 32L685 714ZM861 92H771V0H693V92H469V137L716 436H771V159H861V92ZM693 279L700 327H697L673 282L593 185L556 153L612 159H693V279ZM433 583L441 622L411
594L328 545L295 603L464 707H516V280H433V583Z" />
<glyph unicode="&#xbd;" glyph-name="onehalf" horiz-adv-x="935" d="M685 714L745 671L221 -13L161 32L685 714ZM853 305Q853 275 843 248T814 195T770 144T717 92L667 62V60L730 73H874V0H553V42Q578 60 615 90T686 155T744 226T769 293Q769 323 749 337T696
352Q666 352 639 342T591 319L564 385Q594 405 632 416T711 427Q780 427 816 395T853 305ZM433 583L441 622L411 594L328 545L295 603L464 707H516V280H433V583Z" />
<glyph unicode="&#xbe;" glyph-name="threequarters" horiz-adv-x="962" d="M725 714L785 671L261 -13L201 32L725 714ZM901 92H811V0H733V92H509V137L756 436H811V159H901V92ZM733 279L740 327H737L713 282L633 185L596 153L652 159H733V279ZM174 342Q281 342
281 411Q281 441 257 459T175 478H118V504L219 611L257 637L202 631H63V700H348V660L238 545L209 527V524L235 527Q296 526 330 495T364 409Q364 345 314 309T183 273Q143 273 114 279T61 294L79 362Q98 354 121 348T174 342Z" />
<glyph unicode="&#xbf;" glyph-name="questiondown" horiz-adv-x="478" d="M318 317Q322 268 311 233T279 171T235 121T189 76T153 28T138 -31Q138 -76 164 -103T257 -130Q276 -130 297 -126T337 -115T375 -100T408 -83L442 -154Q400 -180 353 -195T235 -210Q187
-210 150 -198T88 -163T51 -111T38 -45Q38 2 53 36T90 96T138 144T187 190T224 245T239 317H318ZM206 463Q206 492 224 509T273 526Q303 526 321 509T340 463Q340 436 322 418T273 400Q243 400 225 418T206 463Z" />
<glyph unicode="&#xc0;" glyph-name="Agrave" horiz-adv-x="645" d="M457 183H180L106 0H8L296 710H348L637 0H533L457 183ZM210 267H428L347 466L320 573H318L291 464L210 267ZM349 752H263L90 847V870H222L349 752Z" />
<glyph unicode="&#xc1;" glyph-name="Aacute" horiz-adv-x="645" d="M457 183H180L106 0H8L296 710H348L637 0H533L457 183ZM210 267H428L347 466L320 573H318L291 464L210 267ZM422 870H554V847L376 752H295L422 870Z" />
<glyph unicode="&#xc2;" glyph-name="Acircumflex" horiz-adv-x="645" d="M457 183H180L106 0H8L296 710H348L637 0H533L457 183ZM210 267H428L347 466L320 573H318L291 464L210 267ZM289 870H362L501 770V745H409L344 792L324 827L303 793L233 745H143V771L289 870Z" />
<glyph unicode="&#xc3;" glyph-name="Atilde" horiz-adv-x="645" d="M457 183H180L106 0H8L296 710H348L637 0H533L457 183ZM210 267H428L347 466L320 573H318L291 464L210 267ZM147 791Q179 823 208 834T263 846Q284 846 304 841T344 829T381 817T417 811Q431
811 445 816T474 833L499 782Q470 758 445 749T395 740Q374 740 354 745T315 756T278 768T242 773Q225 773 207 767T171 742L147 791Z" />
<glyph unicode="&#xc4;" glyph-name="Adieresis" horiz-adv-x="645" d="M457 183H180L106 0H8L296 710H348L637 0H533L457 183ZM210 267H428L347 466L320 573H318L291 464L210 267ZM152 795Q152 818 168 831T214 844Q242 844 259 831T276 795Q276 773 259 760T214
746Q185 746 169 759T152 795ZM366 795Q366 818 382 831T427 844Q456 844 473 831T490 795Q490 773 473 760T427 746Q399 746 383 759T366 795Z" />
<glyph unicode="&#xc5;" glyph-name="Aring" horiz-adv-x="645" d="M205 769Q205 806 232 830T323 855Q381 855 411 833T442 769Q442 738 427 722T398 700Q381 691 357 687L637 0H533L457 183H180L106 0H8L287 687Q265 691 244 700Q234 705 220 721T205 769ZM210
267H428L347 466L320 573H318L291 464L210 267ZM275 769Q275 754 286 743T323 732Q372 732 372 769Q372 787 360 797T323 808Q298 808 287 798T275 769Z" />
<glyph unicode="&#xc6;" glyph-name="AE" horiz-adv-x="929" d="M429 591L391 485L255 273H433V591H429ZM433 189H203L83 0H-25L431 700H856V614H533V401H828V315H533V86H861V0H433V189Z" />
<glyph unicode="&#xc7;" glyph-name="Ccedilla" horiz-adv-x="624" d="M584 30Q556 10 517 1T431 -12L407 -53Q456 -61 479 -79T503 -130Q503 -172 466 -197T363 -223Q350 -223 337 -222T309 -218L318 -182Q353 -184 373 -181T403 -171T415 -156T418 -139Q418
-122 393 -113T319 -98L370 -12Q306 -9 250 14T151 82T83 193T58 350Q58 448 88 517T166 629T274 693T393 713Q459 713 501 706T572 688L550 602Q501 625 401 625Q356 625 314 611T238 564T184 479T164 350Q164 282 183 231T235 146T314 94T414 76Q463 76 499 84T560
107L584 30Z" />
<glyph unicode="&#xc8;" glyph-name="Egrave" horiz-adv-x="585" d="M89 700H512V614H189V401H484V315H189V86H517V0H89V700ZM361 752H275L102 847V870H234L361 752Z" />
<glyph unicode="&#xc9;" glyph-name="Eacute" horiz-adv-x="585" d="M89 700H512V614H189V401H484V315H189V86H517V0H89V700ZM356 870H488V847L310 752H229L356 870Z" />
<glyph unicode="&#xca;" glyph-name="Ecircumflex" horiz-adv-x="585" d="M89 700H512V614H189V401H484V315H189V86H517V0H89V700ZM261 870H334L473 770V745H381L316 792L296 827L275 793L205 745H115V771L261 870Z" />
<glyph unicode="&#xcb;" glyph-name="Edieresis" horiz-adv-x="585" d="M89 700H512V614H189V401H484V315H189V86H517V0H89V700ZM125 795Q125 818 141 831T187 844Q215 844 232 831T249 795Q249 773 232 760T187 746Q158 746 142 759T125 795ZM339 795Q339 818
355 831T400 844Q429 844 446 831T463 795Q463 773 446 760T400 746Q372 746 356 759T339 795Z" />
<glyph unicode="&#xcc;" glyph-name="Igrave" horiz-adv-x="398" d="M149 634H69V700H329V634H249V66H329V0H69V66H149V634ZM512 752H426L253 847V870H385L512 752Z" />
<glyph unicode="&#xcd;" glyph-name="Iacute" horiz-adv-x="398" d="M149 634H69V700H329V634H249V66H329V0H69V66H149V634ZM273 870H405V847L227 752H146L273 870Z" />
<glyph unicode="&#xce;" glyph-name="Icircumflex" horiz-adv-x="398" d="M149 634H69V700H329V634H249V66H329V0H69V66H149V634ZM422 870H495L634 770V745H542L477 792L457 827L436 793L366 745H276V771L422 870Z" />
<glyph unicode="&#xcf;" glyph-name="Idieresis" horiz-adv-x="398" d="M149 634H69V700H329V634H249V66H329V0H69V66H149V634ZM287 795Q287 818 303 831T349 844Q377 844 394 831T411 795Q411 773 394 760T349 746Q320 746 304 759T287 795ZM501 795Q501 818
517 831T562 844Q591 844 608 831T625 795Q625 773 608 760T562 746Q534 746 518 759T501 795Z" />
<glyph unicode="&#xd0;" glyph-name="Eth" horiz-adv-x="723" d="M0 394H97V700Q117 703 143 704T198 707T254 708T305 709Q397 709 464 683T576 609T643 497T665 355Q665 285 645 220T579 103T464 21T293 -10Q276 -10 248 -9T189 -7T134 -5T97 -1V328H0V394ZM197
394H357V328H197V82Q202 81 216 81T247 80T277 79T297 78Q372 78 422 101T503 164T546 252T559 355Q559 400 547 447T506 532T429 596T308 621Q294 621 278 621T246 620T217 618T197 616V394Z" />
<glyph unicode="&#xd1;" glyph-name="Ntilde" horiz-adv-x="735" d="M235 445L175 543H171L183 445V0H89V710H145L502 256L559 163H564L552 256V700H646V-10H590L235 445ZM190 791Q222 823 251 834T306 846Q327 846 347 841T387 829T424 817T460 811Q474 811 488
816T517 833L542 782Q513 758 488 749T438 740Q417 740 397 745T358 756T321 768T285 773Q268 773 250 767T214 742L190 791Z" />
<glyph unicode="&#xd2;" glyph-name="Ograve" horiz-adv-x="747" d="M58 350Q58 436 79 503T141 617T240 688T373 713Q452 713 511 687T610 613T669 498T689 350Q689 264 668 197T605 83T506 12T373 -13Q293 -13 234 13T136 87T78 202T58 350ZM164 350Q164 293
176 243T214 155T279 95T373 73Q470 73 526 140T583 350Q583 406 571 456T533 544T468 604T373 627Q277 627 221 559T164 350ZM449 752H363L190 847V870H322L449 752Z" />
<glyph unicode="&#xd3;" glyph-name="Oacute" horiz-adv-x="747" d="M58 350Q58 436 79 503T141 617T240 688T373 713Q452 713 511 687T610 613T669 498T689 350Q689 264 668 197T605 83T506 12T373 -13Q293 -13 234 13T136 87T78 202T58 350ZM164 350Q164 293
176 243T214 155T279 95T373 73Q470 73 526 140T583 350Q583 406 571 456T533 544T468 604T373 627Q277 627 221 559T164 350ZM444 870H576V847L398 752H317L444 870Z" />
<glyph unicode="&#xd4;" glyph-name="Ocircumflex" horiz-adv-x="747" d="M58 350Q58 436 79 503T141 617T240 688T373 713Q452 713 511 687T610 613T669 498T689 350Q689 264 668 197T605 83T506 12T373 -13Q293 -13 234 13T136 87T78 202T58 350ZM164 350Q164
293 176 243T214 155T279 95T373 73Q470 73 526 140T583 350Q583 406 571 456T533 544T468 604T373 627Q277 627 221 559T164 350ZM338 870H411L550 770V745H458L393 792L373 827L352 793L282 745H192V771L338 870Z" />
<glyph unicode="&#xd5;" glyph-name="Otilde" horiz-adv-x="747" d="M58 350Q58 436 79 503T141 617T240 688T373 713Q452 713 511 687T610 613T669 498T689 350Q689 264 668 197T605 83T506 12T373 -13Q293 -13 234 13T136 87T78 202T58 350ZM164 350Q164 293
176 243T214 155T279 95T373 73Q470 73 526 140T583 350Q583 406 571 456T533 544T468 604T373 627Q277 627 221 559T164 350ZM195 791Q227 823 256 834T311 846Q332 846 352 841T392 829T429 817T465 811Q479 811 493 816T522 833L547 782Q518 758 493 749T443
740Q422 740 402 745T363 756T326 768T290 773Q273 773 255 767T219 742L195 791Z" />
<glyph unicode="&#xd6;" glyph-name="Odieresis" horiz-adv-x="747" d="M58 350Q58 436 79 503T141 617T240 688T373 713Q452 713 511 687T610 613T669 498T689 350Q689 264 668 197T605 83T506 12T373 -13Q293 -13 234 13T136 87T78 202T58 350ZM164 350Q164
293 176 243T214 155T279 95T373 73Q470 73 526 140T583 350Q583 406 571 456T533 544T468 604T373 627Q277 627 221 559T164 350ZM203 795Q203 818 219 831T265 844Q293 844 310 831T327 795Q327 773 310 760T265 746Q236 746 220 759T203 795ZM417 795Q417 818
433 831T478 844Q507 844 524 831T541 795Q541 773 524 760T478 746Q450 746 434 759T417 795Z" />
<glyph unicode="&#xd7;" glyph-name="multiply" horiz-adv-x="554" d="M140 526L278 396L417 526L475 463L339 339L475 213L417 151L278 281L139 150L80 211L217 339L82 463L140 526Z" />
<glyph unicode="&#xd8;" glyph-name="Oslash" horiz-adv-x="747" d="M132 92Q94 140 76 205T58 350Q58 436 79 503T141 617T240 688T373 713Q432 713 479 699T563 657L607 714L668 671L617 604Q653 556 671 492T689 350Q689 264 668 197T605 83T506 12T373 -13Q260
-13 187 39L147 -13L86 32L132 92ZM503 578Q479 601 447 614T373 627Q277 627 221 559T164 350Q164 302 172 259T199 181L503 578ZM247 118Q271 97 302 85T373 73Q470 73 526 140T583 350Q583 396 575 438T549 515L247 118Z" />
<glyph unicode="&#xd9;" glyph-name="Ugrave" horiz-adv-x="710" d="M527 700H621V243Q621 178 603 131T550 53T470 6T366 -9Q231 -9 160 49T89 223V700H189V261Q189 159 233 119T365 79Q449 79 488 123T527 264V700ZM446 752H360L187 847V870H319L446 752Z" />
<glyph unicode="&#xda;" glyph-name="Uacute" horiz-adv-x="710" d="M527 700H621V243Q621 178 603 131T550 53T470 6T366 -9Q231 -9 160 49T89 223V700H189V261Q189 159 233 119T365 79Q449 79 488 123T527 264V700ZM424 870H556V847L378 752H297L424 870Z" />
<glyph unicode="&#xdb;" glyph-name="Ucircumflex" horiz-adv-x="710" d="M527 700H621V243Q621 178 603 131T550 53T470 6T366 -9Q231 -9 160 49T89 223V700H189V261Q189 159 233 119T365 79Q449 79 488 123T527 264V700ZM326 870H399L538 770V745H446L381 792L361
827L340 793L270 745H180V771L326 870Z" />
<glyph unicode="&#xdc;" glyph-name="Udieresis" horiz-adv-x="710" d="M527 700H621V243Q621 178 603 131T550 53T470 6T366 -9Q231 -9 160 49T89 223V700H189V261Q189 159 233 119T365 79Q449 79 488 123T527 264V700ZM189 795Q189 818 205 831T251 844Q279
844 296 831T313 795Q313 773 296 760T251 746Q222 746 206 759T189 795ZM403 795Q403 818 419 831T464 844Q493 844 510 831T527 795Q527 773 510 760T464 746Q436 746 420 759T403 795Z" />
<glyph unicode="&#xdd;" glyph-name="Yacute" horiz-adv-x="617" d="M261 274L7 700H124L299 403L316 339H318L337 405L504 700H610L361 275V0H261V274ZM384 870H516V847L338 752H257L384 870Z" />
<glyph unicode="&#xde;" glyph-name="Thorn" horiz-adv-x="614" d="M89 800H189V706Q232 709 278 709Q329 709 381 700T477 667T547 601T575 491Q575 428 550 384T484 311T389 270T278 257Q272 257 260 257T234 258T208 260T189 262V0H89V800ZM189 348Q194 346
205 346T229 344T253 343T271 343Q307 343 342 348T405 370T451 415T469 490Q469 530 452 556T408 597T348 617T281 623Q254 623 229 622T189 617V348Z" />
<glyph unicode="&#xdf;" glyph-name="germandbls" horiz-adv-x="767" d="M281 525H371V558Q371 592 380 620T408 669T460 700T537 712Q556 712 571 711T601 708T629 701T661 691L639 616Q613 627 590 630T548 634Q525 634 509 630T483 614T468 583T463 529V0H371V447H281V525ZM621
147Q621 167 612 180T586 203T549 220T505 234Q476 242 447 251T394 277T355 320T340 386Q340 464 386 502T517 540Q580 540 623 528T698 502L676 424Q649 437 612 449T529 462Q480 462 456 446T432 388Q432 371 441 360T465 340T500 325T542 312Q572 304 602 294T657
266T697 221T713 153Q713 79 663 33T513 -14Q449 -14 402 -1T322 29L348 109Q376 94 420 79T509 64Q558 64 589 81T621 147Z" />
<glyph unicode="&#xe0;" glyph-name="agrave" horiz-adv-x="582" d="M82 492Q172 535 305 535Q365 535 401 520T458 480T484 427T491 368Q491 313 487 258T483 137Q483 99 486 64T498 -2H431L406 78H396Q385 63 369 48T331 20T281 0T215 -8Q178 -8 147 2T94 32T58
78T45 140Q45 185 64 218T115 272T185 303T264 313Q295 313 316 312T352 310T377 307T395 304Q397 319 398 330T399 358Q399 386 393 405T374 435T337 452T281 457Q262 457 239 454T193 446T148 432T107 415L82 492ZM395 238Q387 239 378 241T356 244T324 246T278
247Q216 247 180 225T143 150Q143 110 171 90T245 70Q278 70 303 78T347 99T377 127T395 158V238ZM342 570H288L161 697V720H271L342 570Z" />
<glyph unicode="&#xe1;" glyph-name="aacute" horiz-adv-x="582" d="M82 492Q172 535 305 535Q365 535 401 520T458 480T484 427T491 368Q491 313 487 258T483 137Q483 99 486 64T498 -2H431L406 78H396Q385 63 369 48T331 20T281 0T215 -8Q178 -8 147 2T94 32T58
78T45 140Q45 185 64 218T115 272T185 303T264 313Q295 313 316 312T352 310T377 307T395 304Q397 319 398 330T399 358Q399 386 393 405T374 435T337 452T281 457Q262 457 239 454T193 446T148 432T107 415L82 492ZM395 238Q387 239 378 241T356 244T324 246T278
247Q216 247 180 225T143 150Q143 110 171 90T245 70Q278 70 303 78T347 99T377 127T395 158V238ZM267 720H371V697L259 570H203L267 720Z" />
<glyph unicode="&#xe2;" glyph-name="acircumflex" horiz-adv-x="582" d="M82 492Q172 535 305 535Q365 535 401 520T458 480T484 427T491 368Q491 313 487 258T483 137Q483 99 486 64T498 -2H431L406 78H396Q385 63 369 48T331 20T281 0T215 -8Q178 -8 147 2T94
32T58 78T45 140Q45 185 64 218T115 272T185 303T264 313Q295 313 316 312T352 310T377 307T395 304Q397 319 398 330T399 358Q399 386 393 405T374 435T337 452T281 457Q262 457 239 454T193 446T148 432T107 415L82 492ZM395 238Q387 239 378 241T356 244T324
246T278 247Q216 247 180 225T143 150Q143 110 171 90T245 70Q278 70 303 78T347 99T377 127T395 158V238ZM275 773H316Q347 725 379 679T441 586H361L316 655L290 726L259 655L211 586H135L275 773Z" />
<glyph unicode="&#xe3;" glyph-name="atilde" horiz-adv-x="582" d="M82 492Q172 535 305 535Q365 535 401 520T458 480T484 427T491 368Q491 313 487 258T483 137Q483 99 486 64T498 -2H431L406 78H396Q385 63 369 48T331 20T281 0T215 -8Q178 -8 147 2T94 32T58
78T45 140Q45 185 64 218T115 272T185 303T264 313Q295 313 316 312T352 310T377 307T395 304Q397 319 398 330T399 358Q399 386 393 405T374 435T337 452T281 457Q262 457 239 454T193 446T148 432T107 415L82 492ZM395 238Q387 239 378 241T356 244T324 246T278
247Q216 247 180 225T143 150Q143 110 171 90T245 70Q278 70 303 78T347 99T377 127T395 158V238ZM129 696Q161 731 187 743T236 756Q254 756 270 750T303 735T336 720T372 713Q397 713 426 737L448 689Q421 661 398 650T354 638Q335 638 318 645T285 660T251 675T215
682Q199 682 184 676T149 652L129 696Z" />
<glyph unicode="&#xe4;" glyph-name="adieresis" horiz-adv-x="582" d="M82 492Q172 535 305 535Q365 535 401 520T458 480T484 427T491 368Q491 313 487 258T483 137Q483 99 486 64T498 -2H431L406 78H396Q385 63 369 48T331 20T281 0T215 -8Q178 -8 147 2T94
32T58 78T45 140Q45 185 64 218T115 272T185 303T264 313Q295 313 316 312T352 310T377 307T395 304Q397 319 398 330T399 358Q399 386 393 405T374 435T337 452T281 457Q262 457 239 454T193 446T148 432T107 415L82 492ZM395 238Q387 239 378 241T356 244T324
246T278 247Q216 247 180 225T143 150Q143 110 171 90T245 70Q278 70 303 78T347 99T377 127T395 158V238ZM111 653Q111 677 127 693T169 709Q194 709 209 693T225 653Q225 630 210 614T169 598Q143 598 127 614T111 653ZM326 653Q326 677 341 693T383 709Q409
709 424 693T440 653Q440 630 425 614T383 598Q357 598 342 614T326 653Z" />
<glyph unicode="&#xe5;" glyph-name="aring" horiz-adv-x="582" d="M82 492Q172 535 305 535Q365 535 401 520T458 480T484 427T491 368Q491 313 487 258T483 137Q483 99 486 64T498 -2H431L406 78H396Q385 63 369 48T331 20T281 0T215 -8Q178 -8 147 2T94 32T58
78T45 140Q45 185 64 218T115 272T185 303T264 313Q295 313 316 312T352 310T377 307T395 304Q397 319 398 330T399 358Q399 386 393 405T374 435T337 452T281 457Q262 457 239 454T193 446T148 432T107 415L82 492ZM395 238Q387 239 378 241T356 244T324 246T278
247Q216 247 180 225T143 150Q143 110 171 90T245 70Q278 70 303 78T347 99T377 127T395 158V238ZM179 683Q179 725 208 751T288 778Q336 778 368 755T401 683Q401 663 393 646T369 617T333 597T288 589Q240 589 210 613T179 683ZM236 683Q236 663 252 651T288
638Q311 638 327 649T344 683Q344 706 327 717T288 729Q268 729 252 718T236 683Z" />
<glyph unicode="&#xe6;" glyph-name="ae" horiz-adv-x="930" d="M397 236Q380 238 362 238T326 237Q290 237 257 233T199 219T158 192T143 149Q143 113 171 91T245 68Q278 68 303 76T346 96T377 122T397 151V236ZM421 92Q406 74 386 56T341 24T285 1T215 -8Q178
-8 147 2T94 31T58 77T45 139Q45 184 65 215T123 264T213 291T329 300Q344 300 362 300T398 301V304Q401 328 401 357Q401 413 374 435T281 457Q263 457 241 455T195 448T149 437T108 423L83 489Q125 510 183 522T306 535Q363 535 403 516T465 465Q481 484 502
498T548 521T598 535T648 540Q688 540 727 532T797 500T847 435T866 327Q866 313 866 296T862 252H486Q487 207 497 172T530 112T588 74T674 61Q712 61 750 73T813 104L846 43Q812 18 758 2T648 -14Q578 -14 520 14T432 92H421ZM777 318Q778 358 770 385T744 430T703
454T649 462Q580 462 540 429T490 318H777Z" />
<glyph unicode="&#xe7;" glyph-name="ccedilla" horiz-adv-x="529" d="M484 36Q452 13 410 1T321 -13L298 -53Q347 -61 370 -79T394 -130Q394 -172 357 -197T254 -223Q241 -223 228 -222T200 -218L209 -182Q244 -184 264 -181T294 -171T306 -156T309 -139Q309
-122 284 -113T210 -98L262 -11Q207 -5 169 17T106 74T71 157T60 262Q60 395 124 467T310 540Q363 540 402 531T472 507L448 432Q421 446 390 454T321 462Q158 462 158 262Q158 224 167 189T196 126T248 82T328 65Q370 65 401 76T454 104L484 36Z" />
<glyph unicode="&#xe8;" glyph-name="egrave" horiz-adv-x="598" d="M515 43Q480 17 428 2T315 -14Q249 -14 201 5T121 61T75 148T60 262Q60 397 126 468T316 540Q355 540 394 532T464 500T514 435T534 328Q534 312 533 291T529 250H154Q156 158 198 111T341 64Q383
64 421 78T480 113L515 43ZM446 316Q448 396 414 429T317 462Q247 462 206 429T158 316H446ZM373 570H319L192 697V720H302L373 570Z" />
<glyph unicode="&#xe9;" glyph-name="eacute" horiz-adv-x="598" d="M515 43Q480 17 428 2T315 -14Q249 -14 201 5T121 61T75 148T60 262Q60 397 126 468T316 540Q355 540 394 532T464 500T514 435T534 328Q534 312 533 291T529 250H154Q156 158 198 111T341 64Q383
64 421 78T480 113L515 43ZM446 316Q448 396 414 429T317 462Q247 462 206 429T158 316H446ZM329 720H433V697L321 570H265L329 720Z" />
<glyph unicode="&#xea;" glyph-name="ecircumflex" horiz-adv-x="598" d="M515 43Q480 17 428 2T315 -14Q249 -14 201 5T121 61T75 148T60 262Q60 397 126 468T316 540Q355 540 394 532T464 500T514 435T534 328Q534 312 533 291T529 250H154Q156 158 198 111T341
64Q383 64 421 78T480 113L515 43ZM446 316Q448 396 414 429T317 462Q247 462 206 429T158 316H446ZM284 773H325Q356 725 388 679T450 586H370L325 655L299 726L268 655L220 586H144L284 773Z" />
<glyph unicode="&#xeb;" glyph-name="edieresis" horiz-adv-x="598" d="M515 43Q480 17 428 2T315 -14Q249 -14 201 5T121 61T75 148T60 262Q60 397 126 468T316 540Q355 540 394 532T464 500T514 435T534 328Q534 312 533 291T529 250H154Q156 158 198 111T341
64Q383 64 421 78T480 113L515 43ZM446 316Q448 396 414 429T317 462Q247 462 206 429T158 316H446ZM158 653Q158 677 174 693T216 709Q241 709 256 693T272 653Q272 630 257 614T216 598Q190 598 174 614T158 653ZM373 653Q373 677 388 693T430 709Q456 709 471
693T487 653Q487 630 472 614T430 598Q404 598 389 614T373 653Z" />
<glyph unicode="&#xec;" glyph-name="igrave" horiz-adv-x="317" d="M114 525H206V0H114V525ZM447 570H393L266 697V720H376L447 570Z" />
<glyph unicode="&#xed;" glyph-name="iacute" horiz-adv-x="317" d="M114 525H206V0H114V525ZM175 720H279V697L167 570H111L175 720Z" />
<glyph unicode="&#xee;" glyph-name="icircumflex" horiz-adv-x="317" d="M114 525H206V0H114V525ZM395 773H436Q467 725 499 679T561 586H481L436 655L410 726L379 655L331 586H255L395 773Z" />
<glyph unicode="&#xef;" glyph-name="idieresis" horiz-adv-x="317" d="M114 525H206V0H114V525ZM252 653Q252 677 268 693T310 709Q335 709 350 693T366 653Q366 630 351 614T310 598Q284 598 268 614T252 653ZM467 653Q467 677 482 693T524 709Q550 709 565
693T581 653Q581 630 566 614T524 598Q498 598 483 614T467 653Z" />
<glyph unicode="&#xf0;" glyph-name="eth" horiz-adv-x="645" d="M240 599L281 674Q255 681 226 683T164 685V751Q205 751 242 747T314 735L353 805L403 780L368 718Q419 698 459 664T527 581T570 466T585 317Q585 231 565 169T509 66T425 6T323 -14Q254 -14 205
9T123 70T75 157T60 261Q60 313 77 361T128 448T209 509T320 532Q370 532 412 517T474 482L481 485Q465 541 428 585T333 655L291 579L240 599ZM158 259Q158 164 205 114T329 64Q364 64 394 78T446 121T480 195T493 302Q493 322 492 346T486 385Q476 403 459 416T421
437T377 450T332 454Q286 454 253 439T199 396T168 334T158 259Z" />
<glyph unicode="&#xf1;" glyph-name="ntilde" horiz-adv-x="641" d="M461 0V290Q461 374 434 416T338 458Q277 458 237 427T180 346V0H88V525H152L170 455H179Q208 491 254 515T366 540Q412 540 447 530T505 493T541 422T553 309V0H461ZM155 696Q187 731 213 743T262
756Q280 756 296 750T329 735T362 720T398 713Q423 713 452 737L474 689Q447 661 424 650T380 638Q361 638 344 645T311 660T277 675T241 682Q225 682 210 676T175 652L155 696Z" />
<glyph unicode="&#xf2;" glyph-name="ograve" horiz-adv-x="631" d="M60 262Q60 327 77 378T127 466T207 521T316 540Q380 540 428 519T508 461T555 373T571 262Q571 198 554 147T504 60T424 5T316 -14Q250 -14 202 7T123 65T76 152T60 262ZM158 262Q158 225 166
190T194 126T243 81T317 64Q473 64 473 262Q473 301 465 337T438 400T389 445T317 462Q239 462 199 413T158 262ZM360 570H306L179 697V720H289L360 570Z" />
<glyph unicode="&#xf3;" glyph-name="oacute" horiz-adv-x="631" d="M60 262Q60 327 77 378T127 466T207 521T316 540Q380 540 428 519T508 461T555 373T571 262Q571 198 554 147T504 60T424 5T316 -14Q250 -14 202 7T123 65T76 152T60 262ZM158 262Q158 225 166
190T194 126T243 81T317 64Q473 64 473 262Q473 301 465 337T438 400T389 445T317 462Q239 462 199 413T158 262ZM325 720H429V697L317 570H261L325 720Z" />
<glyph unicode="&#xf4;" glyph-name="ocircumflex" horiz-adv-x="631" d="M60 262Q60 327 77 378T127 466T207 521T316 540Q380 540 428 519T508 461T555 373T571 262Q571 198 554 147T504 60T424 5T316 -14Q250 -14 202 7T123 65T76 152T60 262ZM158 262Q158
225 166 190T194 126T243 81T317 64Q473 64 473 262Q473 301 465 337T438 400T389 445T317 462Q239 462 199 413T158 262ZM299 773H340Q371 725 403 679T465 586H385L340 655L314 726L283 655L235 586H159L299 773Z" />
<glyph unicode="&#xf5;" glyph-name="otilde" horiz-adv-x="631" d="M60 262Q60 327 77 378T127 466T207 521T316 540Q380 540 428 519T508 461T555 373T571 262Q571 198 554 147T504 60T424 5T316 -14Q250 -14 202 7T123 65T76 152T60 262ZM158 262Q158 225 166
190T194 126T243 81T317 64Q473 64 473 262Q473 301 465 337T438 400T389 445T317 462Q239 462 199 413T158 262ZM155 696Q187 731 213 743T262 756Q280 756 296 750T329 735T362 720T398 713Q423 713 452 737L474 689Q447 661 424 650T380 638Q361 638 344 645T311
660T277 675T241 682Q225 682 210 676T175 652L155 696Z" />
<glyph unicode="&#xf6;" glyph-name="odieresis" horiz-adv-x="631" d="M60 262Q60 327 77 378T127 466T207 521T316 540Q380 540 428 519T508 461T555 373T571 262Q571 198 554 147T504 60T424 5T316 -14Q250 -14 202 7T123 65T76 152T60 262ZM158 262Q158 225
166 190T194 126T243 81T317 64Q473 64 473 262Q473 301 465 337T438 400T389 445T317 462Q239 462 199 413T158 262ZM137 653Q137 677 153 693T195 709Q220 709 235 693T251 653Q251 630 236 614T195 598Q169 598 153 614T137 653ZM352 653Q352 677 367 693T409
709Q435 709 450 693T466 653Q466 630 451 614T409 598Q383 598 368 614T352 653Z" />
<glyph unicode="&#xf7;" glyph-name="divide" horiz-adv-x="554" d="M43 379H511V295H43V379ZM212 525Q212 554 230 571T279 588Q309 588 327 571T346 525Q346 498 328 480T279 462Q249 462 231 480T212 525ZM212 145Q212 174 230 191T279 208Q309 208 327 191T346
145Q346 118 328 100T279 82Q249 82 231 100T212 145Z" />
<glyph unicode="&#xf8;" glyph-name="oslash" horiz-adv-x="613" d="M108 73Q80 109 67 156T53 261Q53 392 119 465T309 539Q352 539 387 530T450 504L480 541L534 497L503 458Q533 421 548 371T563 261Q563 130 497 58T309 -14Q263 -14 226 -4T160 25L129 -16L72
28L108 73ZM213 95Q250 64 309 64Q465 64 465 261Q465 294 459 325T439 383L213 95ZM399 432Q382 446 360 453T309 461Q151 461 151 261Q151 231 156 202T174 148L399 432Z" />
<glyph unicode="&#xf9;" glyph-name="ugrave" horiz-adv-x="644" d="M180 525V236Q180 194 185 162T203 109T238 76T296 64Q356 64 394 98T452 182V525H544V149Q544 111 547 72T556 0H494L470 87H460Q434 42 388 14T273 -14Q227 -14 193 -3T135 34T100 105T88
215V525H180ZM353 570H299L172 697V720H282L353 570Z" />
<glyph unicode="&#xfa;" glyph-name="uacute" horiz-adv-x="644" d="M180 525V236Q180 194 185 162T203 109T238 76T296 64Q356 64 394 98T452 182V525H544V149Q544 111 547 72T556 0H494L470 87H460Q434 42 388 14T273 -14Q227 -14 193 -3T135 34T100 105T88
215V525H180ZM326 720H430V697L318 570H262L326 720Z" />
<glyph unicode="&#xfb;" glyph-name="ucircumflex" horiz-adv-x="644" d="M180 525V236Q180 194 185 162T203 109T238 76T296 64Q356 64 394 98T452 182V525H544V149Q544 111 547 72T556 0H494L470 87H460Q434 42 388 14T273 -14Q227 -14 193 -3T135 34T100 105T88
215V525H180ZM308 773H349Q380 725 412 679T474 586H394L349 655L323 726L292 655L244 586H168L308 773Z" />
<glyph unicode="&#xfc;" glyph-name="udieresis" horiz-adv-x="644" d="M180 525V236Q180 194 185 162T203 109T238 76T296 64Q356 64 394 98T452 182V525H544V149Q544 111 547 72T556 0H494L470 87H460Q434 42 388 14T273 -14Q227 -14 193 -3T135 34T100 105T88
215V525H180ZM144 653Q144 677 160 693T202 709Q227 709 242 693T258 653Q258 630 243 614T202 598Q176 598 160 614T144 653ZM359 653Q359 677 374 693T416 709Q442 709 457 693T473 653Q473 630 458 614T416 598Q390 598 375 614T359 653Z" />
<glyph unicode="&#xfd;" glyph-name="yacute" horiz-adv-x="531" d="M251 193L282 92H295L320 194L429 525H523L351 50Q332 1 313 -45T270 -126T218 -183T152 -205Q112 -205 84 -196L99 -118Q114 -123 129 -123Q149 -123 165 -118T196 -100T221 -64T243 -3L8 525H117L251
193ZM303 720H407V697L295 570H239L303 720Z" />
<glyph unicode="&#xfe;" glyph-name="thorn" horiz-adv-x="630" d="M88 701H180V466H188Q214 500 251 519T343 539Q457 539 513 476T570 274Q570 208 551 155T498 64T414 6T304 -14Q284 -14 269 -13T240 -8T211 0T180 11V-200H88V701ZM322 461Q211 461 180 337V100Q201
84 230 74T298 64Q379 64 425 117T472 275Q472 317 464 351T438 410T392 447T322 461Z" />
<glyph unicode="&#xff;" glyph-name="ydieresis" horiz-adv-x="531" d="M251 193L282 92H295L320 194L429 525H523L351 50Q332 1 313 -45T270 -126T218 -183T152 -205Q112 -205 84 -196L99 -118Q114 -123 129 -123Q149 -123 165 -118T196 -100T221 -64T243 -3L8
525H117L251 193ZM89 653Q89 677 105 693T147 709Q172 709 187 693T203 653Q203 630 188 614T147 598Q121 598 105 614T89 653ZM304 653Q304 677 319 693T361 709Q387 709 402 693T418 653Q418 630 403 614T361 598Q335 598 320 614T304 653Z" />
<glyph unicode="&#x100;" glyph-name="Amacron" horiz-adv-x="645" d="M457 183H180L106 0H8L296 710H348L637 0H533L457 183ZM210 267H428L347 466L320 573H318L291 464L210 267ZM145 826H495V758H145V826Z" />
<glyph unicode="&#x101;" glyph-name="amacron" horiz-adv-x="582" d="M82 492Q172 535 305 535Q365 535 401 520T458 480T484 427T491 368Q491 313 487 258T483 137Q483 99 486 64T498 -2H431L406 78H396Q385 63 369 48T331 20T281 0T215 -8Q178 -8 147 2T94
32T58 78T45 140Q45 185 64 218T115 272T185 303T264 313Q295 313 316 312T352 310T377 307T395 304Q397 319 398 330T399 358Q399 386 393 405T374 435T337 452T281 457Q262 457 239 454T193 446T148 432T107 415L82 492ZM395 238Q387 239 378 241T356 244T324
246T278 247Q216 247 180 225T143 150Q143 110 171 90T245 70Q278 70 303 78T347 99T377 127T395 158V238ZM114 666H442V597H114V666Z" />
<glyph unicode="&#x102;" glyph-name="Abreve" horiz-adv-x="645" d="M457 183H180L106 0H8L296 710H348L637 0H533L457 183ZM210 267H428L347 466L320 573H318L291 464L210 267ZM180 872Q199 840 238 823T328 806Q381 806 417 825T471 872L515 849Q505 821 487
799T443 762T388 738T327 730Q298 730 269 736T214 757T167 792T132 843L180 872Z" />
<glyph unicode="&#x103;" glyph-name="abreve" horiz-adv-x="582" d="M82 492Q172 535 305 535Q365 535 401 520T458 480T484 427T491 368Q491 313 487 258T483 137Q483 99 486 64T498 -2H431L406 78H396Q385 63 369 48T331 20T281 0T215 -8Q178 -8 147 2T94 32T58
78T45 140Q45 185 64 218T115 272T185 303T264 313Q295 313 316 312T352 310T377 307T395 304Q397 319 398 330T399 358Q399 386 393 405T374 435T337 452T281 457Q262 457 239 454T193 446T148 432T107 415L82 492ZM395 238Q387 239 378 241T356 244T324 246T278
247Q216 247 180 225T143 150Q143 110 171 90T245 70Q278 70 303 78T347 99T377 127T395 158V238ZM162 759Q183 722 218 703T294 684Q333 684 366 702T420 759L465 740Q461 716 447 693T409 651T356 622T293 610Q228 610 179 644T112 735L162 759Z" />
<glyph unicode="&#x104;" glyph-name="Aogonek" horiz-adv-x="645" d="M457 183H180L106 0H8L296 710H348L637 0H630Q596 -17 576 -39T557 -92Q558 -115 573 -131T617 -147Q627 -147 639 -145T664 -137L676 -183Q659 -195 629 -201T572 -208Q521 -208 492 -184T462
-116Q462 -76 493 -47T578 0H533L457 183ZM210 267H428L347 466L320 573H318L291 464L210 267Z" />
<glyph unicode="&#x105;" glyph-name="aogonek" horiz-adv-x="582" d="M82 492Q172 535 305 535Q365 535 401 520T458 480T484 427T491 368Q491 313 487 258T483 137Q483 99 486 64T498 -2H487Q456 -18 438 -40T421 -91Q422 -114 437 -130T481 -146Q491 -146 503
-144T528 -136L540 -182Q523 -194 493 -200T436 -207Q385 -207 356 -183T326 -115Q326 -77 355 -48T433 -2H431L406 78H396Q385 63 369 48T331 20T281 0T215 -8Q178 -8 147 2T94 32T58 78T45 140Q45 185 64 218T115 272T185 303T264 313Q295 313 316 312T352 310T377
307T395 304Q397 319 398 330T399 358Q399 386 393 405T374 435T337 452T281 457Q262 457 239 454T193 446T148 432T107 415L82 492ZM395 238Q387 239 378 241T356 244T324 246T278 247Q216 247 180 225T143 150Q143 110 171 90T245 70Q278 70 303 78T347 99T377
127T395 158V238Z" />
<glyph unicode="&#x106;" glyph-name="Cacute" horiz-adv-x="624" d="M584 30Q551 6 500 -3T392 -13Q325 -13 265 8T158 74T85 187T58 350Q58 448 88 517T166 629T274 693T393 713Q459 713 501 706T572 688L550 602Q501 625 401 625Q356 625 314 611T238 564T184
479T164 350Q164 282 183 231T235 145T314 93T414 75Q463 75 499 84T560 107L584 30ZM449 870H581V847L403 752H322L449 870Z" />
<glyph unicode="&#x107;" glyph-name="cacute" horiz-adv-x="529" d="M484 36Q449 11 402 -1T303 -14Q237 -14 191 6T115 62T73 149T60 262Q60 395 124 467T310 540Q363 540 402 531T472 507L448 432Q421 446 390 454T321 462Q158 462 158 262Q158 224 167 189T196
126T248 81T328 64Q370 64 401 75T454 103L484 36ZM321 720H425V697L313 570H257L321 720Z" />
<glyph unicode="&#x10c;" glyph-name="Ccaron" horiz-adv-x="624" d="M584 30Q551 6 500 -3T392 -13Q325 -13 265 8T158 74T85 187T58 350Q58 448 88 517T166 629T274 693T393 713Q459 713 501 706T572 688L550 602Q501 625 401 625Q356 625 314 611T238 564T184
479T164 350Q164 282 183 231T235 145T314 93T414 75Q463 75 499 84T560 107L584 30ZM419 744H350L211 845V870H304L368 821L387 788L408 820L476 870H565V844L419 744Z" />
<glyph unicode="&#x10d;" glyph-name="ccaron" horiz-adv-x="529" d="M484 36Q449 11 402 -1T303 -14Q237 -14 191 6T115 62T73 149T60 262Q60 395 124 467T310 540Q363 540 402 531T472 507L448 432Q421 446 390 454T321 462Q158 462 158 262Q158 224 167 189T196
126T248 81T328 64Q370 64 401 75T454 103L484 36ZM315 586H266L137 773H224L268 705L296 634L325 704L374 773H452L315 586Z" />
<glyph unicode="&#x10e;" glyph-name="Dcaron" horiz-adv-x="715" d="M89 700Q109 703 135 704T190 707T246 708T297 709Q389 709 456 683T568 609T635 497T657 355Q657 285 637 220T571 103T456 21T285 -10Q268 -10 240 -9T181 -7T126 -5T89 -1V700ZM300 621Q286
621 270 621T238 620T209 618T189 616V82Q194 81 208 81T239 80T269 79T289 78Q364 78 414 101T495 164T538 252T551 355Q551 400 539 447T498 532T421 596T300 621ZM341 744H272L133 845V870H226L290 821L309 788L330 820L398 870H487V844L341 744Z" />
<glyph unicode="&#x10f;" glyph-name="dcaron" horiz-adv-x="648" d="M538 181Q538 130 539 86T549 -2H488L465 78H455Q432 38 388 12T284 -14Q171 -14 116 53T60 259Q60 393 128 464T321 536Q342 536 358 535T389 531T417 525T446 517V700H538V181ZM446 428Q423
445 397 451T326 458Q245 458 201 411T156 258Q156 216 164 181T189 119T234 79T303 64Q364 64 398 94T446 185V428ZM696 700Q694 671 684 641T659 583T631 535T606 505L566 528Q585 564 594 609T604 700H696Z" />
<glyph unicode="&#x110;" glyph-name="Dcroat" horiz-adv-x="723" d="M0 394H97V700Q117 703 143 704T198 707T254 708T305 709Q397 709 464 683T576 609T643 497T665 355Q665 285 645 220T579 103T464 21T293 -10Q276 -10 248 -9T189 -7T134 -5T97 -1V328H0V394ZM197
394H357V328H197V82Q202 81 216 81T247 80T277 79T297 78Q372 78 422 101T503 164T546 252T559 355Q559 400 547 447T506 532T429 596T308 621Q294 621 278 621T246 620T217 618T197 616V394Z" />
<glyph unicode="&#x111;" glyph-name="" horiz-adv-x="630" d="M538 649H630V588H538V182Q538 131 539 87T549 -1H488L465 79H455Q432 39 388 13T284 -13Q171 -13 116 54T60 260Q60 394 128 465T321 537Q342 537 358 536T389 532T417 526T446 518V588H261V649H446V701H538V649ZM446
429Q423 446 397 452T326 459Q245 459 201 412T156 259Q156 217 164 182T189 120T234 80T303 65Q364 65 398 95T446 186V429Z" />
<glyph unicode="&#x112;" glyph-name="Emacron" horiz-adv-x="585" d="M89 700H512V614H189V401H484V315H189V86H517V0H89V700ZM118 826H468V758H118V826Z" />
<glyph unicode="&#x113;" glyph-name="emacron" horiz-adv-x="598" d="M515 43Q480 17 428 2T315 -14Q249 -14 201 5T121 61T75 148T60 262Q60 397 126 468T316 540Q355 540 394 532T464 500T514 435T534 328Q534 312 533 291T529 250H154Q156 158 198 111T341
64Q383 64 421 78T480 113L515 43ZM446 316Q448 396 414 429T317 462Q247 462 206 429T158 316H446ZM141 666H469V597H141V666Z" />
<glyph unicode="&#x116;" glyph-name="Edotaccent" horiz-adv-x="585" d="M89 700H512V614H189V401H484V315H189V86H517V0H89V700ZM229 798Q229 820 248 836T301 852Q335 852 354 836T374 798Q374 774 355 759T301 743Q267 743 248 758T229 798Z" />
<glyph unicode="&#x117;" glyph-name="edotaccent" horiz-adv-x="598" d="M515 43Q480 17 428 2T315 -14Q249 -14 201 5T121 61T75 148T60 262Q60 397 126 468T316 540Q355 540 394 532T464 500T514 435T534 328Q534 312 533 291T529 250H154Q156 158 198 111T341
64Q383 64 421 78T480 113L515 43ZM446 316Q448 396 414 429T317 462Q247 462 206 429T158 316H446ZM244 650Q244 673 262 691T309 710Q338 710 357 692T376 650Q376 627 357 610T309 592Q280 592 262 609T244 650Z" />
<glyph unicode="&#x118;" glyph-name="Eogonek" horiz-adv-x="585" d="M89 700H512V614H189V401H484V315H189V86H517V0H496Q462 -17 442 -39T423 -92Q424 -115 439 -131T483 -147Q493 -147 505 -145T530 -137L542 -183Q525 -195 495 -201T438 -208Q387 -208 358
-184T328 -116Q328 -76 359 -47T444 0H89V700Z" />
<glyph unicode="&#x119;" glyph-name="eogonek" horiz-adv-x="598" d="M515 43Q482 18 439 5H440Q407 -12 389 -37T371 -94Q372 -117 388 -134T433 -152Q453 -152 477 -143L489 -183Q471 -195 443 -202T389 -209Q337 -209 307 -185T276 -118Q276 -86 296 -59T352
-12Q343 -13 334 -13T315 -14Q249 -14 201 5T121 61T75 148T60 262Q60 397 126 468T316 540Q355 540 394 532T464 500T514 435T534 328Q534 312 533 291T529 250H154Q156 158 198 111T341 64Q383 64 421 78T480 113L515 43ZM446 316Q448 396 414 429T317 462Q247
462 206 429T158 316H446Z" />
<glyph unicode="&#x11a;" glyph-name="Ecaron" horiz-adv-x="585" d="M89 700H512V614H189V401H484V315H189V86H517V0H89V700ZM323 744H254L115 845V870H208L272 821L291 788L312 820L380 870H469V844L323 744Z" />
<glyph unicode="&#x11b;" glyph-name="ecaron" horiz-adv-x="598" d="M515 43Q480 17 428 2T315 -14Q249 -14 201 5T121 61T75 148T60 262Q60 397 126 468T316 540Q355 540 394 532T464 500T514 435T534 328Q534 312 533 291T529 250H154Q156 158 198 111T341
64Q383 64 421 78T480 113L515 43ZM446 316Q448 396 414 429T317 462Q247 462 206 429T158 316H446ZM328 586H279L150 773H237L281 705L309 634L338 704L387 773H465L328 586Z" />
<glyph unicode="&#x11e;" glyph-name="Gbreve" horiz-adv-x="668" d="M348 353H610V44Q592 30 567 20T514 2T455 -9T396 -13Q324 -13 263 8T156 75T84 188T58 350Q58 447 89 516T171 629T282 693T405 713Q471 713 514 706T587 687L563 602Q511 625 413 625Q368
625 324 611T244 565T186 480T164 350Q164 279 182 227T234 141T312 91T410 75Q443 75 473 81T527 100V277L348 295V353ZM239 872Q258 840 297 823T387 806Q440 806 476 825T530 872L574 849Q564 821 546 799T502 762T447 738T386 730Q357 730 328 736T273 757T226
792T191 843L239 872Z" />
<glyph unicode="&#x11f;" glyph-name="gbreve" horiz-adv-x="627" d="M537 -3Q537 -106 477 -156T299 -207Q231 -207 189 -199T117 -177L139 -94Q152 -100 169 -106T205 -118T243 -126T281 -129Q330 -129 362 -121T413 -94T439 -48T446 19V56H435Q419 30 379 14T282
-2Q168 -2 114 59T60 258Q60 393 130 466T338 539Q404 539 451 531T537 510V-3ZM302 76Q363 76 397 107T445 188V446Q422 453 392 457T324 461Q246 461 202 412T158 260Q158 172 190 124T302 76ZM185 759Q206 722 241 703T317 684Q356 684 389 702T443 759L488
740Q484 716 470 693T432 651T379 622T316 610Q251 610 202 644T135 735L185 759Z" />
<glyph unicode="&#x122;" glyph-name="Gcommaaccent" horiz-adv-x="668" d="M348 353H610V44Q592 30 567 20T514 2T455 -9T396 -13Q324 -13 263 8T156 75T84 188T58 350Q58 447 89 516T171 629T282 693T405 713Q471 713 514 706T587 687L563 602Q511 625 413 625Q368
625 324 611T244 565T186 480T164 350Q164 279 182 227T234 141T312 91T410 75Q443 75 473 81T527 100V277L348 295V353ZM317 -102Q317 -80 334 -66T375 -52Q404 -52 425 -71T447 -130Q447 -157 437 -178T413 -214T384 -238T356 -251L327 -211Q346 -203 359 -188T373
-149Q350 -154 334 -140T317 -102Z" />
<glyph unicode="&#x123;" glyph-name="gcommaaccent" horiz-adv-x="627" d="M537 -3Q537 -106 477 -156T299 -207Q231 -207 189 -199T117 -177L139 -94Q152 -100 169 -106T205 -118T243 -126T281 -129Q330 -129 362 -121T413 -94T439 -48T446 19V56H435Q419 30
379 14T282 -2Q168 -2 114 59T60 258Q60 393 130 466T338 539Q404 539 451 531T537 510V-3ZM302 76Q363 76 397 107T445 188V446Q422 453 392 457T324 461Q246 461 202 412T158 260Q158 172 190 124T302 76ZM388 648Q388 626 371 612T330 598Q301 598 280 617T258
676Q258 703 268 724T292 760T321 784T349 797L378 757Q359 749 346 734T332 695Q355 700 371 686T388 648Z" />
<glyph unicode="&#x126;" glyph-name="Hbar" horiz-adv-x="741" d="M7 590H94V700H194V590H549V700H649V590H734V520H649V0H549V313H194V0H94V520H7V590ZM549 401V520H194V401H549Z" />
<glyph unicode="&#x127;" glyph-name="hbar" horiz-adv-x="647" d="M0 634H94V700H186V634H357V568H186V460H197Q227 496 269 518T373 540Q421 540 456 530T514 493T548 422T559 310V0H467V290Q467 333 462 364T442 417T403 448T341 458Q315 458 290 449T244 424T208
386T186 335V0H94V568H0V634Z" />
<glyph unicode="&#x12a;" glyph-name="Imacron" horiz-adv-x="398" d="M149 634H69V700H329V634H249V66H329V0H69V66H149V634ZM282 826H632V758H282V826Z" />
<glyph unicode="&#x12b;" glyph-name="imacron" horiz-adv-x="317" d="M114 525H206V0H114V525ZM252 666H580V597H252V666Z" />
<glyph unicode="&#x12e;" glyph-name="Iogonek" horiz-adv-x="398" d="M149 634H69V700H329V634H249V66H329V0H253Q221 -17 203 -40T185 -92Q186 -115 201 -131T245 -147Q255 -147 267 -145T292 -137L304 -183Q287 -195 257 -201T200 -208Q149 -208 120 -184T90
-116Q90 -77 119 -47T199 0H69V66H149V634Z" />
<glyph unicode="&#x12f;" glyph-name="iogonek" horiz-adv-x="310" d="M113 525H205V0H193Q158 -19 149 -40T140 -91Q141 -114 156 -131T202 -148Q222 -148 246 -139L257 -182Q240 -193 212 -199T157 -206Q106 -206 76 -182T45 -115Q45 -71 73 -45T156 0H113V525ZM93
645Q93 668 111 686T158 705Q187 705 206 687T225 645Q225 622 206 605T158 587Q129 587 111 604T93 645Z" />
<glyph unicode="&#x130;" glyph-name="Idot" horiz-adv-x="398" d="M149 634H69V700H329V634H249V66H329V0H69V66H149V634ZM126 798Q126 820 145 836T198 852Q232 852 251 836T271 798Q271 774 252 759T198 743Q164 743 145 758T126 798Z" />
<glyph unicode="&#x131;" glyph-name="dotlessi" horiz-adv-x="317" d="M114 525H206V0H114V525Z" />
<glyph unicode="&#x136;" glyph-name="Kcommaaccent" horiz-adv-x="669" d="M238 318H189V0H89V700H189V378L235 392L487 700H601L349 400L302 366L357 326L635 0H509L238 318ZM250 -102Q250 -80 267 -66T308 -52Q337 -52 358 -71T380 -130Q380 -157 370 -178T346
-214T317 -238T289 -251L260 -211Q279 -203 292 -188T306 -149Q283 -154 267 -140T250 -102Z" />
<glyph unicode="&#x137;" glyph-name="kcommaaccent" horiz-adv-x="557" d="M237 236H180V0H88V700H180V286L232 303L406 525H514L347 322H348L293 282L356 237L541 0H425L237 236ZM206 -102Q206 -80 223 -66T264 -52Q293 -52 314 -71T336 -130Q336 -157 326 -178T302
-214T273 -238T245 -251L216 -211Q235 -203 248 -188T262 -149Q239 -154 223 -140T206 -102Z" />
<glyph unicode="&#x139;" glyph-name="Lacute" horiz-adv-x="566" d="M547 0H89V700H189V88H547V0ZM254 870H386V847L208 752H127L254 870Z" />
<glyph unicode="&#x13a;" glyph-name="lacute" horiz-adv-x="336" d="M192 139Q192 98 207 81T249 64Q265 64 280 66T316 74L328 6Q318 2 304 -1T275 -8T245 -12T218 -14Q164 -14 132 13T100 105V700H192V139ZM224 870H356V847L178 752H97L224 870Z" />
<glyph unicode="&#x13b;" glyph-name="Lcommaaccent" horiz-adv-x="566" d="M547 0H89V700H189V88H547V0ZM207 -102Q207 -80 224 -66T265 -52Q294 -52 315 -71T337 -130Q337 -157 327 -178T303 -214T274 -238T246 -251L217 -211Q236 -203 249 -188T263 -149Q240
-154 224 -140T207 -102Z" />
<glyph unicode="&#x13c;" glyph-name="lcommaaccent" horiz-adv-x="336" d="M192 139Q192 98 207 81T249 64Q265 64 280 66T316 74L328 6Q318 2 304 -1T275 -8T245 -12T218 -14Q164 -14 132 13T100 105V700H192V139ZM133 -102Q133 -80 150 -66T191 -52Q220 -52
241 -71T263 -130Q263 -157 253 -178T229 -214T200 -238T172 -251L143 -211Q162 -203 175 -188T189 -149Q166 -154 150 -140T133 -102Z" />
<glyph unicode="&#x13d;" glyph-name="Lcaron" horiz-adv-x="566" d="M547 0H89V700H189V88H547V0ZM473 700Q471 671 461 641T436 583T408 535T383 505L343 528Q362 564 371 609T381 700H473Z" />
<glyph unicode="&#x13e;" glyph-name="lcaron" horiz-adv-x="336" d="M192 139Q192 98 207 81T249 64Q265 64 280 66T316 74L328 6Q318 2 304 -1T275 -8T245 -12T218 -14Q164 -14 132 13T100 105V700H192V139ZM358 700Q356 671 346 641T321 583T293 535T268 505L228
528Q247 564 256 609T266 700H358Z" />
<glyph unicode="&#x141;" glyph-name="Lslash" horiz-adv-x="570" d="M15 293L93 348V700H193V418L307 498V409L193 330V88H551V0H93V261L15 208V293Z" />
<glyph unicode="&#x142;" glyph-name="lslash" horiz-adv-x="336" d="M7 289L100 354V700H192V419L299 494V405L192 331V139Q192 98 207 81T249 64Q265 64 280 66T316 74L328 6Q318 2 304 -1T275 -8T245 -12T218 -14Q164 -14 132 13T100 105V268L7 204V289Z" />
<glyph unicode="&#x143;" glyph-name="Nacute" horiz-adv-x="735" d="M235 445L175 543H171L183 445V0H89V710H145L502 256L559 163H564L552 256V700H646V-10H590L235 445ZM435 870H567V847L389 752H308L435 870Z" />
<glyph unicode="&#x144;" glyph-name="nacute" horiz-adv-x="641" d="M461 0V290Q461 374 434 416T338 458Q277 458 237 427T180 346V0H88V525H152L170 455H179Q208 491 254 515T366 540Q412 540 447 530T505 493T541 422T553 309V0H461ZM332 720H436V697L324
570H268L332 720Z" />
<glyph unicode="&#x145;" glyph-name="Ncommaaccent" horiz-adv-x="735" d="M235 445L175 543H171L183 445V0H89V710H145L502 256L559 163H564L552 256V700H646V-10H590L235 445ZM299 -102Q299 -80 316 -66T357 -52Q386 -52 407 -71T429 -130Q429 -157 419 -178T395
-214T366 -238T338 -251L309 -211Q328 -203 341 -188T355 -149Q332 -154 316 -140T299 -102Z" />
<glyph unicode="&#x146;" glyph-name="ncommaaccent" horiz-adv-x="641" d="M461 0V290Q461 374 434 416T338 458Q277 458 237 427T180 346V0H88V525H152L170 455H179Q208 491 254 515T366 540Q412 540 447 530T505 493T541 422T553 309V0H461ZM241 -102Q241 -80
258 -66T299 -52Q328 -52 349 -71T371 -130Q371 -157 361 -178T337 -214T308 -238T280 -251L251 -211Q270 -203 283 -188T297 -149Q274 -154 258 -140T241 -102Z" />
<glyph unicode="&#x147;" glyph-name="Ncaron" horiz-adv-x="735" d="M235 445L175 543H171L183 445V0H89V710H145L502 256L559 163H564L552 256V700H646V-10H590L235 445ZM400 744H331L192 845V870H285L349 821L368 788L389 820L457 870H546V844L400 744Z" />
<glyph unicode="&#x148;" glyph-name="ncaron" horiz-adv-x="641" d="M461 0V290Q461 374 434 416T338 458Q277 458 237 427T180 346V0H88V525H152L170 455H179Q208 491 254 515T366 540Q412 540 447 530T505 493T541 422T553 309V0H461ZM336 586H287L158 773H245L289
705L317 634L346 704L395 773H473L336 586Z" />
<glyph unicode="&#x14c;" glyph-name="Omacron" horiz-adv-x="747" d="M58 350Q58 436 79 503T141 617T240 688T373 713Q452 713 511 687T610 613T669 498T689 350Q689 264 668 197T605 83T506 12T373 -13Q293 -13 234 13T136 87T78 202T58 350ZM164 350Q164 293
176 243T214 155T279 95T373 73Q470 73 526 140T583 350Q583 406 571 456T533 544T468 604T373 627Q277 627 221 559T164 350ZM205 826H555V758H205V826Z" />
<glyph unicode="&#x14d;" glyph-name="omacron" horiz-adv-x="631" d="M60 262Q60 327 77 378T127 466T207 521T316 540Q380 540 428 519T508 461T555 373T571 262Q571 198 554 147T504 60T424 5T316 -14Q250 -14 202 7T123 65T76 152T60 262ZM158 262Q158 225
166 190T194 126T243 81T317 64Q473 64 473 262Q473 301 465 337T438 400T389 445T317 462Q239 462 199 413T158 262ZM146 666H474V597H146V666Z" />
<glyph unicode="&#x150;" glyph-name="Ohungarumlaut" horiz-adv-x="747" d="M58 350Q58 436 79 503T141 617T240 688T373 713Q452 713 511 687T610 613T669 498T689 350Q689 264 668 197T605 83T506 12T373 -13Q293 -13 234 13T136 87T78 202T58 350ZM164 350Q164
293 176 243T214 155T279 95T373 73Q470 73 526 140T583 350Q583 406 571 456T533 544T468 604T373 627Q277 627 221 559T164 350ZM326 850H434V834L325 741H257L326 850ZM509 850H624V834L467 741H398L509 850Z" />
<glyph unicode="&#x151;" glyph-name="ohungarumlaut" horiz-adv-x="631" d="M60 262Q60 327 77 378T127 466T207 521T316 540Q380 540 428 519T508 461T555 373T571 262Q571 198 554 147T504 60T424 5T316 -14Q250 -14 202 7T123 65T76 152T60 262ZM158 262Q158
225 166 190T194 126T243 81T317 64Q473 64 473 262Q473 301 465 337T438 400T389 445T317 462Q239 462 199 413T158 262ZM244 739H334V727L254 610H205L244 739ZM419 739H520V728L388 610H337L419 739Z" />
<glyph unicode="&#x152;" glyph-name="OE" horiz-adv-x="1019" d="M522 605Q493 616 454 621T373 627Q276 627 220 559T164 350Q164 293 176 243T215 155T282 95T381 73Q413 73 446 75T522 91V605ZM522 0Q496 -6 458 -9T374 -13Q293 -13 234 13T135 87T77 202T58
350Q58 524 141 618T374 713Q423 713 456 709T522 700H945V614H622V401H918V315H622V86H951V0H522Z" />
<glyph unicode="&#x153;" glyph-name="oe" horiz-adv-x="1004" d="M156 261Q156 222 164 187T192 124T241 81T314 64Q392 64 432 111T472 261Q472 301 464 337T436 401T387 445T314 461Q236 461 196 413T156 261ZM510 82Q480 38 430 12T314 -14Q249 -14 201 6T122
64T75 151T60 261Q60 394 125 466T314 539Q354 539 384 534T439 516T481 485T517 440Q551 484 602 511T722 539Q761 539 800 531T870 499T920 434T940 328Q940 313 940 293T934 250H560Q561 204 571 169T604 110T661 74T746 62Q785 62 822 73T885 104L918 42Q883
16 832 1T722 -14Q652 -14 601 11T517 82H510ZM850 316Q852 395 818 429T723 463Q654 463 614 429T565 316H850Z" />
<glyph unicode="&#x154;" glyph-name="Racute" horiz-adv-x="653" d="M89 693Q110 697 135 700T187 705T239 708T288 709Q338 709 384 699T466 666T523 606T545 515Q545 473 532 439T496 379T442 336T373 309L425 274L613 0H498L290 295L189 309V0H89V693ZM291
623Q277 623 263 623T234 622T208 620T189 617V375H271Q307 375 337 382T390 405T426 446T439 507Q439 561 401 592T291 623ZM345 870H477V847L299 752H218L345 870Z" />
<glyph unicode="&#x155;" glyph-name="racute" horiz-adv-x="380" d="M362 438Q345 443 329 447T299 451Q246 451 217 424T180 356V0H88V525H152L170 455H179Q202 494 232 515T309 537Q323 537 342 535T380 526L362 438ZM210 720H314V697L202 570H146L210 720Z" />
<glyph unicode="&#x156;" glyph-name="Rcommaaccent" horiz-adv-x="653" d="M89 693Q110 697 135 700T187 705T239 708T288 709Q338 709 384 699T466 666T523 606T545 515Q545 473 532 439T496 379T442 336T373 309L425 274L613 0H498L290 295L189 309V0H89V693ZM291
623Q277 623 263 623T234 622T208 620T189 617V375H271Q307 375 337 382T390 405T426 446T439 507Q439 561 401 592T291 623ZM258 -102Q258 -80 275 -66T316 -52Q345 -52 366 -71T388 -130Q388 -157 378 -178T354 -214T325 -238T297 -251L268 -211Q287 -203 300
-188T314 -149Q291 -154 275 -140T258 -102Z" />
<glyph unicode="&#x157;" glyph-name="rcommaaccent" horiz-adv-x="380" d="M362 438Q345 443 329 447T299 451Q246 451 217 424T180 356V0H88V525H152L170 455H179Q202 494 232 515T309 537Q323 537 342 535T380 526L362 438ZM96 -102Q96 -80 113 -66T154 -52Q183
-52 204 -71T226 -130Q226 -157 216 -178T192 -214T163 -238T135 -251L106 -211Q125 -203 138 -188T152 -149Q129 -154 113 -140T96 -102Z" />
<glyph unicode="&#x158;" glyph-name="Rcaron" horiz-adv-x="653" d="M89 693Q110 697 135 700T187 705T239 708T288 709Q338 709 384 699T466 666T523 606T545 515Q545 473 532 439T496 379T442 336T373 309L425 274L613 0H498L290 295L189 309V0H89V693ZM291
623Q277 623 263 623T234 622T208 620T189 617V375H271Q307 375 337 382T390 405T426 446T439 507Q439 561 401 592T291 623ZM307 744H238L99 845V870H192L256 821L275 788L296 820L364 870H453V844L307 744Z" />
<glyph unicode="&#x159;" glyph-name="rcaron" horiz-adv-x="380" d="M362 438Q345 443 329 447T299 451Q246 451 217 424T180 356V0H88V525H152L170 455H179Q202 494 232 515T309 537Q323 537 342 535T380 526L362 438ZM497 586H448L319 773H406L450 705L478
634L507 704L556 773H634L497 586Z" />
<glyph unicode="&#x15a;" glyph-name="Sacute" horiz-adv-x="581" d="M433 184Q433 225 406 249T338 290T250 323T162 363T94 425T67 524Q67 609 129 661T308 713Q375 713 431 703T519 677L488 593Q463 606 413 616T303 627Q235 627 201 598T167 531Q167 492 194
468T262 426T350 390T438 348T506 287T533 193Q533 146 515 108T463 43T381 2T272 -13Q190 -13 134 -1T48 26L81 113Q106 100 156 87T268 73Q303 73 333 79T385 99T420 134T433 184ZM369 870H501V847L323 752H242L369 870Z" />
<glyph unicode="&#x15b;" glyph-name="sacute" horiz-adv-x="499" d="M353 147Q353 167 344 180T318 203T281 220T237 234Q208 242 179 251T126 277T87 320T72 386Q72 464 118 502T249 540Q312 540 355 528T430 502L408 424Q381 437 344 449T261 462Q212 462 188
446T164 388Q164 371 173 360T197 340T232 325T274 312Q304 304 334 294T389 266T429 221T445 153Q445 79 395 33T245 -14Q181 -14 134 -1T54 29L80 109Q108 94 152 79T241 64Q290 64 321 81T353 147ZM265 720H369V697L257 570H201L265 720Z" />
<glyph unicode="&#x15e;" glyph-name="Scedilla" horiz-adv-x="581" d="M81 113Q106 100 156 87T268 73Q303 73 333 79T385 99T420 134T433 184Q433 225 406 249T338 290T250 323T162 363T94 425T67 524Q67 609 129 661T308 713Q375 713 431 703T519 677L488 593Q463
606 413 616T303 627Q235 627 201 598T167 531Q167 492 194 468T262 426T350 390T438 348T506 287T533 193Q533 107 476 54T317 -10L292 -53Q341 -61 364 -79T388 -130Q388 -172 351 -197T248 -223Q235 -223 222 -222T194 -218L203 -182Q238 -184 258 -181T288
-171T300 -156T303 -139Q303 -122 278 -113T204 -98L255 -13Q180 -11 128 1T48 26L81 113Z" />
<glyph unicode="&#x15f;" glyph-name="scedilla" horiz-adv-x="499" d="M80 110Q108 95 152 80T241 65Q290 65 321 82T353 147Q353 167 344 180T318 203T281 220T237 234Q208 242 179 251T126 277T87 320T72 386Q72 464 118 502T249 540Q312 540 355 528T430 502L408
424Q381 437 344 449T261 462Q212 462 188 446T164 388Q164 371 173 360T197 340T232 325T274 312Q304 304 334 294T389 266T429 221T445 153Q445 86 405 42T281 -12L257 -53Q306 -61 329 -79T353 -130Q353 -172 316 -197T213 -223Q200 -223 187 -222T159 -218L168
-182Q203 -184 223 -181T253 -171T265 -156T268 -139Q268 -122 243 -113T169 -98L219 -13Q165 -11 124 1T54 29L80 110Z" />
<glyph unicode="&#x160;" glyph-name="Scaron" horiz-adv-x="581" d="M433 184Q433 225 406 249T338 290T250 323T162 363T94 425T67 524Q67 609 129 661T308 713Q375 713 431 703T519 677L488 593Q463 606 413 616T303 627Q235 627 201 598T167 531Q167 492 194
468T262 426T350 390T438 348T506 287T533 193Q533 146 515 108T463 43T381 2T272 -13Q190 -13 134 -1T48 26L81 113Q106 100 156 87T268 73Q303 73 333 79T385 99T420 134T433 184ZM354 744H285L146 845V870H239L303 821L322 788L343 820L411 870H500V844L354
744Z" />
<glyph unicode="&#x161;" glyph-name="scaron" horiz-adv-x="499" d="M353 147Q353 167 344 180T318 203T281 220T237 234Q208 242 179 251T126 277T87 320T72 386Q72 464 118 502T249 540Q312 540 355 528T430 502L408 424Q381 437 344 449T261 462Q212 462 188
446T164 388Q164 371 173 360T197 340T232 325T274 312Q304 304 334 294T389 266T429 221T445 153Q445 79 395 33T245 -14Q181 -14 134 -1T54 29L80 109Q108 94 152 79T241 64Q290 64 321 81T353 147ZM272 586H223L94 773H181L225 705L253 634L282 704L331 773H409L272
586Z" />
<glyph unicode="&#x162;" glyph-name="uni021A" horiz-adv-x="610" d="M591 612H355V0H255V612H19V700H591V612ZM236 -102Q236 -80 253 -66T294 -52Q323 -52 344 -71T366 -130Q366 -157 356 -178T332 -214T303 -238T275 -251L246 -211Q265 -203 278 -188T292 -149Q269
-154 253 -140T236 -102Z" />
<glyph unicode="&#x163;" glyph-name="uni021B" horiz-adv-x="405" d="M24 525H113V631L205 655V525H363V447H205V179Q205 116 221 90T276 64Q301 64 321 69T368 84L389 19Q357 5 321 -4T242 -14Q172 -14 143 24T113 148V447H24V525ZM150 -102Q150 -80 167 -66T208
-52Q237 -52 258 -71T280 -130Q280 -157 270 -178T246 -214T217 -238T189 -251L160 -211Q179 -203 192 -188T206 -149Q183 -154 167 -140T150 -102Z" />
<glyph unicode="&#x164;" glyph-name="Tcaron" horiz-adv-x="610" d="M591 612H355V0H255V612H19V700H591V612ZM336 744H267L128 845V870H221L285 821L304 788L325 820L393 870H482V844L336 744Z" />
<glyph unicode="&#x165;" glyph-name="tcaron" horiz-adv-x="405" d="M24 525H113V631L205 655V525H363V447H205V179Q205 116 221 90T276 64Q301 64 321 69T368 84L389 19Q357 5 321 -4T242 -14Q172 -14 143 24T113 148V447H24V525ZM366 747Q364 718 354 688T329
630T301 582T276 552L236 575Q255 611 264 656T274 747H366Z" />
<glyph unicode="&#x16a;" glyph-name="Umacron" horiz-adv-x="710" d="M527 700H621V243Q621 178 603 131T550 53T470 6T366 -9Q231 -9 160 49T89 223V700H189V261Q189 159 233 119T365 79Q449 79 488 123T527 264V700ZM184 826H534V758H184V826Z" />
<glyph unicode="&#x16b;" glyph-name="umacron" horiz-adv-x="644" d="M180 525V236Q180 194 185 162T203 109T238 76T296 64Q356 64 394 98T452 182V525H544V149Q544 111 547 72T556 0H494L470 87H460Q434 42 388 14T273 -14Q227 -14 193 -3T135 34T100 105T88
215V525H180ZM144 666H472V597H144V666Z" />
<glyph unicode="&#x16e;" glyph-name="Uring" horiz-adv-x="710" d="M527 700H621V243Q621 178 603 131T550 53T470 6T366 -9Q231 -9 160 49T89 223V700H189V261Q189 159 233 119T365 79Q449 79 488 123T527 264V700ZM243 769Q243 806 270 830T361 855Q419 855
449 833T480 769Q480 733 451 709T361 685Q301 685 272 708T243 769ZM313 769Q313 754 324 743T361 732Q410 732 410 769Q410 787 398 797T361 808Q336 808 325 798T313 769Z" />
<glyph unicode="&#x16f;" glyph-name="uring" horiz-adv-x="644" d="M180 525V236Q180 194 185 162T203 109T238 76T296 64Q356 64 394 98T452 182V525H544V149Q544 111 547 72T556 0H494L470 87H460Q434 42 388 14T273 -14Q227 -14 193 -3T135 34T100 105T88
215V525H180ZM209 683Q209 725 238 751T318 778Q366 778 398 755T431 683Q431 663 423 646T399 617T363 597T318 589Q270 589 240 613T209 683ZM266 683Q266 663 282 651T318 638Q341 638 357 649T374 683Q374 706 357 717T318 729Q298 729 282 718T266 683Z" />
<glyph unicode="&#x170;" glyph-name="Uhungarumlaut" horiz-adv-x="710" d="M527 700H621V243Q621 178 603 131T550 53T470 6T366 -9Q231 -9 160 49T89 223V700H189V261Q189 159 233 119T365 79Q449 79 488 123T527 264V700ZM296 850H404V834L295 741H227L296
850ZM479 850H594V834L437 741H368L479 850Z" />
<glyph unicode="&#x171;" glyph-name="uhungarumlaut" horiz-adv-x="644" d="M180 525V236Q180 194 185 162T203 109T238 76T296 64Q356 64 394 98T452 182V525H544V149Q544 111 547 72T556 0H494L470 87H460Q434 42 388 14T273 -14Q227 -14 193 -3T135 34T100
105T88 215V525H180ZM244 739H334V727L254 610H205L244 739ZM419 739H520V728L388 610H337L419 739Z" />
<glyph unicode="&#x172;" glyph-name="Uogonek" horiz-adv-x="708" d="M526 700H620V243Q620 150 583 94T482 11Q450 -5 427 -28T405 -92Q406 -115 421 -131T465 -147Q475 -147 487 -145T512 -137L524 -183Q507 -195 477 -201T420 -208Q369 -208 340 -183T310
-114Q310 -78 326 -52T372 -9H365Q230 -9 159 49T88 223V700H188V261Q188 159 232 119T364 79Q448 79 487 123T526 264V700Z" />
<glyph unicode="&#x173;" glyph-name="uogonek" horiz-adv-x="644" d="M180 525V236Q180 194 185 162T203 109T238 76T296 64Q356 64 394 98T452 182V525H544V149Q544 111 547 72T556 0H533Q501 -17 486 -39T471 -93Q472 -116 487 -133T532 -150Q542 -150 553
-149T577 -142L588 -184Q570 -195 543 -201T490 -208Q437 -208 407 -184T376 -118Q376 -78 409 -48T493 1L470 87H460Q434 42 388 14T273 -14Q227 -14 193 -3T135 34T100 105T88 215V525H180Z" />
<glyph unicode="&#x178;" glyph-name="Ydieresis" horiz-adv-x="617" d="M261 274L7 700H124L299 403L316 339H318L337 405L504 700H610L361 275V0H261V274ZM142 795Q142 818 158 831T204 844Q232 844 249 831T266 795Q266 773 249 760T204 746Q175 746 159 759T142
795ZM356 795Q356 818 372 831T417 844Q446 844 463 831T480 795Q480 773 463 760T417 746Q389 746 373 759T356 795Z" />
<glyph unicode="&#x179;" glyph-name="Zacute" horiz-adv-x="596" d="M39 88L416 572L465 612H39V700H557V612L177 125L130 88H557V0H39V88ZM353 870H485V847L307 752H226L353 870Z" />
<glyph unicode="&#x17a;" glyph-name="zacute" horiz-adv-x="515" d="M48 79L307 395L377 447H48V525H461V446L199 127L129 78H461V0H48V79ZM260 720H364V697L252 570H196L260 720Z" />
<glyph unicode="&#x17b;" glyph-name="Zdotaccent" horiz-adv-x="596" d="M39 88L416 572L465 612H39V700H557V612L177 125L130 88H557V0H39V88ZM227 798Q227 820 246 836T299 852Q333 852 352 836T372 798Q372 774 353 759T299 743Q265 743 246 758T227 798Z" />
<glyph unicode="&#x17c;" glyph-name="zdotaccent" horiz-adv-x="515" d="M48 79L307 395L377 447H48V525H461V446L199 127L129 78H461V0H48V79ZM191 650Q191 673 209 691T256 710Q285 710 304 692T323 650Q323 627 304 610T256 592Q227 592 209 609T191 650Z" />
<glyph unicode="&#x17d;" glyph-name="Zcaron" horiz-adv-x="596" d="M39 88L416 572L465 612H39V700H557V612L177 125L130 88H557V0H39V88ZM316 744H247L108 845V870H201L265 821L284 788L305 820L373 870H462V844L316 744Z" />
<glyph unicode="&#x17e;" glyph-name="zcaron" horiz-adv-x="515" d="M48 79L307 395L377 447H48V525H461V446L199 127L129 78H461V0H48V79ZM274 586H225L96 773H183L227 705L255 634L284 704L333 773H411L274 586Z" />
<glyph unicode="&#x17f;" glyph-name="longs" horiz-adv-x="331" d="M26 525H116V558Q116 592 125 620T153 669T205 700T282 712Q301 712 316 711T346 708T374 701T406 691L384 616Q358 627 335 630T293 634Q270 634 254 630T228 614T213 583T208 529V0H116V447H26V525Z" />
<glyph unicode="&#x192;" glyph-name="florin" horiz-adv-x="634" d="M371 445L283 -34Q276 -71 264 -102T232 -157T181 -194T109 -208Q79 -208 43 -200T-20 -183L1 -107Q27 -117 49 -122T99 -128Q140 -128 161 -97T196 8L272 445H181V525H286L295 567Q301 604
312 631T343 677T390 704T459 713Q495 713 531 704T596 684L570 611Q544 621 519 627T467 633Q428 633 413 612T389 539L385 525H516V445H371Z" />
<glyph unicode="&#x1f4;" glyph-name="uni01F4" horiz-adv-x="668" d="M348 353H610V44Q592 30 567 20T514 2T455 -9T396 -13Q324 -13 263 8T156 75T84 188T58 350Q58 447 89 516T171 629T282 693T405 713Q471 713 514 706T587 687L563 602Q511 625 413 625Q368
625 324 611T244 565T186 480T164 350Q164 279 182 227T234 141T312 91T410 75Q443 75 473 81T527 100V277L348 295V353ZM462 870H594V847L416 752H335L462 870Z" />
<glyph unicode="&#x1f5;" glyph-name="uni01F5" horiz-adv-x="627" d="M537 -3Q537 -106 477 -156T299 -207Q231 -207 189 -199T117 -177L139 -94Q152 -100 169 -106T205 -118T243 -126T281 -129Q330 -129 362 -121T413 -94T439 -48T446 19V56H435Q419 30 379
14T282 -2Q168 -2 114 59T60 258Q60 393 130 466T338 539Q404 539 451 531T537 510V-3ZM302 76Q363 76 397 107T445 188V446Q422 453 392 457T324 461Q246 461 202 412T158 260Q158 172 190 124T302 76ZM339 720H443V697L331 570H275L339 720Z" />
<glyph unicode="&#x218;" glyph-name="Scommaaccent" horiz-adv-x="581" d="M433 184Q433 225 406 249T338 290T250 323T162 363T94 425T67 524Q67 609 129 661T308 713Q375 713 431 703T519 677L488 593Q463 606 413 616T303 627Q235 627 201 598T167 531Q167
492 194 468T262 426T350 390T438 348T506 287T533 193Q533 146 515 108T463 43T381 2T272 -13Q190 -13 134 -1T48 26L81 113Q106 100 156 87T268 73Q303 73 333 79T385 99T420 134T433 184ZM221 -102Q221 -80 238 -66T279 -52Q308 -52 329 -71T351 -130Q351 -157
341 -178T317 -214T288 -238T260 -251L231 -211Q250 -203 263 -188T277 -149Q254 -154 238 -140T221 -102Z" />
<glyph unicode="&#x219;" glyph-name="scommaaccent" horiz-adv-x="499" d="M353 147Q353 167 344 180T318 203T281 220T237 234Q208 242 179 251T126 277T87 320T72 386Q72 464 118 502T249 540Q312 540 355 528T430 502L408 424Q381 437 344 449T261 462Q212
462 188 446T164 388Q164 371 173 360T197 340T232 325T274 312Q304 304 334 294T389 266T429 221T445 153Q445 79 395 33T245 -14Q181 -14 134 -1T54 29L80 109Q108 94 152 79T241 64Q290 64 321 81T353 147ZM181 -102Q181 -80 198 -66T239 -52Q268 -52 289 -71T311
-130Q311 -157 301 -178T277 -214T248 -238T220 -251L191 -211Q210 -203 223 -188T237 -149Q214 -154 198 -140T181 -102Z" />
<glyph unicode="&#x21a;" glyph-name="uni021A" horiz-adv-x="610" d="M591 612H355V0H255V612H19V700H591V612ZM236 -102Q236 -80 253 -66T294 -52Q323 -52 344 -71T366 -130Q366 -157 356 -178T332 -214T303 -238T275 -251L246 -211Q265 -203 278 -188T292 -149Q269
-154 253 -140T236 -102Z" />
<glyph unicode="&#x21b;" glyph-name="uni021B" horiz-adv-x="405" d="M24 525H113V631L205 655V525H363V447H205V179Q205 116 221 90T276 64Q301 64 321 69T368 84L389 19Q357 5 321 -4T242 -14Q172 -14 143 24T113 148V447H24V525ZM150 -102Q150 -80 167 -66T208
-52Q237 -52 258 -71T280 -130Q280 -157 270 -178T246 -214T217 -238T189 -251L160 -211Q179 -203 192 -188T206 -149Q183 -154 167 -140T150 -102Z" />
<glyph unicode="&#x237;" glyph-name="uni0237" horiz-adv-x="312" d="M112 525H204V-18Q204 -115 168 -162T50 -210Q42 -210 33 -210T12 -208V-132Q45 -133 64 -124T94 -97T108 -51T112 15V525Z" />
<glyph unicode="&#x2bc;" glyph-name="afii57929" horiz-adv-x="217" d="M44 655Q44 679 60 693T103 708Q135 708 154 689T174 633Q174 598 163 573T137 531T104 505T75 491L47 532Q71 543 86 560T101 604Q75 599 60 614T44 655Z" />
<glyph unicode="&#x2c6;" glyph-name="circumflex" horiz-adv-x="441" d="M209 773H250Q281 725 313 679T375 586H295L250 655L224 726L193 655L145 586H69L209 773Z" />
<glyph unicode="&#x2c7;" glyph-name="caron" horiz-adv-x="450" d="M247 586H198L69 773H156L200 705L228 634L257 704L306 773H384L247 586Z" />
<glyph unicode="&#x2d8;" glyph-name="breve" horiz-adv-x="483" d="M117 759Q138 722 173 703T249 684Q288 684 321 702T375 759L420 740Q416 716 402 693T364 651T311 622T248 610Q183 610 134 644T67 735L117 759Z" />
<glyph unicode="&#x2d9;" glyph-name="dotaccent" horiz-adv-x="252" d="M60 650Q60 673 78 691T125 710Q154 710 173 692T192 650Q192 627 173 610T125 592Q96 592 78 609T60 650Z" />
<glyph unicode="&#x2da;" glyph-name="ring" horiz-adv-x="353" d="M67 683Q67 725 96 751T176 778Q224 778 256 755T289 683Q289 663 281 646T257 617T221 597T176 589Q128 589 98 613T67 683ZM124 683Q124 663 140 651T176 638Q199 638 215 649T232 683Q232
706 215 717T176 729Q156 729 140 718T124 683Z" />
<glyph unicode="&#x2db;" glyph-name="ogonek" horiz-adv-x="345" d="M235 0Q201 -17 181 -39T162 -92Q163 -115 178 -131T222 -147Q232 -147 244 -145T269 -137L281 -183Q264 -195 234 -201T177 -208Q126 -208 97 -184T67 -116Q67 -76 98 -47T183 0H235Z" />
<glyph unicode="&#x2dc;" glyph-name="tilde" horiz-adv-x="450" d="M67 696Q99 731 125 743T174 756Q192 756 208 750T241 735T274 720T310 713Q335 713 364 737L386 689Q359 661 336 650T292 638Q273 638 256 645T223 660T189 675T153 682Q137 682 122 676T87
652L67 696Z" />
<glyph unicode="&#x2dd;" glyph-name="hungarumlaut" horiz-adv-x="445" d="M106 739H196V727L116 610H67L106 739ZM281 739H382V728L250 610H199L281 739Z" />
<glyph unicode="&#x301;" glyph-name="acutecomb" horiz-adv-x="2" d="M-207 720H-103V697L-215 570H-271L-207 720Z" />
<glyph unicode="&#x394;" glyph-name="uni2206" horiz-adv-x="625" d="M16 0V45L292 710H335L614 45V0H16ZM126 86H499L338 465L311 565H309L279 464L126 86Z" />
<glyph unicode="&#x3a9;" glyph-name="uni2126" horiz-adv-x="875" d="M81 82H206L307 71V98L250 107Q215 122 185 147T131 207T95 285T81 380Q81 456 106 517T177 622T290 689T437 713Q522 713 588 688T701 618T770 512T794 377Q794 324 779 281T740 204T687
147T628 108L566 98V71L669 82H795V0H478V148Q510 153 546 167T614 209T667 278T688 381Q688 426 674 469T630 547T551 603T436 625Q315 625 251 563T187 378Q187 319 206 277T256 208T324 167T396 148V0H81V82Z" />
<glyph unicode="&#x3bc;" glyph-name="mu" horiz-adv-x="636" d="M171 525V239Q171 151 199 107T300 62Q366 62 411 100T473 201V525H565V169Q565 127 567 84T580 0H520L487 86H475Q463 67 445 49T404 18T352 -4T290 -13Q237 -13 208 2T158 43H144L171 -77V-201H79V525H171Z"
/>
<glyph unicode="&#x3c0;" glyph-name="pi" horiz-adv-x="770" d="M601 131Q601 99 612 87T643 74Q654 74 667 75T694 79L701 14Q684 7 659 2T602 -4Q549 -4 529 25T509 107V447H286V0H194V447H172Q149 447 134 435T102 399L44 430Q66 475 98 500T189 525H698V447H601V131Z"
/>
<glyph unicode="&#x401;" glyph-name="afii10023" horiz-adv-x="585" d="M89 700H512V614H189V401H484V315H189V86H517V0H89V700ZM125 795Q125 818 141 831T187 844Q215 844 232 831T249 795Q249 773 232 760T187 746Q158 746 142 759T125 795ZM339 795Q339 818
355 831T400 844Q429 844 446 831T463 795Q463 773 446 760T400 746Q372 746 356 759T339 795Z" />
<glyph unicode="&#x402;" glyph-name="afii10051" horiz-adv-x="799" d="M355 0H255V612H19V700H591V612H355V420Q369 424 407 432T506 441Q549 441 591 431T666 397T720 332T741 228Q741 108 675 50T484 -8Q448 -8 432 -7T408 -4V83Q421 81 438 81T486 80Q558
80 596 114T635 221Q635 261 623 287T588 328T537 349T473 355Q455 355 437 353T402 347T374 341T355 335V0Z" />
<glyph unicode="&#x403;" glyph-name="afii10052" horiz-adv-x="486" d="M504 612H189V0H89V700H504V612ZM341 870H473V847L295 752H214L341 870Z" />
<glyph unicode="&#x404;" glyph-name="afii10053" horiz-adv-x="637" d="M582 30Q549 6 499 -3T392 -13Q325 -13 265 8T158 74T85 187T58 350Q58 448 88 517T166 629T274 693T393 713Q459 713 500 706T571 688L548 604Q499 627 401 627Q360 627 321 615T250 576T196
507T166 404H495V318H164Q168 258 188 212T242 135T318 89T413 73Q462 73 498 82T559 105L582 30Z" />
<glyph unicode="&#x405;" glyph-name="afii10054" horiz-adv-x="581" d="M433 184Q433 225 406 249T338 290T250 323T162 363T94 425T67 524Q67 609 129 661T308 713Q375 713 431 703T519 677L488 593Q463 606 413 616T303 627Q235 627 201 598T167 531Q167 492
194 468T262 426T350 390T438 348T506 287T533 193Q533 146 515 108T463 43T381 2T272 -13Q190 -13 134 -1T48 26L81 113Q106 100 156 87T268 73Q303 73 333 79T385 99T420 134T433 184Z" />
<glyph unicode="&#x406;" glyph-name="afii10055" horiz-adv-x="398" d="M149 634H69V700H329V634H249V66H329V0H69V66H149V634Z" />
<glyph unicode="&#x407;" glyph-name="afii10056" horiz-adv-x="398" d="M74 793Q74 817 90 830T130 844Q153 844 169 831T185 793Q185 770 169 756T130 742Q106 742 90 756T74 793ZM214 793Q214 817 230 830T270 844Q294 844 310 831T326 793Q326 770 310 756T270
742Q246 742 230 756T214 793ZM149 634H69V700H329V634H249V66H329V0H69V66H149V634Z" />
<glyph unicode="&#x408;" glyph-name="afii10057" horiz-adv-x="325" d="M125 700H225V160Q225 82 185 36T65 -10Q55 -10 42 -9T14 -6T-13 0T-35 7L-16 90Q12 78 51 78Q96 78 110 107T125 187V700Z" />
<glyph unicode="&#x409;" glyph-name="afii10058" horiz-adv-x="1014" d="M594 700V433Q599 434 611 435T639 438T671 440T700 441Q752 441 802 431T891 397T955 332T980 227Q980 167 957 123T893 49T797 6T678 -9Q663 -9 641 -9T593 -6T542 -1T494 7V612H274Q269
513 263 432T246 286T223 170T189 83Q163 35 129 15T58 -5Q37 -5 24 -3T-4 5L9 89Q21 86 33 86T57 90T82 105T105 135Q120 161 133 205T156 317T172 479T182 700H594ZM594 83Q608 79 635 78T689 77Q726 77 759 85T818 112T859 157T874 222Q874 262 858 288T816
329T755 349T686 355Q677 355 663 354T636 352T611 349T594 346V83Z" />
<glyph unicode="&#x40a;" glyph-name="afii10059" horiz-adv-x="1064" d="M189 700V415H544V700H644V416Q650 417 662 418T690 421T722 423T751 424Q803 424 853 416T942 385T1006 322T1030 219Q1030 159 1007 116T944 45T848 4T728 -9Q713 -9 691 -8T643 -6T592
-1T544 6V327H189V0H89V700H189ZM644 83Q658 80 685 79T739 77Q778 77 811 84T870 107T909 149T924 212Q924 252 909 277T867 315T807 333T736 338Q727 338 713 337T686 335T661 332T644 329V83Z" />
<glyph unicode="&#x40b;" glyph-name="afii10060" horiz-adv-x="821" d="M355 0H255V612H19V700H591V612H355V396Q384 411 432 426T543 441Q589 441 627 431T694 398T737 337T753 244V0H653V222Q653 355 520 355Q469 355 426 343T355 310V0Z" />
<glyph unicode="&#x40c;" glyph-name="afii10061" horiz-adv-x="669" d="M238 318H189V0H89V700H189V378L235 392L487 700H601L349 400L302 366L357 326L635 0H509L238 318ZM367 870H499V847L321 752H240L367 870Z" />
<glyph unicode="&#x40e;" glyph-name="afii10062" horiz-adv-x="608" d="M311 340L338 251H344L365 343L507 700H609L413 238Q384 171 362 125T317 49T266 7T200 -6Q164 -6 143 -1T101 17L130 99Q151 87 169 85T204 82Q233 82 253 107T290 184L5 700H120L311 340ZM222
871Q227 835 252 817T320 798Q362 798 387 816T418 870L502 852Q489 797 445 766T319 735Q240 735 190 762T129 850L222 871Z" />
<glyph unicode="&#x40f;" glyph-name="afii10145" horiz-adv-x="719" d="M189 700V88H530V700H630V0H410L394 -178H331L309 0H89V700H189Z" />
<glyph unicode="&#x410;" glyph-name="afii10017" horiz-adv-x="645" d="M457 183H180L106 0H8L296 710H348L637 0H533L457 183ZM210 267H428L347 466L320 573H318L291 464L210 267Z" />
<glyph unicode="&#x411;" glyph-name="afii10018" horiz-adv-x="606" d="M89 700H513V612H189V422Q207 425 233 428T286 431Q342 431 392 421T481 387T543 323T566 223Q566 163 543 120T480 48T389 5T280 -9Q262 -9 238 -9T187 -6T136 -1T89 7V700ZM292 77Q326
77 356 85T410 109T446 151T460 210Q460 254 445 280T405 321T346 340T276 345Q266 345 254 344T228 342T205 339T189 336V83Q196 81 208 80T234 78T263 77T292 77Z" />
<glyph unicode="&#x412;" glyph-name="afii10019" horiz-adv-x="641" d="M559 538Q559 512 551 487T525 439T480 399T416 374V370Q448 366 478 354T531 321T568 270T582 199Q582 145 557 106T491 41T399 3T295 -9Q277 -9 251 -9T197 -7T140 -3T89 5V694Q130 701
185 705T303 709Q346 709 391 702T474 675T535 623T559 538ZM187 82Q194 80 208 79T238 77T271 76T302 75Q336 75 367 82T423 104T461 142T476 197Q476 237 459 260T413 296T350 312T281 316H187V82ZM242 394Q261 394 286 395T328 399Q353 406 375 416T415 441T442
475T452 520Q452 554 439 574T403 606T353 621T296 625Q261 625 232 624T187 620V394H242Z" />
<glyph unicode="&#x413;" glyph-name="afii10020" horiz-adv-x="486" d="M504 612H189V0H89V700H504V612Z" />
<glyph unicode="&#x414;" glyph-name="afii10021" horiz-adv-x="736" d="M708 -128H639L622 0H90L74 -128H5V88H83Q92 99 110 138T147 251T179 436T191 700H608V88H708V-128ZM508 88V612H283Q279 506 271 423T250 275T222 165T189 88H508Z" />
<glyph unicode="&#x415;" glyph-name="afii10022" horiz-adv-x="585" d="M89 700H512V614H189V401H484V315H189V86H517V0H89V700Z" />
<glyph unicode="&#x416;" glyph-name="afii10024" horiz-adv-x="888" d="M392 700H486V378L532 392L745 700H856L640 396L595 363L651 322L890 0H769L535 320H486V0H392V332L346 318L113 0H-2L234 312L287 350L236 386L13 700H129L343 390H392V700Z" />
<glyph unicode="&#x417;" glyph-name="afii10025" horiz-adv-x="589" d="M149 327V405H166Q175 405 189 405T219 406T249 407T273 410Q327 417 365 444T403 518Q403 549 392 569T360 602T312 620T255 626Q197 626 154 617T88 597L61 677Q71 683 92 689T140 700T201
708T270 712Q314 712 357 704T433 675T488 622T509 539Q509 489 474 444T366 379V375Q443 364 487 322T532 207Q532 150 507 109T442 40T350 0T244 -13Q172 -13 123 -5T44 16L69 102Q95 91 140 82T252 73Q283 73 314 81T370 105T410 145T426 204Q426 264 380 292T250
325Q237 326 227 326T203 327H149Z" />
<glyph unicode="&#x418;" glyph-name="afii10026" horiz-adv-x="744" d="M555 463L561 540H557L509 461L150 0H89V700H189V234L180 158H185L235 237L593 700H655V0H555V463Z" />
<glyph unicode="&#x419;" glyph-name="afii10027" horiz-adv-x="744" d="M555 463L561 540H557L509 461L150 0H89V700H189V234L180 158H185L235 237L593 700H655V0H555V463ZM283 871Q288 835 313 817T381 798Q423 798 448 816T479 870L563 852Q550 797 506 766T380
735Q301 735 251 762T190 850L283 871Z" />
<glyph unicode="&#x41a;" glyph-name="afii10028" horiz-adv-x="669" d="M238 318H189V0H89V700H189V378L235 392L487 700H601L349 400L302 366L357 326L635 0H509L238 318Z" />
<glyph unicode="&#x41b;" glyph-name="afii10029" horiz-adv-x="683" d="M494 612H274Q269 513 263 432T246 286T223 170T189 83Q163 35 129 15T58 -5Q37 -5 24 -3T-4 5L9 89Q21 86 33 86T57 90T82 105T105 135Q120 161 133 205T156 317T172 479T182 700H594V0H494V612Z" />
<glyph unicode="&#x41c;" glyph-name="afii10030" horiz-adv-x="868" d="M679 451L690 563H686L643 466L448 156H418L213 467L172 562H167L183 452V0H89V700H164L401 343L438 267H440L475 345L700 700H779V0H679V451Z" />
<glyph unicode="&#x41d;" glyph-name="afii10031" horiz-adv-x="733" d="M544 313H189V0H89V700H189V401H544V700H644V0H544V313Z" />
<glyph unicode="&#x41e;" glyph-name="afii10032" horiz-adv-x="747" d="M58 350Q58 436 79 503T141 617T240 688T373 713Q452 713 511 687T610 613T669 498T689 350Q689 264 668 197T605 83T506 12T373 -13Q293 -13 234 13T136 87T78 202T58 350ZM164 350Q164
293 176 243T214 155T279 95T373 73Q470 73 526 140T583 350Q583 406 571 456T533 544T468 604T373 627Q277 627 221 559T164 350Z" />
<glyph unicode="&#x41f;" glyph-name="afii10033" horiz-adv-x="719" d="M530 612H189V0H89V700H630V0H530V612Z" />
<glyph unicode="&#x420;" glyph-name="afii10034" horiz-adv-x="614" d="M89 693Q131 702 180 705T278 709Q329 709 381 700T477 667T547 601T575 491Q575 428 550 384T484 311T389 270T278 257Q272 257 260 257T234 258T208 260T189 262V0H89V693ZM281 623Q254
623 229 622T189 617V348Q194 346 205 346T229 344T253 343T271 343Q307 343 342 348T405 370T451 415T469 490Q469 530 452 556T408 597T348 617T281 623Z" />
<glyph unicode="&#x421;" glyph-name="afii10035" horiz-adv-x="624" d="M584 30Q551 6 500 -3T392 -13Q325 -13 265 8T158 74T85 187T58 350Q58 448 88 517T166 629T274 693T393 713Q459 713 501 706T572 688L550 602Q501 625 401 625Q356 625 314 611T238 564T184
479T164 350Q164 282 183 231T235 145T314 93T414 75Q463 75 499 84T560 107L584 30Z" />
<glyph unicode="&#x422;" glyph-name="afii10036" horiz-adv-x="610" d="M591 612H355V0H255V612H19V700H591V612Z" />
<glyph unicode="&#x423;" glyph-name="afii10037" horiz-adv-x="608" d="M311 340L338 251H344L365 343L507 700H609L413 238Q384 171 362 125T317 49T266 7T200 -6Q164 -6 143 -1T101 17L130 99Q151 87 169 85T204 82Q233 82 253 107T290 184L5 700H120L311 340Z" />
<glyph unicode="&#x424;" glyph-name="afii10038" horiz-adv-x="857" d="M380 77Q360 74 337 73T291 72Q239 72 194 89T116 140T63 227T43 350Q43 417 62 470T117 561T202 619T312 639Q326 639 347 638T380 634V720H476V631Q496 636 522 637T565 639Q617 639 662
621T741 568T794 480T813 360Q813 290 792 236T734 146T649 91T546 72Q534 72 512 73T476 79V-20H380V77ZM550 559Q535 559 512 558T474 553V155Q485 153 502 153T535 152Q571 152 603 165T659 203T697 268T711 360Q711 404 700 440T667 503T616 544T550 559ZM310
152Q321 152 344 152T382 158V555Q369 557 351 558T317 559Q281 559 250 546T196 507T159 441T145 350Q145 305 157 269T191 206T243 166T310 152Z" />
<glyph unicode="&#x425;" glyph-name="afii10039" horiz-adv-x="678" d="M280 356L49 700H168L319 470L346 412L372 470L530 700H640L402 363L651 0H534L367 244L336 305L308 244L137 0H27L280 356Z" />
<glyph unicode="&#x426;" glyph-name="afii10040" horiz-adv-x="752" d="M723 -128H654L638 0H89V700H189V88H522V700H622V88H723V-128Z" />
<glyph unicode="&#x427;" glyph-name="afii10041" horiz-adv-x="663" d="M176 700V479Q176 412 208 376T309 339Q360 339 403 351T474 383V700H574V0H474V298Q445 282 397 268T285 253Q238 253 200 264T134 300T91 363T76 458V700H176Z" />
<glyph unicode="&#x428;" glyph-name="afii10042" horiz-adv-x="959" d="M89 0V700H189V88H430V700H530V88H770V700H870V0H89Z" />
<glyph unicode="&#x429;" glyph-name="afii10043" horiz-adv-x="1000" d="M89 0V700H189V88H429V700H529V88H769V700H869V88H971V-128H902L886 0H89Z" />
<glyph unicode="&#x42a;" glyph-name="afii10044" horiz-adv-x="694" d="M174 612H-2V700H274V433Q279 434 291 435T320 438T352 440T381 441Q432 441 482 431T571 397T635 332T660 227Q660 168 637 124T574 50T478 6T358 -9Q343 -9 321 -9T273 -6T221 -1T174
7V612ZM369 77Q406 77 439 86T498 113T539 158T554 222Q554 262 538 288T496 329T436 349T366 355Q357 355 343 354T316 352T291 349T274 346V83Q289 79 316 78T369 77Z" />
<glyph unicode="&#x42b;" glyph-name="afii10045" horiz-adv-x="846" d="M657 700H757V0H657V700ZM89 700H189V433Q195 434 205 435T227 438T253 440T280 441Q332 441 381 431T468 397T528 331T551 228Q551 168 530 123T470 49T379 6T262 -9Q247 -9 226 -9T182
-6T134 -1T89 7V700ZM270 77Q307 77 339 86T394 113T431 158T445 221Q445 261 430 287T391 328T334 349T265 355Q246 355 223 352T189 346V83Q203 79 223 78T270 77Z" />
<glyph unicode="&#x42c;" glyph-name="afii10046" horiz-adv-x="609" d="M89 700H189V433Q194 434 206 435T234 438T266 440T295 441Q347 441 397 431T486 397T550 332T575 227Q575 167 552 123T488 49T392 6T273 -9Q258 -9 236 -9T188 -6T137 -1T89 7V700ZM284
77Q321 77 354 85T413 112T454 157T469 222Q469 262 453 288T411 329T350 349T281 355Q272 355 258 354T231 352T206 349T189 346V83Q203 79 230 78T284 77Z" />
<glyph unicode="&#x42d;" glyph-name="afii10047" horiz-adv-x="631" d="M161 399H466Q456 515 393 570T230 627Q177 628 136 617T71 592L47 672Q80 691 131 702T240 713Q310 713 370 693T476 630T547 517T573 350Q573 251 543 182T464 70T350 7T216 -13Q161 -13
118 -5T45 15L71 101Q96 89 136 81T223 73Q266 73 308 85T383 126T439 201T467 313H161V399Z" />
<glyph unicode="&#x42e;" glyph-name="afii10048" horiz-adv-x="978" d="M189 401H319Q330 551 407 632T621 713Q700 713 757 687T850 613T903 498T920 350Q920 177 845 82T621 -13Q547 -13 492 10T400 76T342 179T318 313H189V0H89V700H189V401ZM425 350Q425
294 435 244T469 155T529 95T621 73Q718 73 766 140T814 350Q814 405 805 455T773 544T713 604T621 627Q524 627 475 559T425 350Z" />
<glyph unicode="&#x42f;" glyph-name="afii10049" horiz-adv-x="624" d="M535 0H435V298L328 276L141 0H25L194 244L260 288Q221 295 188 310T131 351T93 410T79 489Q79 550 102 592T164 660T256 697T369 709Q406 709 450 706T535 693V0ZM363 623Q328 623 296
617T240 596T200 556T185 490Q185 453 199 428T237 387T294 364T364 357H435V617Q421 621 405 622T363 623Z" />
<glyph unicode="&#x430;" glyph-name="afii10065" horiz-adv-x="582" d="M82 492Q172 535 305 535Q365 535 401 520T458 480T484 427T491 368Q491 313 487 258T483 137Q483 99 486 64T498 -2H431L406 78H396Q385 63 369 48T331 20T281 0T215 -8Q178 -8 147 2T94
32T58 78T45 140Q45 185 64 218T115 272T185 303T264 313Q295 313 316 312T352 310T377 307T395 304Q397 319 398 330T399 358Q399 386 393 405T374 435T337 452T281 457Q262 457 239 454T193 446T148 432T107 415L82 492ZM395 238Q387 239 378 241T356 244T324
246T278 247Q216 247 180 225T143 150Q143 110 171 90T245 70Q278 70 303 78T347 99T377 127T395 158V238Z" />
<glyph unicode="&#x431;" glyph-name="afii10066" horiz-adv-x="635" d="M155 419Q192 469 238 490T353 511Q458 511 516 448T575 264Q575 195 558 143T507 56T427 4T321 -14Q193 -14 129 64T64 309Q64 399 74 462T103 567T150 633T212 671T286 689T373 698Q431
703 466 709T523 730L533 649Q510 634 472 628T364 616Q316 613 279 605T213 577T168 520T145 421L155 419ZM162 250Q162 212 171 179T199 120T249 79T320 64Q477 64 477 255Q477 293 469 325T443 382T398 419T333 433Q243 433 203 386T162 250Z" />
<glyph unicode="&#x432;" glyph-name="afii10067" horiz-adv-x="582" d="M88 525L126 527Q158 529 196 531T284 534Q400 534 450 502T501 405Q501 370 477 335T399 283V272Q465 259 493 228T522 146Q522 67 457 30T261 -8Q217 -8 178 -6T102 0Q98 0 95 0T88 1V525ZM180
72Q202 69 223 68T275 66Q354 66 389 86T424 154Q424 173 417 189T394 216T351 233T283 240H180V72ZM294 303Q316 303 336 309T372 326T397 351T407 383Q407 425 379 441T281 458Q258 458 235 457T180 454V303H294Z" />
<glyph unicode="&#x433;" glyph-name="afii10068" horiz-adv-x="426" d="M426 447H180V0H88V525H426V447Z" />
<glyph unicode="&#x434;" glyph-name="afii10069" horiz-adv-x="624" d="M600 -132H537L521 0H79L61 -132H0V78H67Q77 90 92 120T123 203T149 336T162 525H515V78H600V-132ZM423 78V447H245Q242 402 236 351T220 251T195 156T162 78H423Z" />
<glyph unicode="&#x435;" glyph-name="afii10070" horiz-adv-x="598" d="M515 43Q480 17 428 2T315 -14Q249 -14 201 5T121 61T75 148T60 262Q60 397 126 468T316 540Q355 540 394 532T464 500T514 435T534 328Q534 312 533 291T529 250H154Q156 158 198 111T341
64Q383 64 421 78T480 113L515 43ZM446 316Q448 396 414 429T317 462Q247 462 206 429T158 316H446Z" />
<glyph unicode="&#x436;" glyph-name="afii10072" horiz-adv-x="774" d="M278 232L114 0H6L181 237L226 272L163 315L19 525H119L272 298H338V525H428V287L488 303L642 525H741L590 316L542 278L604 234L768 0H657L493 236H428V0H338V248L278 232Z" />
<glyph unicode="&#x437;" glyph-name="afii10073" horiz-adv-x="516" d="M148 233V303H225Q247 303 267 309T304 325T329 350T339 382Q339 424 308 440T214 456Q170 456 134 447T74 427L49 497Q114 534 244 534Q338 534 386 501T434 405Q434 388 428 370T408 336T377
306T334 285V274Q402 262 429 230T456 145Q456 112 441 84T396 34T321 1T215 -11Q156 -11 118 -3T48 20L72 93Q99 79 137 73T220 67Q358 67 358 154Q358 193 325 213T210 233H148Z" />
<glyph unicode="&#x438;" glyph-name="afii10074" horiz-adv-x="631" d="M451 300L465 404H454L405 306L159 0H88V525H180V215L173 123H184L230 212L471 525H543V0H451V300Z" />
<glyph unicode="&#x439;" glyph-name="afii10075" horiz-adv-x="631" d="M451 300L465 404H454L405 306L159 0H88V525H180V215L173 123H184L230 212L471 525H543V0H451V300ZM230 712Q235 690 244 677T265 658T292 650T325 648Q342 648 357 650T385 659T406 678T420
711L492 690Q481 631 435 607T323 583Q292 583 263 588T211 605T171 636T148 686L230 712Z" />
<glyph unicode="&#x43a;" glyph-name="afii10076" horiz-adv-x="547" d="M237 236H180V0H88V525H180V286L235 304L414 525H515L344 321H345L291 282L356 237L541 0H425L237 236Z" />
<glyph unicode="&#x43b;" glyph-name="afii10077" horiz-adv-x="584" d="M404 447H234L232 417Q225 318 216 240T188 107T140 24T62 -5Q40 -5 23 -3T-6 5L8 89Q21 85 37 85Q61 85 80 102T113 168T136 302T149 525H496V0H404V447Z" />
<glyph unicode="&#x43c;" glyph-name="afii10078" horiz-adv-x="752" d="M574 297L580 404H568L523 322L388 123H357L215 322L175 404H164L173 298V0H88V525H184L341 294L379 221L421 296L568 525H664V0H574V297Z" />
<glyph unicode="&#x43d;" glyph-name="afii10079" horiz-adv-x="624" d="M444 229H180V0H88V525H180V311H444V525H536V0H444V229Z" />
<glyph unicode="&#x43e;" glyph-name="afii10080" horiz-adv-x="631" d="M60 262Q60 327 77 378T127 466T207 521T316 540Q380 540 428 519T508 461T555 373T571 262Q571 198 554 147T504 60T424 5T316 -14Q250 -14 202 7T123 65T76 152T60 262ZM158 262Q158 225
166 190T194 126T243 81T317 64Q473 64 473 262Q473 301 465 337T438 400T389 445T317 462Q239 462 199 413T158 262Z" />
<glyph unicode="&#x43f;" glyph-name="afii10081" horiz-adv-x="618" d="M438 447H180V0H88V525H530V0H438V447Z" />
<glyph unicode="&#x440;" glyph-name="afii10082" horiz-adv-x="630" d="M88 525H150L168 458H177Q204 497 247 518T344 540Q458 540 514 477T570 274Q570 208 552 155T499 64T415 6T304 -14Q284 -14 268 -13T237 -8T209 0T180 11V-200H88V525ZM323 462Q263 462
229 432T180 340V98Q203 82 230 73T299 64Q380 64 426 117T472 275Q472 360 438 411T323 462Z" />
<glyph unicode="&#x441;" glyph-name="afii10083" horiz-adv-x="529" d="M484 36Q449 11 402 -1T303 -14Q237 -14 191 6T115 62T73 149T60 262Q60 395 124 467T310 540Q363 540 402 531T472 507L448 432Q421 446 390 454T321 462Q158 462 158 262Q158 224 167
189T196 126T248 81T328 64Q370 64 401 75T454 103L484 36Z" />
<glyph unicode="&#x442;" glyph-name="afii10084" horiz-adv-x="456" d="M456 447H274V0H182V447H0V525H456V447Z" />
<glyph unicode="&#x443;" glyph-name="afii10085" horiz-adv-x="531" d="M251 193L282 92H295L320 194L429 525H523L351 50Q332 1 313 -45T270 -126T218 -183T152 -205Q112 -205 84 -196L99 -118Q114 -123 129 -123Q149 -123 165 -118T196 -100T221 -64T243 -3L8
525H117L251 193Z" />
<glyph unicode="&#x444;" glyph-name="afii10086" horiz-adv-x="800" d="M355 -3Q331 -11 310 -12T271 -14Q167 -14 111 54T54 262Q54 393 116 464T296 535Q310 535 324 534T355 529V700H445V528Q471 533 488 534T518 535Q631 535 688 473T746 273Q746 209 731
156T686 66T613 7T514 -14Q503 -14 482 -12T445 -4V-200H355V-3ZM498 461Q482 461 471 460T443 454V64Q458 61 472 61T504 60Q578 60 615 115T652 273Q652 316 644 351T618 410T571 448T498 461ZM297 60Q310 60 323 61T357 66V454Q339 458 327 459T299 461Q227
461 188 413T148 262Q148 219 156 182T183 118T230 76T297 60Z" />
<glyph unicode="&#x445;" glyph-name="afii10087" horiz-adv-x="592" d="M233 269L44 525H161L263 391L298 320L339 391L445 525H549L358 273Q408 206 460 137T562 0H448L333 149L293 224L252 149L136 0H30L233 269Z" />
<glyph unicode="&#x446;" glyph-name="afii10088" horiz-adv-x="630" d="M610 -132H548L531 0H88V525H180V78H433V525H525V78H610V-132Z" />
<glyph unicode="&#x447;" glyph-name="afii10089" horiz-adv-x="574" d="M152 525V396Q152 364 155 339T170 296T202 269T256 259Q307 259 341 270T394 296V525H486V0H394V223Q375 211 336 196T232 181Q190 181 158 190T104 221T71 279T60 371V525H152Z" />
<glyph unicode="&#x448;" glyph-name="afii10090" horiz-adv-x="856" d="M88 0V525H180V78H382V525H474V78H676V525H768V0H88Z" />
<glyph unicode="&#x449;" glyph-name="afii10091" horiz-adv-x="872" d="M852 -139H791L774 0H88V525H180V78H382V525H474V78H676V525H768V78H852V-139Z" />
<glyph unicode="&#x44a;" glyph-name="afii10092" horiz-adv-x="583" d="M227 78Q270 72 313 72Q386 72 420 97T455 168Q455 208 422 235T316 262Q296 262 273 261T227 254V78ZM227 324Q259 329 287 330T336 332Q395 332 436 320T504 287T541 238T553 176Q553
81 490 38T294 -6Q252 -6 213 -5T135 -1V447H6V525H227V324Z" />
<glyph unicode="&#x44b;" glyph-name="afii10093" horiz-adv-x="771" d="M180 78Q222 72 266 72Q338 72 367 97T396 168Q396 208 368 235T269 262Q250 262 227 261T180 254V78ZM180 324Q212 329 239 330T289 332Q347 332 386 320T450 287T484 238T494 176Q494
81 436 38T247 -6Q205 -6 166 -5T88 -1V525H180V324ZM591 525H683V0H591V525Z" />
<glyph unicode="&#x44c;" glyph-name="afii10094" horiz-adv-x="535" d="M180 78Q222 72 265 72Q338 72 372 97T407 168Q407 208 374 235T268 262Q249 262 226 261T180 254V78ZM180 324Q212 329 239 330T287 332Q347 332 388 320T456 287T493 238T505 176Q505
81 442 38T245 -6Q203 -6 165 -5T88 -1V525H180V324Z" />
<glyph unicode="&#x44d;" glyph-name="afii10095" horiz-adv-x="543" d="M143 304H384Q378 376 337 419T217 462Q170 462 136 450T78 423L48 491Q83 514 129 527T237 540Q300 540 346 521T423 466T468 379T483 262Q483 128 415 57T228 -14Q174 -14 126 -6T48 20L73
96Q100 82 138 73T214 64Q295 64 336 102T385 226H143V304Z" />
<glyph unicode="&#x44e;" glyph-name="afii10096" horiz-adv-x="841" d="M543 -14Q481 -14 437 4T364 54T321 131T302 232H180V0H88V525H180V310H303Q313 419 371 479T545 540Q608 540 652 520T725 462T767 374T781 262Q781 132 722 59T543 -14ZM394 262Q394 221
401 185T425 122T471 80T544 64Q619 64 651 112T683 262Q683 302 677 338T654 402T611 446T543 462Q464 462 429 414T394 262Z" />
<glyph unicode="&#x44f;" glyph-name="afii10097" horiz-adv-x="578" d="M398 207L303 194L154 0H40L172 172V171L228 209Q158 217 118 258T77 360Q77 407 95 441T146 497T227 529T334 539Q372 539 413 534T490 521V0H398V207ZM398 264V453Q382 458 362 459T326
461Q251 461 213 437T175 361Q175 311 219 286T336 263L398 264Z" />
<glyph unicode="&#x451;" glyph-name="afii10071" horiz-adv-x="598" d="M515 43Q480 17 428 2T315 -14Q249 -14 201 5T121 61T75 148T60 262Q60 397 126 468T316 540Q355 540 394 532T464 500T514 435T534 328Q534 312 533 291T529 250H154Q156 158 198 111T341
64Q383 64 421 78T480 113L515 43ZM446 316Q448 396 414 429T317 462Q247 462 206 429T158 316H446ZM141 889Q141 913 157 929T199 945Q224 945 239 929T255 889Q255 866 240 850T199 834Q173 834 157 850T141 889ZM356 889Q356 913 371 929T413 945Q439 945 454
929T470 889Q470 866 455 850T413 834Q387 834 372 850T356 889Z" />
<glyph unicode="&#x452;" glyph-name="afii10099" horiz-adv-x="636" d="M0 525H97V700H189V525H357V459H189V297H200Q231 333 273 354T377 375Q425 375 460 365T519 328T553 257T564 143V-24Q564 -117 531 -161T421 -206Q401 -206 379 -203V-128Q410 -129 428
-122T456 -98T469 -57T472 1V126Q472 168 467 199T447 253T408 286T345 297Q318 297 293 288T246 261T210 221T189 169V0H97V459H0V525Z" />
<glyph unicode="&#x453;" glyph-name="afii10100" horiz-adv-x="426" d="M426 447H180V0H88V525H426V447ZM266 720H370V697L258 570H202L266 720Z" />
<glyph unicode="&#x454;" glyph-name="afii10101" horiz-adv-x="566" d="M506 35Q471 12 422 -1T321 -14Q255 -14 206 6T125 62T76 149T60 262Q60 328 79 380T134 467T218 520T327 539Q383 539 424 531T496 508L471 430Q443 444 410 452T340 461Q262 461 216 424T158
305H423V227H158Q162 193 174 163T210 111T267 77T349 64Q389 64 423 76T480 103L506 35Z" />
<glyph unicode="&#x455;" glyph-name="afii10102" horiz-adv-x="499" d="M353 147Q353 167 344 180T318 203T281 220T237 234Q208 242 179 251T126 277T87 320T72 386Q72 464 118 502T249 540Q312 540 355 528T430 502L408 424Q381 437 344 449T261 462Q212 462
188 446T164 388Q164 371 173 360T197 340T232 325T274 312Q304 304 334 294T389 266T429 221T445 153Q445 79 395 33T245 -14Q181 -14 134 -1T54 29L80 109Q108 94 152 79T241 64Q290 64 321 81T353 147Z" />
<glyph unicode="&#x456;" glyph-name="afii10103" horiz-adv-x="317" d="M114 525H206V0H114V525ZM92 651Q92 674 110 692T157 711Q186 711 205 693T224 651Q224 628 205 611T157 593Q128 593 110 610T92 651Z" />
<glyph unicode="&#x457;" glyph-name="afii10104" horiz-adv-x="337" d="M40 658Q40 682 54 697T93 713Q119 713 132 698T146 658Q146 636 133 621T93 606Q68 606 54 621T40 658ZM191 658Q191 682 204 697T243 713Q269 713 283 698T297 658Q297 636 283 621T243
606Q218 606 205 621T191 658ZM125 525H217V0H125V525Z" />
<glyph unicode="&#x458;" glyph-name="afii10105" horiz-adv-x="312" d="M112 525H204V-18Q204 -115 168 -162T50 -210Q42 -210 33 -210T12 -208V-132Q45 -133 64 -124T94 -97T108 -51T112 15V525ZM90 650Q90 673 108 691T155 710Q184 710 203 692T222 650Q222
627 203 610T155 592Q126 592 108 609T90 650Z" />
<glyph unicode="&#x459;" glyph-name="afii10106" horiz-adv-x="851" d="M496 324Q528 329 555 330T603 332Q663 332 704 320T772 287T809 238T821 176Q821 81 758 38T561 -6Q519 -6 481 -5T404 -1V447H234L232 417Q225 318 216 240T188 107T140 24T62 -5Q40 -5
23 -3T-6 5L8 89Q21 85 37 85Q61 85 80 102T113 168T136 302T149 525H496V324ZM496 78Q538 72 581 72Q654 72 688 97T723 168Q723 208 690 235T584 262Q565 262 542 261T496 254V78Z" />
<glyph unicode="&#x45a;" glyph-name="afii10107" horiz-adv-x="916" d="M547 79Q575 75 599 74T643 72Q725 72 756 97T788 175Q788 197 781 214T758 244T714 263T647 270Q627 270 602 268T547 260V79ZM547 336Q584 343 615 345T668 348Q730 348 771 335T838 300T875
247T886 183Q886 84 825 39T622 -6Q580 -6 538 -3T455 3V230H180V0H88V525H180V312H455V525H547V336Z" />
<glyph unicode="&#x45b;" glyph-name="afii10108" horiz-adv-x="633" d="M0 525H94V701H186V525H357V459H186V297H198Q230 333 271 353T375 374Q423 374 458 364T516 328T550 258T561 145V0H469V124Q469 167 464 199T444 252T405 285T342 296Q315 296 290 287T244
260T208 221T186 171V0H94V459H0V525Z" />
<glyph unicode="&#x45c;" glyph-name="afii10109" horiz-adv-x="547" d="M237 236H180V0H88V525H180V286L235 304L414 525H515L344 321H345L291 282L356 237L541 0H425L237 236ZM305 720H409V697L297 570H241L305 720Z" />
<glyph unicode="&#x45e;" glyph-name="afii10110" horiz-adv-x="531" d="M251 193L282 92H295L320 194L429 525H523L351 50Q332 1 313 -45T270 -126T218 -183T152 -205Q112 -205 84 -196L99 -118Q114 -123 129 -123Q149 -123 165 -118T196 -100T221 -64T243 -3L8
525H117L251 193ZM193 712Q198 690 207 677T228 658T255 650T288 648Q305 648 320 650T348 659T369 678T383 711L455 690Q444 631 398 607T286 583Q255 583 226 588T174 605T134 636T111 686L193 712Z" />
<glyph unicode="&#x45f;" glyph-name="afii10193" horiz-adv-x="618" d="M180 525V78H438V525H530V0H361L345 -178H282L260 0H88V525H180Z" />
<glyph unicode="&#x462;" glyph-name="afii10146" horiz-adv-x="682" d="M0 627H162V702H262V627H487V545H262V431Q268 432 280 433T308 436T340 439T369 440Q421 440 471 430T560 396T624 331T648 228Q648 168 625 123T561 49T465 6T346 -9Q331 -9 309 -9T261
-6T210 -1T162 7V545H0V627ZM358 77Q395 77 428 85T487 112T527 157T542 221Q542 261 526 287T484 328T424 348T354 354Q345 354 331 353T304 351T279 348T262 345V83Q276 79 303 78T358 77Z" />
<glyph unicode="&#x463;" glyph-name="afii10194" horiz-adv-x="576" d="M0 525H129V700H221V525H406V453H221V324Q255 328 282 330T330 332Q389 332 430 320T497 287T534 237T546 175Q546 81 483 38T286 -6Q247 -6 207 -6T129 -2V453H0V525ZM221 77Q246 74 267
73T306 72Q381 72 414 96T448 168Q448 211 415 236T311 262Q291 262 268 261T221 254V77Z" />
<glyph unicode="&#x472;" glyph-name="afii10147" horiz-adv-x="747" d="M58 350Q58 436 79 503T141 617T240 688T373 713Q452 713 511 687T610 613T669 498T689 350Q689 264 668 197T605 83T506 12T373 -13Q293 -13 234 13T136 87T78 202T58 350ZM164 312Q168
262 182 218T223 142T286 92T373 73Q463 73 519 131T583 312H164ZM583 396Q578 444 563 486T522 559T459 609T373 627Q285 627 230 571T165 396H583Z" />
<glyph unicode="&#x473;" glyph-name="afii10195" horiz-adv-x="630" d="M60 262Q60 394 126 467T316 540Q380 540 428 520T507 462T554 374T570 262Q570 131 504 59T316 -14Q250 -14 202 6T122 63T75 151T60 262ZM472 295Q460 378 420 420T316 462Q286 462 259
454T210 425T174 373T157 295H472ZM158 229Q166 151 209 108T316 64Q344 64 370 73T417 101T452 152T470 229H158Z" />
<glyph unicode="&#x474;" glyph-name="afii10148" horiz-adv-x="659" d="M340 -10H289L-5 700H105L294 234L321 125H323L341 236L423 487Q445 553 464 596T506 664T555 698T620 708Q658 708 680 702T723 684L696 602Q674 614 656 617T620 620Q591 620 571 599T531
518L340 -10Z" />
<glyph unicode="&#x475;" glyph-name="afii10196" horiz-adv-x="582" d="M298 -11H258L8 525H114L249 224L281 103L289 104L319 225L366 334Q384 377 401 413T439 477T484 519T541 534Q561 534 578 531T610 522L595 444Q584 448 576 450T558 452Q537 452 517 435T474
372L298 -11Z" />
<glyph unicode="&#x48a;" glyph-name="uni048A" horiz-adv-x="760" d="M555 463L561 540H557L509 461L150 0H89V700H189V234L180 158H185L235 237L593 700H655V88H772V64L672 -130H606L656 0H555V463ZM280 871Q285 835 310 817T378 798Q420 798 445 816T476 870L560
852Q547 797 503 766T377 735Q298 735 248 762T187 850L280 871Z" />
<glyph unicode="&#x48b;" glyph-name="uni048B" horiz-adv-x="655" d="M451 300L465 404H454L405 306L159 0H88V525H180V215L173 123H184L230 212L471 525H543V78H643V54L543 -130H477L527 0H451V300ZM223 712Q228 690 237 677T258 658T285 650T318 648Q335 648
350 650T378 659T399 678T413 711L485 690Q474 631 428 607T316 583Q285 583 256 588T204 605T164 636T141 686L223 712Z" />
<glyph unicode="&#x48c;" glyph-name="uni048C" horiz-adv-x="620" d="M0 701H100V780H200V701H357V631H200V433Q205 434 217 435T246 438T278 440T307 441Q359 441 409 432T498 398T562 332T586 228Q586 168 563 123T499 49T403 6T284 -9Q269 -9 247 -9T199 -6T148
-1T100 7V631H0V701ZM200 83Q214 79 241 78T295 77Q332 77 366 85T425 112T465 157T480 221Q480 261 464 287T422 328T362 349T292 355Q283 355 269 354T242 352T217 349T200 346V83Z" />
<glyph unicode="&#x48d;" glyph-name="uni048D" horiz-adv-x="576" d="M0 525H129V700H221V525H406V453H221V324Q255 328 282 330T330 332Q389 332 430 320T497 287T534 237T546 175Q546 81 483 38T286 -6Q247 -6 207 -6T129 -2V453H0V525ZM221 77Q246 74 267
73T306 72Q381 72 414 96T448 168Q448 211 415 236T311 262Q291 262 268 261T221 254V77Z" />
<glyph unicode="&#x48e;" glyph-name="uni048E" horiz-adv-x="614" d="M89 693Q131 702 180 705T278 709Q329 709 381 700T477 667T547 601T575 491Q575 416 541 368T453 293L526 191L471 152L388 270Q362 263 334 260T278 257Q272 257 260 257T234 258T208 260T189
262V0H89V693ZM322 471L395 365Q427 380 448 409T469 490Q469 530 452 556T408 597T348 617T281 623Q254 623 229 622T189 617V348Q194 346 205 346T229 344T253 343T271 343Q288 343 305 344T339 348L274 438L322 471Z" />
<glyph unicode="&#x48f;" glyph-name="uni048F" horiz-adv-x="630" d="M88 525H150L168 458H177Q204 497 247 518T344 540Q458 540 514 477T570 274Q570 208 552 156T499 65L566 -9L508 -63L436 16Q407 2 375 -6T304 -14Q284 -14 268 -13T237 -8T209 0T180 11V-200H88V525ZM372
194L432 126Q451 152 461 189T472 275Q472 360 438 411T323 462Q263 462 229 432T180 340V98Q203 82 230 73T299 64Q349 64 384 83L320 151L372 194Z" />
<glyph unicode="&#x490;" glyph-name="afii10050" horiz-adv-x="486" d="M420 700L438 838H504V612H189V0H89V700H420Z" />
<glyph unicode="&#x491;" glyph-name="afii10098" horiz-adv-x="426" d="M342 525L360 663H426V447H180V0H88V525H342Z" />
<glyph unicode="&#x492;" glyph-name="uni0492" horiz-adv-x="532" d="M529 612H214V386H451V312H214V0H114V312H9V386H114V700H529V612Z" />
<glyph unicode="&#x493;" glyph-name="uni0493" horiz-adv-x="448" d="M424 447H178V288H397V218H178V0H86V218H0V288H86V525H424V447Z" />
<glyph unicode="&#x494;" glyph-name="uni0494" horiz-adv-x="632" d="M189 0H89V700H504V612H189V360Q203 364 240 372T338 381Q381 381 423 370T500 331T554 256T575 137Q575 2 509 -63T317 -128Q282 -128 266 -127T242 -124V-37Q255 -39 272 -39T319 -40Q392
-40 430 1T469 130Q469 178 456 210T421 261T370 287T307 295Q289 295 270 293T235 287T207 280T189 274V0Z" />
<glyph unicode="&#x495;" glyph-name="uni0495" horiz-adv-x="616" d="M180 0H88V525H423V447H180V262Q209 270 245 278T333 286Q378 286 418 274T489 233T538 158T556 43Q556 -92 496 -158T304 -225Q277 -225 258 -223T228 -220V-142Q238 -143 262 -145T307 -147Q388
-147 425 -99T462 32Q462 120 420 163T301 206Q261 206 229 196T180 180V0Z" />
<glyph unicode="&#x496;" glyph-name="uni0496" horiz-adv-x="897" d="M392 700H486V378L532 392L745 700H856L640 396L595 363L651 322L824 88H891V-128H822L806 0H769L535 320H486V0H392V332L346 318L113 0H-2L234 312L287 350L236 386L13 700H129L343 390H392V700Z" />
<glyph unicode="&#x497;" glyph-name="uni0497" horiz-adv-x="800" d="M493 236H428V0H338V248L278 232L114 0H6L181 237L226 272L163 315L19 525H119L272 298H338V525H428V287L488 303L642 525H741L590 316L542 278L604 234L710 78H788V-124H723L707 0H657L493 236Z" />
<glyph unicode="&#x498;" glyph-name="uni0498" horiz-adv-x="589" d="M149 327V405H166Q175 405 189 405T219 406T249 407T273 410Q327 417 365 444T403 518Q403 549 392 569T360 602T312 620T255 626Q197 626 154 617T88 597L61 677Q71 683 92 689T140 700T201
708T270 712Q314 712 357 704T433 675T488 622T509 539Q509 489 474 444T366 379V375Q443 364 487 322T532 207Q532 156 512 117T458 51T381 9T289 -11L274 -178H211L190 -11Q140 -8 104 -1T44 16L69 104Q95 93 140 84T252 75Q283 75 314 82T370 105T410 145T426
204Q426 264 380 292T250 325Q237 326 227 326T203 327H149Z" />
<glyph unicode="&#x499;" glyph-name="uni0499" horiz-adv-x="516" d="M148 233V303H225Q247 303 267 309T304 325T329 350T339 382Q339 424 308 440T214 456Q170 456 134 447T74 427L49 497Q114 534 244 534Q338 534 386 501T434 405Q434 388 428 370T408 336T377
306T334 285V274Q402 262 429 230T456 145Q456 88 410 46T271 -8L256 -178H193L172 -10Q131 -7 102 0T48 20L72 94Q99 80 137 74T220 68Q358 68 358 154Q358 193 325 213T210 233H148Z" />
<glyph unicode="&#x49a;" glyph-name="uni049A" horiz-adv-x="673" d="M238 318H189V0H89V700H189V378L235 392L487 700H601L349 400L302 366L357 326L560 88H664V-128H595L579 0H509L238 318Z" />
<glyph unicode="&#x49b;" glyph-name="uni049B" horiz-adv-x="564" d="M180 525V286L235 304L414 525H515L344 321H345L291 282L356 237L477 78H549V-124H484L468 0H425L237 236H180V0H88V525H180Z" />
<glyph unicode="&#x49c;" glyph-name="uni049C" horiz-adv-x="733" d="M227 318H189V0H89V700H189V378L227 382V510H303V389L328 392L554 700H666L437 400L389 366L445 327L699 0H577L330 318H303V190H227V318Z" />
<glyph unicode="&#x49d;" glyph-name="uni049D" horiz-adv-x="630" d="M232 233H180V0H88V526H180V277L232 283V422H295V289L338 294L475 525H565L447 323L381 277L455 225L614 0H509L343 233H295V110H232V233Z" />
<glyph unicode="&#x49e;" glyph-name="uni049E" horiz-adv-x="732" d="M0 638H151V700H251V638H379V560H251V378L306 392L552 700H664L418 400L366 366L424 327L698 0H572L304 318H251V0H151V556H0V638Z" />
<glyph unicode="&#x49f;" glyph-name="uni049F" horiz-adv-x="566" d="M0 615H97V700H189V615H357V549H189V286L241 303L415 525H523L356 322H357L302 282L365 237L550 0H434L246 236H189V0H97V549H0V615Z" />
<glyph unicode="&#x4a0;" glyph-name="uni04A0" horiz-adv-x="756" d="M275 700V378L321 392L573 700H687L436 400L388 366L444 326L721 0H595L324 318H275V0H175V612H0V700H275Z" />
<glyph unicode="&#x4a1;" glyph-name="uni04A1" horiz-adv-x="587" d="M221 287L276 304L455 525H556L385 322L331 280L398 236L581 0H466L278 236H221V0H129V447H0V525H221V287Z" />
<glyph unicode="&#x4a2;" glyph-name="uni04A2" horiz-adv-x="770" d="M544 313H189V0H89V700H189V401H544V700H644V88H741V-128H672L656 0H544V313Z" />
<glyph unicode="&#x4a3;" glyph-name="uni04A3" horiz-adv-x="629" d="M444 229H180V0H88V525H180V311H444V525H536V78H609V-124H544L528 0H444V229Z" />
<glyph unicode="&#x4a4;" glyph-name="uni04A4" horiz-adv-x="941" d="M959 612H644V0H544V313H189V0H89V700H189V401H544V700H959V612Z" />
<glyph unicode="&#x4a5;" glyph-name="uni04A5" horiz-adv-x="777" d="M444 229H180V0H88V525H180V311H444V525H777V447H536V0H444V229Z" />
<glyph unicode="&#x4a6;" glyph-name="uni04A6" horiz-adv-x="1073" d="M630 225V0H530V612H189V0H89V700H630V360Q644 364 682 372T780 381Q823 381 865 370T941 331T996 256T1017 137Q1017 2 950 -63T759 -128Q724 -128 708 -127T684 -124V-39Q697 -41 714 -41T761
-42Q834 -42 872 0T911 130Q911 179 898 210T863 261T812 287T749 295Q731 295 712 293T677 287T649 280T630 274V225Z" />
<glyph unicode="&#x4a7;" glyph-name="uni04A7" horiz-adv-x="960" d="M530 0H438V447H182V0H88V525H530V260Q560 269 596 277T681 285Q725 285 765 273T837 232T887 157T906 43Q906 -93 846 -158T657 -224Q628 -224 608 -220T579 -215V-138Q588 -138 610 -142T658
-146Q739 -146 775 -99T812 33Q812 77 800 110T767 164T717 196T652 207Q617 207 586 199T530 184V0Z" />
<glyph unicode="&#x4a8;" glyph-name="uni04A8" horiz-adv-x="899" d="M387 627Q337 627 296 610T226 559T181 473T164 353Q164 293 183 242T235 154T314 95T411 73Q422 73 436 74T462 79Q428 98 401 127T356 194T327 275T317 363Q317 439 337 498T391 598T473
659T575 680Q636 680 682 660T760 604T808 515T825 398Q825 338 811 287T774 194T719 122T655 75Q660 74 665 74T677 73Q718 73 749 82T802 105L832 26Q812 9 780 -2T690 -13Q654 -13 617 -3T556 21Q494 -13 411 -13Q329 -13 264 13T153 86T83 201T58 350Q58 435
80 502T146 617T249 688T387 713V627ZM423 358Q423 325 431 289T458 218T502 155T565 107Q594 122 621 148T671 211T706 293T719 392Q719 433 712 470T687 534T643 578T578 594Q547 594 519 581T470 538T436 465T423 358Z" />
<glyph unicode="&#x4a9;" glyph-name="uni04A9" horiz-adv-x="782" d="M312 463Q158 454 158 264Q158 225 169 189T204 125T261 81T342 64Q354 64 371 66T408 80Q364 107 335 159T306 286Q306 322 315 364T349 441T413 501T516 525Q570 525 608 508T671 460T706
388T717 301Q717 263 705 228T672 162T626 108T573 69Q589 64 603 62T628 60Q649 60 672 66T718 91Q726 72 731 59T740 33L742 25Q721 8 688 -3T613 -14Q580 -14 547 -2T490 28Q453 4 411 -5T330 -14Q266 -14 216 6T131 63T78 150T60 261Q60 389 122 462T312 541V463ZM400
272Q400 213 427 164T500 87Q524 100 545 120T583 168T609 229T619 299Q619 326 613 352T593 400T561 434T514 447Q479 447 457 431T423 390T405 334T400 272Z" />
<glyph unicode="&#x4aa;" glyph-name="uni04AA" horiz-adv-x="624" d="M584 30Q556 10 516 0T428 -12L413 -178H350L329 -8Q272 1 223 27T137 97T79 204T58 350Q58 448 88 517T166 629T274 693T393 713Q459 713 501 706T572 688L550 604Q501 627 401 627Q356 627
314 612T238 564T184 479T164 350Q164 282 183 231T235 144T314 92T414 74Q463 74 499 83T560 106L584 30Z" />
<glyph unicode="&#x4ab;" glyph-name="uni04AB" horiz-adv-x="529" d="M484 36Q455 16 419 4T342 -12L327 -178H264L243 -9Q193 0 158 23T102 81T70 162T60 262Q60 395 124 467T310 540Q363 540 402 531T472 507L448 432Q421 446 390 454T321 462Q158 462 158
262Q158 224 167 189T196 127T248 83T328 66Q370 66 401 77T454 105L484 36Z" />
<glyph unicode="&#x4ac;" glyph-name="uni04AC" horiz-adv-x="610" d="M255 612H19V700H591V612H355V88H452V-128H383L367 0H255V612Z" />
<glyph unicode="&#x4ad;" glyph-name="uni04AD" horiz-adv-x="456" d="M182 447H0V525H456V447H274V78H351V-124H286L270 0H182V447Z" />
<glyph unicode="&#x4ae;" glyph-name="uni04AE" horiz-adv-x="617" d="M261 274L7 700H124L299 403L316 339H318L337 405L504 700H610L361 275V0H261V274Z" />
<glyph unicode="&#x4af;" glyph-name="uni04AF" horiz-adv-x="551" d="M8 525H115L251 189L282 64H290L321 190L443 525H543L327 -2V-201H235V-2L8 525Z" />
<glyph unicode="&#x4b0;" glyph-name="uni04B0" horiz-adv-x="617" d="M95 287H253L7 700H124L299 403L316 339H318L337 405L504 700H610L368 287H527V217H361V0H261V217H95V287Z" />
<glyph unicode="&#x4b1;" glyph-name="uni04B1" horiz-adv-x="551" d="M100 1H233L8 525H115L251 189L282 64H290L321 190L443 525H543L328 1H462V-65H327V-201H235V-65H100V1Z" />
<glyph unicode="&#x4b2;" glyph-name="uni04B2" horiz-adv-x="710" d="M279 356L48 700H167L318 470L345 412L371 470L529 700H639L401 363L589 88H701V-128H632L616 0H533L366 244L335 305L307 244L136 0H26L279 356Z" />
<glyph unicode="&#x4b3;" glyph-name="uni04B3" horiz-adv-x="591" d="M333 149L293 224L252 149L136 0H30L233 269L44 525H161L263 391L298 320L339 391L445 525H549L358 273Q393 225 429 176T501 78H575V-124H510L494 0H448L333 149Z" />
<glyph unicode="&#x4b4;" glyph-name="uni04B4" horiz-adv-x="918" d="M889 -128H820L804 0H255V612H19V700H548V612H355V88H688V700H788V88H889V-128Z" />
<glyph unicode="&#x4b5;" glyph-name="uni04B5" horiz-adv-x="720" d="M700 -132H639L620 0H180V447H0V525H441V447H272V78H523V525H615V78H700V-132Z" />
<glyph unicode="&#x4b6;" glyph-name="uni04B6" horiz-adv-x="700" d="M176 700V479Q176 412 208 376T309 339Q360 339 403 351T474 383V700H574V88H671V-128H602L586 0H474V298Q445 282 397 268T285 253Q238 253 200 264T134 300T91 363T76 458V700H176Z" />
<glyph unicode="&#x4b7;" glyph-name="uni04B7" horiz-adv-x="577" d="M152 525V396Q152 364 155 339T170 296T202 269T256 259Q307 259 341 270T394 296V525H486V78H557V-124H492L476 0H394V223Q375 211 336 196T232 181Q190 181 158 190T104 221T71 279T60 371V525H152Z"
/>
<glyph unicode="&#x4b8;" glyph-name="uni04B8" horiz-adv-x="675" d="M296 253H285Q239 253 201 263T135 296T92 358T76 454V700H176V475Q176 345 296 339V460H372V343Q407 348 436 358T486 383V700H586V0H486V298Q467 288 438 278T372 261V140H296V253Z" />
<glyph unicode="&#x4b9;" glyph-name="uni04B9" horiz-adv-x="605" d="M259 197H236Q194 197 161 206T106 236T72 293T60 383V525H152V416Q152 382 155 355T170 310T202 281T259 269V411H323V273Q358 279 384 289T425 312V525H517V0H425V243Q411 233 386 223T323
205V74H259V197Z" />
<glyph unicode="&#x4ba;" glyph-name="uni04BA" horiz-adv-x="662" d="M486 0V228Q486 361 354 361Q303 361 260 349T189 316V0H89V700H189V402Q218 418 266 432T377 447Q423 447 461 437T527 403T570 343T586 250V0H486Z" />
<glyph unicode="&#x4bb;" glyph-name="uni04BB" horiz-adv-x="641" d="M461 0V290Q461 333 456 364T436 417T397 448T335 458Q309 458 284 449T238 424T202 386T180 335V0H88V700H180V460H191Q221 496 263 518T367 540Q415 540 450 530T508 493T542 422T553 310V0H461Z" />
<glyph unicode="&#x4bc;" glyph-name="uni04BC" horiz-adv-x="862" d="M310 310Q328 73 558 73Q607 73 649 87T720 118L745 39Q707 18 657 3T539 -13Q467 -13 408 6T307 64T239 165T210 310H171Q124 310 92 321T39 350T10 392T2 444Q3 473 9 489T30 518H121Q104
506 98 487T92 454Q92 444 95 434T107 414T133 399T178 393Q186 393 193 393T210 395Q218 547 295 630T513 713Q651 713 722 636T793 419Q793 393 791 366T783 310H310ZM690 396Q692 408 692 420T693 443Q693 480 683 513T651 572T596 612T515 627Q417 627 366
569T309 396H690Z" />
<glyph unicode="&#x4bd;" glyph-name="uni04BD" horiz-adv-x="711" d="M628 43Q593 17 541 2T428 -14Q363 -14 316 4T237 57T190 140T173 250H170Q92 250 46 283T1 390Q3 419 15 440T41 476H116Q102 461 92 440T82 393Q82 377 86 363T100 339T129 324T176 318Q190
427 254 483T429 540Q468 540 507 532T577 500T627 435T647 328Q647 312 646 291T642 250H267Q269 158 311 111T454 64Q496 64 534 78T593 113L628 43ZM559 316Q561 396 527 429T430 462Q360 462 319 429T271 316H559Z" />
<glyph unicode="&#x4be;" glyph-name="uni04BE" horiz-adv-x="862" d="M310 310Q328 74 558 74Q607 74 649 87T720 118L745 39Q711 19 666 5T564 -12L549 -178H486L465 -7Q351 10 284 87T210 310H171Q124 310 92 321T39 350T10 392T2 444Q3 473 9 489T30 518H121Q104
506 98 487T92 454Q92 444 95 434T107 414T133 399T178 393Q186 393 193 393T210 395Q218 547 295 630T513 713Q651 713 722 636T793 419Q793 393 791 366T783 310H310ZM690 396Q692 408 692 420T693 443Q693 480 683 513T651 572T596 612T515 627Q417 627 366
569T309 396H690Z" />
<glyph unicode="&#x4bf;" glyph-name="uni04BF" horiz-adv-x="711" d="M267 250Q269 158 311 112T454 66Q496 66 534 80T593 115L628 43Q599 20 557 6T463 -12L448 -187H385L363 -9Q267 8 221 76T173 251H170Q92 251 46 283T1 390Q3 419 15 440T41 476H116Q102
461 92 440T82 393Q82 377 86 363T100 339T129 323T176 317Q190 426 254 483T429 540Q468 540 507 532T577 500T627 435T647 328Q647 312 646 291T642 250H267ZM559 316Q561 396 527 429T430 462Q360 462 319 429T271 316H559Z" />
<glyph unicode="&#x4c0;" glyph-name="uni04C0" horiz-adv-x="398" d="M149 634H69V700H329V634H249V66H329V0H69V66H149V634Z" />
<glyph unicode="&#x4c3;" glyph-name="uni04C3" horiz-adv-x="658" d="M480 72Q480 198 422 258T237 318H189V0H89V700H189V378L235 392L487 700H601L359 416L296 377H364Q421 364 462 342T529 284T568 198T580 78V59Q580 -13 565 -64T521 -147T453 -195T365 -210Q356
-210 347 -210T327 -208V-122Q369 -123 398 -114T446 -81T472 -21T480 72Z" />
<glyph unicode="&#x4c4;" glyph-name="uni04C4" horiz-adv-x="559" d="M419 34Q419 89 407 124T372 179T315 207T236 216H180V0H88V525H180V275L235 294L413 525H514L343 312L291 275Q311 273 322 272T339 270T347 269T352 269Q399 257 430 234T479 182T504 120T511
55V36Q511 -28 496 -74T455 -149T392 -193T312 -207Q296 -207 269 -204V-129Q340 -134 379 -93T419 34Z" />
<glyph unicode="&#x4c5;" glyph-name="uni04C5" horiz-adv-x="684" d="M494 612H274Q269 513 263 432T246 286T223 170T189 83Q163 35 129 15T58 -5Q37 -5 24 -3T-4 5L9 89Q21 86 33 86T57 90T82 105T105 135Q120 161 133 205T156 317T172 479T182 700H594V88H696V64L596
-130H530L580 0H494V612Z" />
<glyph unicode="&#x4c6;" glyph-name="uni04C6" horiz-adv-x="596" d="M404 447H234L232 417Q225 318 216 240T188 107T140 24T62 -5Q40 -5 23 -3T-6 5L8 89Q21 85 37 85Q61 85 80 102T113 168T136 302T149 525H496V78H584V54L484 -130H418L468 0H404V447Z" />
<glyph unicode="&#x4c7;" glyph-name="uni04C7" horiz-adv-x="733" d="M644 0V-24Q644 -117 609 -163T497 -210Q487 -210 478 -209T457 -206V-122Q488 -123 505 -117T531 -96T542 -57T544 0V313H189V0H89V700H189V401H544V700H644V0Z" />
<glyph unicode="&#x4c8;" glyph-name="uni04C8" horiz-adv-x="624" d="M180 525V311H444V525H536V-24Q536 -117 503 -161T393 -206Q373 -206 351 -203V-128Q382 -129 400 -122T428 -99T441 -58T444 0V229H180V0H88V525H180Z" />
<glyph unicode="&#x4c9;" glyph-name="uni04C9" horiz-adv-x="745" d="M544 313H189V0H89V700H189V401H544V700H644V88H757V64L657 -130H591L641 0H544V313Z" />
<glyph unicode="&#x4ca;" glyph-name="uni04CA" horiz-adv-x="638" d="M444 229H180V0H88V525H180V311H444V525H536V78H626V54L526 -130H460L510 0H444V229Z" />
<glyph unicode="&#x4cb;" glyph-name="uni04CB" horiz-adv-x="663" d="M176 700V479Q176 412 208 376T309 339Q360 339 403 351T474 383V700H574V0H461L445 -128H376V88H474V298Q445 282 397 268T285 253Q238 253 200 264T134 300T91 363T76 458V700H176Z" />
<glyph unicode="&#x4cc;" glyph-name="uni04CC" horiz-adv-x="572" d="M392 226Q367 215 327 202T231 189Q146 189 103 228T60 366V525H152V397Q152 367 155 343T169 302T200 276T253 267Q304 267 338 278T392 303V525H484V0H375L355 -134H297V78H392V226Z" />
<glyph unicode="&#x4cd;" glyph-name="uni04CD" horiz-adv-x="884" d="M679 451L690 563H686L643 466L448 156H418L213 467L172 562H167L183 452V0H89V700H164L401 343L438 267H440L475 345L700 700H779V88H896V64L796 -130H730L780 0H679V451Z" />
<glyph unicode="&#x4ce;" glyph-name="uni04CE" horiz-adv-x="768" d="M574 297L580 404H568L523 322L388 123H357L215 322L175 404H164L173 298V0H88V525H184L341 294L379 221L421 296L568 525H664V78H756V54L656 -130H590L640 0H574V297Z" />
<glyph unicode="&#x4cf;" glyph-name="uni04CF" horiz-adv-x="279" d="M92 700H187V0H92V700Z" />
<glyph unicode="&#x4d0;" glyph-name="uni04D0" horiz-adv-x="645" d="M457 183H180L106 0H8L296 710H348L637 0H533L457 183ZM210 267H428L347 466L320 573H318L291 464L210 267ZM224 871Q229 835 254 817T322 798Q364 798 389 816T420 870L504 852Q491 797 447
766T321 735Q242 735 192 762T131 850L224 871Z" />
<glyph unicode="&#x4d1;" glyph-name="uni04D1" horiz-adv-x="582" d="M82 492Q172 535 305 535Q365 535 401 520T458 480T484 427T491 368Q491 313 487 258T483 137Q483 99 486 64T498 -2H431L406 78H396Q385 63 369 48T331 20T281 0T215 -8Q178 -8 147 2T94
32T58 78T45 140Q45 185 64 218T115 272T185 303T264 313Q295 313 316 312T352 310T377 307T395 304Q397 319 398 330T399 358Q399 386 393 405T374 435T337 452T281 457Q262 457 239 454T193 446T148 432T107 415L82 492ZM395 238Q387 239 378 241T356 244T324
246T278 247Q216 247 180 225T143 150Q143 110 171 90T245 70Q278 70 303 78T347 99T377 127T395 158V238ZM186 712Q191 690 200 677T221 658T248 650T281 648Q298 648 313 650T341 659T362 678T376 711L448 690Q437 631 391 607T279 583Q248 583 219 588T167 605T127
636T104 686L186 712Z" />
<glyph unicode="&#x4d2;" glyph-name="uni04D2" horiz-adv-x="645" d="M457 183H180L106 0H8L296 710H348L637 0H533L457 183ZM210 267H428L347 466L320 573H318L291 464L210 267ZM152 795Q152 818 168 831T214 844Q242 844 259 831T276 795Q276 773 259 760T214
746Q185 746 169 759T152 795ZM366 795Q366 818 382 831T427 844Q456 844 473 831T490 795Q490 773 473 760T427 746Q399 746 383 759T366 795Z" />
<glyph unicode="&#x4d3;" glyph-name="uni04D3" horiz-adv-x="582" d="M82 492Q172 535 305 535Q365 535 401 520T458 480T484 427T491 368Q491 313 487 258T483 137Q483 99 486 64T498 -2H431L406 78H396Q385 63 369 48T331 20T281 0T215 -8Q178 -8 147 2T94
32T58 78T45 140Q45 185 64 218T115 272T185 303T264 313Q295 313 316 312T352 310T377 307T395 304Q397 319 398 330T399 358Q399 386 393 405T374 435T337 452T281 457Q262 457 239 454T193 446T148 432T107 415L82 492ZM395 238Q387 239 378 241T356 244T324
246T278 247Q216 247 180 225T143 150Q143 110 171 90T245 70Q278 70 303 78T347 99T377 127T395 158V238ZM119 890Q119 914 135 930T177 946Q202 946 217 930T233 890Q233 867 218 851T177 835Q151 835 135 851T119 890ZM334 890Q334 914 349 930T391 946Q417
946 432 930T448 890Q448 867 433 851T391 835Q365 835 350 851T334 890Z" />
<glyph unicode="&#x4d4;" glyph-name="uni04D4" horiz-adv-x="929" d="M429 591L391 485L255 273H433V591H429ZM433 189H203L83 0H-25L431 700H856V614H533V401H828V315H533V86H861V0H433V189Z" />
<glyph unicode="&#x4d5;" glyph-name="uni04D5" horiz-adv-x="930" d="M397 236Q380 238 362 238T326 237Q290 237 257 233T199 219T158 192T143 149Q143 113 171 91T245 68Q278 68 303 76T346 96T377 122T397 151V236ZM421 92Q406 74 386 56T341 24T285 1T215
-8Q178 -8 147 2T94 31T58 77T45 139Q45 184 65 215T123 264T213 291T329 300Q344 300 362 300T398 301V304Q401 328 401 357Q401 413 374 435T281 457Q263 457 241 455T195 448T149 437T108 423L83 489Q125 510 183 522T306 535Q363 535 403 516T465 465Q481 484
502 498T548 521T598 535T648 540Q688 540 727 532T797 500T847 435T866 327Q866 313 866 296T862 252H486Q487 207 497 172T530 112T588 74T674 61Q712 61 750 73T813 104L846 43Q812 18 758 2T648 -14Q578 -14 520 14T432 92H421ZM777 318Q778 358 770 385T744
430T703 454T649 462Q580 462 540 429T490 318H777Z" />
<glyph unicode="&#x4d6;" glyph-name="uni04D6" horiz-adv-x="585" d="M89 700H512V614H189V401H484V315H189V86H517V0H89V700ZM204 871Q209 835 234 817T302 798Q344 798 369 816T400 870L484 852Q471 797 427 766T301 735Q222 735 172 762T111 850L204 871Z" />
<glyph unicode="&#x4d7;" glyph-name="uni04D7" horiz-adv-x="598" d="M515 43Q480 17 428 2T315 -14Q249 -14 201 5T121 61T75 148T60 262Q60 397 126 468T316 540Q355 540 394 532T464 500T514 435T534 328Q534 312 533 291T529 250H154Q156 158 198 111T341
64Q383 64 421 78T480 113L515 43ZM446 316Q448 396 414 429T317 462Q247 462 206 429T158 316H446ZM223 712Q228 690 237 677T258 658T285 650T318 648Q335 648 350 650T378 659T399 678T413 711L485 690Q474 631 428 607T316 583Q285 583 256 588T204 605T164
636T141 686L223 712Z" />
<glyph unicode="&#x4d8;" glyph-name="uni04D8" horiz-adv-x="698" d="M163 313Q161 301 160 289T159 265Q159 228 169 194T202 132T257 89T337 73Q434 73 486 132T540 313H163ZM540 397Q531 515 476 571T310 627Q284 627 259 623T212 612T171 598T140 583L117
663Q149 682 205 697T329 713Q402 713 460 693T558 628T619 515T640 350Q640 177 564 82T335 -13Q266 -13 214 8T126 67T73 161T55 284Q55 310 58 338T66 397H540Z" />
<glyph unicode="&#x4d9;" glyph-name="afii10846" horiz-adv-x="599" d="M84 481Q120 507 171 523T282 539Q349 539 397 519T477 462T524 374T539 262Q539 197 522 146T474 60T396 5T292 -14Q249 -14 208 -3T135 34T84 105T64 218Q64 232 65 251T69 292H444Q439
337 429 369T397 422T341 451T257 461Q218 461 179 447T116 415L84 481ZM293 64Q358 64 399 106T441 226H158Q155 142 192 103T293 64Z" />
<glyph unicode="&#x4da;" glyph-name="uni04DA" horiz-adv-x="698" d="M163 313Q161 301 160 289T159 265Q159 228 169 194T202 132T257 89T337 73Q434 73 486 132T540 313H163ZM540 397Q531 515 476 571T310 627Q284 627 259 623T212 612T171 598T140 583L117
663Q149 682 205 697T329 713Q402 713 460 693T558 628T619 515T640 350Q640 177 564 82T335 -13Q266 -13 214 8T126 67T73 161T55 284Q55 310 58 338T66 397H540ZM172 795Q172 818 188 831T234 844Q262 844 279 831T296 795Q296 773 279 760T234 746Q205 746 189
759T172 795ZM386 795Q386 818 402 831T447 844Q476 844 493 831T510 795Q510 773 493 760T447 746Q419 746 403 759T386 795Z" />
<glyph unicode="&#x4db;" glyph-name="uni04DB" horiz-adv-x="599" d="M84 481Q120 507 171 523T282 539Q349 539 397 519T477 462T524 374T539 262Q539 197 522 146T474 60T396 5T292 -14Q249 -14 208 -3T135 34T84 105T64 218Q64 232 65 251T69 292H444Q439
337 429 369T397 422T341 451T257 461Q218 461 179 447T116 415L84 481ZM293 64Q358 64 399 106T441 226H158Q155 142 192 103T293 64ZM131 890Q131 914 147 930T189 946Q214 946 229 930T245 890Q245 867 230 851T189 835Q163 835 147 851T131 890ZM346 890Q346
914 361 930T403 946Q429 946 444 930T460 890Q460 867 445 851T403 835Q377 835 362 851T346 890Z" />
<glyph unicode="&#x4dc;" glyph-name="uni04DC" horiz-adv-x="888" d="M392 700H486V378L532 392L745 700H856L640 396L595 363L651 322L890 0H769L535 320H486V0H392V332L346 318L113 0H-2L234 312L287 350L236 386L13 700H129L343 390H392V700ZM271 795Q271
818 287 831T333 844Q361 844 378 831T395 795Q395 773 378 760T333 746Q304 746 288 759T271 795ZM485 795Q485 818 501 831T546 844Q575 844 592 831T609 795Q609 773 592 760T546 746Q518 746 502 759T485 795Z" />
<glyph unicode="&#x4dd;" glyph-name="uni04DD" horiz-adv-x="774" d="M278 232L114 0H6L181 237L226 272L163 315L19 525H119L272 298H338V525H428V287L488 303L642 525H741L590 316L542 278L604 234L768 0H657L493 236H428V0H338V248L278 232ZM218 634Q218 658
234 674T276 690Q301 690 316 674T332 634Q332 611 317 595T276 579Q250 579 234 595T218 634ZM433 634Q433 658 448 674T490 690Q516 690 531 674T547 634Q547 611 532 595T490 579Q464 579 449 595T433 634Z" />
<glyph unicode="&#x4de;" glyph-name="uni04DE" horiz-adv-x="589" d="M149 327V405H166Q175 405 189 405T219 406T249 407T273 410Q327 417 365 444T403 518Q403 549 392 569T360 602T312 620T255 626Q197 626 154 617T88 597L61 677Q71 683 92 689T140 700T201
708T270 712Q314 712 357 704T433 675T488 622T509 539Q509 489 474 444T366 379V375Q443 364 487 322T532 207Q532 150 507 109T442 40T350 0T244 -13Q172 -13 123 -5T44 16L69 102Q95 91 140 82T252 73Q283 73 314 81T370 105T410 145T426 204Q426 264 380 292T250
325Q237 326 227 326T203 327H149ZM95 795Q95 818 111 831T157 844Q185 844 202 831T219 795Q219 773 202 760T157 746Q128 746 112 759T95 795ZM309 795Q309 818 325 831T370 844Q399 844 416 831T433 795Q433 773 416 760T370 746Q342 746 326 759T309 795Z"
/>
<glyph unicode="&#x4df;" glyph-name="uni04DF" horiz-adv-x="516" d="M148 233V303H225Q247 303 267 309T304 325T329 350T339 382Q339 424 308 440T214 456Q170 456 134 447T74 427L49 497Q114 534 244 534Q338 534 386 501T434 405Q434 388 428 370T408 336T377
306T334 285V274Q402 262 429 230T456 145Q456 112 441 84T396 34T321 1T215 -11Q156 -11 118 -3T48 20L72 93Q99 79 137 73T220 67Q358 67 358 154Q358 193 325 213T210 233H148ZM68 890Q68 914 84 930T126 946Q151 946 166 930T182 890Q182 867 167 851T126 835Q100
835 84 851T68 890ZM283 890Q283 914 298 930T340 946Q366 946 381 930T397 890Q397 867 382 851T340 835Q314 835 299 851T283 890Z" />
<glyph unicode="&#x4e0;" glyph-name="uni04E0" horiz-adv-x="614" d="M251 73Q291 73 326 81T387 107T428 150T443 208Q443 277 388 306T233 336H138V370L335 579L383 622L316 612H61V700H518V659L305 434L265 404V401L305 410Q359 410 403 397T479 358T528 296T546
214Q546 160 524 118T462 47T368 2T251 -13Q228 -13 200 -10T145 -2T95 10T57 25L81 111Q93 104 113 98T157 86T205 77T251 73Z" />
<glyph unicode="&#x4e1;" glyph-name="uni04E1" horiz-adv-x="525" d="M198 -149Q237 -149 271 -139T331 -109T370 -62T385 0Q385 73 334 107T193 142H113V172L274 399L337 454L248 447H28V525H445V488L264 250L214 208L263 215Q306 215 345 200T413 159T460 95T477
13Q477 -44 455 -88T395 -163T305 -210T193 -227Q144 -227 102 -219T24 -194Q32 -169 37 -155T44 -134T47 -125T49 -120Q79 -133 115 -141T198 -149Z" />
<glyph unicode="&#x4e2;" glyph-name="uni04E2" horiz-adv-x="744" d="M555 463L561 540H557L509 461L150 0H89V700H189V234L180 158H185L235 237L593 700H655V0H555V463ZM204 826H554V758H204V826Z" />
<glyph unicode="&#x4e3;" glyph-name="uni04E3" horiz-adv-x="631" d="M451 300L465 404H454L405 306L159 0H88V525H180V215L173 123H184L230 212L471 525H543V0H451V300ZM143 666H471V597H143V666Z" />
<glyph unicode="&#x4e4;" glyph-name="uni04E4" horiz-adv-x="744" d="M555 463L561 540H557L509 461L150 0H89V700H189V234L180 158H185L235 237L593 700H655V0H555V463ZM203 795Q203 818 219 831T265 844Q293 844 310 831T327 795Q327 773 310 760T265 746Q236
746 220 759T203 795ZM417 795Q417 818 433 831T478 844Q507 844 524 831T541 795Q541 773 524 760T478 746Q450 746 434 759T417 795Z" />
<glyph unicode="&#x4e5;" glyph-name="uni04E5" horiz-adv-x="631" d="M451 300L465 404H454L405 306L159 0H88V525H180V215L173 123H184L230 212L471 525H543V0H451V300ZM143 890Q143 914 159 930T201 946Q226 946 241 930T257 890Q257 867 242 851T201 835Q175
835 159 851T143 890ZM358 890Q358 914 373 930T415 946Q441 946 456 930T472 890Q472 867 457 851T415 835Q389 835 374 851T358 890Z" />
<glyph unicode="&#x4e6;" glyph-name="uni04E6" horiz-adv-x="747" d="M58 350Q58 436 79 503T141 617T240 688T373 713Q452 713 511 687T610 613T669 498T689 350Q689 264 668 197T605 83T506 12T373 -13Q293 -13 234 13T136 87T78 202T58 350ZM164 350Q164 293
176 243T214 155T279 95T373 73Q470 73 526 140T583 350Q583 406 571 456T533 544T468 604T373 627Q277 627 221 559T164 350ZM204 795Q204 818 220 831T266 844Q294 844 311 831T328 795Q328 773 311 760T266 746Q237 746 221 759T204 795ZM418 795Q418 818 434
831T479 844Q508 844 525 831T542 795Q542 773 525 760T479 746Q451 746 435 759T418 795Z" />
<glyph unicode="&#x4e7;" glyph-name="uni04E7" horiz-adv-x="631" d="M60 262Q60 327 77 378T127 466T207 521T316 540Q380 540 428 519T508 461T555 373T571 262Q571 198 554 147T504 60T424 5T316 -14Q250 -14 202 7T123 65T76 152T60 262ZM158 262Q158 225
166 190T194 126T243 81T317 64Q473 64 473 262Q473 301 465 337T438 400T389 445T317 462Q239 462 199 413T158 262ZM149 890Q149 914 165 930T207 946Q232 946 247 930T263 890Q263 867 248 851T207 835Q181 835 165 851T149 890ZM364 890Q364 914 379 930T421
946Q447 946 462 930T478 890Q478 867 463 851T421 835Q395 835 380 851T364 890Z" />
<glyph unicode="&#x4e8;" glyph-name="uni04E8" horiz-adv-x="747" d="M58 350Q58 436 79 503T141 617T240 688T373 713Q452 713 511 687T610 613T669 498T689 350Q689 264 668 197T605 83T506 12T373 -13Q293 -13 234 13T136 87T78 202T58 350ZM164 312Q168 262
182 218T223 142T286 92T373 73Q463 73 519 131T583 312H164ZM583 396Q578 444 563 486T522 559T459 609T373 627Q285 627 230 571T165 396H583Z" />
<glyph unicode="&#x4e9;" glyph-name="uni04E9" horiz-adv-x="630" d="M60 262Q60 394 126 467T316 540Q380 540 428 520T507 462T554 374T570 262Q570 131 504 59T316 -14Q250 -14 202 6T122 63T75 151T60 262ZM472 295Q460 378 420 420T316 462Q286 462 259
454T210 425T174 373T157 295H472ZM158 229Q166 151 209 108T316 64Q344 64 370 73T417 101T452 152T470 229H158Z" />
<glyph unicode="&#x4ea;" glyph-name="uni04EA" horiz-adv-x="747" d="M58 350Q58 436 79 503T141 617T240 688T373 713Q452 713 511 687T610 613T669 498T689 350Q689 264 668 197T605 83T506 12T373 -13Q293 -13 234 13T136 87T78 202T58 350ZM164 312Q168 262
182 218T223 142T286 92T373 73Q463 73 519 131T583 312H164ZM583 396Q578 444 563 486T522 559T459 609T373 627Q285 627 230 571T165 396H583ZM204 795Q204 818 220 831T266 844Q294 844 311 831T328 795Q328 773 311 760T266 746Q237 746 221 759T204 795ZM418
795Q418 818 434 831T479 844Q508 844 525 831T542 795Q542 773 525 760T479 746Q451 746 435 759T418 795Z" />
<glyph unicode="&#x4eb;" glyph-name="uni04EB" horiz-adv-x="630" d="M60 262Q60 394 126 467T316 540Q380 540 428 520T507 462T554 374T570 262Q570 131 504 59T316 -14Q250 -14 202 6T122 63T75 151T60 262ZM472 295Q460 378 420 420T316 462Q286 462 259
454T210 425T174 373T157 295H472ZM158 229Q166 151 209 108T316 64Q344 64 370 73T417 101T452 152T470 229H158ZM153 890Q153 914 169 930T211 946Q236 946 251 930T267 890Q267 867 252 851T211 835Q185 835 169 851T153 890ZM368 890Q368 914 383 930T425 946Q451
946 466 930T482 890Q482 867 467 851T425 835Q399 835 384 851T368 890Z" />
<glyph unicode="&#x4ec;" glyph-name="uni04EC" horiz-adv-x="631" d="M161 399H466Q456 515 393 570T230 627Q177 628 136 617T71 592L47 672Q80 691 131 702T240 713Q310 713 370 693T476 630T547 517T573 350Q573 251 543 182T464 70T350 7T216 -13Q161 -13
118 -5T45 15L71 101Q96 89 136 81T223 73Q266 73 308 85T383 126T439 201T467 313H161V399ZM79 795Q79 818 95 831T141 844Q169 844 186 831T203 795Q203 773 186 760T141 746Q112 746 96 759T79 795ZM293 795Q293 818 309 831T354 844Q383 844 400 831T417 795Q417
773 400 760T354 746Q326 746 310 759T293 795Z" />
<glyph unicode="&#x4ed;" glyph-name="uni04ED" horiz-adv-x="543" d="M143 304H384Q378 376 337 419T217 462Q170 462 136 450T78 423L48 491Q83 514 129 527T237 540Q300 540 346 521T423 466T468 379T483 262Q483 128 415 57T228 -14Q174 -14 126 -6T48 20L73
96Q100 82 138 73T214 64Q295 64 336 102T385 226H143V304ZM61 890Q61 914 77 930T119 946Q144 946 159 930T175 890Q175 867 160 851T119 835Q93 835 77 851T61 890ZM276 890Q276 914 291 930T333 946Q359 946 374 930T390 890Q390 867 375 851T333 835Q307 835
292 851T276 890Z" />
<glyph unicode="&#x4ee;" glyph-name="uni04EE" horiz-adv-x="608" d="M311 340L338 251H344L365 343L507 700H609L413 238Q384 171 362 125T317 49T266 7T200 -6Q164 -6 143 -1T101 17L130 99Q151 87 169 85T204 82Q233 82 253 107T290 184L5 700H120L311 340ZM149
826H499V758H149V826Z" />
<glyph unicode="&#x4ef;" glyph-name="uni04EF" horiz-adv-x="531" d="M251 193L282 92H295L320 194L429 525H523L351 50Q332 1 313 -45T270 -126T218 -183T152 -205Q112 -205 84 -196L99 -118Q114 -123 129 -123Q149 -123 165 -118T196 -100T221 -64T243 -3L8
525H117L251 193ZM102 666H430V597H102V666Z" />
<glyph unicode="&#x4f0;" glyph-name="uni04F0" horiz-adv-x="608" d="M311 340L338 251H344L365 343L507 700H609L413 238Q384 171 362 125T317 49T266 7T200 -6Q164 -6 143 -1T101 17L130 99Q151 87 169 85T204 82Q233 82 253 107T290 184L5 700H120L311 340ZM155
795Q155 818 171 831T217 844Q245 844 262 831T279 795Q279 773 262 760T217 746Q188 746 172 759T155 795ZM369 795Q369 818 385 831T430 844Q459 844 476 831T493 795Q493 773 476 760T430 746Q402 746 386 759T369 795Z" />
<glyph unicode="&#x4f1;" glyph-name="uni04F1" horiz-adv-x="531" d="M251 193L282 92H295L320 194L429 525H523L351 50Q332 1 313 -45T270 -126T218 -183T152 -205Q112 -205 84 -196L99 -118Q114 -123 129 -123Q149 -123 165 -118T196 -100T221 -64T243 -3L8
525H117L251 193ZM114 890Q114 914 130 930T172 946Q197 946 212 930T228 890Q228 867 213 851T172 835Q146 835 130 851T114 890ZM329 890Q329 914 344 930T386 946Q412 946 427 930T443 890Q443 867 428 851T386 835Q360 835 345 851T329 890Z" />
<glyph unicode="&#x4f2;" glyph-name="uni04F2" horiz-adv-x="608" d="M311 340L338 251H344L365 343L507 700H609L413 238Q384 171 362 125T317 49T266 7T200 -6Q164 -6 143 -1T101 17L130 99Q151 87 169 85T204 82Q233 82 253 107T290 184L5 700H120L311 340ZM256
850H364V834L255 741H187L256 850ZM439 850H554V834L397 741H328L439 850Z" />
<glyph unicode="&#x4f3;" glyph-name="uni04F3" horiz-adv-x="531" d="M251 193L282 92H295L320 194L429 525H523L351 50Q332 1 313 -45T270 -126T218 -183T152 -205Q112 -205 84 -196L99 -118Q114 -123 129 -123Q149 -123 165 -118T196 -100T221 -64T243 -3L8
525H117L251 193ZM208 739H298V727L218 610H169L208 739ZM383 739H484V728L352 610H301L383 739Z" />
<glyph unicode="&#x4f4;" glyph-name="uni04F4" horiz-adv-x="663" d="M176 700V479Q176 412 208 376T309 339Q360 339 403 351T474 383V700H574V0H474V298Q445 282 397 268T285 253Q238 253 200 264T134 300T91 363T76 458V700H176ZM167 795Q167 818 183 831T229
844Q257 844 274 831T291 795Q291 773 274 760T229 746Q200 746 184 759T167 795ZM381 795Q381 818 397 831T442 844Q471 844 488 831T505 795Q505 773 488 760T442 746Q414 746 398 759T381 795Z" />
<glyph unicode="&#x4f5;" glyph-name="uni04F5" horiz-adv-x="574" d="M152 525V396Q152 364 155 339T170 296T202 269T256 259Q307 259 341 270T394 296V525H486V0H394V223Q375 211 336 196T232 181Q190 181 158 190T104 221T71 279T60 371V525H152ZM107 890Q107
914 123 930T165 946Q190 946 205 930T221 890Q221 867 206 851T165 835Q139 835 123 851T107 890ZM322 890Q322 914 337 930T379 946Q405 946 420 930T436 890Q436 867 421 851T379 835Q353 835 338 851T322 890Z" />
<glyph unicode="&#x4f6;" glyph-name="uni04F6" horiz-adv-x="486" d="M89 700H504V612H189V88H285V-128H216L200 0H89V700Z" />
<glyph unicode="&#x4f7;" glyph-name="uni04F7" horiz-adv-x="426" d="M88 525H426V447H180V78H261V-124H196L180 0H88V525Z" />
<glyph unicode="&#x4f8;" glyph-name="uni04F8" horiz-adv-x="846" d="M657 700H757V0H657V700ZM89 700H189V433Q195 434 205 435T227 438T253 440T280 441Q332 441 381 431T468 397T528 331T551 228Q551 168 530 123T470 49T379 6T262 -9Q247 -9 226 -9T182 -6T134
-1T89 7V700ZM270 77Q307 77 339 86T394 113T431 158T445 221Q445 261 430 287T391 328T334 349T265 355Q246 355 223 352T189 346V83Q203 79 223 78T270 77ZM254 795Q254 818 270 831T316 844Q344 844 361 831T378 795Q378 773 361 760T316 746Q287 746 271 759T254
795ZM468 795Q468 818 484 831T529 844Q558 844 575 831T592 795Q592 773 575 760T529 746Q501 746 485 759T468 795Z" />
<glyph unicode="&#x4f9;" glyph-name="uni04F9" horiz-adv-x="771" d="M180 78Q222 72 266 72Q338 72 367 97T396 168Q396 208 368 235T269 262Q250 262 227 261T180 254V78ZM180 324Q212 329 239 330T289 332Q347 332 386 320T450 287T484 238T494 176Q494 81
436 38T247 -6Q205 -6 166 -5T88 -1V525H180V324ZM591 525H683V0H591V525ZM213 634Q213 658 229 674T271 690Q296 690 311 674T327 634Q327 611 312 595T271 579Q245 579 229 595T213 634ZM428 634Q428 658 443 674T485 690Q511 690 526 674T542 634Q542 611 527
595T485 579Q459 579 444 595T428 634Z" />
<glyph unicode="&#x4fc;" glyph-name="uni04FC" horiz-adv-x="681" d="M521 -37Q521 9 503 44T465 109L369 244L336 305L308 244L137 0H27L280 356L49 700H168L319 470L346 412L372 470L530 700H640L402 363L553 148Q587 101 603 61T619 -21Q619 -114 581 -162T465
-210Q446 -210 425 -207V-122Q456 -123 474 -117T503 -99T517 -71T521 -37Z" />
<glyph unicode="&#x4fd;" glyph-name="uni04FD" horiz-adv-x="592" d="M468 127Q500 87 518 52T537 -23Q537 -114 495 -162T371 -210H364Q356 -210 349 -210T334 -208V-132Q397 -132 421 -108T445 -38Q445 2 426 30T383 87L332 152L289 221L250 150L135 0H30L233
268L43 525H159L260 389L299 321L338 389L442 525H547L354 273L468 127Z" />
<glyph unicode="&#x510;" glyph-name="uni0510" horiz-adv-x="582" d="M395 325Q381 325 371 325T348 324Q267 319 220 290T173 204Q173 171 186 146T224 105T282 81T357 73Q405 73 448 84T515 110L544 35Q517 18 466 3T342 -13Q281 -13 231 -1T144 38T87 103T67
196Q67 268 109 315T229 372V376Q194 386 168 403T125 443T100 489T91 539Q91 584 111 617T165 671T245 702T343 712Q373 712 402 709T457 699T503 686T535 672L507 594Q492 600 474 605T435 615T393 623T351 626Q280 626 238 604T196 528Q196 502 208 482T241
447T288 423T341 409Q359 406 385 406T431 405H450V325H395Z" />
<glyph unicode="&#x511;" glyph-name="uni0511" horiz-adv-x="530" d="M303 233Q222 233 187 213T152 154Q152 115 188 92T296 69Q381 69 442 104L466 32Q437 16 396 4T300 -9Q179 -9 120 32T60 144Q60 196 88 226T181 274V284Q132 299 107 331T82 402Q82 466
133 500T271 535Q335 535 382 521T464 487L439 420Q414 431 378 444T300 457Q237 457 207 440T176 381Q176 364 185 350T211 325T247 308T290 302H366V233H303Z" />
<glyph unicode="&#x512;" glyph-name="uni0512" horiz-adv-x="683" d="M594 -24Q594 -116 559 -163T447 -210Q428 -210 407 -207V-122Q438 -123 455 -118T481 -98T492 -60T494 0V612H274Q263 415 245 286T188 83Q162 35 129 15T58 -5Q37 -5 24 -3T-4 5L8 90Q31
83 56 90T104 135Q119 160 132 204T155 317T172 479T182 700H594V-24Z" />
<glyph unicode="&#x513;" glyph-name="uni0513" horiz-adv-x="584" d="M496 525V-24Q496 -117 463 -161T353 -206Q333 -206 311 -203V-128Q342 -129 360 -122T388 -99T401 -58T404 0V447H234L232 417Q225 318 216 240T188 107T140 24T62 -5Q40 -5 23 -3T-6 5L8
89Q21 85 37 85Q61 85 80 102T113 168T136 302T149 525H496Z" />
<glyph unicode="&#x51c;" glyph-name="uni051C" horiz-adv-x="913" d="M247 246L263 129H265L283 248L438 700H488L644 246L662 129H664L683 248L807 700H905L692 -10H635L482 445L461 551H456L436 444L283 -10H225L8 700H113L247 246Z" />
<glyph unicode="&#x51d;" glyph-name="uni051D" horiz-adv-x="840" d="M468 525L554 326L597 225L624 124H631L654 228L752 525H840L649 -11H599L452 328V327L426 424L396 326V327L255 -11H207L8 525H109L220 228L239 123H248L276 230L397 525H468Z" />
<glyph unicode="&#x524;" glyph-name="uni0524" horiz-adv-x="757" d="M530 612H189V0H89V700H630V88H728V-128H659L643 0H530V612Z" />
<glyph unicode="&#x525;" glyph-name="uni0525" horiz-adv-x="620" d="M438 447H180V0H88V525H530V78H600V-124H535L519 0H438V447Z" />
<glyph unicode="&#x526;" glyph-name="uni0526" horiz-adv-x="702" d="M486 0V228Q486 361 354 361Q303 361 260 349T189 316V0H89V700H189V402Q218 418 266 432T377 447Q423 447 461 437T527 403T570 343T586 250V88H682V-128H613L597 0H486Z" />
<glyph unicode="&#x527;" glyph-name="uni0527" horiz-adv-x="638" d="M180 700V460H191Q221 496 263 518T367 540Q415 540 450 530T508 493T542 422T553 310V78H618V-124H553L537 0H461V290Q461 333 456 364T436 417T397 448T335 458Q309 458 284 449T238 424T202
386T180 335V0H88V700H180Z" />
<glyph unicode="&#x1e30;" glyph-name="uni1E30" horiz-adv-x="669" d="M238 318H189V0H89V700H189V378L235 392L487 700H601L349 400L302 366L357 326L635 0H509L238 318ZM340 870H472V847L294 752H213L340 870Z" />
<glyph unicode="&#x1e31;" glyph-name="uni1E31" horiz-adv-x="557" d="M237 236H180V0H88V700H180V286L232 303L406 525H514L347 322H348L293 282L356 237L541 0H425L237 236ZM327 720H431V697L319 570H263L327 720Z" />
<glyph unicode="&#x1e3e;" glyph-name="uni1E3E" horiz-adv-x="868" d="M679 451L690 563H686L643 466L448 156H418L213 467L172 562H167L183 452V0H89V700H164L401 343L438 267H440L475 345L700 700H779V0H679V451ZM486 870H618V847L440 752H359L486 870Z" />
<glyph unicode="&#x1e3f;" glyph-name="uni1E3F" horiz-adv-x="948" d="M428 0V288Q428 330 424 362T408 415T375 447T319 458Q266 458 231 429T180 353V0H88V525H151L169 455H179Q211 491 252 515T358 540Q412 540 448 517T504 440Q534 486 580 513T683 540Q731
540 764 529T819 491T850 418T860 302V0H768V302Q768 342 764 371T747 419T714 448T657 458Q600 458 567 428T520 338V0H428ZM496 720H600V697L488 570H432L496 720Z" />
<glyph unicode="&#x1e54;" glyph-name="uni1E54" horiz-adv-x="614" d="M89 693Q131 702 180 705T278 709Q329 709 381 700T477 667T547 601T575 491Q575 428 550 384T484 311T389 270T278 257Q272 257 260 257T234 258T208 260T189 262V0H89V693ZM281 623Q254
623 229 622T189 617V348Q194 346 205 346T229 344T253 343T271 343Q307 343 342 348T405 370T451 415T469 490Q469 530 452 556T408 597T348 617T281 623ZM344 870H476V847L298 752H217L344 870Z" />
<glyph unicode="&#x1e55;" glyph-name="uni1E55" horiz-adv-x="630" d="M88 525H150L168 458H177Q204 497 247 518T344 540Q458 540 514 477T570 274Q570 208 552 155T499 64T415 6T304 -14Q284 -14 268 -13T237 -8T209 0T180 11V-200H88V525ZM323 462Q263 462
229 432T180 340V98Q203 82 230 73T299 64Q380 64 426 117T472 275Q472 360 438 411T323 462ZM327 720H431V697L319 570H263L327 720Z" />
<glyph unicode="&#x1e9e;" glyph-name="uni1E9E" horiz-adv-x="736" d="M468 590Q449 607 407 618T316 630Q269 630 243 614T205 569T191 505T189 430V0H89V467Q89 518 99 562T134 640T205 692T321 712Q369 712 408 705T481 685T543 657T596 622L424 432L387 404V401L424
408Q539 406 603 356T668 214Q668 160 649 118T594 47T507 3T392 -13Q381 -13 363 -12T325 -8T286 -1T255 8L272 94Q282 89 298 85T331 79T364 76T392 75Q476 75 519 109T562 207Q562 273 509 303T355 334H261V368L468 590Z" />
<glyph unicode="&#x2013;" glyph-name="endash" horiz-adv-x="724" d="M128 331H596V245H128V331Z" />
<glyph unicode="&#x2014;" glyph-name="emdash" horiz-adv-x="899" d="M128 331H771V245H128V331Z" />
<glyph unicode="&#x2018;" glyph-name="quoteleft" horiz-adv-x="217" d="M174 619Q174 595 157 581T114 567Q82 567 63 586T44 642Q44 676 54 701T80 742T112 769T142 783L169 743Q145 732 130 714T117 670Q143 675 158 660T174 619Z" />
<glyph unicode="&#x2019;" glyph-name="quoteright" horiz-adv-x="217" d="M44 655Q44 679 60 693T103 708Q135 708 154 689T174 633Q174 598 163 573T137 531T104 505T75 491L47 532Q71 543 86 560T101 604Q75 599 60 614T44 655Z" />
<glyph unicode="&#x201a;" glyph-name="quotesinglbase" horiz-adv-x="217" d="M44 51Q44 75 60 89T103 104Q135 104 154 85T174 29Q174 -6 163 -31T137 -73T104 -99T75 -113L47 -72Q71 -61 86 -44T101 0Q75 -5 60 10T44 51Z" />
<glyph unicode="&#x201c;" glyph-name="quotedblleft" horiz-adv-x="379" d="M336 619Q336 595 319 581T276 567Q244 567 225 586T206 642Q206 676 216 701T242 742T274 769T304 783L331 743Q307 732 292 714T279 670Q305 675 320 660T336 619ZM174 619Q174 595
157 581T114 567Q82 567 63 586T44 642Q44 676 54 701T80 742T112 769T142 783L169 743Q145 732 130 714T117 670Q143 675 158 660T174 619Z" />
<glyph unicode="&#x201d;" glyph-name="quotedblright" horiz-adv-x="379" d="M206 654Q206 678 222 692T265 707Q297 707 316 688T336 632Q336 597 325 572T299 530T266 504T237 490L209 531Q233 542 248 559T263 603Q237 598 222 613T206 654ZM44 654Q44 678
60 692T103 707Q135 707 154 688T174 632Q174 597 163 572T137 530T104 504T75 490L47 531Q71 542 86 559T101 603Q75 598 60 613T44 654Z" />
<glyph unicode="&#x201e;" glyph-name="quotedblbase" horiz-adv-x="379" d="M44 51Q44 75 60 89T103 104Q135 104 154 85T174 29Q174 -6 163 -31T137 -73T104 -99T75 -113L47 -72Q71 -61 86 -44T101 0Q75 -5 60 10T44 51ZM206 51Q206 75 222 89T265 104Q297 104
316 85T336 29Q336 -6 325 -31T299 -73T266 -99T237 -113L209 -72Q233 -61 248 -44T263 0Q237 -5 222 10T206 51Z" />
<glyph unicode="&#x2020;" glyph-name="dagger" horiz-adv-x="535" d="M44 506H185L234 494L222 542V700H314V542L301 494L350 506H491V422H348L301 434L314 390V0L298 -200H238L222 1V390L234 434L185 422H44V506Z" />
<glyph unicode="&#x2021;" glyph-name="daggerdbl" horiz-adv-x="535" d="M222 392L234 434L185 422H44V506H185L234 494L222 541V700H314V541L301 494L350 506H491V422H348L301 434L314 392V280L301 238L348 250H491V166H350L301 178L314 131V0L297 -200H239L222
1V131L234 178L185 166H44V250H185L234 238L222 280V392Z" />
<glyph unicode="&#x2022;" glyph-name="bullet" horiz-adv-x="495" d="M93 311Q93 342 105 368T139 413T188 442T247 453Q278 453 306 443T356 415T389 371T402 311Q402 278 390 252T356 207T307 179T248 169Q216 169 188 179T139 207T106 251T93 311Z" />
<glyph unicode="&#x2026;" glyph-name="ellipsis" horiz-adv-x="820" d="M618 51Q618 80 636 97T685 114Q715 114 733 97T752 51Q752 24 734 6T685 -12Q655 -12 637 6T618 51ZM345 51Q345 80 363 97T412 114Q442 114 460 97T479 51Q479 24 461 6T412 -12Q382 -12
364 6T345 51ZM72 51Q72 80 90 97T139 114Q169 114 187 97T206 51Q206 24 188 6T139 -12Q109 -12 91 6T72 51Z" />
<glyph unicode="&#x2030;" glyph-name="perthousand" horiz-adv-x="1263" d="M74 542Q74 586 87 618T123 671T177 702T246 712Q283 712 314 703T369 673T406 621T419 542Q419 496 406 464T370 411T315 382T246 372Q209 372 178 381T123 411T87 463T74 542ZM162
542Q162 488 183 463T246 437Q286 437 308 460T331 542Q331 602 309 624T246 647Q206 647 184 625T162 542ZM469 170Q469 214 482 246T518 299T572 330T641 340Q678 340 709 331T764 301T801 249T814 170Q814 124 801 92T765 39T710 10T641 0Q604 0 573 9T518 39T482
91T469 170ZM557 170Q557 116 578 91T641 65Q681 65 703 88T726 170Q726 230 704 252T641 275Q601 275 579 253T557 170ZM863 170Q863 214 876 246T912 299T966 330T1035 340Q1072 340 1103 331T1158 301T1195 249T1208 170Q1208 124 1195 92T1159 39T1104 10T1035
0Q998 0 967 9T912 39T876 91T863 170ZM951 170Q951 116 972 91T1035 65Q1075 65 1097 88T1120 170Q1120 230 1098 252T1035 275Q995 275 973 253T951 170ZM702 713L760 665L188 -13L131 36L702 713Z" />
<glyph unicode="&#x2039;" glyph-name="guilsinglleft" horiz-adv-x="326" d="M40 259L216 489L275 436L174 301L121 260L174 224L282 92L222 38L40 259Z" />
<glyph unicode="&#x203a;" glyph-name="guilsinglright" horiz-adv-x="326" d="M286 268L110 38L50 90L152 226L205 267L152 303L44 436L104 489L286 268Z" />
<glyph unicode="&#x2044;" glyph-name="fraction" horiz-adv-x="201" d="M333 714L393 671L-131 -13L-191 32L333 714Z" />
<glyph unicode="&#x2081;" glyph-name="uni2081" horiz-adv-x="436" d="M80 -28H195V204L203 242L173 213L90 165L58 224L226 327H279V-28H381V-100H80V-28Z" />
<glyph unicode="&#x2082;" glyph-name="uni2082" horiz-adv-x="436" d="M355 205Q355 175 345 148T316 95T272 44T219 -8L169 -38V-40L232 -27H376V-100H55V-58Q80 -40 117 -10T188 55T246 126T271 193Q271 223 251 237T198 252Q168 252 141 242T93 219L66 285Q96
305 134 316T213 327Q282 327 318 295T355 205Z" />
<glyph unicode="&#x2083;" glyph-name="uni2083" horiz-adv-x="436" d="M185 -38Q292 -38 292 31Q292 61 268 79T186 98H129V124L230 231L268 257L213 251H74V320H359V280L249 165L220 147V144L246 147Q307 146 341 115T375 29Q375 -35 325 -71T194 -107Q154 -107
125 -101T72 -86L90 -18Q109 -26 132 -32T185 -38Z" />
<glyph unicode="&#x2084;" glyph-name="uni2084" horiz-adv-x="436" d="M419 -8H329V-100H251V-8H27V37L274 336H329V59H419V-8ZM251 179L258 227H255L231 182L151 85L114 53L170 59H251V179Z" />
<glyph unicode="&#x20ac;" glyph-name="Euro" horiz-adv-x="634" d="M48 462H117Q130 528 159 575T228 653T317 698T422 713Q479 713 520 705T591 686L564 606Q539 617 506 623T424 629Q388 629 355 620T295 591T248 539T216 462H521L501 389L206 388Q205 378
205 369T205 349Q205 340 205 331T206 314L479 315L459 240H215Q257 71 439 71Q483 71 517 81T578 105L601 31Q568 6 518 -3T420 -13Q298 -13 219 48T116 240H27L48 315H108Q107 323 107 332T107 350Q107 360 107 369T108 389H27L48 462Z" />
<glyph unicode="&#x20b4;" glyph-name="uni20B4" horiz-adv-x="634" d="M545 319V245H288Q266 225 247 195T228 136Q228 102 258 85T359 67Q411 67 445 77T505 100L531 25Q506 11 462 -1T340 -13Q236 -13 184 23T132 127Q132 144 138 162T152 196T170 225T186
245H90V319H545ZM90 385V459H353Q379 482 393 511T408 570Q408 604 383 618T298 633Q253 633 224 623T168 602L139 679Q155 686 171 692T208 703T254 710T315 713Q409 713 456 682T504 586Q504 549 489 516T451 459H545V385H90Z" />
<glyph unicode="&#x20b6;" glyph-name="uni20B6" horiz-adv-x="634" d="M52 343H131V693Q173 702 220 705T316 709Q368 709 417 700T504 666T565 601T588 495Q588 433 564 390T501 320T413 281T312 268Q306 268 295 268T270 269T245 271T227 272V213H409V143H227V0H131V143H52V213H131V274H52V343ZM320
627Q293 627 268 625T227 621V349Q232 348 243 347T266 346T290 345T307 344Q339 344 371 350T428 374T470 420T486 493Q486 532 473 557T438 598T385 620T320 627Z" />
<glyph unicode="&#x20b7;" glyph-name="uni20B7" horiz-adv-x="634" d="M52 343H131V693Q173 702 220 705T316 709Q368 709 417 700T504 666T565 601T588 495Q588 433 564 390T501 320T413 281T312 268Q306 268 295 268T270 269T245 271T227 272V213H409V143H227V0H131V143H52V213H131V274H52V343ZM320
627Q293 627 268 625T227 621V349Q232 348 243 347T266 346T290 345T307 344Q339 344 371 350T428 374T470 420T486 493Q486 532 473 557T438 598T385 620T320 627Z" />
<glyph unicode="&#x20b9;" glyph-name="uni20B9" horiz-adv-x="634" d="M52 343H131V693Q173 702 220 705T316 709Q368 709 417 700T504 666T565 601T588 495Q588 433 564 390T501 320T413 281T312 268Q306 268 295 268T270 269T245 271T227 272V213H409V143H227V0H131V143H52V213H131V274H52V343ZM320
627Q293 627 268 625T227 621V349Q232 348 243 347T266 346T290 345T307 344Q339 344 371 350T428 374T470 420T486 493Q486 532 473 557T438 598T385 620T320 627Z" />
<glyph unicode="&#x20ba;" glyph-name="uni20BA" horiz-adv-x="634" d="M52 343H131V693Q173 702 220 705T316 709Q368 709 417 700T504 666T565 601T588 495Q588 433 564 390T501 320T413 281T312 268Q306 268 295 268T270 269T245 271T227 272V213H409V143H227V0H131V143H52V213H131V274H52V343ZM320
627Q293 627 268 625T227 621V349Q232 348 243 347T266 346T290 345T307 344Q339 344 371 350T428 374T470 420T486 493Q486 532 473 557T438 598T385 620T320 627Z" />
<glyph unicode="&#x20bb;" glyph-name="uni20BB" horiz-adv-x="634" d="M52 343H131V693Q173 702 220 705T316 709Q368 709 417 700T504 666T565 601T588 495Q588 433 564 390T501 320T413 281T312 268Q306 268 295 268T270 269T245 271T227 272V213H409V143H227V0H131V143H52V213H131V274H52V343ZM320
627Q293 627 268 625T227 621V349Q232 348 243 347T266 346T290 345T307 344Q339 344 371 350T428 374T470 420T486 493Q486 532 473 557T438 598T385 620T320 627Z" />
<glyph unicode="&#x20bc;" glyph-name="uni20BC" horiz-adv-x="634" d="M52 343H131V693Q173 702 220 705T316 709Q368 709 417 700T504 666T565 601T588 495Q588 433 564 390T501 320T413 281T312 268Q306 268 295 268T270 269T245 271T227 272V213H409V143H227V0H131V143H52V213H131V274H52V343ZM320
627Q293 627 268 625T227 621V349Q232 348 243 347T266 346T290 345T307 344Q339 344 371 350T428 374T470 420T486 493Q486 532 473 557T438 598T385 620T320 627Z" />
<glyph unicode="&#x20bd;" glyph-name="uni20BD" horiz-adv-x="634" d="M52 343H131V693Q173 702 220 705T316 709Q368 709 417 700T504 666T565 601T588 495Q588 433 564 390T501 320T413 281T312 268Q306 268 295 268T270 269T245 271T227 272V213H409V143H227V0H131V143H52V213H131V274H52V343ZM320
627Q293 627 268 625T227 621V349Q232 348 243 347T266 346T290 345T307 344Q339 344 371 350T428 374T470 420T486 493Q486 532 473 557T438 598T385 620T320 627Z" />
<glyph unicode="&#x20be;" glyph-name="uni20BE" horiz-adv-x="634" d="M52 343H131V693Q173 702 220 705T316 709Q368 709 417 700T504 666T565 601T588 495Q588 433 564 390T501 320T413 281T312 268Q306 268 295 268T270 269T245 271T227 272V213H409V143H227V0H131V143H52V213H131V274H52V343ZM320
627Q293 627 268 625T227 621V349Q232 348 243 347T266 346T290 345T307 344Q339 344 371 350T428 374T470 420T486 493Q486 532 473 557T438 598T385 620T320 627Z" />
<glyph unicode="&#x20bf;" glyph-name="uni20BF" horiz-adv-x="634" d="M52 343H131V693Q173 702 220 705T316 709Q368 709 417 700T504 666T565 601T588 495Q588 433 564 390T501 320T413 281T312 268Q306 268 295 268T270 269T245 271T227 272V213H409V143H227V0H131V143H52V213H131V274H52V343ZM320
627Q293 627 268 625T227 621V349Q232 348 243 347T266 346T290 345T307 344Q339 344 371 350T428 374T470 420T486 493Q486 532 473 557T438 598T385 620T320 627Z" />
<glyph unicode="&#x20c0;" glyph-name="uni20C0" horiz-adv-x="634" d="M52 343H131V693Q173 702 220 705T316 709Q368 709 417 700T504 666T565 601T588 495Q588 433 564 390T501 320T413 281T312 268Q306 268 295 268T270 269T245 271T227 272V213H409V143H227V0H131V143H52V213H131V274H52V343ZM320
627Q293 627 268 625T227 621V349Q232 348 243 347T266 346T290 345T307 344Q339 344 371 350T428 374T470 420T486 493Q486 532 473 557T438 598T385 620T320 627Z" />
<glyph unicode="&#x20c1;" glyph-name="uni20C1" horiz-adv-x="634" d="M52 343H131V693Q173 702 220 705T316 709Q368 709 417 700T504 666T565 601T588 495Q588 433 564 390T501 320T413 281T312 268Q306 268 295 268T270 269T245 271T227 272V213H409V143H227V0H131V143H52V213H131V274H52V343ZM320
627Q293 627 268 625T227 621V349Q232 348 243 347T266 346T290 345T307 344Q339 344 371 350T428 374T470 420T486 493Q486 532 473 557T438 598T385 620T320 627Z" />
<glyph unicode="&#x20c2;" glyph-name="uni20C2" horiz-adv-x="634" d="M52 343H131V693Q173 702 220 705T316 709Q368 709 417 700T504 666T565 601T588 495Q588 433 564 390T501 320T413 281T312 268Q306 268 295 268T270 269T245 271T227 272V213H409V143H227V0H131V143H52V213H131V274H52V343ZM320
627Q293 627 268 625T227 621V349Q232 348 243 347T266 346T290 345T307 344Q339 344 371 350T428 374T470 420T486 493Q486 532 473 557T438 598T385 620T320 627Z" />
<glyph unicode="&#x20c3;" glyph-name="uni20C3" horiz-adv-x="634" d="M52 343H131V693Q173 702 220 705T316 709Q368 709 417 700T504 666T565 601T588 495Q588 433 564 390T501 320T413 281T312 268Q306 268 295 268T270 269T245 271T227 272V213H409V143H227V0H131V143H52V213H131V274H52V343ZM320
627Q293 627 268 625T227 621V349Q232 348 243 347T266 346T290 345T307 344Q339 344 371 350T428 374T470 420T486 493Q486 532 473 557T438 598T385 620T320 627Z" />
<glyph unicode="&#x20c4;" glyph-name="uni20C4" horiz-adv-x="634" d="M52 343H131V693Q173 702 220 705T316 709Q368 709 417 700T504 666T565 601T588 495Q588 433 564 390T501 320T413 281T312 268Q306 268 295 268T270 269T245 271T227 272V213H409V143H227V0H131V143H52V213H131V274H52V343ZM320
627Q293 627 268 625T227 621V349Q232 348 243 347T266 346T290 345T307 344Q339 344 371 350T428 374T470 420T486 493Q486 532 473 557T438 598T385 620T320 627Z" />
<glyph unicode="&#x20c5;" glyph-name="uni20C5" horiz-adv-x="634" d="M52 343H131V693Q173 702 220 705T316 709Q368 709 417 700T504 666T565 601T588 495Q588 433 564 390T501 320T413 281T312 268Q306 268 295 268T270 269T245 271T227 272V213H409V143H227V0H131V143H52V213H131V274H52V343ZM320
627Q293 627 268 625T227 621V349Q232 348 243 347T266 346T290 345T307 344Q339 344 371 350T428 374T470 420T486 493Q486 532 473 557T438 598T385 620T320 627Z" />
<glyph unicode="&#x20c6;" glyph-name="uni20C6" horiz-adv-x="634" d="M52 343H131V693Q173 702 220 705T316 709Q368 709 417 700T504 666T565 601T588 495Q588 433 564 390T501 320T413 281T312 268Q306 268 295 268T270 269T245 271T227 272V213H409V143H227V0H131V143H52V213H131V274H52V343ZM320
627Q293 627 268 625T227 621V349Q232 348 243 347T266 346T290 345T307 344Q339 344 371 350T428 374T470 420T486 493Q486 532 473 557T438 598T385 620T320 627Z" />
<glyph unicode="&#x20c7;" glyph-name="uni20C7" horiz-adv-x="634" d="M52 343H131V693Q173 702 220 705T316 709Q368 709 417 700T504 666T565 601T588 495Q588 433 564 390T501 320T413 281T312 268Q306 268 295 268T270 269T245 271T227 272V213H409V143H227V0H131V143H52V213H131V274H52V343ZM320
627Q293 627 268 625T227 621V349Q232 348 243 347T266 346T290 345T307 344Q339 344 371 350T428 374T470 420T486 493Q486 532 473 557T438 598T385 620T320 627Z" />
<glyph unicode="&#x20c8;" glyph-name="uni20C8" horiz-adv-x="634" d="M52 343H131V693Q173 702 220 705T316 709Q368 709 417 700T504 666T565 601T588 495Q588 433 564 390T501 320T413 281T312 268Q306 268 295 268T270 269T245 271T227 272V213H409V143H227V0H131V143H52V213H131V274H52V343ZM320
627Q293 627 268 625T227 621V349Q232 348 243 347T266 346T290 345T307 344Q339 344 371 350T428 374T470 420T486 493Q486 532 473 557T438 598T385 620T320 627Z" />
<glyph unicode="&#x20c9;" glyph-name="uni20C9" horiz-adv-x="634" d="M52 343H131V693Q173 702 220 705T316 709Q368 709 417 700T504 666T565 601T588 495Q588 433 564 390T501 320T413 281T312 268Q306 268 295 268T270 269T245 271T227 272V213H409V143H227V0H131V143H52V213H131V274H52V343ZM320
627Q293 627 268 625T227 621V349Q232 348 243 347T266 346T290 345T307 344Q339 344 371 350T428 374T470 420T486 493Q486 532 473 557T438 598T385 620T320 627Z" />
<glyph unicode="&#x20ca;" glyph-name="uni20CA" horiz-adv-x="634" d="M52 343H131V693Q173 702 220 705T316 709Q368 709 417 700T504 666T565 601T588 495Q588 433 564 390T501 320T413 281T312 268Q306 268 295 268T270 269T245 271T227 272V213H409V143H227V0H131V143H52V213H131V274H52V343ZM320
627Q293 627 268 625T227 621V349Q232 348 243 347T266 346T290 345T307 344Q339 344 371 350T428 374T470 420T486 493Q486 532 473 557T438 598T385 620T320 627Z" />
<glyph unicode="&#x20cb;" glyph-name="uni20CB" horiz-adv-x="634" d="M52 343H131V693Q173 702 220 705T316 709Q368 709 417 700T504 666T565 601T588 495Q588 433 564 390T501 320T413 281T312 268Q306 268 295 268T270 269T245 271T227 272V213H409V143H227V0H131V143H52V213H131V274H52V343ZM320
627Q293 627 268 625T227 621V349Q232 348 243 347T266 346T290 345T307 344Q339 344 371 350T428 374T470 420T486 493Q486 532 473 557T438 598T385 620T320 627Z" />
<glyph unicode="&#x20cc;" glyph-name="uni20CC" horiz-adv-x="634" d="M52 343H131V693Q173 702 220 705T316 709Q368 709 417 700T504 666T565 601T588 495Q588 433 564 390T501 320T413 281T312 268Q306 268 295 268T270 269T245 271T227 272V213H409V143H227V0H131V143H52V213H131V274H52V343ZM320
627Q293 627 268 625T227 621V349Q232 348 243 347T266 346T290 345T307 344Q339 344 371 350T428 374T470 420T486 493Q486 532 473 557T438 598T385 620T320 627Z" />
<glyph unicode="&#x20cd;" glyph-name="uni20CD" horiz-adv-x="634" d="M52 343H131V693Q173 702 220 705T316 709Q368 709 417 700T504 666T565 601T588 495Q588 433 564 390T501 320T413 281T312 268Q306 268 295 268T270 269T245 271T227 272V213H409V143H227V0H131V143H52V213H131V274H52V343ZM320
627Q293 627 268 625T227 621V349Q232 348 243 347T266 346T290 345T307 344Q339 344 371 350T428 374T470 420T486 493Q486 532 473 557T438 598T385 620T320 627Z" />
<glyph unicode="&#x20ce;" glyph-name="uni20CE" horiz-adv-x="634" d="M52 343H131V693Q173 702 220 705T316 709Q368 709 417 700T504 666T565 601T588 495Q588 433 564 390T501 320T413 281T312 268Q306 268 295 268T270 269T245 271T227 272V213H409V143H227V0H131V143H52V213H131V274H52V343ZM320
627Q293 627 268 625T227 621V349Q232 348 243 347T266 346T290 345T307 344Q339 344 371 350T428 374T470 420T486 493Q486 532 473 557T438 598T385 620T320 627Z" />
<glyph unicode="&#x20cf;" glyph-name="uni20CF" horiz-adv-x="634" d="M52 343H131V693Q173 702 220 705T316 709Q368 709 417 700T504 666T565 601T588 495Q588 433 564 390T501 320T413 281T312 268Q306 268 295 268T270 269T245 271T227 272V213H409V143H227V0H131V143H52V213H131V274H52V343ZM320
627Q293 627 268 625T227 621V349Q232 348 243 347T266 346T290 345T307 344Q339 344 371 350T428 374T470 420T486 493Q486 532 473 557T438 598T385 620T320 627Z" />
<glyph unicode="&#x2113;" glyph-name="afii61289" horiz-adv-x="500" d="M406 30Q384 16 349 2T278 -12Q215 -12 187 18T158 114V218L108 174L73 218L158 292V546Q158 590 168 621T195 673T236 702T287 712Q335 712 366 683T397 593Q397 519 357 436T226 265V125Q226
81 243 65T284 48Q309 48 339 58T389 80L406 30ZM333 588Q333 622 319 637T287 652Q275 652 264 649T245 635T231 606T226 557V345Q282 410 307 470T333 588Z" />
<glyph unicode="&#x2116;" glyph-name="afii61352" horiz-adv-x="1120" d="M731 334H1040V250H731V334ZM237 438L176 538H172L184 442V0H89V710H146L482 264L539 167H544L532 260V700H627V-10H570L237 438ZM710 542Q710 586 723 618T759 671T813 702T882 712Q919
712 950 703T1005 673T1042 621T1055 542Q1055 496 1042 464T1006 411T951 382T882 372Q845 372 814 381T759 411T723 463T710 542ZM798 542Q798 488 819 463T882 437Q922 437 944 460T967 542Q967 602 945 624T882 647Q842 647 820 625T798 542Z" />
<glyph unicode="&#x2122;" glyph-name="trademark" horiz-adv-x="975" d="M425 620H279V340H184V620H38V700H425V620ZM846 502L858 605H853L811 520L718 385H675L581 519L541 605H536L552 503V340H467V700H560L673 535L703 476H704L736 537L841 700H935V340H846V502Z" />
<glyph unicode="&#x2126;" glyph-name="uni2126" horiz-adv-x="875" d="M81 82H206L307 71V98L250 107Q215 122 185 147T131 207T95 285T81 380Q81 456 106 517T177 622T290 689T437 713Q522 713 588 688T701 618T770 512T794 377Q794 324 779 281T740 204T687
147T628 108L566 98V71L669 82H795V0H478V148Q510 153 546 167T614 209T667 278T688 381Q688 426 674 469T630 547T551 603T436 625Q315 625 251 563T187 378Q187 319 206 277T256 208T324 167T396 148V0H81V82Z" />
<glyph unicode="&#x212e;" glyph-name="estimated" horiz-adv-x="600" d="M157 263V82Q219 23 302 23Q426 23 495 143L530 122Q487 56 431 22T302 -13Q243 -13 195 8T114 67T62 154T44 263Q44 322 62 372T115 460T196 518T302 539Q364 539 411 517T492 458T542
370T561 263H157ZM448 299V444Q385 504 301 504Q215 504 157 444V299H448Z" />
<glyph unicode="&#x2202;" glyph-name="partialdiff" horiz-adv-x="586" d="M455 503Q449 554 423 588T361 644T280 674T194 681Q194 683 195 686T197 696T202 716T211 752Q288 752 351 737T458 684T527 586T551 435Q551 320 528 236T465 96T368 13T246 -14Q136
-14 80 39T24 189Q24 249 43 310T100 420T195 501T329 532Q376 532 399 525T443 503H455ZM456 403Q433 427 403 442T323 457Q281 457 244 436T180 379T138 294T122 187Q122 162 129 139T151 99T192 71T253 60Q312 60 351 92T413 173T446 284T456 403Z" />
<glyph unicode="&#x2206;" glyph-name="uni2206" horiz-adv-x="625" d="M16 0V45L292 710H335L614 45V0H16ZM126 86H499L338 465L311 565H309L279 464L126 86Z" />
<glyph unicode="&#x220f;" glyph-name="product" horiz-adv-x="739" d="M551 612H188V-200H88V700H651V-200H551V612Z" />
<glyph unicode="&#x2211;" glyph-name="summation" horiz-adv-x="554" d="M145 -74L101 -112H515V-200H15V-112L252 219L292 250L251 283L15 612V700H515V612H107L154 574L382 256L145 -74Z" />
<glyph unicode="&#x2212;" glyph-name="minus" horiz-adv-x="554" d="M43 379H511V295H43V379Z" />
<glyph unicode="&#x2215;" glyph-name="uni2215" horiz-adv-x="554" d="M509 714L569 671L45 -13L-15 32L509 714Z" />
<glyph unicode="&#x221a;" glyph-name="radical" horiz-adv-x="554" d="M187 453L286 227L310 121H312L334 229L490 700H581L333 -10H293L123 367H-9V453H187Z" />
<glyph unicode="&#x221e;" glyph-name="infinity" horiz-adv-x="934" d="M460 281Q421 222 365 191T244 160Q206 160 173 173T113 210T72 268T57 346Q57 391 71 427T112 489T174 528T252 542Q329 542 384 511T474 432Q522 492 579 517T700 542Q738 542 770 529T827
492T864 434T878 357Q878 312 863 276T822 214T759 174T680 160Q642 160 609 170T549 196T499 235T460 281ZM682 246Q703 246 722 253T755 275T777 309T786 354Q786 374 780 392T760 425T726 447T679 456Q637 456 592 436T509 370Q522 344 540 322T581 283T628
256T682 246ZM253 456Q232 456 213 448T180 426T158 392T149 349Q149 304 180 275T264 246Q310 246 353 273T425 340Q396 394 353 425T253 456Z" />
<glyph unicode="&#x222b;" glyph-name="integral'" horiz-adv-x="386" d="M240 -52Q240 -135 203 -171T87 -208Q46 -208 11 -201T-51 -182L-25 -108Q1 -118 24 -123T73 -128Q115 -128 130 -104T145 -22V557Q145 639 181 676T297 713Q334 713 370 705T434 687L412
611Q386 621 362 627T310 633Q269 633 255 610T240 529V-52Z" />
<glyph unicode="&#x2248;" glyph-name="approxequal" horiz-adv-x="554" d="M34 451Q82 485 120 498T190 511Q221 511 247 503T297 484T345 466T393 457Q413 457 435 464T483 492L520 421Q479 395 447 385T388 374Q359 374 335 382T287 401T240 421T190 430Q165
430 136 419T70 381L34 451ZM34 535Q82 569 120 582T190 595Q221 595 247 587T297 568T345 550T393 541Q413 541 435 548T483 576L520 505Q479 479 447 469T388 458Q359 458 335 466T287 485T240 505T190 514Q165 514 136 503T70 465L34 535Z" />
<glyph unicode="&#x2260;" glyph-name="notequal" horiz-adv-x="554" d="M43 465H296L359 596H446L382 465H511V381H341L299 293H511V209H258L188 64H103L173 209H43V293H213L256 381H43V465Z" />
<glyph unicode="&#x2264;" glyph-name="lessequal" horiz-adv-x="554" d="M506 82L468 7L58 221L97 297L506 82ZM37 423V461L456 697L498 625L242 481L142 444L241 412L503 269L462 199L37 423Z" />
<glyph unicode="&#x2265;" glyph-name="greaterequal" horiz-adv-x="554" d="M506 227L100 7L59 80L466 302L506 227ZM506 472V434L87 198L45 270L301 414L401 451L302 483L40 626L81 696L506 472Z" />
<glyph unicode="&#x25ca;" glyph-name="lozenge" horiz-adv-x="554" d="M296 -10H253L35 342L253 710H296L519 347L296 -10ZM314 169L422 337L305 523L274 609H272L240 521L133 353L249 167L281 81H283L314 169Z" />
<glyph unicode="&#x2c67;" glyph-name="uni2C67" horiz-adv-x="770" d="M544 313H189V0H89V700H189V401H544V700H644V88H741V-128H672L656 0H544V313Z" />
<glyph unicode="&#x2c68;" glyph-name="uni2C68" horiz-adv-x="638" d="M180 700V460H191Q221 496 263 518T367 540Q415 540 450 530T508 493T542 422T553 310V78H618V-124H553L537 0H461V290Q461 333 456 364T436 417T397 448T335 458Q309 458 284 449T238 424T202
386T180 335V0H88V700H180Z" />
<glyph unicode="&#xf401;" glyph-name="uniF401" horiz-adv-x="2" d="M-216 870H-84V847L-262 752H-343L-216 870Z" />
<glyph unicode="&#xf406;" glyph-name="uniF406" horiz-adv-x="503" d="M108 872Q127 840 166 823T256 806Q309 806 345 825T399 872L443 849Q433 821 415 799T371 762T316 738T255 730Q226 730 197 736T142 757T95 792T60 843L108 872Z" />
<glyph unicode="&#xf407;" glyph-name="uniF407" horiz-adv-x="325" d="M165 -53Q214 -61 237 -79T261 -130Q261 -172 224 -197T121 -223Q108 -223 95 -222T67 -218L76 -182Q111 -184 131 -181T161 -171T173 -156T176 -139Q176 -122 151 -113T77 -98L131 -8H192L165 -53Z" />
<glyph unicode="&#xf408;" glyph-name="uniF408" horiz-adv-x="478" d="M206 870H279L418 770V745H326L261 792L241 827L220 793L150 745H60V771L206 870Z" />
<glyph unicode="&#xf409;" glyph-name="uniF409" horiz-adv-x="249" d="M59 -102Q59 -80 76 -66T117 -52Q146 -52 167 -71T189 -130Q189 -157 179 -178T155 -214T126 -238T98 -251L69 -211Q88 -203 101 -188T115 -149Q92 -154 76 -140T59 -102Z" />
<glyph unicode="&#xf40a;" glyph-name="uniF40A" horiz-adv-x="217" d="M44 655Q44 679 60 693T103 708Q135 708 154 689T174 633Q174 598 163 573T137 531T104 505T75 491L47 532Q71 543 86 560T101 604Q75 599 60 614T44 655Z" />
<glyph unicode="&#xf40b;" glyph-name="uniF40B" horiz-adv-x="265" d="M60 798Q60 820 79 836T132 852Q166 852 185 836T205 798Q205 774 186 759T132 743Q98 743 79 758T60 798Z" />
<glyph unicode="&#xf40c;" glyph-name="uniF40C" horiz-adv-x="357" d="M60 769Q60 806 87 830T178 855Q236 855 266 833T297 769Q297 733 268 709T178 685Q118 685 89 708T60 769ZM130 769Q130 754 141 743T178 732Q227 732 227 769Q227 787 215 797T178 808Q153
808 142 798T130 769Z" />
<glyph unicode="&#xf40d;" glyph-name="uniF40D" horiz-adv-x="472" d="M60 791Q92 823 121 834T176 846Q197 846 217 841T257 829T294 817T330 811Q344 811 358 816T387 833L412 782Q383 758 358 749T308 740Q287 740 267 745T228 756T191 768T155 773Q138 773
120 767T84 742L60 791Z" />
<glyph unicode="&#xf40e;" glyph-name="uniF40E" horiz-adv-x="345" d="M235 0Q201 -17 181 -39T162 -92Q163 -115 178 -131T222 -147Q232 -147 244 -145T269 -137L281 -183Q264 -195 234 -201T177 -208Q126 -208 97 -184T67 -116Q67 -76 98 -47T183 0H235Z" />
<glyph unicode="&#xf486;" glyph-name="uniF486" horiz-adv-x="641" d="M559 538Q559 512 551 487T525 439T480 399T416 374V370Q448 366 478 354T531 321T568 270T582 199Q582 145 557 106T491 41T399 3T295 -9Q277 -9 251 -9T197 -7T140 -3T89 5V694Q130 701
185 705T303 709Q346 709 391 702T474 675T535 623T559 538ZM187 82Q194 80 208 79T238 77T271 76T302 75Q336 75 367 82T423 104T461 142T476 197Q476 237 459 260T413 296T350 312T281 316H187V82ZM242 394Q261 394 286 395T328 399Q353 406 375 416T415 441T442
475T452 520Q452 554 439 574T403 606T353 621T296 625Q261 625 232 624T187 620V394H242ZM337 870H469V847L291 752H210L337 870Z" />
<glyph unicode="&#xf487;" glyph-name="uniF487" horiz-adv-x="629" d="M88 700H180V460H190Q213 500 256 519T347 539Q456 539 512 473T569 272Q569 135 495 63T287 -9Q221 -9 168 2T88 28V700ZM334 461Q302 461 278 451T234 424T202 384T180 337V88Q229 69 299
69Q378 69 424 117T471 273Q471 313 463 347T438 407T396 446T334 461ZM354 720H458V697L346 570H290L354 720Z" />
<glyph unicode="&#xf488;" glyph-name="uniF488" horiz-adv-x="565" d="M89 700H512V614H189V391H489V305H189V0H89V700ZM338 870H470V847L292 752H211L338 870Z" />
<glyph unicode="&#xf489;" glyph-name="uniF489" horiz-adv-x="364" d="M24 525H113V539Q113 588 122 621T150 675T201 705T278 714Q316 714 344 710T404 694L384 619Q358 630 336 633T292 636Q264 636 247 631T221 614T208 580T205 525H359V447H205V0H113V447H24V525ZM330
870H462V847L284 752H203L330 870Z" />
<glyph unicode="&#xf49e;" glyph-name="uniF49E" horiz-adv-x="662" d="M-7 594H89V700H189V594H427V520H189V402Q218 418 266 432T377 447Q423 447 461 437T527 403T570 343T586 250V0H486V228Q486 361 354 361Q303 361 260 349T189 316V0H89V520H-7V594Z" />
<glyph unicode="&#xf49f;" glyph-name="uniF49F" horiz-adv-x="647" d="M0 634H94V700H186V634H357V568H186V460H197Q227 496 269 518T373 540Q421 540 456 530T514 493T548 422T559 310V0H467V290Q467 333 462 364T442 417T403 448T341 458Q315 458 290 449T244
424T208 386T186 335V0H94V568H0V634Z" />
<glyph unicode="&#xf4c6;" glyph-name="uniF4C6" horiz-adv-x="663" d="M176 700V479Q176 412 208 376T309 339Q360 339 403 351T474 383V700H574V-24Q574 -116 537 -163T421 -210Q401 -210 380 -207V-122Q411 -123 429 -117T458 -96T471 -57T474 0V298Q445 282
397 268T285 253Q238 253 200 264T134 300T91 363T76 458V700H176Z" />
<glyph unicode="&#xf4c7;" glyph-name="uniF4C7" horiz-adv-x="574" d="M152 525V396Q152 364 155 339T170 296T202 269T256 259Q307 259 341 270T394 296V525H486V-24Q486 -117 453 -161T343 -206Q323 -206 301 -203V-128Q332 -129 350 -122T378 -99T391 -58T394
0V223Q375 211 336 196T232 181Q190 181 158 190T104 221T71 279T60 371V525H152Z" />
<glyph unicode="&#xf4cc;" glyph-name="uniF4CC" horiz-adv-x="608" d="M311 340L338 251H344L365 343L507 700H609L413 238Q384 171 362 125T317 49T266 7T200 -6Q164 -6 143 -1T101 17L130 99Q151 87 169 85T204 82Q233 82 253 107T290 184L5 700H120L311 340ZM348
870H480V847L302 752H221L348 870Z" />
<glyph unicode="&#xf4cd;" glyph-name="uniF4CD" horiz-adv-x="531" d="M251 193L282 92H295L320 194L429 525H523L351 50Q332 1 313 -45T270 -126T218 -183T152 -205Q112 -205 84 -196L99 -118Q114 -123 129 -123Q149 -123 165 -118T196 -100T221 -64T243 -3L8
525H117L251 193ZM292 720H396V697L284 570H228L292 720Z" />
<glyph unicode="&#xf4d6;" glyph-name="uniF4D6" horiz-adv-x="631" d="M161 399H466Q456 515 393 570T230 627Q177 628 136 617T71 592L47 672Q80 691 131 702T240 713Q310 713 370 693T476 630T547 517T573 350Q573 251 543 182T464 70T350 7T216 -13Q161 -13
118 -5T45 15L71 101Q96 89 136 81T223 73Q266 73 308 85T383 126T439 201T467 313H161V399ZM176 798Q176 820 195 836T248 852Q282 852 301 836T321 798Q321 774 302 759T248 743Q214 743 195 758T176 798Z" />
<glyph unicode="&#xf4d7;" glyph-name="uniF4D7" horiz-adv-x="543" d="M143 304H384Q378 376 337 419T217 462Q170 462 136 450T78 423L48 491Q83 514 129 527T237 540Q300 540 346 521T423 466T468 379T483 262Q483 128 415 57T228 -14Q174 -14 126 -6T48 20L73
96Q100 82 138 73T214 64Q295 64 336 102T385 226H143V304ZM170 650Q170 673 188 691T235 710Q264 710 283 692T302 650Q302 627 283 610T235 592Q206 592 188 609T170 650Z" />
<glyph unicode="&#xf50a;" glyph-name="uniF50A" horiz-adv-x="589" d="M149 327V405H166Q175 405 189 405T219 406T249 407T273 410Q327 417 365 444T403 518Q403 549 392 569T360 602T312 620T255 626Q197 626 154 617T88 597L61 677Q71 683 92 689T140 700T201
708T270 712Q314 712 357 704T433 675T488 622T509 539Q509 489 474 444T366 379V375Q443 364 487 322T532 207Q532 156 512 117T458 51T381 9T289 -11L274 -178H211L190 -11Q140 -8 104 -1T44 16L69 104Q95 93 140 84T252 75Q283 75 314 82T370 105T410 145T426
204Q426 264 380 292T250 325Q237 326 227 326T203 327H149Z" />
<glyph unicode="&#xf50b;" glyph-name="uniF50B" horiz-adv-x="516" d="M148 233V303H225Q247 303 267 309T304 325T329 350T339 382Q339 424 308 440T214 456Q170 456 134 447T74 427L49 497Q114 534 244 534Q338 534 386 501T434 405Q434 388 428 370T408 336T377
306T334 285V274Q402 262 429 230T456 145Q456 88 410 46T271 -8L256 -178H193L172 -10Q131 -7 102 0T48 20L72 94Q99 80 137 74T220 68Q358 68 358 154Q358 193 325 213T210 233H148Z" />
<glyph unicode="&#xf50c;" glyph-name="uniF50C" horiz-adv-x="624" d="M584 30Q556 10 517 1T431 -12L407 -53Q456 -61 479 -79T503 -130Q503 -172 466 -197T363 -223Q350 -223 337 -222T309 -218L318 -182Q353 -184 373 -181T403 -171T415 -156T418 -139Q418
-122 393 -113T319 -98L370 -12Q306 -9 250 14T151 82T83 193T58 350Q58 448 88 517T166 629T274 693T393 713Q459 713 501 706T572 688L550 602Q501 625 401 625Q356 625 314 611T238 564T184 479T164 350Q164 282 183 231T235 146T314 94T414 76Q463 76 499 84T560
107L584 30Z" />
<glyph unicode="&#xf50d;" glyph-name="uniF50D" horiz-adv-x="529" d="M484 36Q452 13 410 1T321 -13L298 -53Q347 -61 370 -79T394 -130Q394 -172 357 -197T254 -223Q241 -223 228 -222T200 -218L209 -182Q244 -184 264 -181T294 -171T306 -156T309 -139Q309
-122 284 -113T210 -98L262 -11Q207 -5 169 17T106 74T71 157T60 262Q60 395 124 467T310 540Q363 540 402 531T472 507L448 432Q421 446 390 454T321 462Q158 462 158 262Q158 224 167 189T196 126T248 82T328 65Q370 65 401 76T454 104L484 36Z" />
<glyph unicode="&#xf50e;" glyph-name="uniF50E" horiz-adv-x="645" d="M457 183H180L106 0H8L296 710H348L637 0H533L457 183ZM210 267H428L347 466L320 573H318L291 464L210 267ZM151 826H501V758H151V826Z" />
<glyph unicode="&#xf50f;" glyph-name="uniF50F" horiz-adv-x="582" d="M82 492Q172 535 305 535Q365 535 401 520T458 480T484 427T491 368Q491 313 487 258T483 137Q483 99 486 64T498 -2H431L406 78H396Q385 63 369 48T331 20T281 0T215 -8Q178 -8 147 2T94
32T58 78T45 140Q45 185 64 218T115 272T185 303T264 313Q295 313 316 312T352 310T377 307T395 304Q397 319 398 330T399 358Q399 386 393 405T374 435T337 452T281 457Q262 457 239 454T193 446T148 432T107 415L82 492ZM395 238Q387 239 378 241T356 244T324
246T278 247Q216 247 180 225T143 150Q143 110 171 90T245 70Q278 70 303 78T347 99T377 127T395 158V238ZM122 666H450V597H122V666Z" />
</font>
</defs>
</svg>
