<svg xmlns="http://www.w3.org/2000/svg">
<defs>
<font id="PTSans-CaptionBold" horiz-adv-x="601" ><font-face
    font-family="PT Sans Caption"
    units-per-em="1000"
    panose-1="2 11 7 3 2 2 3 2 2 4"
    ascent="1019"
    descent="-276"
    alphabetic="0" />
<missing-glyph horiz-adv-x="750" d="M50 700H700V0H50V700ZM570 620L375 403L180 620L130 570L327 350L130 130L180 80L375 297L570 80L620 130L422 350L620 570L570 620ZM129 27H137V39H141Q147 39 152 41T157 51Q157 59 152 61T140 63H129V27ZM141 57Q149 57
149 52Q149 47 147 47T140 46H137V57H141ZM189 63H158V57H170V27H177V57H189V63ZM222 37Q222 33 215 33Q208 33 206 35L203 28Q205 28 208 27T216 26Q230 26 230 38Q230 47 221 48T212 54Q212 57 218 57Q223 57 227 55L229 62Q223 64 218 64Q204 64 204 53Q204
48 207 46T213 43T219 40T222 37ZM237 47Q241 49 246 49Q251 49 251 45V43Q250 43 249 43T246 44Q234 44 234 34Q234 26 242 26Q248 26 251 31L253 27H259Q258 29 258 34V45Q258 55 248 55Q244 55 241 54T235 52L237 47ZM245 32Q241 32 241 36Q241 40 246 40Q248
40 249 40T251 39V36Q249 32 245 32ZM292 27V43Q292 55 283 55Q276 55 273 50L271 54H266V27H273V44Q275 48 279 48Q284 48 284 42V27H292ZM297 28Q301 26 307 26Q318 26 318 35Q318 40 316 41T310 44Q305 46 305 47Q305 49 308 49Q312 49 316 47L318 53Q314 55
308 55Q298 55 298 46Q298 41 301 40T306 37Q311 37 311 34Q311 32 308 32Q303 32 299 34L297 28ZM338 42Q338 21 358 21Q378 21 378 42Q378 62 358 62Q350 62 344 57T338 42ZM344 42Q344 57 358 57Q372 57 372 42Q372 27 358 27Q344 27 344 42ZM364 38Q362 37
360 37Q356 37 356 42Q356 46 360 46H363L365 50Q361 52 358 52Q349 52 349 42Q349 31 358 31Q363 31 365 33L364 38ZM399 27H407V39H411Q417 39 422 41T427 51Q427 59 422 61T410 63H399V27ZM411 57Q419 57 419 52Q419 47 417 47T410 46H407V57H411ZM432 47Q436
49 441 49Q446 49 446 45V43Q445 43 444 43T441 44Q428 44 428 34Q428 26 437 26Q443 26 446 31L448 27H454Q453 29 453 34V45Q453 55 443 55Q439 55 436 54T430 52L432 47ZM440 32Q436 32 436 36Q436 40 441 40Q443 40 444 40T446 39V36Q444 32 440 32ZM478 54Q477

<glyph unicode=" " glyph-name="space" horiz-adv-x="276" />
<glyph unicode="!" glyph-name="exclam" horiz-adv-x="314" d="M105 700H251V373L223 212H133L105 373V700ZM90 68Q90 105 114 126T177 147Q217 147 241 126T265 68Q265 33 241 11T177 -11Q138 -11 114 11T90 68Z" />
<glyph unicode="&quot;" glyph-name="quotedbl" horiz-adv-x="436" d="M99 700H223L185 482H99V700ZM258 700H382L344 482H258V700Z" />
<glyph unicode="#" glyph-name="numbersign" horiz-adv-x="651" d="M332 203H235L196 50H80L119 203H39L63 304H145L171 406H93L117 507H197L234 650H350L313 507H410L447 650H563L526 507H603L577 406H500L473 304H548L522 203H447L409 50H293L332 203ZM261 304H358L384
406H287L261 304Z" />
<glyph unicode="$" glyph-name="dollar" horiz-adv-x="651" d="M277 -13Q215 -11 169 -1T96 23L138 144Q158 133 193 123T277 109V297Q243 310 210 326T151 367T109 425T93 507Q93 598 142 647T277 709V800H390V712Q438 709 474 700T540 677L502 559Q485 567 456
575T390 589V415Q424 402 458 386T519 345T562 288T579 209Q579 113 529 61T390 -7V-100H277V-13ZM343 108Q392 113 413 134T435 191Q435 221 409 239T343 273V108ZM324 593Q298 592 281 587T254 572T241 549T237 520Q237 491 261 474T324 440V593Z" />
<glyph unicode="%" glyph-name="percent" horiz-adv-x="907" d="M53 542Q53 587 67 619T106 671T166 702T243 712Q284 712 319 703T379 674T419 621T433 542Q433 495 419 463T380 411T319 381T243 372Q201 372 167 381T107 410T67 463T53 542ZM180 542Q180 503
194 481T243 459Q277 459 291 478T305 542Q305 587 291 606T243 625Q209 625 195 606T180 542ZM494 170Q494 215 508 247T547 299T607 330T684 340Q725 340 760 331T820 302T860 249T874 170Q874 123 860 91T821 39T760 9T684 0Q642 0 608 9T548 38T508 91T494
170ZM621 170Q621 131 635 109T684 87Q718 87 732 106T746 170Q746 215 732 234T684 253Q650 253 636 234T621 170ZM732 718L811 641L186 -14L110 63L732 718Z" />
<glyph unicode="&amp;" glyph-name="ampersand" horiz-adv-x="885" d="M100 195Q100 232 113 266T151 331T208 387T283 434Q256 466 239 499T221 571Q221 596 231 622T263 668T321 701T409 714Q459 714 494 703T550 674T581 633T591 584Q591 544 561 500T454 415Q474
387 492 363T530 317T570 274T614 232Q638 257 659 295T695 373L797 315Q789 298 778 277T754 235T728 195T702 162Q735 134 760 118T813 88L737 -14Q709 -2 677 20T615 69Q575 36 516 11T370 -14Q315 -14 266 0T180 42T122 107T100 195ZM528 151Q473 204 428 255T347
353Q294 316 267 282T240 207Q240 158 281 131T390 103Q433 103 470 117T528 151ZM361 564Q361 523 401 477Q443 501 462 522T481 562Q481 587 467 600T419 613Q390 613 376 600T361 564Z" />
<glyph unicode="&apos;" glyph-name="quotesingle" horiz-adv-x="277" d="M99 700H223L185 482H99V700Z" />
<glyph unicode="(" glyph-name="parenleft" horiz-adv-x="356" d="M247 -220Q197 -172 163 -115T107 3T76 125T66 243Q66 298 75 359T107 481T164 602T251 712L341 651Q303 605 277 555T236 452T213 347T206 243Q206 195 214 142T238 37T281 -66T343 -158L247 -220Z" />
<glyph unicode=")" glyph-name="parenright" horiz-adv-x="354" d="M107 712Q157 664 191 607T247 489T278 367T288 249Q288 194 279 133T248 11T191 -110T104 -220L14 -158Q54 -108 80 -58T121 44T142 146T148 249Q148 297 141 349T117 454T75 555T13 648L107 712Z" />
<glyph unicode="*" glyph-name="asterisk" horiz-adv-x="408" d="M156 735L186 688L202 627L218 684L248 735L315 698L283 644L232 600L302 617H362V540H304L239 558L292 510L319 465L251 427L222 475L201 540L187 481L156 429L88 468L120 520L168 557L108 540H46V618H109L172
600L118 645L88 696L156 735Z" />
<glyph unicode="+" glyph-name="plus" horiz-adv-x="570" d="M47 397H223V577H347V397H523V277H347V96H223V277H47V397Z" />
<glyph unicode="," glyph-name="comma" horiz-adv-x="247" d="M46 67Q46 101 70 121T130 142Q175 142 201 113T227 39Q227 -8 212 -41T175 -95T127 -129T81 -148L41 -90Q69 -81 89 -57T114 -4Q90 -7 68 10T46 67Z" />
<glyph unicode="-" glyph-name="hyphen" horiz-adv-x="391" d="M59 350H332V226H59V350Z" />
<glyph unicode="." glyph-name="period" horiz-adv-x="241" d="M46 68Q46 105 70 126T133 147Q173 147 197 126T221 68Q221 33 197 11T133 -11Q94 -11 70 11T46 68Z" />
<glyph unicode="/" glyph-name="slash" horiz-adv-x="443" d="M362 712L468 662L80 -140L-24 -86L362 712Z" />
<glyph unicode="0" glyph-name="zero" horiz-adv-x="651" d="M60 351Q60 530 128 622T325 714Q462 714 526 624T591 351Q591 173 522 80T325 -14Q257 -14 207 11T125 84T76 199T60 351ZM204 351Q204 236 232 170T325 103Q391 103 419 163T447 351Q447 408 441
453T420 531T383 580T325 597Q260 597 232 535T204 351Z" />
<glyph unicode="1" glyph-name="one" horiz-adv-x="651" d="M126 117H276V502L293 571L241 511L143 447L87 529L332 712H411V117H558V0H126V117Z" />
<glyph unicode="2" glyph-name="two" horiz-adv-x="651" d="M534 527Q534 477 514 426T464 327T396 232T322 147L265 106V101L342 117H549V0H92V70Q118 96 150 128T216 198T280 274T336 353T375 429T390 499Q390 537 367 563T288 590Q253 590 217 576T155 538L97
638Q140 670 193 692T320 714Q366 714 405 702T473 667T518 609T534 527Z" />
<glyph unicode="3" glyph-name="three" horiz-adv-x="651" d="M281 103Q315 103 340 111T383 135T409 169T418 210Q418 264 382 290T264 316H185V390L314 548L377 594L291 583H110V700H526V625L376 441L327 414V409L373 415Q410 412 443 398T502 360T543 301T558
218Q558 159 537 116T478 43T391 0T283 -14Q259 -14 234 -12T185 -6T140 4T102 18L140 134Q168 121 203 112T281 103Z" />
<glyph unicode="4" glyph-name="four" horiz-adv-x="651" d="M618 193H499V0H368V193H39V271L383 705H499V302H618V193ZM368 446L376 527H372L336 459L225 330L169 293L239 302H368V446Z" />
<glyph unicode="5" glyph-name="five" horiz-adv-x="651" d="M257 110Q329 110 367 138T406 221Q406 279 361 306T233 333L146 329V700H520V570H268V446L313 450Q366 448 409 432T482 386T529 316T546 225Q546 166 524 121T464 46T373 1T259 -14Q210 -14 166 -6T91
15L129 131Q154 122 183 116T257 110Z" />
<glyph unicode="6" glyph-name="six" horiz-adv-x="651" d="M581 217Q581 170 563 129T513 55T435 5T333 -14Q277 -14 230 3T148 53T94 136T74 252Q74 349 105 429T188 569T311 666T460 714L489 605Q435 597 390 575T309 521T249 451T215 372Q238 397 271 415T357
434Q407 434 448 419T519 376T565 308T581 217ZM445 211Q445 317 326 317Q282 317 252 300T210 258Q208 247 208 242T208 229Q208 206 215 184T238 143T276 114T330 103Q355 103 376 111T412 135T436 169T445 211Z" />
<glyph unicode="7" glyph-name="seven" horiz-adv-x="651" d="M131 0L377 529L425 578L359 568H82V700H573V661L269 0H131Z" />
<glyph unicode="8" glyph-name="eight" horiz-adv-x="651" d="M83 173Q83 208 93 235T121 285T163 324T216 357Q162 388 133 428T103 528Q103 566 118 600T163 659T235 699T332 714Q381 714 421 702T489 667T533 613T549 544Q549 485 522 445T437 370Q501 335
535 294T569 188Q569 143 551 106T501 43T423 1T322 -14Q268 -14 224 -1T148 38T100 97T83 173ZM435 187Q435 209 423 227T391 260T347 288T299 312Q249 286 231 255T212 196Q212 157 241 130T325 103Q375 103 405 124T435 187ZM237 526Q237 502 247 484T275 453T313
428T358 407Q421 457 421 516Q421 556 394 576T329 597Q281 597 259 576T237 526Z" />
<glyph unicode="9" glyph-name="nine" horiz-adv-x="651" d="M64 480Q64 531 81 573T130 647T208 696T313 714Q437 714 507 646T577 449Q577 333 545 248T459 107T335 21T186 -14L156 93Q216 100 262 119T342 167T397 232T428 310Q402 284 372 274T291 264Q249
264 209 277T136 317T84 384T64 480ZM200 487Q200 432 235 404T323 376Q368 376 396 389T440 421Q441 432 442 441T443 458Q443 484 436 510T412 556T371 589T312 602Q259 602 230 572T200 487Z" />
<glyph unicode=":" glyph-name="colon" horiz-adv-x="293" d="M102 426Q102 463 126 484T189 505Q229 505 253 484T277 426Q277 391 253 369T189 347Q150 347 126 369T102 426ZM102 69Q102 106 126 127T189 148Q229 148 253 127T277 69Q277 34 253 12T189 -10Q150
-10 126 12T102 69Z" />
<glyph unicode=";" glyph-name="semicolon" horiz-adv-x="281" d="M87 67Q87 101 111 121T171 142Q216 142 242 113T268 39Q268 -8 253 -41T216 -95T168 -129T122 -148L82 -90Q110 -81 130 -57T155 -4Q131 -7 109 10T87 67ZM86 426Q86 463 110 484T173 505Q213
505 237 484T261 426Q261 391 237 369T173 347Q134 347 110 369T86 426Z" />
<glyph unicode="&lt;" glyph-name="less" horiz-adv-x="571" d="M42 283V357L466 593L524 495L283 357L184 322L282 291L529 155L472 57L42 283Z" />
<glyph unicode="=" glyph-name="equal" horiz-adv-x="571" d="M47 494H524V374H47V494ZM47 300H524V180H47V300Z" />
<glyph unicode="&gt;" glyph-name="greater" horiz-adv-x="571" d="M529 367V293L103 56L47 156L288 293L387 329L289 359L42 496L98 594L529 367Z" />
<glyph unicode="?" glyph-name="question" horiz-adv-x="491" d="M146 212Q140 268 151 306T181 370T225 413T270 447T306 480T321 523Q321 558 301 577T226 597Q209 597 189 593T148 582T110 566T78 547L24 651Q65 678 118 696T249 714Q350 714 408 668T467 544Q467
490 453 457T416 401T368 362T320 327T283 282T268 212H146ZM125 68Q125 105 149 126T212 147Q252 147 276 126T300 68Q300 33 276 11T212 -11Q173 -11 149 11T125 68Z" />
<glyph unicode="@" glyph-name="at" horiz-adv-x="1147" d="M736 483H812L759 215Q757 204 756 195T754 177Q754 153 764 143T795 132Q823 132 850 143T898 178T933 238T946 326Q946 403 919 457T844 547T733 598T597 614Q513 614 441 585T315 506T231 388T201
241Q201 163 226 100T299 -8T420 -77T588 -102Q618 -102 657 -95T730 -73L763 -178Q718 -198 673 -206T567 -215Q460 -215 371 -185T217 -97T116 44T80 236Q80 347 121 437T234 592T400 692T600 727Q700 727 785 699T932 619T1030 492T1066 326Q1066 263 1042 208T975
111T876 46T754 22Q726 22 703 27T664 46T641 82T637 138H633Q616 115 597 94T556 57T506 32T445 22Q419 22 396 32T355 62T328 109T318 169Q318 228 339 285T398 388T484 461T589 489Q627 489 653 479T702 450L736 483ZM667 356Q653 368 638 373T599 379Q566 379
539 363T491 321T460 265T449 206Q449 174 463 153T515 132Q531 132 548 140T581 163T613 197T640 238L667 356Z" />
<glyph unicode="A" glyph-name="A" horiz-adv-x="658" d="M441 149H205L148 0H0L274 705H383L658 0H501L441 149ZM246 266H406L352 412L328 523H323L299 411L246 266Z" />
<glyph unicode="B" glyph-name="B" horiz-adv-x="641" d="M577 535Q577 509 570 484T546 436T504 398T441 375V369Q474 366 503 354T553 321T587 269T600 197Q600 142 575 103T508 39T414 2T306 -10Q288 -10 259 -10T196 -9T128 -4T65 5V695Q86 698 112 701T169
706T232 709T296 710Q348 710 398 703T488 676T552 622T577 535ZM304 110Q332 110 357 115T402 131T433 160T445 204Q445 236 431 255T395 283T345 295T289 298H207V116Q213 114 224 113T250 112T278 111T304 110ZM257 408Q272 408 292 408T327 411Q369 424 398
446T427 508Q427 534 416 550T387 575T345 587T298 590Q269 590 245 589T207 586V408H257Z" />
<glyph unicode="C" glyph-name="C" horiz-adv-x="607" d="M579 30Q546 7 492 -3T381 -14Q314 -14 253 6T144 70T68 183T40 350Q40 452 72 521T154 633T265 695T385 714Q450 714 494 706T568 687L539 563Q514 574 481 579T396 584Q351 584 315 570T252 526T212
453T197 350Q197 298 210 255T249 181T315 133T408 116Q457 116 490 125T550 148L579 30Z" />
<glyph unicode="D" glyph-name="D" horiz-adv-x="702" d="M65 700Q87 703 115 705T174 708T234 709T286 710Q386 710 457 684T574 610T641 498T662 356Q662 286 642 220T575 103T455 20T273 -11Q256 -11 227 -10T166 -8T107 -5T65 -1V700ZM297 580Q274 580 250
580T213 577V123Q218 122 228 122T250 121T272 120T288 119Q352 119 394 139T460 192T495 267T505 354Q505 391 496 431T464 504T400 558T297 580Z" />
<glyph unicode="E" glyph-name="E" horiz-adv-x="566" d="M65 700H516V570H213V418H488V288H213V130H521V0H65V700Z" />
<glyph unicode="F" glyph-name="F" horiz-adv-x="551" d="M65 700H516V570H213V407H492V277H213V0H65V700Z" />
<glyph unicode="G" glyph-name="G" horiz-adv-x="661" d="M331 368H617V54Q594 36 567 24T509 3T446 -10T383 -14Q311 -14 249 7T140 72T67 186T40 350Q40 449 72 518T155 631T270 694T397 714Q462 714 511 705T589 686L558 563Q531 572 497 578T412 584Q365 584
326 572T258 531T213 458T197 349Q197 287 213 243T256 171T320 129T396 116Q423 116 450 122T497 141V262L331 278V368Z" />
<glyph unicode="H" glyph-name="H" horiz-adv-x="706" d="M493 289H213V0H65V700H213V419H493V700H641V0H493V289Z" />
<glyph unicode="I" glyph-name="I" horiz-adv-x="388" d="M120 620H40V700H348V620H268V80H348V0H40V80H120V620Z" />
<glyph unicode="J" glyph-name="J" horiz-adv-x="362" d="M143 700H291V190Q291 153 281 117T250 52T193 5T108 -13Q76 -13 40 -7T-25 12L7 130Q36 117 71 117Q94 117 108 125T130 149T140 186T143 231V700Z" />
<glyph unicode="K" glyph-name="K" horiz-adv-x="671" d="M252 296H213V0H65V700H213V392L248 407L458 700H627L405 407L347 369L407 329L661 0H478L252 296Z" />
<glyph unicode="L" glyph-name="L" horiz-adv-x="557" d="M547 0H65V700H213V130H547V0Z" />
<glyph unicode="M" glyph-name="M" horiz-adv-x="868" d="M655 351L671 496H665L617 386L455 125H409L237 387L190 495H184L205 352V0H65V700H199L401 377L439 300H444L477 379L670 700H803V0H655V351Z" />
<glyph unicode="N" glyph-name="N" horiz-adv-x="713" d="M254 365L194 470H189L205 364V0H65V705H172L461 332L518 230H524L508 333V700H648V-5H541L254 365Z" />
<glyph unicode="O" glyph-name="O" horiz-adv-x="727" d="M40 350Q40 436 62 504T125 618T227 689T363 714Q444 714 504 688T605 613T666 498T687 350Q687 264 665 196T600 82T498 11T363 -14Q282 -14 222 12T121 87T60 202T40 350ZM197 350Q197 298 207 255T237
181T288 133T363 116Q442 116 486 170T530 350Q530 400 521 443T492 517T440 566T363 584Q285 584 241 528T197 350Z" />
<glyph unicode="P" glyph-name="P" horiz-adv-x="620" d="M65 693Q110 701 165 705T275 710Q331 710 388 702T490 668T565 597T594 476Q594 410 569 364T503 288T408 246T299 232Q294 232 282 232T257 232T231 234T213 236V0H65V693ZM285 580Q264 580 245 579T213
575V367Q217 366 226 365T245 364T263 363T277 362Q306 362 335 366T386 383T423 418T437 479Q437 511 424 530T390 561T341 576T285 580Z" />
<glyph unicode="Q" glyph-name="Q" horiz-adv-x="727" d="M762 -212Q735 -219 709 -221T657 -224Q602 -224 550 -214T449 -192T355 -169T269 -159Q242 -159 218 -165V-35Q249 -29 280 -29Q325 -29 370 -39T463 -60T559 -82T663 -92Q713 -92 762 -82V-212ZM40 350Q40
436 62 504T125 618T227 689T363 714Q444 714 504 688T605 613T666 498T687 350Q687 264 665 196T600 82T498 11T363 -14Q282 -14 222 12T121 87T60 202T40 350ZM197 350Q197 298 207 255T237 181T288 133T363 116Q442 116 486 170T530 350Q530 400 521 443T492
517T440 566T363 584Q285 584 241 528T197 350Z" />
<glyph unicode="R" glyph-name="R" horiz-adv-x="652" d="M65 693Q89 697 117 700T175 706T231 709T282 710Q335 710 386 701T478 670T544 610T569 513Q569 427 527 372T409 296L462 265L637 0H465L291 271L213 283V0H65V693ZM292 580Q269 580 248 580T213 576V383H276Q339
383 375 407T412 490Q412 534 381 557T292 580Z" />
<glyph unicode="S" glyph-name="S" horiz-adv-x="575" d="M393 192Q393 223 367 241T303 274T219 304T136 344T71 407T45 506Q45 558 63 597T115 662T196 701T301 714Q367 714 426 703T524 670L477 546Q465 553 447 560T404 573T353 582T298 586Q248 586 221 569T193
520Q193 489 219 471T283 437T367 406T450 366T515 304T541 209Q541 151 521 109T465 40T377 -1T265 -14Q224 -14 188 -10T120 1T66 15T28 30L77 155Q88 149 107 142T151 129T202 118T258 114Q324 114 358 133T393 192Z" />
<glyph unicode="T" glyph-name="T" horiz-adv-x="616" d="M604 570H382V0H234V570H12V700H604V570Z" />
<glyph unicode="U" glyph-name="U" horiz-adv-x="679" d="M478 700H618V251Q618 183 599 133T544 51T459 4T350 -12Q209 -12 135 49T61 234V700H209V261Q209 181 244 150T348 118Q414 118 446 151T478 261V700Z" />
<glyph unicode="V" glyph-name="V" horiz-adv-x="654" d="M315 296L335 177H340L362 297L508 700H664L381 -5H275L-10 700H162L315 296Z" />
<glyph unicode="W" glyph-name="W" horiz-adv-x="938" d="M263 315L277 191H281L297 317L430 700H526L657 315L673 191H678L693 317L786 700H938L728 -5H628L492 376L474 484H467L449 375L314 -5H209L0 700H162L263 315Z" />
<glyph unicode="X" glyph-name="X" horiz-adv-x="685" d="M244 356L32 700H211L328 501L355 432L381 501L503 700H664L444 363L675 0H498L364 213L334 285L305 213L171 0H10L244 356Z" />
<glyph unicode="Y" glyph-name="Y" horiz-adv-x="644" d="M248 258L-2 700H174L314 443L330 368H335L352 445L487 700H646L396 259V0H248V258Z" />
<glyph unicode="Z" glyph-name="Z" horiz-adv-x="584" d="M28 130L349 529L407 570H28V700H556V570L233 168L177 130H556V0H28V130Z" />
<glyph unicode="[" glyph-name="bracketleft" horiz-adv-x="350" d="M65 700H319V583H199V-113H319V-230H65V700Z" />
<glyph unicode="\" glyph-name="backslash" horiz-adv-x="460" d="M478 -88L368 -140L-24 660L84 711L478 -88Z" />
<glyph unicode="]" glyph-name="bracketright" horiz-adv-x="350" d="M285 -230H31V-113H151V583H31V700H285V-230Z" />
<glyph unicode="^" glyph-name="asciicircum" horiz-adv-x="535" d="M236 705H311L512 411H370L292 530L269 600L242 529L158 411H23L236 705Z" />
<glyph unicode="_" glyph-name="underscore" horiz-adv-x="483" d="M0 -113H483V-226H0V-113Z" />
<glyph unicode="`" glyph-name="grave" horiz-adv-x="350" d="M282 571H208L68 699V729H215L282 571Z" />
<glyph unicode="a" glyph-name="a" horiz-adv-x="579" d="M67 489Q112 509 177 522T313 535Q368 535 405 522T465 485T496 426T506 349Q506 298 502 248T498 142Q498 104 503 68T519 -1H405L382 77H370Q344 42 304 17T201 -8Q163 -8 132 3T78 34T43 83T30 144Q30
233 89 278T270 324Q298 324 326 320T365 313Q368 334 368 349Q368 387 349 405T278 423Q230 423 185 412T104 383L67 489ZM250 104Q297 104 325 126T366 172V232Q361 234 351 236T328 240T303 243T280 244Q226 244 200 225T174 176Q174 140 194 122T250 104Z"
/>
<glyph unicode="b" glyph-name="b" horiz-adv-x="619" d="M72 700H212V480H224Q248 507 285 522T368 538Q470 538 523 472T577 277Q577 208 558 154T502 63T414 7T297 -13Q222 -13 163 -3T72 21V700ZM212 119Q232 109 254 107T303 104Q433 104 433 274Q433 346
406 383T326 421Q281 421 254 400T212 338V119Z" />
<glyph unicode="c" glyph-name="c" horiz-adv-x="500" d="M468 32Q434 9 387 -3T288 -15Q220 -15 174 5T98 62T55 149T42 262Q42 393 106 466T294 540Q354 540 392 531T461 506L427 394Q401 405 376 410T316 416Q253 416 220 380T186 262Q186 230 194 203T219
154T262 121T323 109Q365 109 389 116T436 137L468 32Z" />
<glyph unicode="d" glyph-name="d" horiz-adv-x="628" d="M550 184Q550 142 551 97T560 -1H463L443 72H430Q407 32 365 9T263 -15Q158 -15 100 50T42 253Q42 319 58 372T107 462T188 519T299 539Q334 539 359 534T410 520V700H550V184ZM299 102Q346 102 372 123T410
185V395Q392 409 372 415T318 422Q251 422 219 383T186 249Q186 183 213 143T299 102Z" />
<glyph unicode="e" glyph-name="e" horiz-adv-x="594" d="M521 48Q487 22 429 4T303 -15Q168 -15 105 59T42 262Q42 399 113 469T313 540Q355 540 396 530T469 495T520 429T540 326Q540 305 538 280T529 228H179Q184 160 218 128T331 95Q378 95 415 108T473 136L521
48ZM311 430Q249 430 219 397T184 311H410Q414 366 390 398T311 430Z" />
<glyph unicode="f" glyph-name="f" horiz-adv-x="370" d="M16 525H95V558Q95 604 109 633T147 680T202 705T268 712Q316 712 351 708T418 693L392 584Q367 592 347 595T304 598Q261 598 248 582T235 525H363V408H235V0H95V408H16V525Z" />
<glyph unicode="g" glyph-name="g" horiz-adv-x="619" d="M547 20Q547 -96 481 -151T294 -206Q216 -206 169 -196T95 -172Q108 -132 114 -109T124 -73T128 -58T129 -55Q153 -67 187 -79T270 -92Q311 -92 338 -84T381 -61T403 -23T410 26V65H398Q378 36 343 24T256
12Q149 12 96 71T42 261Q42 399 112 469T322 539Q395 539 452 530T547 508V20ZM289 121Q335 121 364 138T407 180V406Q370 422 313 422Q252 422 219 386T186 267Q186 191 214 156T289 121Z" />
<glyph unicode="h" glyph-name="h" horiz-adv-x="638" d="M426 0V289Q426 357 406 386T330 416Q290 416 257 391T212 323V0H72V700H212V461H224Q251 496 291 518T394 540Q437 540 469 530T522 494T555 426T566 320V0H426Z" />
<glyph unicode="i" glyph-name="i" horiz-adv-x="317" d="M89 525H229V0H89V525ZM68 893Q68 925 91 946T156 968Q199 968 224 946T249 893Q249 864 224 843T156 822Q114 822 91 843T68 893Z" />
<glyph unicode="j" glyph-name="j" horiz-adv-x="317" d="M91 525H231V-24Q231 -119 192 -170T66 -221Q32 -221 -6 -214V-97Q25 -100 44 -93T73 -71T87 -34T91 17V525ZM69 893Q69 925 92 946T157 968Q200 968 225 946T250 893Q250 864 225 843T157 822Q115 822
92 843T69 893Z" />
<glyph unicode="k" glyph-name="k" horiz-adv-x="564" d="M260 218H212V0H72V700H212V298L256 317L387 525H541L407 334H408L344 288L411 244H410L564 0H402L260 218Z" />
<glyph unicode="l" glyph-name="l" horiz-adv-x="337" d="M215 184Q215 108 264 108Q278 108 290 110T320 119L337 10Q317 1 281 -7T205 -16Q142 -16 109 12T75 104V700H215V184Z" />
<glyph unicode="m" glyph-name="m" horiz-adv-x="940" d="M400 0V274Q400 350 384 383T318 416Q276 416 251 396T212 342V0H72V525H180L196 452H209Q222 469 239 485T276 513T322 532T380 540Q433 540 468 517T525 438Q554 486 595 513T692 540Q740 540 773 529T828
491T858 418T868 303V0H728V281Q728 314 725 339T713 381T688 407T644 416Q602 416 577 395T540 335V0H400Z" />
<glyph unicode="n" glyph-name="n" horiz-adv-x="638" d="M426 0V288Q426 356 405 386T331 416Q286 416 255 392T211 329Q211 247 211 165T212 0H72V525H182L197 450H212Q238 487 281 513T393 540Q435 540 467 530T521 494T554 425T566 317V0H426Z" />
<glyph unicode="o" glyph-name="o" horiz-adv-x="616" d="M42 262Q42 392 111 466T308 540Q375 540 425 519T508 461T557 373T574 262Q574 198 556 147T504 59T421 4T308 -15Q240 -15 190 6T107 64T58 152T42 262ZM186 262Q186 229 193 200T214 150T252 115T308
102Q430 102 430 262Q430 297 424 326T403 377T365 411T308 423Q251 423 219 385T186 262Z" />
<glyph unicode="p" glyph-name="p" horiz-adv-x="623" d="M72 525H172L189 460H201Q232 500 273 520T369 540Q475 540 528 477T581 275Q581 209 564 156T514 64T433 5T321 -16Q287 -16 262 -10T212 8V-199H72V525ZM326 423Q278 423 252 402T212 335V131Q229 117
250 109T303 101Q371 101 404 143T437 279Q437 346 412 384T326 423Z" />
<glyph unicode="q" glyph-name="q" horiz-adv-x="619" d="M547 -199H407V50H395Q375 19 343 2T257 -15Q152 -15 97 51T42 251Q42 392 118 465T337 539Q367 539 397 536T455 529T506 519T547 507V-199ZM298 102Q345 102 370 122T407 181V407Q389 415 366 418T314
422Q248 422 217 377T186 257Q186 182 215 142T298 102Z" />
<glyph unicode="r" glyph-name="r" horiz-adv-x="406" d="M382 397Q352 407 322 407Q278 407 250 386T212 333V0H72V525H182L197 452H210Q230 493 263 515T340 537Q367 537 402 526L382 397Z" />
<glyph unicode="s" glyph-name="s" horiz-adv-x="483" d="M71 136Q85 129 103 122T143 109T187 99T233 95Q268 95 287 106T307 147Q307 171 281 182T217 205Q189 213 159 224T103 253T61 302T44 378Q44 457 93 498T234 540Q294 540 346 530T431 505L402 399Q376
409 336 419T253 430Q218 430 201 420T184 383Q184 360 210 349T275 326Q303 318 333 308T389 279T430 233T447 161Q447 77 393 31T229 -15Q170 -15 119 -5T36 26L71 136Z" />
<glyph unicode="t" glyph-name="t" horiz-adv-x="404" d="M8 525H88V597L228 634V525H369V408H228V226Q228 163 240 136T290 108Q313 108 329 111T363 123L392 18Q360 4 319 -6T238 -16Q160 -16 124 22T88 146V408H8V525Z" />
<glyph unicode="u" glyph-name="u" horiz-adv-x="642" d="M212 525V234Q212 169 230 139T299 109Q343 109 373 132T417 190V525H557V160Q557 118 561 76T574 0H471L444 82H433Q407 40 359 13T249 -15Q206 -15 173 -4T118 32T84 100T72 204V525H212Z" />
<glyph unicode="v" glyph-name="v" horiz-adv-x="546" d="M257 253L278 172H294L309 255L407 525H558L318 -5H238L-12 525H151L257 253Z" />
<glyph unicode="w" glyph-name="w" horiz-adv-x="825" d="M477 525Q504 459 530 392T583 259L603 171H618L633 260Q651 327 670 392T707 525H835L656 -5H555Q528 64 497 139T439 284L425 352H407Q404 335 400 318T393 283L284 -5H178L-6 525H146L230 266L244 169H259L279
267L374 525H477Z" />
<glyph unicode="x" glyph-name="x" horiz-adv-x="587" d="M192 269L20 525H190L261 423L260 424L301 331L341 424L340 423L416 525H570L397 273L581 0H415L330 118L331 117L289 209L245 117L246 118L160 0H6L192 269Z" />
<glyph unicode="y" glyph-name="y" horiz-adv-x="541" d="M264 234L286 150H296L315 234L404 525H547L373 50Q351 -9 332 -56T289 -136T238 -186T170 -204Q144 -204 121 -200T80 -186L109 -78Q124 -83 140 -83Q154 -83 167 -80T191 -69T211 -45T228 -3L-12 525H157L264
234Z" />
<glyph unicode="z" glyph-name="z" horiz-adv-x="526" d="M42 119L263 357H262L327 408H42V525H484V406L265 165H266L200 117H484V0H42V119Z" />
<glyph unicode="{" glyph-name="braceleft" horiz-adv-x="403" d="M135 93Q135 144 113 163T48 182V288Q90 288 112 308T135 373V576Q135 630 162 665T250 701H380V584H325Q296 584 283 570T269 523V336Q269 292 246 270T193 242V232Q222 228 245 202T269 134V-52Q269
-83 282 -98T326 -113H380V-230H250Q194 -230 165 -198T135 -106V93Z" />
<glyph unicode="|" glyph-name="bar" horiz-adv-x="246" d="M65 700H181V-130H65V700Z" />
<glyph unicode="}" glyph-name="braceright" horiz-adv-x="403" d="M268 378Q268 327 290 308T355 289V183Q313 183 291 163T268 98V-104Q268 -158 239 -194T149 -230H23V-113H77Q106 -113 120 -99T134 -52V135Q134 179 157 201T210 229V239Q181 243 158 269T134
337V523Q134 554 121 569T76 584H23V701H152Q209 701 238 668T268 576V378Z" />
<glyph unicode="~" glyph-name="asciitilde" horiz-adv-x="571" d="M30 380Q81 418 121 433T197 448Q228 448 255 440T307 421T356 403T406 394Q426 394 446 400T490 424L541 316Q502 288 470 278T410 267Q380 267 354 276T303 296T253 317T200 326Q174 326 144
315T77 275L30 380Z" />
<glyph unicode="&#xa0;" glyph-name="uni00A0" horiz-adv-x="276" />
<glyph unicode="&#xa1;" glyph-name="exclamdown" horiz-adv-x="313" d="M205 -200H59V127L87 288H176L205 127V-200ZM47 432Q47 469 71 490T134 511Q174 511 198 490T222 432Q222 397 198 375T134 353Q95 353 71 375T47 432Z" />
<glyph unicode="&#xa2;" glyph-name="cent" horiz-adv-x="651" d="M436 113Q461 117 480 124T514 139L548 32Q528 19 501 10T441 -6V-100H311V-11Q255 -4 217 17T154 72T119 151T108 250Q108 362 159 428T311 510V600H441V510Q472 506 496 499T540 483L506 368Q490
374 473 379T436 386V113ZM335 384Q291 374 270 342T248 250Q248 205 268 169T335 118V384Z" />
<glyph unicode="&#xa3;" glyph-name="sterling" horiz-adv-x="651" d="M74 396H148Q134 419 124 447T114 517Q114 566 132 603T182 665T258 702T356 714Q422 714 476 702T571 672L525 545Q505 556 466 569T373 582Q321 582 292 561T262 497Q262 465 276 442T307
396H457V282H356Q356 277 356 271T357 259Q357 228 346 196T311 141L270 113V108L337 124H587V0H74V124H76Q145 126 179 159T213 240Q213 260 208 282H74V396Z" />
<glyph unicode="&#xa4;" glyph-name="currency" horiz-adv-x="651" d="M123 625L201 548L219 511Q239 526 266 533T324 540Q353 540 381 533T430 511L449 548L527 625L607 541L530 463L493 448Q507 427 513 401T519 345Q519 315 513 289T493 244L530 228L607 150L527
68L449 145L432 181Q413 167 383 160T324 152Q294 152 267 159T219 181L201 145L123 68L43 150L120 228L156 246Q145 266 138 290T131 345Q131 374 138 399T158 447L120 464L43 542L123 625ZM245 346Q245 310 267 286T325 262Q361 262 383 286T405 346Q405 381
383 405T325 430Q290 430 268 406T245 346Z" />
<glyph unicode="&#xa5;" glyph-name="yen" horiz-adv-x="651" d="M110 338H207L2 700H178L318 443L334 368H339L356 445L491 700H650L445 338H542V256H400V200H542V118H400V0H252V118H110V200H252V256H110V338Z" />
<glyph unicode="&#xa6;" glyph-name="brokenbar" horiz-adv-x="246" d="M65 218H181V-130H65V218ZM181 352H65V700H181V352Z" />
<glyph unicode="&#xa7;" glyph-name="section" horiz-adv-x="576" d="M53 353Q53 384 69 413T113 466L158 479Q129 495 112 520T94 585Q94 642 141 678T283 714Q348 714 403 704T488 680L453 567Q429 579 388 588T306 597Q266 597 250 587T234 561Q234 543 255
534T309 518T378 501T447 474T500 426T522 347Q522 316 507 288T463 236L414 222Q443 206 462 181T482 115Q482 52 430 19T290 -14Q215 -14 165 1T84 33L122 139Q147 127 182 115T267 103Q307 103 324 111T342 140Q342 159 321 168T267 185T198 202T128 228T75
275T53 353ZM382 345Q382 363 373 375T347 396T304 412T246 429Q225 417 209 398T193 355Q193 338 202 326T228 305T269 289T326 273Q350 285 366 304T382 345Z" />
<glyph unicode="&#xa8;" glyph-name="dieresis" horiz-adv-x="535" d="M67 657Q67 692 88 713T144 734Q178 734 198 713T219 657Q219 627 199 606T144 585Q110 585 89 606T67 657ZM320 657Q320 692 340 713T395 734Q430 734 450 713T471 657Q471 627 451 606T395
585Q361 585 341 606T320 657Z" />
<glyph unicode="&#xa9;" glyph-name="copyright" horiz-adv-x="890" d="M58 286Q58 374 88 445T170 567T293 645T445 672Q526 672 596 645T719 568T801 446T831 286Q831 197 801 126T719 4T597 -73T445 -101Q356 -101 284 -74T162 4T85 125T58 286ZM165 286Q165
220 186 167T244 78T333 21T445 1Q506 1 557 21T645 77T704 167T725 286Q725 352 704 404T646 493T557 550T445 570Q384 570 333 550T245 494T186 405T165 286ZM579 117Q556 101 520 92T442 83Q356 83 311 137T265 286Q265 383 313 436T442 489Q482 489 512 480T572
455L536 359Q518 368 503 371T473 374Q444 374 427 355T409 286Q409 197 481 197Q500 197 515 200T547 213L579 117Z" />
<glyph unicode="&#xaa;" glyph-name="ordfeminine" horiz-adv-x="479" d="M78 672Q107 687 158 697T274 708Q315 708 342 701T386 680T410 645T417 595Q417 561 416 528T414 464Q414 441 415 420T422 380H309L296 427H292Q278 410 252 393T179 376Q124 376 91
404T57 476Q57 507 73 528T117 562T182 581T263 587Q271 587 277 587T292 586Q294 609 285 620T237 631Q192 631 157 623T101 606L78 672ZM222 457Q240 457 251 460T271 469T283 480T292 492V524Q283 525 274 525T257 526Q224 526 204 518T183 489Q183 474 194
466T222 457Z" />
<glyph unicode="&#xab;" glyph-name="guillemotleft" horiz-adv-x="531" d="M243 261L411 476L485 413L400 299L350 260L400 225L491 112L417 49L243 261ZM32 259L206 489L289 419L198 301L146 260L198 224L296 108L212 38L32 259Z" />
<glyph unicode="&#xac;" glyph-name="logicalnot" horiz-adv-x="571" d="M49 416H530V183H405V296H49V416Z" />
<glyph unicode="&#xad;" glyph-name="uni00AD" horiz-adv-x="391" d="M59 350H332V226H59V350Z" />
<glyph unicode="&#xae;" glyph-name="registered" horiz-adv-x="735" d="M64 435Q64 507 88 563T154 659T251 718T368 738Q431 738 486 718T582 659T647 564T671 435Q671 363 647 307T581 211T485 152T368 132Q305 132 250 152T153 211T88 306T64 435ZM167 435Q167
384 183 346T227 282T291 244T368 231Q410 231 446 243T510 281T552 344T568 435Q568 486 552 524T509 588T445 626T368 639Q323 639 286 625T223 585T182 520T167 435ZM258 574Q275 579 306 582T364 585Q409 585 441 566T474 501Q474 468 452 450T398 429L427
414L496 298H431L364 409L313 425V298H258V574ZM353 537Q342 537 331 537T313 533V457H350Q381 457 398 466T415 499Q415 517 399 527T353 537Z" />
<glyph unicode="&#xaf;" glyph-name="overscore" horiz-adv-x="471" d="M60 679H411V584H60V679Z" />
<glyph unicode="&#xb0;" glyph-name="degree" horiz-adv-x="475" d="M58 545Q58 582 72 613T111 666T168 701T236 714Q273 714 305 703T363 669T402 616T417 545Q417 506 403 476T363 424T306 391T236 379Q201 379 169 390T112 423T73 475T58 545ZM166 546Q166
515 187 499T237 482Q266 482 287 498T309 546Q309 577 288 594T237 611Q208 611 187 594T166 546Z" />
<glyph unicode="&#xb1;" glyph-name="plusminus" horiz-adv-x="571" d="M47 528H223V702H348V528H524V408H348V298H223V408H47V528ZM47 253H524V133H47V253Z" />
<glyph unicode="&#xb2;" glyph-name="uni00B2" horiz-adv-x="462" d="M386 677Q386 648 378 624T355 580T322 542T280 506L228 482V477L292 489H403V380H64V458Q92 475 126 498T190 547T240 600T260 652Q260 678 245 687T199 697Q170 697 144 688T98 667L60 765Q98
786 141 796T224 807Q301 807 343 774T386 677Z" />
<glyph unicode="&#xb3;" glyph-name="uni00B3" horiz-adv-x="462" d="M191 474Q240 474 259 486T279 521Q279 542 259 554T182 567H139V607L216 681L263 705L200 699H75V800H383V733L289 647L252 629V624L284 627Q341 625 373 596T405 512Q405 476 390 450T347
406T285 381T209 373Q167 373 131 380T69 398L94 493Q139 474 191 474Z" />
<glyph unicode="&#xb4;" glyph-name="acute" horiz-adv-x="337" d="M139 729H281V700L155 571H79L139 729Z" />
<glyph unicode="&#xb5;" glyph-name="mu" horiz-adv-x="617" d="M196 500V234Q196 171 219 138T297 105Q348 105 378 129T422 199V500H562V163Q562 122 565 81T579 0H475L440 79H436Q417 43 381 16T287 -12Q245 -12 223 2T179 40H174L197 -67V-200H56V500H196Z" />
<glyph unicode="&#xb6;" glyph-name="paragraph" horiz-adv-x="573" d="M393 700H509V-130H393V700ZM192 292Q156 292 126 309T74 355T40 421T28 497Q28 536 42 572T82 637T145 683T227 700H308V-130H192V292Z" />
<glyph unicode="&#xb7;" glyph-name="middot" horiz-adv-x="271" d="M48 318Q48 355 72 376T135 397Q175 397 199 376T223 318Q223 283 199 261T135 239Q96 239 72 261T48 318Z" />
<glyph unicode="&#xb8;" glyph-name="cedilla" horiz-adv-x="367" d="M199 -52Q247 -55 274 -73T302 -129Q302 -153 290 -170T255 -200T204 -218T141 -224Q123 -224 105 -223T68 -218L78 -171Q109 -173 128 -171T157 -164T171 -153T175 -138Q175 -121 152 -112T78
-101L140 -6H227L199 -52Z" />
<glyph unicode="&#xb9;" glyph-name="uni00B9" horiz-adv-x="462" d="M85 488H192V638L202 686L169 653L107 612L52 695L223 807H316V488H412V380H85V488Z" />
<glyph unicode="&#xba;" glyph-name="ordmasculine" horiz-adv-x="476" d="M48 542Q48 587 62 619T101 671T161 702T238 712Q279 712 314 703T374 674T414 621T428 542Q428 495 414 463T375 411T314 381T238 372Q196 372 162 381T102 410T62 463T48 542ZM175 542Q175
503 189 481T238 459Q272 459 286 478T300 542Q300 587 286 606T238 625Q204 625 190 606T175 542Z" />
<glyph unicode="&#xbb;" glyph-name="guillemotright" horiz-adv-x="530" d="M288 266L120 51L45 115L130 228L180 267L130 302L40 415L113 478L288 266ZM499 268L325 38L242 109L333 226L385 267L333 303L235 419L318 489L499 268Z" />
<glyph unicode="&#xbc;" glyph-name="onequarter" horiz-adv-x="949" d="M658 715L749 658L281 -14L191 47L658 715ZM899 75H816V0H708V75H482V147L720 428H816V169H899V75ZM708 250L713 304H708L685 256L634 193L595 160L653 169H708V250ZM436 538L446 585L413
553L350 512L296 595L467 707H560V280H436V538Z" />
<glyph unicode="&#xbd;" glyph-name="onehalf" horiz-adv-x="975" d="M658 715L749 658L281 -14L191 47L658 715ZM908 297Q908 268 900 244T877 200T844 162T802 126L750 102V97L814 109H925V0H586V78Q614 95 648 118T712 167T762 220T782 272Q782 298 767 307T721
317Q692 317 666 308T620 287L582 385Q620 406 663 416T746 427Q823 427 865 394T908 297ZM436 538L446 585L413 553L350 512L296 595L467 707H560V280H436V538Z" />
<glyph unicode="&#xbe;" glyph-name="threequarters" horiz-adv-x="977" d="M686 715L777 658L309 -14L219 47L686 715ZM927 75H844V0H736V75H510V147L748 428H844V169H927V75ZM736 250L741 304H736L713 256L662 193L623 160L681 169H736V250ZM174 374Q223 374
242 386T262 421Q262 442 242 454T165 467H122V507L199 581L246 605L183 599H58V700H366V633L272 547L235 529V524L267 527Q324 525 356 496T388 412Q388 376 373 350T330 306T268 281T192 273Q150 273 114 280T52 298L77 393Q122 374 174 374Z" />
<glyph unicode="&#xbf;" glyph-name="questiondown" horiz-adv-x="491" d="M344 290Q350 236 339 199T309 137T265 93T220 58T184 23T169 -21Q169 -56 190 -75T265 -95Q282 -95 302 -91T342 -80T380 -64T413 -45L467 -148Q426 -175 373 -193T242 -212Q140 -212
83 -167T25 -43Q25 11 39 44T76 101T124 140T172 176T209 221T224 290H344ZM193 433Q193 470 217 491T280 512Q320 512 344 491T368 433Q368 398 344 376T280 354Q241 354 217 376T193 433Z" />
<glyph unicode="&#xc0;" glyph-name="Agrave" horiz-adv-x="658" d="M441 149H205L148 0H0L274 705H383L658 0H501L441 149ZM246 266H406L352 412L328 523H323L299 411L246 266ZM394 752H280L108 839V870H281L394 752Z" />
<glyph unicode="&#xc1;" glyph-name="Aacute" horiz-adv-x="658" d="M441 149H205L148 0H0L274 705H383L658 0H501L441 149ZM246 266H406L352 412L328 523H323L299 411L246 266ZM391 870H563V839L389 752H277L391 870Z" />
<glyph unicode="&#xc2;" glyph-name="Acircumflex" horiz-adv-x="658" d="M441 149H205L148 0H0L274 705H383L658 0H501L441 149ZM246 266H406L352 412L328 523H323L299 411L246 266ZM279 870H384L522 778V737H414L352 777L330 811L306 778L240 737H134V779L279 870Z" />
<glyph unicode="&#xc3;" glyph-name="Atilde" horiz-adv-x="658" d="M441 149H205L148 0H0L274 705H383L658 0H501L441 149ZM246 266H406L352 412L328 523H323L299 411L246 266ZM125 804Q158 839 189 852T252 865Q276 865 300 860T346 847T390 835T432 829Q449
829 465 834T496 853L521 781Q492 755 464 745T409 735Q385 735 362 740T316 753T272 765T229 771Q208 771 188 764T148 736L125 804Z" />
<glyph unicode="&#xc4;" glyph-name="Adieresis" horiz-adv-x="658" d="M441 149H205L148 0H0L274 705H383L658 0H501L441 149ZM246 266H406L352 412L328 523H323L299 411L246 266ZM136 798Q136 825 155 841T219 858Q261 858 280 842T300 798Q300 772 281 757T219
741Q175 741 156 756T136 798ZM369 798Q369 825 388 841T450 858Q494 858 513 842T533 798Q533 772 514 757T450 741Q408 741 389 756T369 798Z" />
<glyph unicode="&#xc5;" glyph-name="Aring" horiz-adv-x="658" d="M191 772Q191 790 197 806T218 835T261 855T329 862Q406 862 437 838T468 772Q468 743 451 721T389 689L658 0H501L441 149H205L148 0H0L268 689Q225 698 208 720T191 772ZM246 266H406L352 412L328
523H323L299 411L246 266ZM281 772Q281 758 292 750T329 742Q357 742 367 749T378 772Q378 788 367 796T329 804Q281 804 281 772Z" />
<glyph unicode="&#xc6;" glyph-name="AE" horiz-adv-x="935" d="M427 530L388 424L301 285H434V530H427ZM434 165H232L126 0H-32L429 700H885V570H582V418H858V288H582V130H890V0H434V165Z" />
<glyph unicode="&#xc7;" glyph-name="Ccedilla" horiz-adv-x="607" d="M579 30Q552 11 511 1T424 -12L400 -52Q448 -55 475 -73T503 -129Q503 -153 491 -170T456 -200T405 -218T342 -224Q324 -224 306 -223T269 -218L279 -171Q310 -173 329 -171T358 -164T372
-153T376 -138Q376 -121 353 -112T279 -101L337 -11Q277 -5 223 18T129 85T64 194T40 350Q40 452 72 521T154 633T265 695T385 714Q450 714 494 706T568 687L539 563Q514 574 481 579T396 584Q351 584 315 570T252 526T212 453T197 350Q197 298 210 255T249 181T315
133T408 116Q457 116 490 125T550 148L579 30Z" />
<glyph unicode="&#xc8;" glyph-name="Egrave" horiz-adv-x="566" d="M65 700H516V570H213V418H488V288H213V130H521V0H65V700ZM383 752H269L97 839V870H270L383 752Z" />
<glyph unicode="&#xc9;" glyph-name="Eacute" horiz-adv-x="566" d="M65 700H516V570H213V418H488V288H213V130H521V0H65V700ZM319 870H491V839L317 752H205L319 870Z" />
<glyph unicode="&#xca;" glyph-name="Ecircumflex" horiz-adv-x="566" d="M65 700H516V570H213V418H488V288H213V130H521V0H65V700ZM238 870H343L481 778V737H373L311 777L289 811L265 778L199 737H93V779L238 870Z" />
<glyph unicode="&#xcb;" glyph-name="Edieresis" horiz-adv-x="566" d="M65 700H516V570H213V418H488V288H213V130H521V0H65V700ZM91 798Q91 825 110 841T174 858Q216 858 235 842T255 798Q255 772 236 757T174 741Q130 741 111 756T91 798ZM324 798Q324 825 343
841T405 858Q449 858 468 842T488 798Q488 772 469 757T405 741Q363 741 344 756T324 798Z" />
<glyph unicode="&#xcc;" glyph-name="Igrave" horiz-adv-x="388" d="M120 620H40V700H348V620H268V80H348V0H40V80H120V620ZM525 752H411L239 839V870H412L525 752Z" />
<glyph unicode="&#xcd;" glyph-name="Iacute" horiz-adv-x="388" d="M120 620H40V700H348V620H268V80H348V0H40V80H120V620ZM239 870H411V839L237 752H125L239 870Z" />
<glyph unicode="&#xce;" glyph-name="Icircumflex" horiz-adv-x="388" d="M120 620H40V700H348V620H268V80H348V0H40V80H120V620ZM402 870H507L645 778V737H537L475 777L453 811L429 778L363 737H257V779L402 870Z" />
<glyph unicode="&#xcf;" glyph-name="Idieresis" horiz-adv-x="388" d="M120 620H40V700H348V620H268V80H348V0H40V80H120V620ZM253 798Q253 825 272 841T336 858Q378 858 397 842T417 798Q417 772 398 757T336 741Q292 741 273 756T253 798ZM486 798Q486 825
505 841T567 858Q611 858 630 842T650 798Q650 772 631 757T567 741Q525 741 506 756T486 798Z" />
<glyph unicode="&#xd0;" glyph-name="Eth" horiz-adv-x="714" d="M-7 412H77V700Q99 703 127 705T186 708T246 709T298 710Q398 710 469 684T586 610T653 498T674 356Q674 286 654 220T587 103T467 20T285 -11Q268 -11 239 -10T178 -8T119 -5T77 -1V295H-7V412ZM225
412H360V295H225V123Q230 122 240 122T262 121T284 120T300 119Q364 119 406 139T472 192T507 267T517 354Q517 391 508 431T476 504T412 558T309 580Q286 580 262 580T225 577V412Z" />
<glyph unicode="&#xd1;" glyph-name="Ntilde" horiz-adv-x="713" d="M254 365L194 470H189L205 364V0H65V705H172L461 332L518 230H524L508 333V700H648V-5H541L254 365ZM150 804Q183 839 214 852T277 865Q301 865 325 860T371 847T415 835T457 829Q474 829 490
834T521 853L546 781Q517 755 489 745T434 735Q410 735 387 740T341 753T297 765T254 771Q233 771 213 764T173 736L150 804Z" />
<glyph unicode="&#xd2;" glyph-name="Ograve" horiz-adv-x="727" d="M40 350Q40 436 62 504T125 618T227 689T363 714Q444 714 504 688T605 613T666 498T687 350Q687 264 665 196T600 82T498 11T363 -14Q282 -14 222 12T121 87T60 202T40 350ZM197 350Q197 298
207 255T237 181T288 133T363 116Q442 116 486 170T530 350Q530 400 521 443T492 517T440 566T363 584Q285 584 241 528T197 350ZM446 752H332L160 839V870H333L446 752Z" />
<glyph unicode="&#xd3;" glyph-name="Oacute" horiz-adv-x="727" d="M40 350Q40 436 62 504T125 618T227 689T363 714Q444 714 504 688T605 613T666 498T687 350Q687 264 665 196T600 82T498 11T363 -14Q282 -14 222 12T121 87T60 202T40 350ZM197 350Q197 298
207 255T237 181T288 133T363 116Q442 116 486 170T530 350Q530 400 521 443T492 517T440 566T363 584Q285 584 241 528T197 350ZM396 870H568V839L394 752H282L396 870Z" />
<glyph unicode="&#xd4;" glyph-name="Ocircumflex" horiz-adv-x="727" d="M40 350Q40 436 62 504T125 618T227 689T363 714Q444 714 504 688T605 613T666 498T687 350Q687 264 665 196T600 82T498 11T363 -14Q282 -14 222 12T121 87T60 202T40 350ZM197 350Q197
298 207 255T237 181T288 133T363 116Q442 116 486 170T530 350Q530 400 521 443T492 517T440 566T363 584Q285 584 241 528T197 350ZM312 870H417L555 778V737H447L385 777L363 811L339 778L273 737H167V779L312 870Z" />
<glyph unicode="&#xd5;" glyph-name="Otilde" horiz-adv-x="727" d="M40 350Q40 436 62 504T125 618T227 689T363 714Q444 714 504 688T605 613T666 498T687 350Q687 264 665 196T600 82T498 11T363 -14Q282 -14 222 12T121 87T60 202T40 350ZM197 350Q197 298
207 255T237 181T288 133T363 116Q442 116 486 170T530 350Q530 400 521 443T492 517T440 566T363 584Q285 584 241 528T197 350ZM164 804Q197 839 228 852T291 865Q315 865 339 860T385 847T429 835T471 829Q488 829 504 834T535 853L560 781Q531 755 503 745T448
735Q424 735 401 740T355 753T311 765T268 771Q247 771 227 764T187 736L164 804Z" />
<glyph unicode="&#xd6;" glyph-name="Odieresis" horiz-adv-x="727" d="M40 350Q40 436 62 504T125 618T227 689T363 714Q444 714 504 688T605 613T666 498T687 350Q687 264 665 196T600 82T498 11T363 -14Q282 -14 222 12T121 87T60 202T40 350ZM197 350Q197
298 207 255T237 181T288 133T363 116Q442 116 486 170T530 350Q530 400 521 443T492 517T440 566T363 584Q285 584 241 528T197 350ZM164 798Q164 825 183 841T247 858Q289 858 308 842T328 798Q328 772 309 757T247 741Q203 741 184 756T164 798ZM397 798Q397
825 416 841T478 858Q522 858 541 842T561 798Q561 772 542 757T478 741Q436 741 417 756T397 798Z" />
<glyph unicode="&#xd7;" glyph-name="multiply" horiz-adv-x="571" d="M145 554L286 420L426 554L509 465L373 339L509 210L426 122L286 256L144 121L62 209L199 339L63 465L145 554Z" />
<glyph unicode="&#xd8;" glyph-name="Oslash" horiz-adv-x="727" d="M40 350Q40 436 62 504T125 618T227 689T363 714Q456 714 525 677L551 715L646 654L612 605Q650 557 668 493T687 350Q687 264 665 196T600 82T498 11T363 -14Q317 -14 279 -6T207 19L185 -14L92
46L120 87Q79 135 60 202T40 350ZM446 562Q411 584 363 584Q285 584 241 528T197 350Q197 277 215 225L446 562ZM287 134Q318 116 363 116Q442 116 486 170T530 350Q530 414 515 464L287 134Z" />
<glyph unicode="&#xd9;" glyph-name="Ugrave" horiz-adv-x="679" d="M478 700H618V251Q618 183 599 133T544 51T459 4T350 -12Q209 -12 135 49T61 234V700H209V261Q209 181 244 150T348 118Q414 118 446 151T478 261V700ZM428 752H314L142 839V870H315L428 752Z" />
<glyph unicode="&#xda;" glyph-name="Uacute" horiz-adv-x="679" d="M478 700H618V251Q618 183 599 133T544 51T459 4T350 -12Q209 -12 135 49T61 234V700H209V261Q209 181 244 150T348 118Q414 118 446 151T478 261V700ZM396 870H568V839L394 752H282L396 870Z" />
<glyph unicode="&#xdb;" glyph-name="Ucircumflex" horiz-adv-x="679" d="M478 700H618V251Q618 183 599 133T544 51T459 4T350 -12Q209 -12 135 49T61 234V700H209V261Q209 181 244 150T348 118Q414 118 446 151T478 261V700ZM297 870H402L540 778V737H432L370
777L348 811L324 778L258 737H152V779L297 870Z" />
<glyph unicode="&#xdc;" glyph-name="Udieresis" horiz-adv-x="679" d="M478 700H618V251Q618 183 599 133T544 51T459 4T350 -12Q209 -12 135 49T61 234V700H209V261Q209 181 244 150T348 118Q414 118 446 151T478 261V700ZM144 798Q144 825 163 841T227 858Q269
858 288 842T308 798Q308 772 289 757T227 741Q183 741 164 756T144 798ZM377 798Q377 825 396 841T458 858Q502 858 521 842T541 798Q541 772 522 757T458 741Q416 741 397 756T377 798Z" />
<glyph unicode="&#xdd;" glyph-name="Yacute" horiz-adv-x="644" d="M248 258L-2 700H174L314 443L330 368H335L352 445L487 700H646L396 259V0H248V258ZM354 870H526V839L352 752H240L354 870Z" />
<glyph unicode="&#xde;" glyph-name="Thorn" horiz-adv-x="620" d="M65 800H213V708Q228 709 243 709T275 710Q331 710 388 702T490 668T565 597T594 476Q594 410 569 364T503 288T408 246T299 232Q294 232 282 232T257 232T231 234T213 236V0H65V800ZM213 367Q217
366 226 365T245 364T263 363T277 362Q306 362 335 366T386 383T423 418T437 479Q437 511 424 530T390 561T341 576T285 580Q264 580 245 579T213 575V367Z" />
<glyph unicode="&#xdf;" glyph-name="germandbls" horiz-adv-x="762" d="M16 525H96V548Q96 636 140 671T272 706Q322 706 355 700T421 682L392 575Q367 583 347 586T304 589Q263 589 250 575T236 527V0H96V408H16V525ZM350 136Q364 129 382 122T422 109T466 99T512
95Q547 95 566 106T586 147Q586 171 560 182T496 205Q468 213 438 224T382 253T340 302T323 378Q323 457 372 498T513 540Q573 540 625 530T710 505L681 399Q655 409 615 419T532 430Q497 430 480 420T463 383Q463 360 489 349T554 326Q582 318 612 308T668 279T709
233T726 161Q726 77 672 31T508 -15Q449 -15 398 -5T315 26L350 136Z" />
<glyph unicode="&#xe0;" glyph-name="agrave" horiz-adv-x="579" d="M67 489Q112 509 177 522T313 535Q368 535 405 522T465 485T496 426T506 349Q506 298 502 248T498 142Q498 104 503 68T519 -1H405L382 77H370Q344 42 304 17T201 -8Q163 -8 132 3T78 34T43
83T30 144Q30 233 89 278T270 324Q298 324 326 320T365 313Q368 334 368 349Q368 387 349 405T278 423Q230 423 185 412T104 383L67 489ZM250 104Q297 104 325 126T366 172V232Q361 234 351 236T328 240T303 243T280 244Q226 244 200 225T174 176Q174 140 194 122T250
104ZM350 571H276L136 699V729H283L350 571Z" />
<glyph unicode="&#xe1;" glyph-name="aacute" horiz-adv-x="579" d="M67 489Q112 509 177 522T313 535Q368 535 405 522T465 485T496 426T506 349Q506 298 502 248T498 142Q498 104 503 68T519 -1H405L382 77H370Q344 42 304 17T201 -8Q163 -8 132 3T78 34T43
83T30 144Q30 233 89 278T270 324Q298 324 326 320T365 313Q368 334 368 349Q368 387 349 405T278 423Q230 423 185 412T104 383L67 489ZM250 104Q297 104 325 126T366 172V232Q361 234 351 236T328 240T303 243T280 244Q226 244 200 225T174 176Q174 140 194 122T250
104ZM287 729H429V700L303 571H227L287 729Z" />
<glyph unicode="&#xe2;" glyph-name="acircumflex" horiz-adv-x="579" d="M67 489Q112 509 177 522T313 535Q368 535 405 522T465 485T496 426T506 349Q506 298 502 248T498 142Q498 104 503 68T519 -1H405L382 77H370Q344 42 304 17T201 -8Q163 -8 132 3T78 34T43
83T30 144Q30 233 89 278T270 324Q298 324 326 320T365 313Q368 334 368 349Q368 387 349 405T278 423Q230 423 185 412T104 383L67 489ZM250 104Q297 104 325 126T366 172V232Q361 234 351 236T328 240T303 243T280 244Q226 244 200 225T174 176Q174 140 194 122T250
104ZM252 752H344L469 564H359L317 633L293 697L268 634L216 564H114L252 752Z" />
<glyph unicode="&#xe3;" glyph-name="atilde" horiz-adv-x="579" d="M67 489Q112 509 177 522T313 535Q368 535 405 522T465 485T496 426T506 349Q506 298 502 248T498 142Q498 104 503 68T519 -1H405L382 77H370Q344 42 304 17T201 -8Q163 -8 132 3T78 34T43
83T30 144Q30 233 89 278T270 324Q298 324 326 320T365 313Q368 334 368 349Q368 387 349 405T278 423Q230 423 185 412T104 383L67 489ZM250 104Q297 104 325 126T366 172V232Q361 234 351 236T328 240T303 243T280 244Q226 244 200 225T174 176Q174 140 194 122T250
104ZM107 677Q140 715 168 730T223 745Q245 745 265 738T306 722T346 706T390 699Q423 699 458 725L475 650Q445 617 418 604T366 590Q343 590 323 597T281 613T239 629T193 637Q176 637 159 632T122 610L107 677Z" />
<glyph unicode="&#xe4;" glyph-name="adieresis" horiz-adv-x="579" d="M67 489Q112 509 177 522T313 535Q368 535 405 522T465 485T496 426T506 349Q506 298 502 248T498 142Q498 104 503 68T519 -1H405L382 77H370Q344 42 304 17T201 -8Q163 -8 132 3T78 34T43
83T30 144Q30 233 89 278T270 324Q298 324 326 320T365 313Q368 334 368 349Q368 387 349 405T278 423Q230 423 185 412T104 383L67 489ZM250 104Q297 104 325 126T366 172V232Q361 234 351 236T328 240T303 243T280 244Q226 244 200 225T174 176Q174 140 194 122T250
104ZM80 657Q80 692 101 713T157 734Q191 734 211 713T232 657Q232 627 212 606T157 585Q123 585 102 606T80 657ZM333 657Q333 692 353 713T408 734Q443 734 463 713T484 657Q484 627 464 606T408 585Q374 585 354 606T333 657Z" />
<glyph unicode="&#xe5;" glyph-name="aring" horiz-adv-x="579" d="M67 489Q112 509 177 522T313 535Q368 535 405 522T465 485T496 426T506 349Q506 298 502 248T498 142Q498 104 503 68T519 -1H405L382 77H370Q344 42 304 17T201 -8Q163 -8 132 3T78 34T43 83T30
144Q30 233 89 278T270 324Q298 324 326 320T365 313Q368 334 368 349Q368 387 349 405T278 423Q230 423 185 412T104 383L67 489ZM250 104Q297 104 325 126T366 172V232Q361 234 351 236T328 240T303 243T280 244Q226 244 200 225T174 176Q174 140 194 122T250
104ZM173 665Q173 707 203 735T294 764Q351 764 383 739T416 665Q416 646 408 629T384 598T345 576T294 568Q236 568 205 595T173 665ZM245 665Q245 648 259 639T294 630Q316 630 330 638T345 665Q345 684 330 693T294 703Q274 703 260 694T245 665Z" />
<glyph unicode="&#xe6;" glyph-name="ae" horiz-adv-x="915" d="M250 104Q297 104 324 125T366 169V232Q355 235 339 239T288 243Q231 243 203 223T174 167Q174 137 195 121T250 104ZM406 83Q376 45 327 19T201 -8Q163 -8 132 3T78 34T43 83T30 144Q30 233 92
278T268 323Q300 323 328 319T365 313Q367 327 367 334T368 348Q368 380 349 401T277 422Q231 422 185 412T104 385L67 483Q111 505 173 520T304 535Q363 535 398 521T460 477Q489 507 535 523T635 540Q677 540 718 530T790 495T841 429T861 325Q861 304 859 280T851
228H500Q505 162 540 129T653 95Q699 95 737 108T796 136L842 47Q825 34 802 23T750 3T690 -10T625 -15Q554 -15 497 7T411 83H406ZM633 429Q570 429 541 396T506 311H731Q736 368 712 398T633 429Z" />
<glyph unicode="&#xe7;" glyph-name="ccedilla" horiz-adv-x="500" d="M468 32Q442 15 407 4T334 -12L310 -52Q358 -55 385 -73T413 -129Q413 -153 401 -170T366 -200T315 -218T252 -224Q234 -224 216 -223T179 -218L189 -171Q220 -173 239 -171T268 -164T282
-153T286 -138Q286 -121 263 -112T189 -101L246 -12Q190 -6 152 16T89 74T53 157T42 262Q42 393 106 466T294 540Q354 540 392 531T461 506L427 394Q401 405 376 410T316 416Q253 416 220 380T186 262Q186 230 194 203T219 154T262 121T323 109Q365 109 389 116T436
137L468 32Z" />
<glyph unicode="&#xe8;" glyph-name="egrave" horiz-adv-x="594" d="M521 48Q487 22 429 4T303 -15Q168 -15 105 59T42 262Q42 399 113 469T313 540Q355 540 396 530T469 495T520 429T540 326Q540 305 538 280T529 228H179Q184 160 218 128T331 95Q378 95 415
108T473 136L521 48ZM311 430Q249 430 219 397T184 311H410Q414 366 390 398T311 430ZM371 571H297L157 699V729H304L371 571Z" />
<glyph unicode="&#xe9;" glyph-name="eacute" horiz-adv-x="594" d="M521 48Q487 22 429 4T303 -15Q168 -15 105 59T42 262Q42 399 113 469T313 540Q355 540 396 530T469 495T520 429T540 326Q540 305 538 280T529 228H179Q184 160 218 128T331 95Q378 95 415
108T473 136L521 48ZM311 430Q249 430 219 397T184 311H410Q414 366 390 398T311 430ZM328 729H470V700L344 571H268L328 729Z" />
<glyph unicode="&#xea;" glyph-name="ecircumflex" horiz-adv-x="594" d="M521 48Q487 22 429 4T303 -15Q168 -15 105 59T42 262Q42 399 113 469T313 540Q355 540 396 530T469 495T520 429T540 326Q540 305 538 280T529 228H179Q184 160 218 128T331 95Q378 95
415 108T473 136L521 48ZM311 430Q249 430 219 397T184 311H410Q414 366 390 398T311 430ZM256 752H348L473 564H363L321 633L297 697L272 634L220 564H118L256 752Z" />
<glyph unicode="&#xeb;" glyph-name="edieresis" horiz-adv-x="594" d="M521 48Q487 22 429 4T303 -15Q168 -15 105 59T42 262Q42 399 113 469T313 540Q355 540 396 530T469 495T520 429T540 326Q540 305 538 280T529 228H179Q184 160 218 128T331 95Q378 95 415
108T473 136L521 48ZM311 430Q249 430 219 397T184 311H410Q414 366 390 398T311 430ZM94 657Q94 692 115 713T171 734Q205 734 225 713T246 657Q246 627 226 606T171 585Q137 585 116 606T94 657ZM347 657Q347 692 367 713T422 734Q457 734 477 713T498 657Q498
627 478 606T422 585Q388 585 368 606T347 657Z" />
<glyph unicode="&#xec;" glyph-name="igrave" horiz-adv-x="317" d="M89 525H229V0H89V525ZM463 571H389L249 699V729H396L463 571Z" />
<glyph unicode="&#xed;" glyph-name="iacute" horiz-adv-x="317" d="M89 525H229V0H89V525ZM144 729H286V700L160 571H84L144 729Z" />
<glyph unicode="&#xee;" glyph-name="icircumflex" horiz-adv-x="317" d="M89 525H229V0H89V525ZM376 752H468L593 564H483L441 633L417 697L392 634L340 564H238L376 752Z" />
<glyph unicode="&#xef;" glyph-name="idieresis" horiz-adv-x="317" d="M89 525H229V0H89V525ZM213 657Q213 692 234 713T290 734Q324 734 344 713T365 657Q365 627 345 606T290 585Q256 585 235 606T213 657ZM466 657Q466 692 486 713T541 734Q576 734 596 713T617
657Q617 627 597 606T541 585Q507 585 487 606T466 657Z" />
<glyph unicode="&#xf0;" glyph-name="eth" horiz-adv-x="643" d="M250 552L274 617Q254 620 233 620Q199 620 159 612V703Q163 703 176 704T205 707T241 709T278 710Q286 710 293 710T309 708L331 765L395 739L379 697Q427 684 468 657T538 585T584 476T601 326Q601
243 580 180T522 73T432 8T316 -15Q248 -15 197 4T112 58T60 141T42 247Q42 305 61 352T116 433T201 485T309 503Q351 503 393 493T464 459Q453 510 421 544T342 599L316 529L250 552ZM462 347Q435 367 399 376T326 386Q254 386 216 346T177 243Q177 173 217 138T324
102Q356 102 382 115T428 152T458 209T469 284Q469 297 468 315T462 347Z" />
<glyph unicode="&#xf1;" glyph-name="ntilde" horiz-adv-x="638" d="M426 0V288Q426 356 405 386T331 416Q286 416 255 392T211 329Q211 247 211 165T212 0H72V525H182L197 450H212Q238 487 281 513T393 540Q435 540 467 530T521 494T554 425T566 317V0H426ZM134
677Q167 715 195 730T250 745Q272 745 292 738T333 722T373 706T417 699Q450 699 485 725L502 650Q472 617 445 604T393 590Q370 590 350 597T308 613T266 629T220 637Q203 637 186 632T149 610L134 677Z" />
<glyph unicode="&#xf2;" glyph-name="ograve" horiz-adv-x="616" d="M42 262Q42 392 111 466T308 540Q375 540 425 519T508 461T557 373T574 262Q574 198 556 147T504 59T421 4T308 -15Q240 -15 190 6T107 64T58 152T42 262ZM186 262Q186 229 193 200T214 150T252
115T308 102Q430 102 430 262Q430 297 424 326T403 377T365 411T308 423Q251 423 219 385T186 262ZM375 571H301L161 699V729H308L375 571Z" />
<glyph unicode="&#xf3;" glyph-name="oacute" horiz-adv-x="616" d="M42 262Q42 392 111 466T308 540Q375 540 425 519T508 461T557 373T574 262Q574 198 556 147T504 59T421 4T308 -15Q240 -15 190 6T107 64T58 152T42 262ZM186 262Q186 229 193 200T214 150T252
115T308 102Q430 102 430 262Q430 297 424 326T403 377T365 411T308 423Q251 423 219 385T186 262ZM329 729H471V700L345 571H269L329 729Z" />
<glyph unicode="&#xf4;" glyph-name="ocircumflex" horiz-adv-x="616" d="M42 262Q42 392 111 466T308 540Q375 540 425 519T508 461T557 373T574 262Q574 198 556 147T504 59T421 4T308 -15Q240 -15 190 6T107 64T58 152T42 262ZM186 262Q186 229 193 200T214
150T252 115T308 102Q430 102 430 262Q430 297 424 326T403 377T365 411T308 423Q251 423 219 385T186 262ZM268 752H360L485 564H375L333 633L309 697L284 634L232 564H130L268 752Z" />
<glyph unicode="&#xf5;" glyph-name="otilde" horiz-adv-x="616" d="M42 262Q42 392 111 466T308 540Q375 540 425 519T508 461T557 373T574 262Q574 198 556 147T504 59T421 4T308 -15Q240 -15 190 6T107 64T58 152T42 262ZM186 262Q186 229 193 200T214 150T252
115T308 102Q430 102 430 262Q430 297 424 326T403 377T365 411T308 423Q251 423 219 385T186 262ZM126 677Q159 715 187 730T242 745Q264 745 284 738T325 722T365 706T409 699Q442 699 477 725L494 650Q464 617 437 604T385 590Q362 590 342 597T300 613T258
629T212 637Q195 637 178 632T141 610L126 677Z" />
<glyph unicode="&#xf6;" glyph-name="odieresis" horiz-adv-x="616" d="M42 262Q42 392 111 466T308 540Q375 540 425 519T508 461T557 373T574 262Q574 198 556 147T504 59T421 4T308 -15Q240 -15 190 6T107 64T58 152T42 262ZM186 262Q186 229 193 200T214 150T252
115T308 102Q430 102 430 262Q430 297 424 326T403 377T365 411T308 423Q251 423 219 385T186 262ZM108 657Q108 692 129 713T185 734Q219 734 239 713T260 657Q260 627 240 606T185 585Q151 585 130 606T108 657ZM361 657Q361 692 381 713T436 734Q471 734 491
713T512 657Q512 627 492 606T436 585Q402 585 382 606T361 657Z" />
<glyph unicode="&#xf7;" glyph-name="divide" horiz-adv-x="571" d="M47 397H524V277H47V397ZM199 538Q199 575 223 596T286 617Q326 617 350 596T374 538Q374 503 350 481T286 459Q247 459 223 481T199 538ZM199 136Q199 173 223 194T286 215Q326 215 350 194T374
136Q374 101 350 79T286 57Q247 57 223 79T199 136Z" />
<glyph unicode="&#xf8;" glyph-name="oslash" horiz-adv-x="617" d="M42 262Q42 326 60 377T112 465T195 520T308 540Q345 540 376 534T434 516L463 553L547 486L517 451Q546 414 560 367T575 262Q575 198 557 147T505 59T422 4T308 -15Q230 -15 174 13L145 -24L58
43L92 83Q66 118 54 163T42 262ZM243 120Q268 102 308 102Q431 102 431 262Q431 285 427 306T417 344L243 120ZM370 407Q343 423 308 423Q252 423 219 385T186 262Q186 223 197 188L370 407Z" />
<glyph unicode="&#xf9;" glyph-name="ugrave" horiz-adv-x="642" d="M212 525V234Q212 169 230 139T299 109Q343 109 373 132T417 190V525H557V160Q557 118 561 76T574 0H471L444 82H433Q407 40 359 13T249 -15Q206 -15 173 -4T118 32T84 100T72 204V525H212ZM368
571H294L154 699V729H301L368 571Z" />
<glyph unicode="&#xfa;" glyph-name="uacute" horiz-adv-x="642" d="M212 525V234Q212 169 230 139T299 109Q343 109 373 132T417 190V525H557V160Q557 118 561 76T574 0H471L444 82H433Q407 40 359 13T249 -15Q206 -15 173 -4T118 32T84 100T72 204V525H212ZM321
729H463V700L337 571H261L321 729Z" />
<glyph unicode="&#xfb;" glyph-name="ucircumflex" horiz-adv-x="642" d="M212 525V234Q212 169 230 139T299 109Q343 109 373 132T417 190V525H557V160Q557 118 561 76T574 0H471L444 82H433Q407 40 359 13T249 -15Q206 -15 173 -4T118 32T84 100T72 204V525H212ZM278
752H370L495 564H385L343 633L319 697L294 634L242 564H140L278 752Z" />
<glyph unicode="&#xfc;" glyph-name="udieresis" horiz-adv-x="642" d="M212 525V234Q212 169 230 139T299 109Q343 109 373 132T417 190V525H557V160Q557 118 561 76T574 0H471L444 82H433Q407 40 359 13T249 -15Q206 -15 173 -4T118 32T84 100T72 204V525H212ZM114
657Q114 692 135 713T191 734Q225 734 245 713T266 657Q266 627 246 606T191 585Q157 585 136 606T114 657ZM367 657Q367 692 387 713T442 734Q477 734 497 713T518 657Q518 627 498 606T442 585Q408 585 388 606T367 657Z" />
<glyph unicode="&#xfd;" glyph-name="yacute" horiz-adv-x="541" d="M264 234L286 150H296L315 234L404 525H547L373 50Q351 -9 332 -56T289 -136T238 -186T170 -204Q144 -204 121 -200T80 -186L109 -78Q124 -83 140 -83Q154 -83 167 -80T191 -69T211 -45T228
-3L-12 525H157L264 234ZM300 729H442V700L316 571H240L300 729Z" />
<glyph unicode="&#xfe;" glyph-name="thorn" horiz-adv-x="623" d="M72 700H212V477H224Q249 504 282 522T369 540Q475 540 528 478T581 276Q581 209 564 155T515 64T434 6T322 -15Q287 -15 263 -9T212 9V-200H72V700ZM326 423Q240 423 212 334V133Q229 118 250
110T303 102Q371 102 404 144T437 280Q437 347 412 385T326 423Z" />
<glyph unicode="&#xff;" glyph-name="ydieresis" horiz-adv-x="541" d="M264 234L286 150H296L315 234L404 525H547L373 50Q351 -9 332 -56T289 -136T238 -186T170 -204Q144 -204 121 -200T80 -186L109 -78Q124 -83 140 -83Q154 -83 167 -80T191 -69T211 -45T228
-3L-12 525H157L264 234ZM76 657Q76 692 97 713T153 734Q187 734 207 713T228 657Q228 627 208 606T153 585Q119 585 98 606T76 657ZM329 657Q329 692 349 713T404 734Q439 734 459 713T480 657Q480 627 460 606T404 585Q370 585 350 606T329 657Z" />
<glyph unicode="&#x100;" glyph-name="Amacron" horiz-adv-x="658" d="M441 149H205L148 0H0L274 705H383L658 0H501L441 149ZM246 266H406L352 412L328 523H323L299 411L246 266ZM140 838H513V746H140V838Z" />
<glyph unicode="&#x101;" glyph-name="amacron" horiz-adv-x="579" d="M67 489Q112 509 177 522T313 535Q368 535 405 522T465 485T496 426T506 349Q506 298 502 248T498 142Q498 104 503 68T519 -1H405L382 77H370Q344 42 304 17T201 -8Q163 -8 132 3T78 34T43
83T30 144Q30 233 89 278T270 324Q298 324 326 320T365 313Q368 334 368 349Q368 387 349 405T278 423Q230 423 185 412T104 383L67 489ZM250 104Q297 104 325 126T366 172V232Q361 234 351 236T328 240T303 243T280 244Q226 244 200 225T174 176Q174 140 194 122T250
104ZM104 679H455V584H104V679Z" />
<glyph unicode="&#x102;" glyph-name="Abreve" horiz-adv-x="658" d="M441 149H205L148 0H0L274 705H383L658 0H501L441 149ZM246 266H406L352 412L328 523H323L299 411L246 266ZM177 876Q200 850 241 838T333 825Q385 825 423 839T482 876L535 841Q522 813 501
792T452 758T394 737T332 730Q303 730 272 735T213 753T160 786T121 836L177 876Z" />
<glyph unicode="&#x103;" glyph-name="abreve" horiz-adv-x="579" d="M67 489Q112 509 177 522T313 535Q368 535 405 522T465 485T496 426T506 349Q506 298 502 248T498 142Q498 104 503 68T519 -1H405L382 77H370Q344 42 304 17T201 -8Q163 -8 132 3T78 34T43
83T30 144Q30 233 89 278T270 324Q298 324 326 320T365 313Q368 334 368 349Q368 387 349 405T278 423Q230 423 185 412T104 383L67 489ZM250 104Q297 104 325 126T366 172V232Q361 234 351 236T328 240T303 243T280 244Q226 244 200 225T174 176Q174 140 194 122T250
104ZM160 728Q183 700 218 685T292 669Q330 669 363 684T416 728L480 702Q475 678 459 654T418 611T361 580T291 568Q218 568 166 602T96 696L160 728Z" />
<glyph unicode="&#x104;" glyph-name="Aogonek" horiz-adv-x="658" d="M441 149H205L148 0H0L274 705H383L658 0H639Q577 -27 578 -74Q578 -94 592 -107T630 -121Q641 -121 651 -119T674 -110L696 -174Q678 -187 643 -199T567 -211Q506 -211 474 -184T442 -114Q442
-76 469 -47T543 0H501L441 149ZM246 266H406L352 412L328 523H323L299 411L246 266Z" />
<glyph unicode="&#x105;" glyph-name="aogonek" horiz-adv-x="579" d="M67 489Q112 509 177 522T313 535Q368 535 405 522T465 485T496 426T506 349Q506 298 502 248T498 142Q498 104 503 68T519 -1H498Q466 -14 449 -31T432 -74Q432 -94 446 -107T484 -121Q495
-121 505 -119T528 -110L550 -174Q532 -187 497 -199T421 -211Q360 -211 328 -184T296 -114Q296 -75 326 -46T405 0L382 77H370Q344 42 304 17T201 -8Q163 -8 132 3T78 34T43 83T30 144Q30 233 89 278T270 324Q298 324 326 320T365 313Q368 334 368 349Q368 387
349 405T278 423Q230 423 185 412T104 383L67 489ZM250 104Q297 104 325 126T366 172V232Q361 234 351 236T328 240T303 243T280 244Q226 244 200 225T174 176Q174 140 194 122T250 104Z" />
<glyph unicode="&#x106;" glyph-name="Cacute" horiz-adv-x="607" d="M579 30Q546 7 492 -3T381 -14Q314 -14 253 6T144 70T68 183T40 350Q40 452 72 521T154 633T265 695T385 714Q450 714 494 706T568 687L539 563Q514 574 481 579T396 584Q351 584 315 570T252
526T212 453T197 350Q197 298 210 255T249 181T315 133T408 116Q457 116 490 125T550 148L579 30ZM407 870H579V839L405 752H293L407 870Z" />
<glyph unicode="&#x107;" glyph-name="cacute" horiz-adv-x="500" d="M468 32Q434 9 387 -3T288 -15Q220 -15 174 5T98 62T55 149T42 262Q42 393 106 466T294 540Q354 540 392 531T461 506L427 394Q401 405 376 410T316 416Q253 416 220 380T186 262Q186 230 194
203T219 154T262 121T323 109Q365 109 389 116T436 137L468 32ZM298 729H440V700L314 571H238L298 729Z" />
<glyph unicode="&#x10c;" glyph-name="Ccaron" horiz-adv-x="607" d="M579 30Q546 7 492 -3T381 -14Q314 -14 253 6T144 70T68 183T40 350Q40 452 72 521T154 633T265 695T385 714Q450 714 494 706T568 687L539 563Q514 574 481 579T396 584Q351 584 315 570T252
526T212 453T197 350Q197 298 210 255T249 181T315 133T408 116Q457 116 490 125T550 148L579 30ZM419 736H317L179 829V870H293L350 826L371 796L393 825L455 870H564V828L419 736Z" />
<glyph unicode="&#x10d;" glyph-name="ccaron" horiz-adv-x="500" d="M468 32Q434 9 387 -3T288 -15Q220 -15 174 5T98 62T55 149T42 262Q42 393 106 466T294 540Q354 540 392 531T461 506L427 394Q401 405 376 410T316 416Q253 416 220 380T186 262Q186 230 194
203T219 154T262 121T323 109Q365 109 389 116T436 137L468 32ZM325 584H226L97 772H213L256 703L281 640L305 702L355 772H463L325 584Z" />
<glyph unicode="&#x10e;" glyph-name="Dcaron" horiz-adv-x="702" d="M65 700Q87 703 115 705T174 708T234 709T286 710Q386 710 457 684T574 610T641 498T662 356Q662 286 642 220T575 103T455 20T273 -11Q256 -11 227 -10T166 -8T107 -5T65 -1V700ZM297 580Q274
580 250 580T213 577V123Q218 122 228 122T250 121T272 120T288 119Q352 119 394 139T460 192T495 267T505 354Q505 391 496 431T464 504T400 558T297 580ZM360 736H258L120 829V870H234L291 826L312 796L334 825L396 870H505V828L360 736Z" />
<glyph unicode="&#x10f;" glyph-name="dcaron" horiz-adv-x="628" d="M550 184Q550 142 551 97T560 -1H463L443 72H430Q407 32 365 9T263 -15Q158 -15 100 50T42 253Q42 319 58 372T107 462T188 519T299 539Q334 539 359 534T410 520V700H550V184ZM299 102Q346
102 372 123T410 185V395Q392 409 372 415T318 422Q251 422 219 383T186 249Q186 183 213 143T299 102ZM725 700Q723 671 712 639T686 579T655 527T627 494L564 529Q583 565 592 609T602 700H725Z" />
<glyph unicode="&#x110;" glyph-name="Dcroat" horiz-adv-x="714" d="M-7 412H77V700Q99 703 127 705T186 708T246 709T298 710Q398 710 469 684T586 610T653 498T674 356Q674 286 654 220T587 103T467 20T285 -11Q268 -11 239 -10T178 -8T119 -5T77 -1V295H-7V412ZM225
412H360V295H225V123Q230 122 240 122T262 121T284 120T300 119Q364 119 406 139T472 192T507 267T517 354Q517 391 508 431T476 504T412 558T309 580Q286 580 262 580T225 577V412Z" />
<glyph unicode="&#x111;" glyph-name="" horiz-adv-x="638" d="M550 656H638V574H550V184Q550 142 551 97T560 -1H463L443 72H430Q407 32 365 9T263 -15Q158 -15 100 50T42 253Q42 319 58 372T107 462T188 519T299 539Q334 539 359 534T410 520V574H240V656H410V700H550V656ZM410
395Q392 409 372 415T318 422Q251 422 219 383T186 249Q186 183 213 143T299 102Q346 102 372 123T410 185V395Z" />
<glyph unicode="&#x112;" glyph-name="Emacron" horiz-adv-x="566" d="M65 700H516V570H213V418H488V288H213V130H521V0H65V700ZM105 838H478V746H105V838Z" />
<glyph unicode="&#x113;" glyph-name="emacron" horiz-adv-x="594" d="M521 48Q487 22 429 4T303 -15Q168 -15 105 59T42 262Q42 399 113 469T313 540Q355 540 396 530T469 495T520 429T540 326Q540 305 538 280T529 228H179Q184 160 218 128T331 95Q378 95 415
108T473 136L521 48ZM311 430Q249 430 219 397T184 311H410Q414 366 390 398T311 430ZM128 679H479V584H128V679Z" />
<glyph unicode="&#x116;" glyph-name="Edotaccent" horiz-adv-x="566" d="M65 700H516V570H213V418H488V288H213V130H521V0H65V700ZM209 799Q209 824 232 842T303 860Q350 860 374 842T399 799Q399 772 375 754T303 736Q256 736 233 754T209 799Z" />
<glyph unicode="&#x117;" glyph-name="edotaccent" horiz-adv-x="594" d="M521 48Q487 22 429 4T303 -15Q168 -15 105 59T42 262Q42 399 113 469T313 540Q355 540 396 530T469 495T520 429T540 326Q540 305 538 280T529 228H179Q184 160 218 128T331 95Q378 95
415 108T473 136L521 48ZM311 430Q249 430 219 397T184 311H410Q414 366 390 398T311 430ZM217 676Q217 708 240 729T305 751Q348 751 373 729T398 676Q398 647 373 626T305 605Q263 605 240 626T217 676Z" />
<glyph unicode="&#x118;" glyph-name="Eogonek" horiz-adv-x="566" d="M65 700H516V570H213V418H488V288H213V130H521V0H497Q435 -27 436 -74Q436 -94 450 -107T488 -121Q499 -121 509 -119T532 -110L554 -174Q536 -187 501 -199T425 -211Q364 -211 332 -184T300
-114Q300 -76 327 -47T401 0H65V700Z" />
<glyph unicode="&#x119;" glyph-name="eogonek" horiz-adv-x="594" d="M521 48Q508 38 491 29T454 12Q424 -3 408 -23T392 -75Q392 -95 405 -108T444 -122Q463 -122 486 -112L507 -174Q498 -180 485 -187T454 -199T419 -207T381 -211Q317 -211 285 -184T252 -114Q252
-83 272 -58T324 -14Q319 -15 314 -15T303 -15Q168 -15 105 59T42 262Q42 399 113 469T313 540Q355 540 396 530T469 495T520 429T540 326Q540 305 538 280T529 228H179Q184 160 218 128T331 95Q378 95 415 108T473 136L521 48ZM311 430Q249 430 219 397T184 311H410Q414
366 390 398T311 430Z" />
<glyph unicode="&#x11a;" glyph-name="Ecaron" horiz-adv-x="566" d="M65 700H516V570H213V418H488V288H213V130H521V0H65V700ZM334 736H232L94 829V870H208L265 826L286 796L308 825L370 870H479V828L334 736Z" />
<glyph unicode="&#x11b;" glyph-name="ecaron" horiz-adv-x="594" d="M521 48Q487 22 429 4T303 -15Q168 -15 105 59T42 262Q42 399 113 469T313 540Q355 540 396 530T469 495T520 429T540 326Q540 305 538 280T529 228H179Q184 160 218 128T331 95Q378 95 415
108T473 136L521 48ZM311 430Q249 430 219 397T184 311H410Q414 366 390 398T311 430ZM346 584H247L118 772H234L277 703L302 640L326 702L376 772H484L346 584Z" />
<glyph unicode="&#x11e;" glyph-name="Gbreve" horiz-adv-x="661" d="M331 368H617V54Q594 36 567 24T509 3T446 -10T383 -14Q311 -14 249 7T140 72T67 186T40 350Q40 449 72 518T155 631T270 694T397 714Q462 714 511 705T589 686L558 563Q531 572 497 578T412
584Q365 584 326 572T258 531T213 458T197 349Q197 287 213 243T256 171T320 129T396 116Q423 116 450 122T497 141V262L331 278V368ZM210 876Q233 850 274 838T366 825Q418 825 456 839T515 876L568 841Q555 813 534 792T485 758T427 737T365 730Q336 730 305
735T246 753T193 786T154 836L210 876Z" />
<glyph unicode="&#x11f;" glyph-name="gbreve" horiz-adv-x="619" d="M547 20Q547 -96 481 -151T294 -206Q216 -206 169 -196T95 -172Q108 -132 114 -109T124 -73T128 -58T129 -55Q153 -67 187 -79T270 -92Q311 -92 338 -84T381 -61T403 -23T410 26V65H398Q378
36 343 24T256 12Q149 12 96 71T42 261Q42 399 112 469T322 539Q395 539 452 530T547 508V20ZM289 121Q335 121 364 138T407 180V406Q370 422 313 422Q252 422 219 386T186 267Q186 191 214 156T289 121ZM184 728Q207 700 242 685T316 669Q354 669 387 684T440
728L504 702Q499 678 483 654T442 611T385 580T315 568Q242 568 190 602T120 696L184 728Z" />
<glyph unicode="&#x122;" glyph-name="Gcommaaccent" horiz-adv-x="661" d="M331 368H617V54Q594 36 567 24T509 3T446 -10T383 -14Q311 -14 249 7T140 72T67 186T40 350Q40 449 72 518T155 631T270 694T397 714Q462 714 511 705T589 686L558 563Q531 572 497
578T412 584Q365 584 326 572T258 531T213 458T197 349Q197 287 213 243T256 171T320 129T396 116Q423 116 450 122T497 141V262L331 278V368ZM313 -105Q313 -76 333 -58T384 -40Q422 -40 446 -64T470 -130Q470 -164 458 -189T429 -232T392 -261T359 -276L323 -216Q338
-210 352 -200T369 -168Q349 -169 331 -153T313 -105Z" />
<glyph unicode="&#x123;" glyph-name="gcommaaccent" horiz-adv-x="619" d="M547 20Q547 -96 481 -151T294 -206Q216 -206 169 -196T95 -172Q108 -132 114 -109T124 -73T128 -58T129 -55Q153 -67 187 -79T270 -92Q311 -92 338 -84T381 -61T403 -23T410 26V65H398Q378
36 343 24T256 12Q149 12 96 71T42 261Q42 399 112 469T322 539Q395 539 452 530T547 508V20ZM289 121Q335 121 364 138T407 180V406Q370 422 313 422Q252 422 219 386T186 267Q186 191 214 156T289 121ZM407 648Q407 619 387 601T336 583Q298 583 274 607T250
673Q250 707 262 732T291 775T328 804T361 819L397 759Q382 753 368 743T351 711Q371 712 389 696T407 648Z" />
<glyph unicode="&#x126;" glyph-name="Hbar" horiz-adv-x="742" d="M2 601H84V700H232V601H512V700H660V601H740V515H660V0H512V289H232V0H84V515H2V601ZM512 419V515H232V419H512Z" />
<glyph unicode="&#x127;" glyph-name="hbar" horiz-adv-x="652" d="M0 642H86V700H226V642H397V559H226V461H238Q265 496 305 518T408 540Q451 540 483 530T536 494T569 426T580 320V0H440V289Q440 357 420 386T344 416Q304 416 271 391T226 323V0H86V559H0V642Z" />
<glyph unicode="&#x12a;" glyph-name="Imacron" horiz-adv-x="388" d="M120 620H40V700H348V620H268V80H348V0H40V80H120V620ZM265 838H638V746H265V838Z" />
<glyph unicode="&#x12b;" glyph-name="imacron" horiz-adv-x="317" d="M89 525H229V0H89V525ZM240 679H591V584H240V679Z" />
<glyph unicode="&#x12e;" glyph-name="Iogonek" horiz-adv-x="388" d="M120 620H40V700H348V620H268V80H348V0H217Q155 -27 156 -74Q156 -94 170 -107T208 -121Q219 -121 229 -119T252 -110L274 -174Q256 -187 221 -199T145 -211Q84 -211 52 -184T20 -114Q20 -76
47 -47T121 0H40V80H120V620Z" />
<glyph unicode="&#x12f;" glyph-name="iogonek" horiz-adv-x="317" d="M89 525H229V0H219Q157 -27 158 -74Q158 -94 172 -107T210 -121Q221 -121 231 -119T254 -110L276 -174Q258 -187 223 -199T147 -211Q86 -211 54 -184T22 -114Q22 -76 49 -47T123 0H89V525ZM68
636Q68 668 91 689T156 711Q199 711 224 689T249 636Q249 607 224 586T156 565Q114 565 91 586T68 636Z" />
<glyph unicode="&#x130;" glyph-name="Idot" horiz-adv-x="388" d="M120 620H40V700H348V620H268V80H348V0H40V80H120V620ZM99 799Q99 824 122 842T193 860Q240 860 264 842T289 799Q289 772 265 754T193 736Q146 736 123 754T99 799Z" />
<glyph unicode="&#x131;" glyph-name="dotlessi" horiz-adv-x="317" d="M89 525H229V0H89V525Z" />
<glyph unicode="&#x136;" glyph-name="Kcommaaccent" horiz-adv-x="671" d="M252 296H213V0H65V700H213V392L248 407L458 700H627L405 407L347 369L407 329L661 0H478L252 296ZM238 -105Q238 -76 258 -58T309 -40Q347 -40 371 -64T395 -130Q395 -164 383 -189T354
-232T317 -261T284 -276L248 -216Q263 -210 277 -200T294 -168Q274 -169 256 -153T238 -105Z" />
<glyph unicode="&#x137;" glyph-name="kcommaaccent" horiz-adv-x="564" d="M260 218H212V0H72V700H212V298L256 317L387 525H541L407 334H408L344 288L411 244H410L564 0H402L260 218ZM207 -105Q207 -76 227 -58T278 -40Q316 -40 340 -64T364 -130Q364 -164 352
-189T323 -232T286 -261T253 -276L217 -216Q232 -210 246 -200T263 -168Q243 -169 225 -153T207 -105Z" />
<glyph unicode="&#x139;" glyph-name="Lacute" horiz-adv-x="557" d="M547 0H65V700H213V130H547V0ZM231 870H403V839L229 752H117L231 870Z" />
<glyph unicode="&#x13a;" glyph-name="lacute" horiz-adv-x="337" d="M215 184Q215 108 264 108Q278 108 290 110T320 119L337 10Q317 1 281 -7T205 -16Q142 -16 109 12T75 104V700H215V184ZM191 870H363V839L189 752H77L191 870Z" />
<glyph unicode="&#x13b;" glyph-name="Lcommaaccent" horiz-adv-x="557" d="M547 0H65V700H213V130H547V0ZM196 -105Q196 -76 216 -58T267 -40Q305 -40 329 -64T353 -130Q353 -164 341 -189T312 -232T275 -261T242 -276L206 -216Q221 -210 235 -200T252 -168Q232
-169 214 -153T196 -105Z" />
<glyph unicode="&#x13c;" glyph-name="lcommaaccent" horiz-adv-x="337" d="M215 184Q215 108 264 108Q278 108 290 110T320 119L337 10Q317 1 281 -7T205 -16Q142 -16 109 12T75 104V700H215V184ZM105 -105Q105 -76 125 -58T176 -40Q214 -40 238 -64T262 -130Q262
-164 250 -189T221 -232T184 -261T151 -276L115 -216Q130 -210 144 -200T161 -168Q141 -169 123 -153T105 -105Z" />
<glyph unicode="&#x13d;" glyph-name="Lcaron" horiz-adv-x="557" d="M547 0H65V700H213V130H547V0ZM499 700Q497 671 486 639T460 579T429 527T401 494L338 529Q357 565 366 609T376 700H499Z" />
<glyph unicode="&#x13e;" glyph-name="lcaron" horiz-adv-x="337" d="M215 184Q215 108 264 108Q278 108 290 110T320 119L337 10Q317 1 281 -7T205 -16Q142 -16 109 12T75 104V700H215V184ZM396 700Q394 671 383 639T357 579T326 527T298 494L235 529Q254 565
263 609T273 700H396Z" />
<glyph unicode="&#x141;" glyph-name="Lslash" horiz-adv-x="569" d="M2 321L77 367V700H225V459L333 526V397L225 331V130H559V0H77V241L2 196V321Z" />
<glyph unicode="&#x142;" glyph-name="lslash" horiz-adv-x="359" d="M0 309L97 369V700H237V455L331 514V385L237 327V184Q237 108 285 108Q310 108 342 119L359 10Q339 1 303 -7T227 -16Q164 -16 131 12T97 104V243L0 184V309Z" />
<glyph unicode="&#x143;" glyph-name="Nacute" horiz-adv-x="713" d="M254 365L194 470H189L205 364V0H65V705H172L461 332L518 230H524L508 333V700H648V-5H541L254 365ZM393 870H565V839L391 752H279L393 870Z" />
<glyph unicode="&#x144;" glyph-name="nacute" horiz-adv-x="638" d="M426 0V288Q426 356 405 386T331 416Q286 416 255 392T211 329Q211 247 211 165T212 0H72V525H182L197 450H212Q238 487 281 513T393 540Q435 540 467 530T521 494T554 425T566 317V0H426ZM334
729H476V700L350 571H274L334 729Z" />
<glyph unicode="&#x145;" glyph-name="Ncommaaccent" horiz-adv-x="713" d="M254 365L194 470H189L205 364V0H65V705H172L461 332L518 230H524L508 333V700H648V-5H541L254 365ZM272 -105Q272 -76 292 -58T343 -40Q381 -40 405 -64T429 -130Q429 -164 417 -189T388
-232T351 -261T318 -276L282 -216Q297 -210 311 -200T328 -168Q308 -169 290 -153T272 -105Z" />
<glyph unicode="&#x146;" glyph-name="ncommaaccent" horiz-adv-x="638" d="M426 0V288Q426 356 405 386T331 416Q286 416 255 392T211 329Q211 247 211 165T212 0H72V525H182L197 450H212Q238 487 281 513T393 540Q435 540 467 530T521 494T554 425T566 317V0H426ZM229
-105Q229 -76 249 -58T300 -40Q338 -40 362 -64T386 -130Q386 -164 374 -189T345 -232T308 -261T275 -276L239 -216Q254 -210 268 -200T285 -168Q265 -169 247 -153T229 -105Z" />
<glyph unicode="&#x147;" glyph-name="Ncaron" horiz-adv-x="713" d="M254 365L194 470H189L205 364V0H65V705H172L461 332L518 230H524L508 333V700H648V-5H541L254 365ZM410 736H308L170 829V870H284L341 826L362 796L384 825L446 870H555V828L410 736Z" />
<glyph unicode="&#x148;" glyph-name="ncaron" horiz-adv-x="638" d="M426 0V288Q426 356 405 386T331 416Q286 416 255 392T211 329Q211 247 211 165T212 0H72V525H182L197 450H212Q238 487 281 513T393 540Q435 540 467 530T521 494T554 425T566 317V0H426ZM367
584H268L139 772H255L298 703L323 640L347 702L397 772H505L367 584Z" />
<glyph unicode="&#x14c;" glyph-name="Omacron" horiz-adv-x="727" d="M40 350Q40 436 62 504T125 618T227 689T363 714Q444 714 504 688T605 613T666 498T687 350Q687 264 665 196T600 82T498 11T363 -14Q282 -14 222 12T121 87T60 202T40 350ZM197 350Q197 298
207 255T237 181T288 133T363 116Q442 116 486 170T530 350Q530 400 521 443T492 517T440 566T363 584Q285 584 241 528T197 350ZM181 838H554V746H181V838Z" />
<glyph unicode="&#x14d;" glyph-name="omacron" horiz-adv-x="616" d="M42 262Q42 392 111 466T308 540Q375 540 425 519T508 461T557 373T574 262Q574 198 556 147T504 59T421 4T308 -15Q240 -15 190 6T107 64T58 152T42 262ZM186 262Q186 229 193 200T214 150T252
115T308 102Q430 102 430 262Q430 297 424 326T403 377T365 411T308 423Q251 423 219 385T186 262ZM133 679H484V584H133V679Z" />
<glyph unicode="&#x150;" glyph-name="Ohungarumlaut" horiz-adv-x="727" d="M40 350Q40 436 62 504T125 618T227 689T363 714Q444 714 504 688T605 613T666 498T687 350Q687 264 665 196T600 82T498 11T363 -14Q282 -14 222 12T121 87T60 202T40 350ZM197 350Q197
298 207 255T237 181T288 133T363 116Q442 116 486 170T530 350Q530 400 521 443T492 517T440 566T363 584Q285 584 241 528T197 350ZM270 850H415V834L306 741H205L270 850ZM485 850H636V834L481 741H379L485 850Z" />
<glyph unicode="&#x151;" glyph-name="ohungarumlaut" horiz-adv-x="616" d="M42 262Q42 392 111 466T308 540Q375 540 425 519T508 461T557 373T574 262Q574 198 556 147T504 59T421 4T308 -15Q240 -15 190 6T107 64T58 152T42 262ZM186 262Q186 229 193 200T214
150T252 115T308 102Q430 102 430 262Q430 297 424 326T403 377T365 411T308 423Q251 423 219 385T186 262ZM210 705H337V691L252 574H171L210 705ZM414 705H551V691L417 574H333L414 705Z" />
<glyph unicode="&#x152;" glyph-name="OE" horiz-adv-x="993" d="M492 558Q469 569 436 576T362 584Q284 584 241 528T197 350Q197 298 206 255T237 181T291 133T371 116Q403 116 431 119T492 136V558ZM492 0Q482 -3 467 -6T435 -10T400 -13T365 -14Q283 -14 222
12T121 87T60 202T40 350Q40 436 62 504T125 618T227 689T365 714Q409 714 439 710T492 700H943V570H640V418H915V288H640V130H948V0H492Z" />
<glyph unicode="&#x153;" glyph-name="oe" horiz-adv-x="978" d="M186 262Q186 229 193 200T214 149T252 115T308 102Q369 102 399 141T430 262Q430 298 424 327T403 378T365 411T308 423Q251 423 219 385T186 262ZM491 63Q463 29 419 7T310 -15Q241 -15 191 6T107
63T58 151T42 262Q42 394 111 467T308 540Q345 540 375 533T430 515T472 490T505 463Q533 494 579 517T698 540Q740 540 781 530T853 495T904 429T924 326Q924 304 922 280T913 228H565Q569 162 604 129T718 96Q762 96 799 108T858 134L905 47Q871 22 814 4T690
-15Q565 -15 499 63H491ZM696 429Q633 429 604 398T569 311H795Q799 368 774 398T696 429Z" />
<glyph unicode="&#x154;" glyph-name="Racute" horiz-adv-x="652" d="M65 693Q89 697 117 700T175 706T231 709T282 710Q335 710 386 701T478 670T544 610T569 513Q569 427 527 372T409 296L462 265L637 0H465L291 271L213 283V0H65V693ZM292 580Q269 580 248
580T213 576V383H276Q339 383 375 407T412 490Q412 534 381 557T292 580ZM317 870H489V839L315 752H203L317 870Z" />
<glyph unicode="&#x155;" glyph-name="racute" horiz-adv-x="406" d="M382 397Q352 407 322 407Q278 407 250 386T212 333V0H72V525H182L197 452H210Q230 493 263 515T340 537Q367 537 402 526L382 397ZM211 729H353V700L227 571H151L211 729Z" />
<glyph unicode="&#x156;" glyph-name="Rcommaaccent" horiz-adv-x="652" d="M65 693Q89 697 117 700T175 706T231 709T282 710Q335 710 386 701T478 670T544 610T569 513Q569 427 527 372T409 296L462 265L637 0H465L291 271L213 283V0H65V693ZM292 580Q269 580
248 580T213 576V383H276Q339 383 375 407T412 490Q412 534 381 557T292 580ZM245 -105Q245 -76 265 -58T316 -40Q354 -40 378 -64T402 -130Q402 -164 390 -189T361 -232T324 -261T291 -276L255 -216Q270 -210 284 -200T301 -168Q281 -169 263 -153T245 -105Z"
/>
<glyph unicode="&#x157;" glyph-name="rcommaaccent" horiz-adv-x="406" d="M382 397Q352 407 322 407Q278 407 250 386T212 333V0H72V525H182L197 452H210Q230 493 263 515T340 537Q367 537 402 526L382 397ZM105 -105Q105 -76 125 -58T176 -40Q214 -40 238 -64T262
-130Q262 -164 250 -189T221 -232T184 -261T151 -276L115 -216Q130 -210 144 -200T161 -168Q141 -169 123 -153T105 -105Z" />
<glyph unicode="&#x158;" glyph-name="Rcaron" horiz-adv-x="652" d="M65 693Q89 697 117 700T175 706T231 709T282 710Q335 710 386 701T478 670T544 610T569 513Q569 427 527 372T409 296L462 265L637 0H465L291 271L213 283V0H65V693ZM292 580Q269 580 248
580T213 576V383H276Q339 383 375 407T412 490Q412 534 381 557T292 580ZM330 736H228L90 829V870H204L261 826L282 796L304 825L366 870H475V828L330 736Z" />
<glyph unicode="&#x159;" glyph-name="rcaron" horiz-adv-x="406" d="M382 397Q352 407 322 407Q278 407 250 386T212 333V0H72V525H182L197 452H210Q230 493 263 515T340 537Q367 537 402 526L382 397ZM534 584H435L306 772H422L465 703L490 640L514 702L564
772H672L534 584Z" />
<glyph unicode="&#x15a;" glyph-name="Sacute" horiz-adv-x="575" d="M393 192Q393 223 367 241T303 274T219 304T136 344T71 407T45 506Q45 558 63 597T115 662T196 701T301 714Q367 714 426 703T524 670L477 546Q465 553 447 560T404 573T353 582T298 586Q248
586 221 569T193 520Q193 489 219 471T283 437T367 406T450 366T515 304T541 209Q541 151 521 109T465 40T377 -1T265 -14Q224 -14 188 -10T120 1T66 15T28 30L77 155Q88 149 107 142T151 129T202 118T258 114Q324 114 358 133T393 192ZM324 870H496V839L322 752H210L324
870Z" />
<glyph unicode="&#x15b;" glyph-name="sacute" horiz-adv-x="483" d="M71 136Q85 129 103 122T143 109T187 99T233 95Q268 95 287 106T307 147Q307 171 281 182T217 205Q189 213 159 224T103 253T61 302T44 378Q44 457 93 498T234 540Q294 540 346 530T431 505L402
399Q376 409 336 419T253 430Q218 430 201 420T184 383Q184 360 210 349T275 326Q303 318 333 308T389 279T430 233T447 161Q447 77 393 31T229 -15Q170 -15 119 -5T36 26L71 136ZM248 729H390V700L264 571H188L248 729Z" />
<glyph unicode="&#x15e;" glyph-name="Scedilla" horiz-adv-x="575" d="M393 192Q393 223 367 241T303 274T219 304T136 344T71 407T45 506Q45 558 63 597T115 662T196 701T301 714Q367 714 426 703T524 670L477 546Q465 553 447 560T404 573T353 582T298 586Q248
586 221 569T193 520Q193 489 219 471T283 437T367 406T450 366T515 304T541 209Q541 109 483 56T328 -10L303 -52Q351 -55 378 -73T406 -129Q406 -153 394 -170T359 -200T308 -218T245 -224Q227 -224 209 -223T172 -218L182 -171Q213 -173 232 -171T261 -164T275
-153T279 -138Q279 -121 256 -112T182 -101L239 -13Q166 -11 110 3T28 30L77 155Q88 149 107 142T151 129T202 118T258 114Q324 114 358 133T393 192Z" />
<glyph unicode="&#x15f;" glyph-name="scedilla" horiz-adv-x="483" d="M71 136Q85 129 103 122T143 109T187 99T233 95Q268 95 287 106T307 147Q307 171 281 182T217 205Q189 213 159 224T103 253T61 302T44 378Q44 457 93 498T234 540Q294 540 346 530T431 505L402
399Q376 409 336 419T253 430Q218 430 201 420T184 383Q184 360 210 349T275 326Q303 318 333 308T389 279T430 233T447 161Q447 91 409 47T293 -10L268 -52Q316 -55 343 -73T371 -129Q371 -153 359 -170T324 -200T273 -218T210 -224Q192 -224 174 -223T137 -218L147
-171Q178 -173 197 -171T226 -164T240 -153T244 -138Q244 -121 221 -112T147 -101L203 -14Q152 -12 108 -2T36 26L71 136Z" />
<glyph unicode="&#x160;" glyph-name="Scaron" horiz-adv-x="575" d="M393 192Q393 223 367 241T303 274T219 304T136 344T71 407T45 506Q45 558 63 597T115 662T196 701T301 714Q367 714 426 703T524 670L477 546Q465 553 447 560T404 573T353 582T298 586Q248
586 221 569T193 520Q193 489 219 471T283 437T367 406T450 366T515 304T541 209Q541 151 521 109T465 40T377 -1T265 -14Q224 -14 188 -10T120 1T66 15T28 30L77 155Q88 149 107 142T151 129T202 118T258 114Q324 114 358 133T393 192ZM355 736H253L115 829V870H229L286
826L307 796L329 825L391 870H500V828L355 736Z" />
<glyph unicode="&#x161;" glyph-name="scaron" horiz-adv-x="483" d="M71 136Q85 129 103 122T143 109T187 99T233 95Q268 95 287 106T307 147Q307 171 281 182T217 205Q189 213 159 224T103 253T61 302T44 378Q44 457 93 498T234 540Q294 540 346 530T431 505L402
399Q376 409 336 419T253 430Q218 430 201 420T184 383Q184 360 210 349T275 326Q303 318 333 308T389 279T430 233T447 161Q447 77 393 31T229 -15Q170 -15 119 -5T36 26L71 136ZM542 584H443L314 772H430L473 703L498 640L522 702L572 772H680L542 584Z" />
<glyph unicode="&#x162;" glyph-name="uni021A" horiz-adv-x="616" d="M604 570H382V0H234V570H12V700H604V570ZM221 -105Q221 -76 241 -58T292 -40Q330 -40 354 -64T378 -130Q378 -164 366 -189T337 -232T300 -261T267 -276L231 -216Q246 -210 260 -200T277 -168Q257
-169 239 -153T221 -105Z" />
<glyph unicode="&#x163;" glyph-name="uni021B" horiz-adv-x="404" d="M8 525H88V597L228 634V525H369V408H228V226Q228 163 240 136T290 108Q313 108 329 111T363 123L392 18Q360 4 319 -6T238 -16Q160 -16 124 22T88 146V408H8V525ZM119 -105Q119 -76 139 -58T190
-40Q228 -40 252 -64T276 -130Q276 -164 264 -189T235 -232T198 -261T165 -276L129 -216Q144 -210 158 -200T175 -168Q155 -169 137 -153T119 -105Z" />
<glyph unicode="&#x164;" glyph-name="Tcaron" horiz-adv-x="616" d="M604 570H382V0H234V570H12V700H604V570ZM354 736H252L114 829V870H228L285 826L306 796L328 825L390 870H499V828L354 736Z" />
<glyph unicode="&#x165;" glyph-name="tcaron" horiz-adv-x="404" d="M8 525H88V597L228 634V525H369V408H228V226Q228 163 240 136T290 108Q313 108 329 111T363 123L392 18Q360 4 319 -6T238 -16Q160 -16 124 22T88 146V408H8V525ZM403 745Q401 716 390 684T364
624T333 572T305 539L242 574Q261 610 270 654T280 745H403Z" />
<glyph unicode="&#x16a;" glyph-name="Umacron" horiz-adv-x="679" d="M478 700H618V251Q618 183 599 133T544 51T459 4T350 -12Q209 -12 135 49T61 234V700H209V261Q209 181 244 150T348 118Q414 118 446 151T478 261V700ZM157 838H530V746H157V838Z" />
<glyph unicode="&#x16b;" glyph-name="umacron" horiz-adv-x="642" d="M212 525V234Q212 169 230 139T299 109Q343 109 373 132T417 190V525H557V160Q557 118 561 76T574 0H471L444 82H433Q407 40 359 13T249 -15Q206 -15 173 -4T118 32T84 100T72 204V525H212ZM145
679H496V584H145V679Z" />
<glyph unicode="&#x16e;" glyph-name="Uring" horiz-adv-x="679" d="M478 700H618V251Q618 183 599 133T544 51T459 4T350 -12Q209 -12 135 49T61 234V700H209V261Q209 181 244 150T348 118Q414 118 446 151T478 261V700ZM209 773Q209 791 215 807T236 836T279
856T347 863Q424 863 455 839T486 773Q486 755 480 739T457 711T414 692T347 685Q308 685 282 691T239 710T216 738T209 773ZM299 773Q299 759 310 751T347 743Q375 743 385 750T396 773Q396 789 385 797T347 805Q299 805 299 773Z" />
<glyph unicode="&#x16f;" glyph-name="uring" horiz-adv-x="642" d="M212 525V234Q212 169 230 139T299 109Q343 109 373 132T417 190V525H557V160Q557 118 561 76T574 0H471L444 82H433Q407 40 359 13T249 -15Q206 -15 173 -4T118 32T84 100T72 204V525H212ZM193
665Q193 707 223 735T314 764Q371 764 403 739T436 665Q436 646 428 629T404 598T365 576T314 568Q256 568 225 595T193 665ZM265 665Q265 648 279 639T314 630Q336 630 350 638T365 665Q365 684 350 693T314 703Q294 703 280 694T265 665Z" />
<glyph unicode="&#x170;" glyph-name="Uhungarumlaut" horiz-adv-x="679" d="M478 700H618V251Q618 183 599 133T544 51T459 4T350 -12Q209 -12 135 49T61 234V700H209V261Q209 181 244 150T348 118Q414 118 446 151T478 261V700ZM243 850H388V834L279 741H178L243
850ZM458 850H609V834L454 741H352L458 850Z" />
<glyph unicode="&#x171;" glyph-name="uhungarumlaut" horiz-adv-x="642" d="M212 525V234Q212 169 230 139T299 109Q343 109 373 132T417 190V525H557V160Q557 118 561 76T574 0H471L444 82H433Q407 40 359 13T249 -15Q206 -15 173 -4T118 32T84 100T72 204V525H212ZM208
705H335V691L250 574H169L208 705ZM412 705H549V691L415 574H331L412 705Z" />
<glyph unicode="&#x172;" glyph-name="Uogonek" horiz-adv-x="679" d="M478 700H618V251Q618 151 577 91T465 6Q439 -8 426 -29T413 -74Q413 -94 427 -107T465 -121Q476 -121 486 -119T509 -110L531 -174Q513 -187 478 -199T402 -211Q341 -211 309 -184T277 -114Q277
-82 292 -57T335 -12Q201 -9 131 52T61 234V700H209V261Q209 181 244 150T348 118Q414 118 446 151T478 261V700Z" />
<glyph unicode="&#x173;" glyph-name="uogonek" horiz-adv-x="642" d="M212 525V234Q212 169 230 139T299 109Q343 109 373 132T417 190V525H557V160Q557 118 561 76T574 0H554Q492 -27 493 -74Q493 -94 507 -107T545 -121Q556 -121 566 -119T589 -110L611 -174Q593
-187 558 -199T482 -211Q421 -211 389 -184T357 -114Q357 -74 387 -44T469 4L444 82H433Q407 40 359 13T249 -15Q206 -15 173 -4T118 32T84 100T72 204V525H212Z" />
<glyph unicode="&#x178;" glyph-name="Ydieresis" horiz-adv-x="644" d="M248 258L-2 700H174L314 443L330 368H335L352 445L487 700H646L396 259V0H248V258ZM126 798Q126 825 145 841T209 858Q251 858 270 842T290 798Q290 772 271 757T209 741Q165 741 146 756T126
798ZM359 798Q359 825 378 841T440 858Q484 858 503 842T523 798Q523 772 504 757T440 741Q398 741 379 756T359 798Z" />
<glyph unicode="&#x179;" glyph-name="Zacute" horiz-adv-x="584" d="M28 130L349 529L407 570H28V700H556V570L233 168L177 130H556V0H28V130ZM322 870H494V839L320 752H208L322 870Z" />
<glyph unicode="&#x17a;" glyph-name="zacute" horiz-adv-x="526" d="M42 119L263 357H262L327 408H42V525H484V406L265 165H266L200 117H484V0H42V119ZM269 729H411V700L285 571H209L269 729Z" />
<glyph unicode="&#x17b;" glyph-name="Zdotaccent" horiz-adv-x="584" d="M28 130L349 529L407 570H28V700H556V570L233 168L177 130H556V0H28V130ZM201 799Q201 824 224 842T295 860Q342 860 366 842T391 799Q391 772 367 754T295 736Q248 736 225 754T201 799Z" />
<glyph unicode="&#x17c;" glyph-name="zdotaccent" horiz-adv-x="526" d="M42 119L263 357H262L327 408H42V525H484V406L265 165H266L200 117H484V0H42V119ZM180 676Q180 708 203 729T268 751Q311 751 336 729T361 676Q361 647 336 626T268 605Q226 605 203 626T180 676Z" />
<glyph unicode="&#x17d;" glyph-name="Zcaron" horiz-adv-x="584" d="M28 130L349 529L407 570H28V700H556V570L233 168L177 130H556V0H28V130ZM335 736H233L95 829V870H209L266 826L287 796L309 825L371 870H480V828L335 736Z" />
<glyph unicode="&#x17e;" glyph-name="zcaron" horiz-adv-x="526" d="M42 119L263 357H262L327 408H42V525H484V406L265 165H266L200 117H484V0H42V119ZM307 584H208L79 772H195L238 703L263 640L287 702L337 772H445L307 584Z" />
<glyph unicode="&#x17f;" glyph-name="longs" horiz-adv-x="301" d="M16 525H96V548Q96 636 140 671T272 706Q322 706 355 700T421 682L392 575Q367 583 347 586T304 589Q263 589 250 575T236 527V0H96V408H16V525Z" />
<glyph unicode="&#x192;" glyph-name="florin" horiz-adv-x="651" d="M389 383L311 -34Q305 -71 293 -102T258 -157T203 -194T122 -208Q108 -208 86 -206T41 -201T-3 -193T-37 -183L-16 -71Q10 -81 32 -86T86 -91Q125 -91 147 -69T178 8L244 383H160V500H264L276
567Q283 604 294 631T326 677T378 705T456 714Q474 714 496 712T541 705T585 694T622 680L588 577Q562 586 536 591T484 597Q450 597 436 584T415 532L409 500H540V383H389Z" />
<glyph unicode="&#x1f4;" glyph-name="uni01F4" horiz-adv-x="661" d="M331 368H617V54Q594 36 567 24T509 3T446 -10T383 -14Q311 -14 249 7T140 72T67 186T40 350Q40 449 72 518T155 631T270 694T397 714Q462 714 511 705T589 686L558 563Q531 572 497 578T412
584Q365 584 326 572T258 531T213 458T197 349Q197 287 213 243T256 171T320 129T396 116Q423 116 450 122T497 141V262L331 278V368ZM424 870H596V839L422 752H310L424 870Z" />
<glyph unicode="&#x1f5;" glyph-name="uni01F5" horiz-adv-x="619" d="M547 20Q547 -96 481 -151T294 -206Q216 -206 169 -196T95 -172Q108 -132 114 -109T124 -73T128 -58T129 -55Q153 -67 187 -79T270 -92Q311 -92 338 -84T381 -61T403 -23T410 26V65H398Q378
36 343 24T256 12Q149 12 96 71T42 261Q42 399 112 469T322 539Q395 539 452 530T547 508V20ZM289 121Q335 121 364 138T407 180V406Q370 422 313 422Q252 422 219 386T186 267Q186 191 214 156T289 121ZM337 720H479V691L353 562H277L337 720Z" />
<glyph unicode="&#x218;" glyph-name="Scommaaccent" horiz-adv-x="575" d="M393 192Q393 223 367 241T303 274T219 304T136 344T71 407T45 506Q45 558 63 597T115 662T196 701T301 714Q367 714 426 703T524 670L477 546Q465 553 447 560T404 573T353 582T298
586Q248 586 221 569T193 520Q193 489 219 471T283 437T367 406T450 366T515 304T541 209Q541 151 521 109T465 40T377 -1T265 -14Q224 -14 188 -10T120 1T66 15T28 30L77 155Q88 149 107 142T151 129T202 118T258 114Q324 114 358 133T393 192ZM201 -105Q201 -76
221 -58T272 -40Q310 -40 334 -64T358 -130Q358 -164 346 -189T317 -232T280 -261T247 -276L211 -216Q226 -210 240 -200T257 -168Q237 -169 219 -153T201 -105Z" />
<glyph unicode="&#x219;" glyph-name="scommaaccent" horiz-adv-x="483" d="M71 136Q85 129 103 122T143 109T187 99T233 95Q268 95 287 106T307 147Q307 171 281 182T217 205Q189 213 159 224T103 253T61 302T44 378Q44 457 93 498T234 540Q294 540 346 530T431
505L402 399Q376 409 336 419T253 430Q218 430 201 420T184 383Q184 360 210 349T275 326Q303 318 333 308T389 279T430 233T447 161Q447 77 393 31T229 -15Q170 -15 119 -5T36 26L71 136ZM151 -105Q151 -76 171 -58T222 -40Q260 -40 284 -64T308 -130Q308 -164
296 -189T267 -232T230 -261T197 -276L161 -216Q176 -210 190 -200T207 -168Q187 -169 169 -153T151 -105Z" />
<glyph unicode="&#x21a;" glyph-name="uni021A" horiz-adv-x="616" d="M604 570H382V0H234V570H12V700H604V570ZM221 -105Q221 -76 241 -58T292 -40Q330 -40 354 -64T378 -130Q378 -164 366 -189T337 -232T300 -261T267 -276L231 -216Q246 -210 260 -200T277 -168Q257
-169 239 -153T221 -105Z" />
<glyph unicode="&#x21b;" glyph-name="uni021B" horiz-adv-x="404" d="M8 525H88V597L228 634V525H369V408H228V226Q228 163 240 136T290 108Q313 108 329 111T363 123L392 18Q360 4 319 -6T238 -16Q160 -16 124 22T88 146V408H8V525ZM119 -105Q119 -76 139 -58T190
-40Q228 -40 252 -64T276 -130Q276 -164 264 -189T235 -232T198 -261T165 -276L129 -216Q144 -210 158 -200T175 -168Q155 -169 137 -153T119 -105Z" />
<glyph unicode="&#x237;" glyph-name="uni0237" horiz-adv-x="317" d="M91 525H231V-24Q231 -119 192 -170T66 -221Q32 -221 -6 -214V-97Q25 -100 44 -93T73 -71T87 -34T91 17V525Z" />
<glyph unicode="&#x2bc;" glyph-name="afii57929" horiz-adv-x="243" d="M42 642Q42 672 63 690T116 709Q156 709 179 684T202 620Q202 578 189 550T156 502T116 473T80 458L45 517Q67 525 83 539T101 577Q80 575 61 592T42 642Z" />
<glyph unicode="&#x2c6;" glyph-name="circumflex" horiz-adv-x="491" d="M208 752H300L425 564H315L273 633L249 697L224 634L172 564H70L208 752Z" />
<glyph unicode="&#x2c7;" glyph-name="caron" horiz-adv-x="501" d="M297 584H198L69 772H185L228 703L253 640L277 702L327 772H435L297 584Z" />
<glyph unicode="&#x2d8;" glyph-name="breve" horiz-adv-x="516" d="M132 728Q155 700 190 685T264 669Q302 669 335 684T388 728L452 702Q447 678 431 654T390 611T333 580T263 568Q190 568 138 602T68 696L132 728Z" />
<glyph unicode="&#x2d9;" glyph-name="dotaccent" horiz-adv-x="315" d="M68 676Q68 708 91 729T156 751Q199 751 224 729T249 676Q249 647 224 626T156 605Q114 605 91 626T68 676Z" />
<glyph unicode="&#x2da;" glyph-name="ring" horiz-adv-x="376" d="M68 665Q68 707 98 735T189 764Q246 764 278 739T311 665Q311 646 303 629T279 598T240 576T189 568Q131 568 100 595T68 665ZM140 665Q140 648 154 639T189 630Q211 630 225 638T240 665Q240
684 225 693T189 703Q169 703 155 694T140 665Z" />
<glyph unicode="&#x2db;" glyph-name="ogonek" horiz-adv-x="387" d="M275 4Q240 -9 222 -28T204 -74Q204 -94 218 -107T256 -121Q267 -121 277 -119T300 -110L322 -174Q304 -187 269 -199T193 -211Q132 -211 100 -184T68 -114Q68 -74 99 -44T181 4H275Z" />
<glyph unicode="&#x2dc;" glyph-name="tilde" horiz-adv-x="499" d="M67 677Q100 715 128 730T183 745Q205 745 225 738T266 722T306 706T350 699Q383 699 418 725L435 650Q405 617 378 604T326 590Q303 590 283 597T241 613T199 629T153 637Q136 637 119 632T82
610L67 677Z" />
<glyph unicode="&#x2dd;" glyph-name="hungarumlaut" horiz-adv-x="512" d="M107 705H234V691L149 574H68L107 705ZM311 705H448V691L314 574H230L311 705Z" />
<glyph unicode="&#x301;" glyph-name="acutecomb" horiz-adv-x="2" d="M-207 729H-65V700L-191 571H-267L-207 729Z" />
<glyph unicode="&#x394;" glyph-name="uni2206" horiz-adv-x="637" d="M13 0V75L276 705H361L626 75V0H13ZM173 124H464L345 412L318 504H314L286 411L173 124Z" />
<glyph unicode="&#x3a9;" glyph-name="uni2126" horiz-adv-x="847" d="M63 117H178L269 104V133L220 142Q188 155 160 177T110 232T77 305T65 399Q65 469 90 527T163 626T276 691T423 714Q508 714 574 690T687 624T757 524T782 396Q782 344 769 304T735 232T686
179T629 143L576 133V104L669 117H783V0H457V219Q485 223 515 234T569 266T609 317T625 394Q625 428 615 461T580 522T518 565T422 582Q325 582 274 534T222 391Q222 347 236 316T275 265T329 233T389 219V0H63V117Z" />
<glyph unicode="&#x3bc;" glyph-name="mu" horiz-adv-x="617" d="M196 500V234Q196 171 219 138T297 105Q348 105 378 129T422 199V500H562V163Q562 122 565 81T579 0H475L440 79H436Q417 43 381 16T287 -12Q245 -12 223 2T179 40H174L197 -67V-200H56V500H196Z" />
<glyph unicode="&#x3c0;" glyph-name="pi" horiz-adv-x="758" d="M617 163Q617 135 626 123T652 111Q663 111 676 113T700 117L722 24Q700 15 666 5T581 -6Q522 -6 500 24T477 106V383H323V0H183V383H168Q148 383 135 373T107 336L21 380Q41 437 82 468T179 500H707V383H617V163Z"
/>
<glyph unicode="&#x401;" glyph-name="afii10023" horiz-adv-x="566" d="M65 700H516V570H213V418H488V288H213V130H521V0H65V700ZM89 798Q89 825 108 841T172 858Q214 858 233 842T253 798Q253 772 234 757T172 741Q128 741 109 756T89 798ZM322 798Q322 825
341 841T403 858Q447 858 466 842T486 798Q486 772 467 757T403 741Q361 741 342 756T322 798Z" />
<glyph unicode="&#x402;" glyph-name="afii10051" horiz-adv-x="803" d="M382 0H234V570H12V700H606V570H382V438Q399 444 436 451T532 459Q574 459 615 449T690 414T743 344T763 233Q763 117 700 55T499 -7Q470 -7 455 -6T432 -3V125Q439 124 458 124T494 123Q548
123 577 149T606 228Q606 261 596 280T568 311T526 325T474 329Q450 329 423 324T382 311V0Z" />
<glyph unicode="&#x403;" glyph-name="afii10052" horiz-adv-x="498" d="M507 570H213V0H65V700H507V570ZM317 870H489V839L315 752H203L317 870Z" />
<glyph unicode="&#x404;" glyph-name="afii10053" horiz-adv-x="627" d="M577 30Q544 7 491 -3T381 -14Q314 -14 253 6T144 70T68 183T40 350Q40 452 72 521T154 633T265 695T385 714Q450 714 493 706T566 687L537 563Q512 574 480 579T396 584Q320 584 269 543T202
417H498V300H200Q211 217 263 167T407 116Q457 116 489 125T548 148L577 30Z" />
<glyph unicode="&#x405;" glyph-name="afii10054" horiz-adv-x="575" d="M393 192Q393 223 367 241T303 274T219 304T136 344T71 407T45 506Q45 558 63 597T115 662T196 701T301 714Q367 714 426 703T524 670L477 546Q465 553 447 560T404 573T353 582T298 586Q248
586 221 569T193 520Q193 489 219 471T283 437T367 406T450 366T515 304T541 209Q541 151 521 109T465 40T377 -1T265 -14Q224 -14 188 -10T120 1T66 15T28 30L77 155Q88 149 107 142T151 129T202 118T258 114Q324 114 358 133T393 192Z" />
<glyph unicode="&#x406;" glyph-name="afii10055" horiz-adv-x="388" d="M120 620H40V700H348V620H268V80H348V0H40V80H120V620Z" />
<glyph unicode="&#x407;" glyph-name="afii10056" horiz-adv-x="388" d="M56 792Q56 824 73 840T120 857Q150 857 167 841T184 792Q184 761 167 745T120 729Q90 729 73 745T56 792ZM205 792Q205 824 221 840T268 857Q332 857 332 792Q332 729 268 729Q238 729
222 745T205 792ZM120 620H40V700H348V620H268V80H348V0H40V80H120V620Z" />
<glyph unicode="&#x408;" glyph-name="afii10057" horiz-adv-x="362" d="M143 700H291V190Q291 153 281 117T250 52T193 5T108 -13Q76 -13 40 -7T-25 12L7 130Q36 117 71 117Q94 117 108 125T130 149T140 186T143 231V700Z" />
<glyph unicode="&#x409;" glyph-name="afii10058" horiz-adv-x="1015" d="M463 570H302Q297 475 292 399T277 261T251 153T211 69Q195 46 176 31T135 8T94 -4T57 -8Q31 -8 17 -4T-15 8L1 132Q7 130 13 129T26 128Q43 128 60 135T91 162Q107 184 119 225T140 331T154
488T162 700H611V451Q616 452 628 453T654 456T684 458T712 459Q766 459 816 449T905 413T967 343T991 232Q991 112 909 51T677 -10Q662 -10 637 -10T581 -7T520 -2T463 7V570ZM611 125Q623 123 642 122T684 120Q714 120 741 125T789 142T822 175T834 227Q834 260
822 280T788 311T740 325T684 329Q676 329 666 328T644 326T624 324T611 321V125Z" />
<glyph unicode="&#x40a;" glyph-name="afii10059" horiz-adv-x="1045" d="M493 301H213V0H65V700H213V431H493V700H641V440Q647 441 658 442T684 445T714 447T743 448Q797 448 847 439T936 405T998 337T1021 226Q1021 106 940 48T707 -10Q692 -10 666 -9T610 -7T549
-3T493 3V301ZM641 125Q653 123 672 122T714 120Q748 120 776 124T823 140T853 170T864 220Q864 251 853 270T823 299T775 314T714 318Q706 318 696 317T674 315T654 312T641 309V125Z" />
<glyph unicode="&#x40b;" glyph-name="afii10060" horiz-adv-x="822" d="M382 0H234V570H12V700H606V570H382V401Q409 417 457 429T570 442Q615 442 653 431T718 397T762 337T778 249V0H630V200Q630 258 604 288T520 318Q478 318 441 310T382 284V0Z" />
<glyph unicode="&#x40c;" glyph-name="afii10061" horiz-adv-x="671" d="M252 296H213V0H65V700H213V392L248 407L458 700H627L405 407L347 369L407 329L661 0H478L252 296ZM343 870H515V839L341 752H229L343 870Z" />
<glyph unicode="&#x40e;" glyph-name="afii10062" horiz-adv-x="616" d="M318 395L340 306H347L364 399L478 700H633L430 213Q407 157 384 116T335 48T277 7T203 -7Q167 -7 146 -3T99 17L136 136Q155 127 170 125T203 123Q255 123 275 193L-10 700H164L318 395ZM244
875Q249 844 270 831T325 818Q397 818 406 874L527 857Q515 792 464 764T324 735Q280 735 243 740T178 760T133 796T110 854L244 875Z" />
<glyph unicode="&#x40f;" glyph-name="afii10145" horiz-adv-x="694" d="M213 700V130H481V700H629V0H414L398 -174H303L281 0H65V700H213Z" />
<glyph unicode="&#x410;" glyph-name="afii10017" horiz-adv-x="658" d="M441 149H205L148 0H0L274 705H383L658 0H501L441 149ZM246 266H406L352 412L328 523H323L299 411L246 266Z" />
<glyph unicode="&#x411;" glyph-name="afii10018" horiz-adv-x="618" d="M65 700H533V570H213V435Q232 438 258 440T310 443Q371 443 422 432T510 396T567 329T588 226Q588 167 567 123T505 50T409 5T284 -10Q266 -10 238 -9T180 -6T119 -1T65 7V700ZM296 110Q324
110 348 116T391 134T420 167T431 215Q431 249 419 270T387 303T339 319T281 323Q266 323 244 321T213 316V115Q225 112 249 111T296 110Z" />
<glyph unicode="&#x412;" glyph-name="afii10019" horiz-adv-x="641" d="M577 535Q577 509 570 484T546 436T504 398T441 375V369Q474 366 503 354T553 321T587 269T600 197Q600 142 575 103T508 39T414 2T306 -10Q288 -10 259 -10T196 -9T128 -4T65 5V695Q86
698 112 701T169 706T232 709T296 710Q348 710 398 703T488 676T552 622T577 535ZM304 110Q332 110 357 115T402 131T433 160T445 204Q445 236 431 255T395 283T345 295T289 298H207V116Q213 114 224 113T250 112T278 111T304 110ZM257 408Q272 408 292 408T327
411Q369 424 398 446T427 508Q427 534 416 550T387 575T345 587T298 590Q269 590 245 589T207 586V408H257Z" />
<glyph unicode="&#x413;" glyph-name="afii10020" horiz-adv-x="498" d="M507 570H213V0H65V700H507V570Z" />
<glyph unicode="&#x414;" glyph-name="afii10021" horiz-adv-x="751" d="M732 -124H627L611 0H121L105 -124H0V130H81Q89 141 106 178T140 284T169 455T180 700H636V130H732V-124ZM488 130V570H318Q312 398 288 288T238 130H488Z" />
<glyph unicode="&#x415;" glyph-name="afii10022" horiz-adv-x="566" d="M65 700H516V570H213V418H488V288H213V130H521V0H65V700Z" />
<glyph unicode="&#x416;" glyph-name="afii10024" horiz-adv-x="910" d="M380 700H520V391L559 405L717 700H885L707 393L655 358L718 315L918 0H739L563 301H520V0H380V313L342 299L166 0H-8L191 305L250 345L193 383L7 700H180L337 403H380V700Z" />
<glyph unicode="&#x417;" glyph-name="afii10025" horiz-adv-x="570" d="M128 307V420H154Q164 420 178 420T208 420T238 422T262 426Q300 433 325 451T351 505Q351 550 319 566T232 582Q208 582 185 579T141 569T103 557T75 544L38 670Q49 675 70 682T121 696T184
707T253 712Q301 712 346 704T428 676T486 622T508 536Q508 485 478 441T382 377V371Q452 360 491 316T531 200Q531 144 506 104T441 37T348 -1T240 -14Q204 -14 171 -11T108 -2T56 10T18 25L56 153Q81 142 128 129T242 116Q265 116 288 121T331 137T362 167T374
212Q374 235 366 252T337 280T282 298T196 306Q183 306 177 306T154 307H128Z" />
<glyph unicode="&#x418;" glyph-name="afii10026" horiz-adv-x="723" d="M510 386L518 475H513L462 385L175 0H65V700H213V323L203 230H209L263 323L547 700H658V0H510V386Z" />
<glyph unicode="&#x419;" glyph-name="afii10027" horiz-adv-x="723" d="M510 386L518 475H513L462 385L175 0H65V700H213V323L203 230H209L263 323L547 700H658V0H510V386ZM294 875Q299 844 320 831T375 818Q447 818 456 874L577 857Q565 792 514 764T374 735Q330
735 293 740T228 760T183 796T160 854L294 875Z" />
<glyph unicode="&#x41a;" glyph-name="afii10028" horiz-adv-x="671" d="M252 296H213V0H65V700H213V392L248 407L458 700H627L405 407L347 369L407 329L661 0H478L252 296Z" />
<glyph unicode="&#x41b;" glyph-name="afii10029" horiz-adv-x="676" d="M463 570H302Q297 475 292 399T277 261T251 153T211 69Q195 46 176 31T135 8T94 -4T57 -8Q31 -8 17 -4T-15 8L1 132Q12 128 27 128Q44 128 61 136T91 162Q107 184 119 225T140 331T154 488T162
700H611V0H463V570Z" />
<glyph unicode="&#x41c;" glyph-name="afii10030" horiz-adv-x="868" d="M655 351L671 496H665L617 386L455 125H409L237 387L190 495H184L205 352V0H65V700H199L401 377L439 300H444L477 379L670 700H803V0H655V351Z" />
<glyph unicode="&#x41d;" glyph-name="afii10031" horiz-adv-x="706" d="M493 289H213V0H65V700H213V419H493V700H641V0H493V289Z" />
<glyph unicode="&#x41e;" glyph-name="afii10032" horiz-adv-x="727" d="M40 350Q40 436 62 504T125 618T227 689T363 714Q444 714 504 688T605 613T666 498T687 350Q687 264 665 196T600 82T498 11T363 -14Q282 -14 222 12T121 87T60 202T40 350ZM197 350Q197
298 207 255T237 181T288 133T363 116Q442 116 486 170T530 350Q530 400 521 443T492 517T440 566T363 584Q285 584 241 528T197 350Z" />
<glyph unicode="&#x41f;" glyph-name="afii10033" horiz-adv-x="694" d="M481 570H213V0H65V700H629V0H481V570Z" />
<glyph unicode="&#x420;" glyph-name="afii10034" horiz-adv-x="620" d="M65 693Q110 701 165 705T275 710Q331 710 388 702T490 668T565 597T594 476Q594 410 569 364T503 288T408 246T299 232Q294 232 282 232T257 232T231 234T213 236V0H65V693ZM285 580Q264
580 245 579T213 575V367Q217 366 226 365T245 364T263 363T277 362Q306 362 335 366T386 383T423 418T437 479Q437 511 424 530T390 561T341 576T285 580Z" />
<glyph unicode="&#x421;" glyph-name="afii10035" horiz-adv-x="607" d="M579 30Q546 7 492 -3T381 -14Q314 -14 253 6T144 70T68 183T40 350Q40 452 72 521T154 633T265 695T385 714Q450 714 494 706T568 687L539 563Q514 574 481 579T396 584Q351 584 315 570T252
526T212 453T197 350Q197 298 210 255T249 181T315 133T408 116Q457 116 490 125T550 148L579 30Z" />
<glyph unicode="&#x422;" glyph-name="afii10036" horiz-adv-x="616" d="M604 570H382V0H234V570H12V700H604V570Z" />
<glyph unicode="&#x423;" glyph-name="afii10037" horiz-adv-x="616" d="M318 395L340 306H347L364 399L478 700H633L430 213Q407 157 384 116T335 48T277 7T203 -7Q167 -7 146 -3T99 17L136 136Q155 127 170 125T203 123Q255 123 275 193L-10 700H164L318 395Z" />
<glyph unicode="&#x424;" glyph-name="afii10038" horiz-adv-x="871" d="M362 76Q341 73 320 72T274 71Q223 71 178 88T100 140T47 227T27 350Q27 417 46 471T101 562T185 620T294 640Q308 640 328 639T362 635V720H509V632Q529 637 555 638T598 640Q650 640 695
622T773 569T825 481T844 360Q844 290 823 236T766 146T683 90T582 71Q564 71 544 72T509 78V-20H362V76ZM563 523Q552 523 534 522T503 518V190Q512 188 525 188T552 188Q581 188 607 198T652 228T683 281T694 359Q694 437 659 480T563 523ZM312 188Q321 188 338
188T368 193V520Q345 523 317 523Q288 523 263 513T218 482T188 429T177 351Q177 272 214 230T312 188Z" />
<glyph unicode="&#x425;" glyph-name="afii10039" horiz-adv-x="685" d="M244 356L32 700H211L328 501L355 432L381 501L503 700H664L444 363L675 0H498L364 213L334 285L305 213L171 0H10L244 356Z" />
<glyph unicode="&#x426;" glyph-name="afii10040" horiz-adv-x="741" d="M722 -124H617L601 0H65V700H213V130H477V700H625V130H722V-124Z" />
<glyph unicode="&#x427;" glyph-name="afii10041" horiz-adv-x="657" d="M196 700V484Q196 426 222 395T307 364Q349 364 386 372T444 398V700H592V0H444V280Q417 265 369 253T254 240Q208 240 170 251T105 287T63 348T48 436V700H196Z" />
<glyph unicode="&#x428;" glyph-name="afii10042" horiz-adv-x="934" d="M65 0V700H213V130H393V700H541V130H721V700H869V0H65Z" />
<glyph unicode="&#x429;" glyph-name="afii10043" horiz-adv-x="990" d="M65 0V700H213V130H393V700H541V130H721V700H869V130H971V-124H866L850 0H65Z" />
<glyph unicode="&#x42a;" glyph-name="afii10044" horiz-adv-x="721" d="M169 570H-5V700H317V451Q322 452 334 453T361 456T391 458T420 459Q473 459 523 449T611 413T673 343T697 232Q697 113 615 52T384 -10Q369 -10 343 -10T286 -7T225 -2T169 7V570ZM390
120Q420 120 447 125T495 142T528 175T540 227Q540 260 528 280T494 311T446 325T390 329Q382 329 372 328T350 326T330 324T317 321V125Q329 123 349 122T390 120Z" />
<glyph unicode="&#x42b;" glyph-name="afii10045" horiz-adv-x="865" d="M652 700H800V0H652V700ZM65 700H213V451Q224 453 249 456T301 459Q355 459 404 449T491 413T551 343T573 233Q573 112 495 51T267 -10Q252 -10 228 -10T176 -7T119 -2T65 7V700ZM277 120Q338
120 377 145T416 228Q416 259 405 278T376 309T332 325T278 329Q271 329 262 328T243 326T225 324T213 321V125Q238 120 277 120Z" />
<glyph unicode="&#x42c;" glyph-name="afii10046" horiz-adv-x="617" d="M65 700H213V451Q218 452 230 453T256 456T286 458T314 459Q368 459 418 449T507 413T569 343T593 232Q593 112 511 51T279 -10Q264 -10 239 -10T183 -7T122 -2T65 7V700ZM286 120Q316 120
343 125T391 142T424 175T436 227Q436 260 424 280T390 311T342 325T286 329Q278 329 268 328T246 326T226 324T213 321V125Q225 123 244 122T286 120Z" />
<glyph unicode="&#x42d;" glyph-name="afii10047" horiz-adv-x="621" d="M140 414H432Q429 450 415 481T375 535T314 571T231 584Q170 584 126 572T57 545L25 670Q43 679 67 687T119 701T176 710T233 714Q308 714 371 695T481 633T554 521T581 350Q581 245 550
175T467 63T349 4T212 -14Q150 -14 100 -4T20 20L59 147Q84 135 126 126T225 116Q267 116 303 126T366 159T411 215T433 297H140V414Z" />
<glyph unicode="&#x42e;" glyph-name="afii10048" horiz-adv-x="974" d="M213 419H316Q330 560 408 637T622 714Q703 714 762 688T859 613T915 498T934 350Q934 176 855 81T623 -14Q552 -14 498 8T406 69T345 165T316 289H213V0H65V700H213V419ZM466 350Q466 298
474 255T501 181T549 133T623 116Q702 116 739 170T777 350Q777 400 770 442T745 516T698 566T623 584Q544 584 505 528T466 350Z" />
<glyph unicode="&#x42f;" glyph-name="afii10049" horiz-adv-x="626" d="M562 0H414V274L336 255L176 0H3L159 229L225 274Q190 282 160 298T106 341T70 402T57 483Q57 546 81 589T147 659T248 698T375 710Q393 710 417 709T466 706T517 701T562 693V0ZM358 580Q329
580 303 576T257 560T226 529T214 477Q214 447 225 427T255 394T301 376T358 370H414V576Q402 578 390 579T358 580Z" />
<glyph unicode="&#x430;" glyph-name="afii10065" horiz-adv-x="579" d="M67 489Q112 509 177 522T313 535Q368 535 405 522T465 485T496 426T506 349Q506 298 502 248T498 142Q498 104 503 68T519 -1H405L382 77H370Q344 42 304 17T201 -8Q163 -8 132 3T78 34T43
83T30 144Q30 233 89 278T270 324Q298 324 326 320T365 313Q368 334 368 349Q368 387 349 405T278 423Q230 423 185 412T104 383L67 489ZM250 104Q297 104 325 126T366 172V232Q361 234 351 236T328 240T303 243T280 244Q226 244 200 225T174 176Q174 140 194 122T250
104Z" />
<glyph unicode="&#x431;" glyph-name="afii10066" horiz-adv-x="616" d="M165 414Q199 459 243 480T351 501Q454 501 514 445T574 269Q574 129 506 57T311 -15Q179 -15 111 65T42 314Q42 404 53 466T85 570T135 635T199 671T276 688T362 697Q419 702 460 708T524
731L529 610Q506 593 465 588T351 577Q307 574 273 570T214 551T174 503T152 413H161L165 414ZM186 251Q186 219 193 192T216 145T254 114T308 102Q374 102 402 141T430 250Q430 316 404 350T315 384Q249 384 218 349T186 251Z" />
<glyph unicode="&#x432;" glyph-name="afii10067" horiz-adv-x="577" d="M72 525Q113 528 168 531T289 534Q413 534 465 501T517 403Q517 366 494 332T422 281V273Q484 260 512 229T541 147Q541 69 475 30T265 -9Q218 -9 166 -7T72 0V525ZM209 107Q229 103 243
102T278 101Q346 101 372 117T399 165Q399 193 376 210T292 228H209V107ZM294 311Q334 311 359 326T384 367Q384 394 363 409T285 424Q265 424 252 423T228 421Q224 421 218 421T209 420V311H294Z" />
<glyph unicode="&#x433;" glyph-name="afii10068" horiz-adv-x="438" d="M438 401H220V0H72V525H438V401Z" />
<glyph unicode="&#x434;" glyph-name="afii10069" horiz-adv-x="651" d="M631 -119H533L515 0H117L98 -119H0V124H66Q75 136 90 164T120 240T145 358T157 525H547V124H631V-119ZM407 117V408H276Q274 369 268 327T253 246T232 173T206 117H407Z" />
<glyph unicode="&#x435;" glyph-name="afii10070" horiz-adv-x="594" d="M521 48Q487 22 429 4T303 -15Q168 -15 105 59T42 262Q42 399 113 469T313 540Q355 540 396 530T469 495T520 429T540 326Q540 305 538 280T529 228H179Q184 160 218 128T331 95Q378 95
415 108T473 136L521 48ZM311 430Q249 430 219 397T184 311H410Q414 366 390 398T311 430Z" />
<glyph unicode="&#x436;" glyph-name="afii10072" horiz-adv-x="810" d="M282 214L165 0H6L154 238H153L195 272L134 315L16 525H169L276 312H334V525H466V298L518 316Q544 369 572 420T626 525H777Q745 471 715 420T653 315H654L607 278L668 234H667L804 0H642L524
218H466V0H334V231L282 214Z" />
<glyph unicode="&#x437;" glyph-name="afii10073" horiz-adv-x="486" d="M125 218V312H190Q235 312 261 326T287 366Q287 395 264 406T192 418Q149 418 114 408T55 386Q47 413 42 437T28 489Q61 509 117 522T236 535Q333 535 380 502T428 405Q428 387 423 369T406
335T378 305T338 283V275Q400 262 425 231T450 146Q450 113 436 85T391 34T316 0T208 -13Q148 -13 101 0T24 29Q31 56 39 83T55 137Q82 123 120 114T204 104Q310 104 310 165Q310 179 304 189T282 205T242 215T177 218H125Z" />
<glyph unicode="&#x438;" glyph-name="afii10074" horiz-adv-x="632" d="M420 237L426 326L363 238L156 0H72V525H212V278L207 206H219Q231 223 243 242T268 278L476 525H560V0H420V237Z" />
<glyph unicode="&#x439;" glyph-name="afii10075" horiz-adv-x="632" d="M420 237L426 326L363 238L156 0H72V525H212V278L207 206H219Q231 223 243 242T268 278L476 525H560V0H420V237ZM252 712Q260 670 280 655T332 640Q365 640 384 655T412 711L516 684Q503
618 451 585T327 552Q292 552 261 559T203 582T159 623T133 684L252 712Z" />
<glyph unicode="&#x43a;" glyph-name="afii10076" horiz-adv-x="564" d="M261 218H212V0H72V525H212V298L257 317L391 525H542Q507 477 474 429T406 332L340 288L410 245Q448 183 487 123T564 0H402L261 218Z" />
<glyph unicode="&#x43b;" glyph-name="afii10077" horiz-adv-x="599" d="M387 401H264Q261 317 252 243T221 114T166 26T77 -6Q14 -6 -12 8L8 132Q25 127 39 127Q63 127 81 144T111 205T130 327T142 525H527V0H387V401Z" />
<glyph unicode="&#x43c;" glyph-name="afii10078" horiz-adv-x="772" d="M567 233L577 347H561L514 257V258L408 95H359L242 258V257L195 347H181L196 234V0H72V525H219L350 329V330L385 263H396L431 332V331L553 525H700V0H567V233Z" />
<glyph unicode="&#x43d;" glyph-name="afii10079" horiz-adv-x="623" d="M411 203H212V0H72V525H212V330H411V525H551V0H411V203Z" />
<glyph unicode="&#x43e;" glyph-name="afii10080" horiz-adv-x="616" d="M42 262Q42 392 111 466T308 540Q375 540 425 519T508 461T557 373T574 262Q574 198 556 147T504 59T421 4T308 -15Q240 -15 190 6T107 64T58 152T42 262ZM186 262Q186 229 193 200T214
150T252 115T308 102Q430 102 430 262Q430 297 424 326T403 377T365 411T308 423Q251 423 219 385T186 262Z" />
<glyph unicode="&#x43f;" glyph-name="afii10081" horiz-adv-x="617" d="M405 401H212V0H72V525H545V0H405V401Z" />
<glyph unicode="&#x440;" glyph-name="afii10082" horiz-adv-x="623" d="M72 525H172L189 460H201Q232 500 273 520T369 540Q475 540 528 477T581 275Q581 209 564 156T514 64T433 5T321 -16Q287 -16 262 -10T212 8V-199H72V525ZM326 423Q278 423 252 402T212
335V131Q229 117 250 109T303 101Q371 101 404 143T437 279Q437 346 412 384T326 423Z" />
<glyph unicode="&#x441;" glyph-name="afii10083" horiz-adv-x="500" d="M468 32Q434 9 387 -3T288 -15Q220 -15 174 5T98 62T55 149T42 262Q42 393 106 466T294 540Q354 540 392 531T461 506L427 394Q401 405 376 410T316 416Q253 416 220 380T186 262Q186 230
194 203T219 154T262 121T323 109Q365 109 389 116T436 137L468 32Z" />
<glyph unicode="&#x442;" glyph-name="afii10084" horiz-adv-x="488" d="M480 401H317V0H171V401H8V525H480V401Z" />
<glyph unicode="&#x443;" glyph-name="afii10085" horiz-adv-x="541" d="M264 234L286 150H296L315 234L404 525H547L373 50Q351 -9 332 -56T289 -136T238 -186T170 -204Q144 -204 121 -200T80 -186L109 -78Q124 -83 140 -83Q154 -83 167 -80T191 -69T211 -45T228
-3L-12 525H157L264 234Z" />
<glyph unicode="&#x444;" glyph-name="afii10086" horiz-adv-x="805" d="M335 -4Q309 -12 288 -13T250 -15Q146 -15 91 53T36 262Q36 395 97 465T273 535Q287 535 302 534T335 530V700H470V529Q496 533 513 534T545 535Q657 535 713 474T769 273Q769 208 754 155T710
64T638 6T539 -15Q529 -15 508 -13T470 -5V-200H335V-4ZM464 99Q477 96 489 96T518 95Q575 95 602 136T629 273Q629 354 603 390T512 426Q499 426 489 425T464 419V99ZM341 420Q324 424 314 425T290 426Q234 426 205 389T176 262Q176 184 203 140T287 95Q312 95
341 102V420Z" />
<glyph unicode="&#x445;" glyph-name="afii10087" horiz-adv-x="587" d="M192 269L20 525H190L261 423L260 424L301 331L341 424L340 423L416 525H570L397 273L581 0H415L330 118L331 117L289 209L245 117L246 118L160 0H6L192 269Z" />
<glyph unicode="&#x446;" glyph-name="afii10088" horiz-adv-x="645" d="M625 -119H526L509 0H72V525H212V124H401V525H541V124H625V-119Z" />
<glyph unicode="&#x447;" glyph-name="afii10089" horiz-adv-x="582" d="M182 525V422Q182 384 185 358T198 314T224 290T268 282Q301 282 327 290T370 311V525H510V0H370V214Q359 207 345 199T312 183T269 170T216 165Q175 165 143 173T88 203T54 260T42 350V525H182Z" />
<glyph unicode="&#x448;" glyph-name="afii10090" horiz-adv-x="876" d="M72 0V525H212V124H368V525H508V124H664V525H804V0H72Z" />
<glyph unicode="&#x449;" glyph-name="afii10091" horiz-adv-x="906" d="M886 -139H788L769 0H72V525H212V124H368V525H508V124H664V525H804V124H886V-139Z" />
<glyph unicode="&#x44a;" glyph-name="afii10092" horiz-adv-x="618" d="M266 117Q286 113 304 112T339 110Q450 110 450 182Q450 249 342 249Q305 249 266 240V117ZM266 337Q297 342 328 344T382 346Q440 346 480 334T546 299T582 247T594 183Q594 88 533 41T328
-7Q262 -7 214 -6T128 -1V401H0V525H266V337Z" />
<glyph unicode="&#x44b;" glyph-name="afii10093" horiz-adv-x="815" d="M212 117Q231 113 249 112T284 110Q338 110 361 127T384 182Q384 214 361 231T288 249Q246 249 212 240V117ZM212 337Q243 342 273 344T325 346Q382 346 420 334T483 299T517 247T528 183Q528
136 515 101T471 41T392 5T273 -7Q207 -7 160 -6T72 -1V525H212V337ZM603 525H743V0H603V525Z" />
<glyph unicode="&#x44c;" glyph-name="afii10094" horiz-adv-x="563" d="M212 117Q231 113 249 112T283 110Q395 110 395 182Q395 249 287 249Q246 249 212 240V117ZM212 337Q242 342 273 344T325 346Q383 346 424 334T490 299T527 247T539 183Q539 136 524 101T477
41T394 5T269 -7Q206 -7 159 -6T72 -1V525H212V337Z" />
<glyph unicode="&#x44d;" glyph-name="afii10095" horiz-adv-x="527" d="M129 315H344Q337 367 305 395T206 423Q163 423 130 413T71 391L33 491Q106 540 234 540Q361 540 423 470T485 262Q485 124 415 55T224 -15Q171 -15 117 -5T30 25L64 133Q91 119 126 111T198
102Q237 102 264 109T308 130T334 166T345 218H129V315Z" />
<glyph unicode="&#x44e;" glyph-name="afii10096" horiz-adv-x="847" d="M556 -15Q493 -15 449 1T375 46T330 118T310 212H212V0H72V525H212V329H312Q324 430 382 485T558 540Q623 540 669 520T746 462T790 374T805 262Q805 132 744 59T556 -15ZM444 262Q444 187
468 145T557 102Q584 102 603 110T636 138T655 187T661 262Q661 342 638 382T552 423Q498 423 471 386T444 262Z" />
<glyph unicode="&#x44f;" glyph-name="afii10097" horiz-adv-x="589" d="M377 179L298 166L189 0H18L131 161L190 185Q151 189 125 205T83 244T61 296T54 355Q54 450 122 495T334 540Q385 540 433 535T517 524V0H377V179ZM377 267V412Q364 417 347 420T314 423Q258
423 229 404T200 342Q200 301 232 283T330 265L377 267Z" />
<glyph unicode="&#x451;" glyph-name="afii10071" horiz-adv-x="594" d="M521 48Q487 22 429 4T303 -15Q168 -15 105 59T42 262Q42 399 113 469T313 540Q355 540 396 530T469 495T520 429T540 326Q540 305 538 280T529 228H179Q184 160 218 128T331 95Q378 95
415 108T473 136L521 48ZM311 430Q249 430 219 397T184 311H410Q414 366 390 398T311 430ZM101 894Q101 929 122 950T178 971Q212 971 232 950T253 894Q253 864 233 843T178 822Q144 822 123 843T101 894ZM354 894Q354 929 374 950T429 971Q464 971 484 950T505
894Q505 864 485 843T429 822Q395 822 375 843T354 894Z" />
<glyph unicode="&#x452;" glyph-name="afii10099" horiz-adv-x="633" d="M0 525H79V738H219V525H397V442H219V299H232Q258 333 299 355T401 377Q444 377 476 367T529 330T562 261T573 151V-14Q573 -108 535 -157T411 -207Q395 -207 378 -206T340 -200V-83Q369
-86 387 -81T415 -65T429 -36T433 3V123Q433 191 413 222T337 253Q297 253 264 226T219 157V0H79V442H0V525Z" />
<glyph unicode="&#x453;" glyph-name="afii10100" horiz-adv-x="438" d="M438 401H220V0H72V525H438V401ZM268 729H410V700L284 571H208L268 729Z" />
<glyph unicode="&#x454;" glyph-name="afii10101" horiz-adv-x="524" d="M494 29Q459 6 408 -4T306 -15Q238 -15 188 5T106 61T58 149T42 262Q42 328 61 380T115 467T200 521T311 540Q370 540 412 530T484 506Q476 477 468 449T451 392Q426 403 397 409T335 416Q280
416 242 391T190 312H413V220H190Q200 172 236 141T343 109Q383 109 411 117T459 140L494 29Z" />
<glyph unicode="&#x455;" glyph-name="afii10102" horiz-adv-x="483" d="M71 136Q85 129 103 122T143 109T187 99T233 95Q268 95 287 106T307 147Q307 171 281 182T217 205Q189 213 159 224T103 253T61 302T44 378Q44 457 93 498T234 540Q294 540 346 530T431
505L402 399Q376 409 336 419T253 430Q218 430 201 420T184 383Q184 360 210 349T275 326Q303 318 333 308T389 279T430 233T447 161Q447 77 393 31T229 -15Q170 -15 119 -5T36 26L71 136Z" />
<glyph unicode="&#x456;" glyph-name="afii10103" horiz-adv-x="317" d="M89 525H229V0H89V525ZM68 893Q68 925 91 946T156 968Q199 968 224 946T249 893Q249 864 224 843T156 822Q114 822 91 843T68 893Z" />
<glyph unicode="&#x457;" glyph-name="afii10104" horiz-adv-x="371" d="M30 636Q30 668 46 688T100 709Q135 709 151 689T167 636Q167 605 151 584T100 562Q63 562 47 583T30 636ZM205 636Q205 668 221 688T273 709Q308 709 324 689T341 636Q341 605 325 584T273
562Q238 562 222 583T205 636ZM113 525H253V0H113V525Z" />
<glyph unicode="&#x458;" glyph-name="afii10105" horiz-adv-x="317" d="M91 525H231V-24Q231 -119 192 -170T66 -221Q32 -221 -6 -214V-97Q25 -100 44 -93T73 -71T87 -34T91 17V525ZM68 893Q68 925 91 946T156 968Q199 968 224 946T249 893Q249 864 224 843T156
822Q114 822 91 843T68 893Z" />
<glyph unicode="&#x459;" glyph-name="afii10106" horiz-adv-x="878" d="M527 337Q557 342 588 344T640 346Q698 346 739 334T805 299T842 247T854 183Q854 136 839 101T792 41T709 5T584 -7Q521 -7 474 -6T387 -1V401H264Q261 317 252 243T221 114T166 26T77
-6Q14 -6 -12 8L8 132Q25 127 39 127Q63 127 81 144T111 205T130 327T142 525H527V337ZM527 117Q546 113 564 112T598 110Q710 110 710 182Q710 249 602 249Q561 249 527 240V117Z" />
<glyph unicode="&#x45a;" glyph-name="afii10107" horiz-adv-x="898" d="M547 117Q566 113 584 112T618 110Q676 110 703 127T730 181Q730 213 704 231T622 249Q581 249 547 239V117ZM547 337Q579 342 609 344T660 346Q718 346 759 334T825 299T862 247T874 182Q874
135 859 100T812 41T729 5T605 -7Q541 -7 494 -5T407 0V206H208V0H68V525H208V332H407V525H547V337Z" />
<glyph unicode="&#x45b;" glyph-name="afii10108" horiz-adv-x="643" d="M0 525H89V738H229V525H397V442H229V298H242Q268 334 309 355T411 377Q454 377 486 367T539 330T572 261T583 152V0H443V122Q443 191 423 222T347 253Q306 253 273 226T229 157V0H89V442H0V525Z" />
<glyph unicode="&#x45c;" glyph-name="afii10109" horiz-adv-x="564" d="M261 218H212V0H72V525H212V298L257 317L391 525H542Q507 477 474 429T406 332L340 288L410 245Q448 183 487 123T564 0H402L261 218ZM296 729H438V700L312 571H236L296 729Z" />
<glyph unicode="&#x45e;" glyph-name="afii10110" horiz-adv-x="541" d="M264 234L286 150H296L315 234L404 525H547L373 50Q351 -9 332 -56T289 -136T238 -186T170 -204Q144 -204 121 -200T80 -186L109 -78Q124 -83 140 -83Q154 -83 167 -80T191 -69T211 -45T228
-3L-12 525H157L264 234ZM203 712Q211 670 231 655T283 640Q316 640 335 655T363 711L467 684Q454 618 402 585T278 552Q243 552 212 559T154 582T110 623T84 684L203 712Z" />
<glyph unicode="&#x45f;" glyph-name="afii10193" horiz-adv-x="610" d="M208 525V121H402V525H542V0H371L355 -174H260L238 0H68V525H208Z" />
<glyph unicode="&#x462;" glyph-name="afii10146" horiz-adv-x="707" d="M0 652H155V726H303V652H521V528H303V448Q309 449 321 450T347 453T377 455T406 456Q460 456 510 446T598 411T660 342T683 233Q683 113 601 52T369 -10Q354 -10 329 -10T273 -7T212 -2T155
7V528H0V652ZM303 125Q315 123 335 122T376 120Q407 120 434 125T481 142T514 174T526 227Q526 260 514 279T480 309T432 323T376 326Q368 326 358 325T336 323T316 320T303 317V125Z" />
<glyph unicode="&#x463;" glyph-name="afii10194" horiz-adv-x="618" d="M0 525H128V700H268V525H452V428H268V337Q299 342 328 344T381 346Q439 346 479 334T545 299T582 247T594 183Q594 88 533 41T328 -7Q262 -7 208 -4T128 5V428H0V525ZM268 114Q288 110 305
110T339 110Q396 110 423 126T450 181Q450 249 342 249Q322 249 305 247T268 240V114Z" />
<glyph unicode="&#x472;" glyph-name="afii10147" horiz-adv-x="727" d="M40 350Q40 436 62 504T125 618T227 689T363 714Q444 714 504 688T605 613T666 498T687 350Q687 264 665 196T600 82T498 11T363 -14Q282 -14 222 12T121 87T60 202T40 350ZM363 116Q432
116 474 157T527 293H200Q210 212 249 164T363 116ZM363 584Q295 584 253 543T200 410H526Q521 449 509 481T478 536T430 571T363 584Z" />
<glyph unicode="&#x473;" glyph-name="afii10195" horiz-adv-x="616" d="M42 262Q42 395 111 467T308 540Q375 540 425 520T508 463T557 375T574 262Q574 131 505 58T308 -15Q240 -15 190 5T107 62T58 150T42 262ZM430 304Q412 423 308 423Q263 423 228 396T186
304H430ZM186 219Q193 164 226 133T308 102Q355 102 388 128T430 219H186Z" />
<glyph unicode="&#x474;" glyph-name="afii10148" horiz-adv-x="688" d="M381 -5H275L-10 700H163L315 296L335 177H340L357 297L432 524Q449 576 467 611T509 668T562 699T631 709Q673 709 698 703T747 686L715 562Q695 572 679 575T645 579Q621 579 605 564T575
510L381 -5Z" />
<glyph unicode="&#x475;" glyph-name="afii10196" horiz-adv-x="580" d="M318 -5H235L-12 525H150Q176 457 203 388T257 250L278 171H292Q296 191 300 211T309 252L335 325Q356 385 373 425T412 489T459 523T522 534Q548 534 570 530T610 518Q605 489 600 462T590
407Q581 411 573 413T555 415Q535 415 515 398T477 344L318 -5Z" />
<glyph unicode="&#x48a;" glyph-name="uni048A" horiz-adv-x="776" d="M510 386L518 475H513L462 385L175 0H65V700H213V323L203 230H209L263 323L547 700H658V124H788V92L685 -130H582L631 0H510V386ZM280 875Q285 844 306 831T361 818Q433 818 442 874L563 857Q551
792 500 764T360 735Q316 735 279 740T214 760T169 796T146 854L280 875Z" />
<glyph unicode="&#x48b;" glyph-name="uni048B" horiz-adv-x="657" d="M420 237L426 326L363 238L156 0H72V525H212V278L207 206H219Q231 223 243 242T268 278L476 525H560V124H657V92L554 -130H451L500 0H420V237ZM251 712Q259 670 279 655T331 640Q364 640 383
655T411 711L515 684Q502 618 450 585T326 552Q291 552 260 559T202 582T158 623T132 684L251 712Z" />
<glyph unicode="&#x48c;" glyph-name="uni048C" horiz-adv-x="654" d="M0 702H102V780H250V702H397V604H250V451Q256 452 268 453T294 456T324 458T353 459Q407 459 457 449T545 414T607 344T630 233Q630 113 548 52T316 -10Q301 -10 276 -10T220 -7T159 -2T102
7V604H0V702ZM250 125Q262 123 282 122T323 120Q353 120 380 125T428 142T461 174T473 226Q473 259 461 279T427 310T379 325T323 329Q315 329 305 328T283 326T263 323T250 320V125Z" />
<glyph unicode="&#x48d;" glyph-name="uni048D" horiz-adv-x="618" d="M0 525H128V700H268V525H452V428H268V337Q299 342 328 344T381 346Q439 346 479 334T545 299T582 247T594 183Q594 88 533 41T328 -7Q262 -7 208 -4T128 5V428H0V525ZM268 114Q288 110 305
110T339 110Q396 110 423 126T450 181Q450 249 342 249Q322 249 305 247T268 240V114Z" />
<glyph unicode="&#x48e;" glyph-name="uni048E" horiz-adv-x="620" d="M65 693Q110 701 165 705T275 710Q331 710 388 702T490 668T565 597T594 476Q594 404 566 357T490 280L561 181L476 124L394 242Q371 237 347 235T299 232Q294 232 282 232T257 232T231 234T213
236V0H65V693ZM213 367Q217 366 226 365T245 364T263 363T277 362Q291 362 305 363T334 366L276 450L331 485L396 389Q415 402 426 423T437 479Q437 511 424 530T390 561T341 576T285 580Q264 580 245 579T213 575V367Z" />
<glyph unicode="&#x48f;" glyph-name="uni048F" horiz-adv-x="623" d="M72 525H172L189 460H201Q232 500 273 520T369 540Q475 540 528 477T581 275Q581 133 507 56L557 -2L462 -85L399 -6Q381 -11 362 -13T321 -16Q287 -16 262 -10T212 8V-199H72V525ZM212 131Q229
117 250 109T303 101Q311 101 318 101T332 103L282 163L344 218L404 145Q437 188 437 279Q437 346 412 384T326 423Q278 423 252 402T212 335V131Z" />
<glyph unicode="&#x490;" glyph-name="afii10050" horiz-adv-x="498" d="M507 570H213V0H65V700H390L412 854H507V570Z" />
<glyph unicode="&#x491;" glyph-name="afii10098" horiz-adv-x="438" d="M438 401H220V0H72V525H321L343 679H438V401Z" />
<glyph unicode="&#x492;" glyph-name="uni0492" horiz-adv-x="552" d="M545 570H251V389H498V290H251V0H103V290H-2V389H103V700H545V570Z" />
<glyph unicode="&#x493;" glyph-name="uni0493" horiz-adv-x="486" d="M446 401H228V290H444V193H228V-3H80V193H12V290H80V525H446V401Z" />
<glyph unicode="&#x494;" glyph-name="uni0494" horiz-adv-x="631" d="M213 0H65V700H507V570H213V377Q230 384 265 391T354 399Q399 399 442 388T518 347T572 269T593 142Q593 16 530 -55T330 -127Q300 -127 286 -126T263 -123V5Q270 4 289 4T325 3Q379 3 407
35T436 136Q436 175 426 200T399 241T357 262T305 269Q280 269 253 263T213 249V0Z" />
<glyph unicode="&#x495;" glyph-name="uni0495" horiz-adv-x="614" d="M212 0H72V525H429V401H212V266Q232 274 270 283T361 293Q404 293 442 281T510 240T557 162T574 40Q574 -26 561 -76T517 -160T438 -211T316 -229Q287 -229 273 -228T249 -225V-103Q259 -105
277 -105T310 -105Q370 -105 400 -70T430 28Q430 100 398 134T310 169Q282 169 255 161T212 146V0Z" />
<glyph unicode="&#x496;" glyph-name="uni0496" horiz-adv-x="926" d="M380 700H520V391L559 405L717 700H885L707 393L655 358L718 315L835 130H921V-124H815L800 0H739L563 301H520V0H380V313L342 299L166 0H-8L191 305L250 345L193 383L7 700H180L337 403H380V700Z" />
<glyph unicode="&#x497;" glyph-name="uni0497" horiz-adv-x="814" d="M282 214L165 0H6L154 238H153L195 272L134 315L16 525H169L276 312H334V525H466V298L518 316Q544 369 572 420T626 525H777Q745 471 715 420T653 315H654L607 278L668 234H667L732 124H808V-112H705L689
0H642L524 218H466V0H334V231L282 214Z" />
<glyph unicode="&#x498;" glyph-name="uni0498" horiz-adv-x="570" d="M128 307V420H154Q164 420 178 420T208 420T238 422T262 426Q300 433 325 451T351 505Q351 550 319 566T232 582Q208 582 185 579T141 569T103 557T75 544L38 670Q49 675 70 682T121 696T184
707T253 712Q301 712 346 704T428 676T486 622T508 536Q508 485 478 441T382 377V371Q452 360 491 316T531 200Q531 152 513 116T463 53T390 12T302 -10L287 -174H192L171 -11Q121 -6 81 4T18 25L56 153Q81 142 128 129T242 116Q265 116 288 121T331 137T362 167T374
212Q374 235 366 252T337 280T282 298T196 306Q183 306 177 306T154 307H128Z" />
<glyph unicode="&#x499;" glyph-name="uni0499" horiz-adv-x="486" d="M125 218V312H190Q235 312 261 326T287 366Q287 395 264 406T192 418Q149 418 114 408T55 386Q47 413 42 437T28 489Q61 509 117 522T236 535Q333 535 380 502T428 405Q428 387 423 369T406
335T378 305T338 283V275Q400 262 425 231T450 146Q450 90 407 47T273 -9L258 -174H163L142 -8Q104 -2 75 8T24 29Q31 56 39 83T55 137Q82 123 120 114T204 104Q310 104 310 165Q310 179 304 189T282 205T242 215T177 218H125Z" />
<glyph unicode="&#x49a;" glyph-name="uni049A" horiz-adv-x="687" d="M252 296H213V0H65V700H213V392L248 407L458 700H627L405 407L347 369L407 329L560 130H679V-124H573L558 0H478L252 296Z" />
<glyph unicode="&#x49b;" glyph-name="uni049B" horiz-adv-x="575" d="M261 218H212V0H72V525H212V298L257 317L391 525H542Q507 477 474 429T406 332L340 288L410 245Q429 214 448 184T486 124H569V-112H466L450 0H402L261 218Z" />
<glyph unicode="&#x49c;" glyph-name="uni049C" horiz-adv-x="757" d="M255 297H213V0H65V700H213V391L255 394V530H355V403L378 405L554 700H715L528 407L470 369L531 330L747 0H574L382 297H355V170H255V297Z" />
<glyph unicode="&#x49d;" glyph-name="uni049D" horiz-adv-x="637" d="M254 218H212V0H72V525H212V300L254 304V432H333V313L362 316L469 525H616L508 332L442 287L512 244L637 0H479L366 218H333V93H254V218Z" />
<glyph unicode="&#x49e;" glyph-name="uni049E" horiz-adv-x="751" d="M0 645H145V700H293V645H392V535H293V392L353 406L545 700H707L503 407L433 369L499 330L741 0H558L344 296H293V0H145V523H0V645Z" />
<glyph unicode="&#x49f;" glyph-name="uni049F" horiz-adv-x="588" d="M0 637H96V700H236V637H397V554H236V298L280 317L411 525H565L431 334H432L368 288L435 244H434L588 0H426L284 218H236V0H96V554H0V637Z" />
<glyph unicode="&#x4a0;" glyph-name="uni04A0" horiz-adv-x="779" d="M173 570H0V700H321V392L356 407L566 700H735L513 407L456 369L515 329L769 0H586L360 296H321V0H173V554V570Z" />
<glyph unicode="&#x4a1;" glyph-name="uni04A1" horiz-adv-x="619" d="M266 298L311 318L447 525H596L462 330L398 285L466 243L619 0H457L316 218H266V0H128V401H0V525H266V298Z" />
<glyph unicode="&#x4a2;" glyph-name="uni04A2" horiz-adv-x="754" d="M493 289H213V0H65V700H213V419H493V700H641V130H735V-124H630L614 0H493V289Z" />
<glyph unicode="&#x4a3;" glyph-name="uni04A3" horiz-adv-x="642" d="M411 203H212V0H72V525H212V330H411V525H551V124H622V-112H519L503 0H411V203Z" />
<glyph unicode="&#x4a4;" glyph-name="uni04A4" horiz-adv-x="926" d="M935 570H641V0H493V289H213V0H65V700H213V419H493V700H935V570Z" />
<glyph unicode="&#x4a5;" glyph-name="uni04A5" horiz-adv-x="762" d="M411 203H212V0H72V525H212V330H411V525H762V401H551V0H411V203Z" />
<glyph unicode="&#x4a6;" glyph-name="uni04A6" horiz-adv-x="1044" d="M629 226V0H481V570H213V0H65V700H629V377Q646 383 681 391T770 399Q815 399 858 388T934 347T988 269T1009 142Q1009 14 946 -56T746 -127Q716 -127 702 -126T679 -123V5Q686 4 704 4T740
3Q794 3 823 35T852 136Q852 176 842 201T814 242T772 263T720 269Q695 269 669 263T629 250V226Z" />
<glyph unicode="&#x4a7;" glyph-name="uni04A7" horiz-adv-x="943" d="M545 0H405V401H212V0H72V525H545V267Q565 274 602 283T694 293Q734 293 772 281T840 240T888 162T907 38Q907 -27 894 -77T850 -161T770 -212T649 -229Q620 -229 606 -228T582 -225V-103Q589
-105 607 -105T643 -105Q703 -105 731 -70T759 30Q759 101 728 135T643 169Q614 169 587 161T544 146L545 0Z" />
<glyph unicode="&#x4a8;" glyph-name="uni04A8" horiz-adv-x="949" d="M385 584Q298 584 248 528T197 360Q197 303 216 258T267 182T336 133T413 116Q424 116 437 117T458 122Q434 136 412 160T374 215T349 285T339 367Q339 442 359 500T416 598T504 659T618 680Q686
680 736 658T819 598T868 509T884 398Q884 343 870 297T833 214T783 154T731 118Q737 117 743 117T757 116Q789 116 819 125T869 149L916 33Q893 10 855 -2T758 -14Q737 -14 714 -11T668 -1T627 14T594 36Q558 11 515 -1T411 -14Q324 -14 255 11T139 84T66 198T40
349Q40 435 62 502T128 617T236 689T385 714V584ZM496 373Q496 314 525 257T610 164Q661 197 694 256T727 392Q727 424 722 452T704 503T670 537T616 550Q561 550 529 506T496 373Z" />
<glyph unicode="&#x4a9;" glyph-name="uni04A9" horiz-adv-x="818" d="M309 423Q244 418 215 381T186 269Q186 231 198 200T231 147T280 114T342 102Q352 102 367 104T391 115Q360 136 337 180T313 281Q313 320 324 363T362 442T433 501T542 525Q604 525 646 508T714
460T751 391T763 309Q763 273 752 241T724 181T686 134T644 101Q665 93 686 93Q706 93 725 99T762 117L794 25Q772 7 739 -4T658 -15Q613 -15 577 -3T516 31Q478 6 431 -4T333 -15Q264 -15 210 5T119 62T62 150T42 262Q42 322 56 371T103 456T186 513T309 540V423ZM449
283Q449 238 470 201T530 137Q570 160 594 202T619 300Q619 344 598 376T537 408Q510 408 493 398T467 370T453 330T449 283Z" />
<glyph unicode="&#x4aa;" glyph-name="uni04AA" horiz-adv-x="607" d="M579 30Q553 12 516 3T436 -11L421 -174H326L305 -7Q250 3 202 28T118 97T61 203T40 350Q40 452 72 521T154 633T265 695T385 714Q450 714 494 706T568 687L539 563Q514 574 481 579T396 584Q351
584 315 570T252 526T212 453T197 350Q197 298 210 255T249 181T315 133T408 116Q457 116 490 125T550 148L579 30Z" />
<glyph unicode="&#x4ab;" glyph-name="uni04AB" horiz-adv-x="500" d="M468 32Q443 15 411 5T344 -11L329 -174H234L213 -7Q166 3 134 27T81 86T52 165T42 262Q42 393 106 466T294 540Q354 540 392 531T461 506L427 394Q401 405 376 410T316 416Q253 416 220 380T186
262Q186 230 194 203T219 154T262 121T323 109Q365 109 389 116T436 137L468 32Z" />
<glyph unicode="&#x4ac;" glyph-name="uni04AC" horiz-adv-x="616" d="M234 570H12V700H604V570H382V130H477V-124H372L356 0H234V570Z" />
<glyph unicode="&#x4ad;" glyph-name="uni04AD" horiz-adv-x="488" d="M171 401H8V525H480V401H317V124H393V-112H290L274 0H171V401Z" />
<glyph unicode="&#x4ae;" glyph-name="uni04AE" horiz-adv-x="644" d="M248 258L-2 700H174L314 443L330 368H335L352 445L487 700H646L396 259V0H248V258Z" />
<glyph unicode="&#x4af;" glyph-name="uni04AF" horiz-adv-x="544" d="M-12 525H150L259 212L281 116H290L309 214L405 525H556L349 -3V-200H209V-3L-12 525Z" />
<glyph unicode="&#x4b0;" glyph-name="uni04B0" horiz-adv-x="644" d="M88 296H226L-2 700H174L314 443L330 368H335L352 445L487 700H646L417 296H556V199H396V0H248V199H88V296Z" />
<glyph unicode="&#x4b1;" glyph-name="uni04B1" horiz-adv-x="544" d="M81 0H207L-12 525H150L259 212L281 116H290L309 214L405 525H556L350 0H477V-83H349V-200H209V-83H81V0Z" />
<glyph unicode="&#x4b2;" glyph-name="uni04B2" horiz-adv-x="721" d="M244 356L32 700H211L328 501L355 432L381 501L503 700H664L444 363L592 130H713V-124H608L592 0H498L364 213L334 285L305 213L171 0H10L244 356Z" />
<glyph unicode="&#x4b3;" glyph-name="uni04B3" horiz-adv-x="590" d="M330 118L331 117L289 209L245 117L246 118L160 0H6L192 269L20 525H190L261 423L260 424L301 331L341 424L340 423L416 525H570L397 273L498 124H584V-112H481L465 0H415L330 118Z" />
<glyph unicode="&#x4b4;" glyph-name="uni04B4" horiz-adv-x="911" d="M892 -124H787L771 0H235V570H12V700H537V570H383V130H647V700H795V130H892V-124Z" />
<glyph unicode="&#x4b5;" glyph-name="uni04B5" horiz-adv-x="745" d="M725 -119H626L609 0H174V401H8V525H435V401H314V124H501V525H641V124H725V-119Z" />
<glyph unicode="&#x4b6;" glyph-name="uni04B6" horiz-adv-x="704" d="M444 280Q417 265 369 253T254 240Q208 240 170 251T105 287T63 348T48 436V700H196V484Q196 426 222 395T307 364Q349 364 386 372T444 398V700H592V130H685V-124H580L564 0H444V280Z" />
<glyph unicode="&#x4b7;" glyph-name="uni04B7" horiz-adv-x="603" d="M370 214Q359 207 345 199T312 183T269 170T216 165Q175 165 143 173T88 203T54 260T42 350V525H182V422Q182 384 185 358T198 314T224 290T268 282Q301 282 327 290T370 311V525H510V124H583V-112H480L464
0H370V214Z" />
<glyph unicode="&#x4b8;" glyph-name="uni04B8" horiz-adv-x="698" d="M294 241Q285 240 277 240T260 240Q213 240 174 251T107 285T64 346T48 435V700H196V484Q196 428 219 398T294 364V480H394V371Q422 375 445 381T485 398V700H633V0H485V280Q471 272 448 265T394
252V120H294V241Z" />
<glyph unicode="&#x4b9;" glyph-name="uni04B9" horiz-adv-x="618" d="M260 168Q249 167 237 167T213 166Q173 166 141 174T87 203T54 258T42 345V525H182V417Q182 350 197 319T260 283V406H339V288Q361 292 379 297T406 309V525H546V0H406V213Q397 206 380 199T339
184V62H260V168Z" />
<glyph unicode="&#x4ba;" glyph-name="uni04BA" horiz-adv-x="656" d="M460 0V218Q460 277 434 306T349 336Q307 336 271 328T213 302V0H65V700H213V419Q241 435 288 447T401 460Q446 460 483 449T549 415T592 355T608 267V0H460Z" />
<glyph unicode="&#x4bb;" glyph-name="uni04BB" horiz-adv-x="638" d="M426 0V289Q426 357 406 386T330 416Q290 416 257 391T212 323V0H72V700H212V461H224Q251 496 291 518T394 540Q437 540 469 530T522 494T555 426T566 320V0H426Z" />
<glyph unicode="&#x4bc;" glyph-name="uni04BC" horiz-adv-x="875" d="M373 290Q376 254 389 223T428 167T490 130T580 116Q628 116 669 129T746 166L783 42Q735 15 677 1T552 -14Q405 -14 319 63T224 290H189Q135 290 99 303T40 339T9 390T0 449Q1 495 25 522H150Q137
509 133 493T130 462Q130 456 132 446T145 427T173 413T224 411Q229 479 251 535T311 630T405 692T531 714Q676 714 749 636T822 411Q822 383 819 353T811 290H373ZM677 412Q680 430 680 449Q680 479 672 505T646 550T601 581T536 592Q379 592 372 412H677Z" />
<glyph unicode="&#x4bd;" glyph-name="uni04BD" horiz-adv-x="748" d="M675 48Q641 22 583 4T457 -15Q333 -15 270 45T198 222H187Q98 222 51 259T7 372Q8 393 15 410T36 444H150Q136 432 129 417T121 379Q121 352 137 337T200 322Q217 427 285 483T467 540Q509
540 550 530T623 495T674 429T694 326Q694 305 692 280T683 228H333Q338 160 372 128T485 95Q532 95 569 108T627 136L675 48ZM465 430Q403 430 373 397T338 311H564Q568 366 544 398T465 430Z" />
<glyph unicode="&#x4be;" glyph-name="uni04BE" horiz-adv-x="875" d="M373 290Q376 254 389 223T428 167T490 130T580 116Q628 116 669 129T746 166L783 42Q706 -2 605 -11L590 -174H495L474 -8Q361 11 296 86T224 290H189Q135 290 99 303T40 339T9 390T0 449Q1
495 25 522H150Q137 509 133 493T130 462Q130 456 132 446T145 427T173 413T224 411Q229 479 251 535T311 630T405 692T531 714Q676 714 749 636T822 411Q822 383 819 353T811 290H373ZM677 412Q680 430 680 449Q680 479 672 505T646 550T601 581T536 592Q379 592
372 412H677Z" />
<glyph unicode="&#x4bf;" glyph-name="uni04BF" horiz-adv-x="748" d="M675 48Q649 28 609 13T521 -10L506 -177H411L390 -9Q299 6 252 65T198 222H187Q98 222 51 259T7 372Q8 399 15 413T36 444H150Q136 431 129 417T121 382Q121 371 124 360T135 341T159 327T200
322Q217 427 285 483T467 540Q509 540 550 530T623 495T674 429T694 326Q694 305 692 280T683 228H333Q338 160 372 128T485 95Q532 95 569 108T627 136L675 48ZM465 430Q403 430 373 397T338 311H564Q568 366 544 398T465 430Z" />
<glyph unicode="&#x4c0;" glyph-name="uni04C0" horiz-adv-x="388" d="M120 620H40V700H348V620H268V80H348V0H40V80H120V620Z" />
<glyph unicode="&#x4c3;" glyph-name="uni04C3" horiz-adv-x="662" d="M458 76Q458 121 448 161T413 231T349 278T251 296H213V0H65V700H213V392L247 407L458 700H627L413 421L347 380H403Q507 356 554 289T602 95V68Q602 -2 586 -53T540 -139T468 -189T375 -206Q343
-206 309 -200V-82Q384 -87 421 -51T458 76Z" />
<glyph unicode="&#x4c4;" glyph-name="uni04C4" horiz-adv-x="578" d="M397 39Q397 85 389 116T363 168T320 198T258 213H212V0H72V525H212V294L257 314L391 525H542L404 325L343 284L401 282Q443 270 469 248T511 196T531 133T537 62V42Q537 -87 485 -147T337
-208Q304 -208 266 -201V-84Q397 -99 397 39Z" />
<glyph unicode="&#x4c5;" glyph-name="uni04C5" horiz-adv-x="706" d="M463 570H302Q297 475 292 399T277 261T251 153T211 69Q195 46 176 31T135 8T94 -4T57 -8Q31 -8 17 -4T-15 8L1 132Q12 128 27 128Q44 128 61 136T91 162Q107 184 119 225T140 331T154 488T162
700H611V124H718V92L615 -130H512L561 0H463V570Z" />
<glyph unicode="&#x4c6;" glyph-name="uni04C6" horiz-adv-x="618" d="M387 401H264Q261 317 252 243T221 114T166 26T77 -6Q14 -6 -12 8L8 132Q25 127 39 127Q63 127 81 144T111 205T130 327T142 525H527V124H618V92L515 -130H412L461 0H387V401Z" />
<glyph unicode="&#x4c7;" glyph-name="uni04C7" horiz-adv-x="706" d="M641 0V-15Q641 -106 604 -157T480 -208Q463 -208 446 -206T408 -200V-84Q437 -87 454 -83T479 -67T490 -40T493 0V289H213V0H65V700H213V419H493V700H641V0Z" />
<glyph unicode="&#x4c8;" glyph-name="uni04C8" horiz-adv-x="623" d="M212 525V330H411V525H551V-15Q551 -109 513 -158T389 -208Q373 -208 356 -207T318 -201V-84Q347 -87 365 -82T393 -66T407 -39T411 0V203H212V0H72V525H212Z" />
<glyph unicode="&#x4c9;" glyph-name="uni04C9" horiz-adv-x="741" d="M493 289H213V0H65V700H213V419H493V700H641V124H753V92L650 -130H547L596 0H493V289Z" />
<glyph unicode="&#x4ca;" glyph-name="uni04CA" horiz-adv-x="639" d="M411 203H212V0H72V525H212V330H411V525H551V124H639V92L536 -130H433L482 0H411V203Z" />
<glyph unicode="&#x4cb;" glyph-name="uni04CB" horiz-adv-x="657" d="M196 700V484Q196 426 222 395T307 364Q349 364 386 372T444 398V700H592V0H473L458 -124H352V130H444V280Q417 265 369 253T254 240Q208 240 170 251T105 287T63 348T48 436V700H196Z" />
<glyph unicode="&#x4cc;" glyph-name="uni04CC" horiz-adv-x="582" d="M370 225Q350 211 313 198T216 184Q134 184 88 224T42 358V525H182V427Q182 396 185 373T197 333T223 309T267 301Q301 301 327 309T370 332V525H510V0H369L351 -119H252V104H370V225Z" />
<glyph unicode="&#x4cd;" glyph-name="uni04CD" horiz-adv-x="921" d="M655 351L671 496H665L617 386L455 125H409L237 387L190 495H184L205 352V0H65V700H199L401 377L439 300H444L477 379L670 700H803V124H933V92L830 -130H727L776 0H655V351Z" />
<glyph unicode="&#x4ce;" glyph-name="uni04CE" horiz-adv-x="795" d="M567 233L577 347H561L514 257V258L408 95H359L242 258V257L195 347H181L196 234V0H72V525H219L350 329V330L385 263H396L431 332V331L553 525H700V124H795V92L692 -130H589L638 0H567V233Z" />
<glyph unicode="&#x4cf;" glyph-name="uni04CF" horiz-adv-x="284" d="M72 700H212V0H72V700Z" />
<glyph unicode="&#x4d0;" glyph-name="uni04D0" horiz-adv-x="658" d="M441 149H205L148 0H0L274 705H383L658 0H501L441 149ZM246 266H406L352 412L328 523H323L299 411L246 266ZM247 875Q252 844 273 831T328 818Q400 818 409 874L530 857Q518 792 467 764T327
735Q283 735 246 740T181 760T136 796T113 854L247 875Z" />
<glyph unicode="&#x4d1;" glyph-name="uni04D1" horiz-adv-x="579" d="M67 489Q112 509 177 522T313 535Q368 535 405 522T465 485T496 426T506 349Q506 298 502 248T498 142Q498 104 503 68T519 -1H405L382 77H370Q344 42 304 17T201 -8Q163 -8 132 3T78 34T43
83T30 144Q30 233 89 278T270 324Q298 324 326 320T365 313Q368 334 368 349Q368 387 349 405T278 423Q230 423 185 412T104 383L67 489ZM250 104Q297 104 325 126T366 172V232Q361 234 351 236T328 240T303 243T280 244Q226 244 200 225T174 176Q174 140 194 122T250
104ZM212 712Q220 670 240 655T292 640Q325 640 344 655T372 711L476 684Q463 618 411 585T287 552Q252 552 221 559T163 582T119 623T93 684L212 712Z" />
<glyph unicode="&#x4d2;" glyph-name="uni04D2" horiz-adv-x="658" d="M441 149H205L148 0H0L274 705H383L658 0H501L441 149ZM246 266H406L352 412L328 523H323L299 411L246 266ZM128 798Q128 825 147 841T211 858Q253 858 272 842T292 798Q292 772 273 757T211
741Q167 741 148 756T128 798ZM361 798Q361 825 380 841T442 858Q486 858 505 842T525 798Q525 772 506 757T442 741Q400 741 381 756T361 798Z" />
<glyph unicode="&#x4d3;" glyph-name="uni04D3" horiz-adv-x="579" d="M67 489Q112 509 177 522T313 535Q368 535 405 522T465 485T496 426T506 349Q506 298 502 248T498 142Q498 104 503 68T519 -1H405L382 77H370Q344 42 304 17T201 -8Q163 -8 132 3T78 34T43
83T30 144Q30 233 89 278T270 324Q298 324 326 320T365 313Q368 334 368 349Q368 387 349 405T278 423Q230 423 185 412T104 383L67 489ZM250 104Q297 104 325 126T366 172V232Q361 234 351 236T328 240T303 243T280 244Q226 244 200 225T174 176Q174 140 194 122T250
104ZM81 894Q81 929 102 950T158 971Q192 971 212 950T233 894Q233 864 213 843T158 822Q124 822 103 843T81 894ZM334 894Q334 929 354 950T409 971Q444 971 464 950T485 894Q485 864 465 843T409 822Q375 822 355 843T334 894Z" />
<glyph unicode="&#x4d4;" glyph-name="uni04D4" horiz-adv-x="935" d="M427 530L388 424L301 285H434V530H427ZM434 165H232L126 0H-32L429 700H885V570H582V418H858V288H582V130H890V0H434V165Z" />
<glyph unicode="&#x4d5;" glyph-name="uni04D5" horiz-adv-x="915" d="M250 104Q297 104 324 125T366 169V232Q355 235 339 239T288 243Q231 243 203 223T174 167Q174 137 195 121T250 104ZM406 83Q376 45 327 19T201 -8Q163 -8 132 3T78 34T43 83T30 144Q30 233
92 278T268 323Q300 323 328 319T365 313Q367 327 367 334T368 348Q368 380 349 401T277 422Q231 422 185 412T104 385L67 483Q111 505 173 520T304 535Q363 535 398 521T460 477Q489 507 535 523T635 540Q677 540 718 530T790 495T841 429T861 325Q861 304 859
280T851 228H500Q505 162 540 129T653 95Q699 95 737 108T796 136L842 47Q825 34 802 23T750 3T690 -10T625 -15Q554 -15 497 7T411 83H406ZM633 429Q570 429 541 396T506 311H731Q736 368 712 398T633 429Z" />
<glyph unicode="&#x4d6;" glyph-name="uni04D6" horiz-adv-x="566" d="M65 700H516V570H213V418H488V288H213V130H521V0H65V700ZM215 875Q220 844 241 831T296 818Q368 818 377 874L498 857Q486 792 435 764T295 735Q251 735 214 740T149 760T104 796T81 854L215 875Z" />
<glyph unicode="&#x4d7;" glyph-name="uni04D7" horiz-adv-x="594" d="M521 48Q487 22 429 4T303 -15Q168 -15 105 59T42 262Q42 399 113 469T313 540Q355 540 396 530T469 495T520 429T540 326Q540 305 538 280T529 228H179Q184 160 218 128T331 95Q378 95 415
108T473 136L521 48ZM311 430Q249 430 219 397T184 311H410Q414 366 390 398T311 430ZM225 712Q233 670 253 655T305 640Q338 640 357 655T385 711L489 684Q476 618 424 585T300 552Q265 552 234 559T176 582T132 623T106 684L225 712Z" />
<glyph unicode="&#x4d8;" glyph-name="uni04D8" horiz-adv-x="683" d="M199 291Q196 274 196 257Q196 229 204 202T229 154T273 121T335 108Q411 108 453 154T495 291H199ZM495 413Q488 493 440 538T296 584Q238 584 195 568T127 537L98 663Q113 672 137 681T191
697T254 709T321 714Q395 714 454 694T556 629T620 515T643 350Q643 266 625 199T568 84T470 11T328 -14Q254 -14 200 8T110 70T57 168T39 294Q39 322 42 351T50 413H495Z" />
<glyph unicode="&#x4d9;" glyph-name="afii10846" horiz-adv-x="594" d="M72 478Q106 503 164 521T288 540Q357 540 406 520T488 462T536 374T552 262Q552 198 534 147T481 59T399 4T290 -15Q245 -15 203 -4T127 35T74 105T54 212Q54 233 56 256T64 307H416Q408
373 374 401T261 430Q215 430 179 415T122 386L72 478ZM288 95Q318 95 341 105T379 133T403 174T412 223H182Q177 165 205 130T288 95Z" />
<glyph unicode="&#x4da;" glyph-name="uni04DA" horiz-adv-x="683" d="M199 291Q196 274 196 257Q196 229 204 202T229 154T273 121T335 108Q411 108 453 154T495 291H199ZM495 413Q488 493 440 538T296 584Q238 584 195 568T127 537L98 663Q113 672 137 681T191
697T254 709T321 714Q395 714 454 694T556 629T620 515T643 350Q643 266 625 199T568 84T470 11T328 -14Q254 -14 200 8T110 70T57 168T39 294Q39 322 42 351T50 413H495ZM140 798Q140 825 159 841T223 858Q265 858 284 842T304 798Q304 772 285 757T223 741Q179
741 160 756T140 798ZM373 798Q373 825 392 841T454 858Q498 858 517 842T537 798Q537 772 518 757T454 741Q412 741 393 756T373 798Z" />
<glyph unicode="&#x4db;" glyph-name="uni04DB" horiz-adv-x="594" d="M72 478Q106 503 164 521T288 540Q357 540 406 520T488 462T536 374T552 262Q552 198 534 147T481 59T399 4T290 -15Q245 -15 203 -4T127 35T74 105T54 212Q54 233 56 256T64 307H416Q408
373 374 401T261 430Q215 430 179 415T122 386L72 478ZM288 95Q318 95 341 105T379 133T403 174T412 223H182Q177 165 205 130T288 95ZM90 894Q90 929 111 950T167 971Q201 971 221 950T242 894Q242 864 222 843T167 822Q133 822 112 843T90 894ZM343 894Q343 929
363 950T418 971Q453 971 473 950T494 894Q494 864 474 843T418 822Q384 822 364 843T343 894Z" />
<glyph unicode="&#x4dc;" glyph-name="uni04DC" horiz-adv-x="910" d="M380 700H520V391L559 405L717 700H885L707 393L655 358L718 315L918 0H739L563 301H520V0H380V313L342 299L166 0H-8L191 305L250 345L193 383L7 700H180L337 403H380V700ZM255 798Q255 825
274 841T338 858Q380 858 399 842T419 798Q419 772 400 757T338 741Q294 741 275 756T255 798ZM488 798Q488 825 507 841T569 858Q613 858 632 842T652 798Q652 772 633 757T569 741Q527 741 508 756T488 798Z" />
<glyph unicode="&#x4dd;" glyph-name="uni04DD" horiz-adv-x="810" d="M282 214L165 0H6L154 238H153L195 272L134 315L16 525H169L276 312H334V525H466V298L518 316Q544 369 572 420T626 525H777Q745 471 715 420T653 315H654L607 278L668 234H667L804 0H642L524
218H466V0H334V231L282 214ZM200 638Q200 673 221 694T277 715Q311 715 331 694T352 638Q352 608 332 587T277 566Q243 566 222 587T200 638ZM453 638Q453 673 473 694T528 715Q563 715 583 694T604 638Q604 608 584 587T528 566Q494 566 474 587T453 638Z" />
<glyph unicode="&#x4de;" glyph-name="uni04DE" horiz-adv-x="570" d="M128 307V420H154Q164 420 178 420T208 420T238 422T262 426Q300 433 325 451T351 505Q351 550 319 566T232 582Q208 582 185 579T141 569T103 557T75 544L38 670Q49 675 70 682T121 696T184
707T253 712Q301 712 346 704T428 676T486 622T508 536Q508 485 478 441T382 377V371Q452 360 491 316T531 200Q531 144 506 104T441 37T348 -1T240 -14Q204 -14 171 -11T108 -2T56 10T18 25L56 153Q81 142 128 129T242 116Q265 116 288 121T331 137T362 167T374
212Q374 235 366 252T337 280T282 298T196 306Q183 306 177 306T154 307H128ZM61 798Q61 825 80 841T144 858Q186 858 205 842T225 798Q225 772 206 757T144 741Q100 741 81 756T61 798ZM294 798Q294 825 313 841T375 858Q419 858 438 842T458 798Q458 772 439
757T375 741Q333 741 314 756T294 798Z" />
<glyph unicode="&#x4df;" glyph-name="uni04DF" horiz-adv-x="486" d="M125 218V312H190Q235 312 261 326T287 366Q287 395 264 406T192 418Q149 418 114 408T55 386Q47 413 42 437T28 489Q61 509 117 522T236 535Q333 535 380 502T428 405Q428 387 423 369T406
335T378 305T338 283V275Q400 262 425 231T450 146Q450 113 436 85T391 34T316 0T208 -13Q148 -13 101 0T24 29Q31 56 39 83T55 137Q82 123 120 114T204 104Q310 104 310 165Q310 179 304 189T282 205T242 215T177 218H125ZM277 894Q277 929 298 950T354 971Q388
971 408 950T429 894Q429 864 409 843T354 822Q320 822 299 843T277 894ZM530 894Q530 929 550 950T605 971Q640 971 660 950T681 894Q681 864 661 843T605 822Q571 822 551 843T530 894Z" />
<glyph unicode="&#x4e0;" glyph-name="uni04E0" horiz-adv-x="594" d="M242 116Q273 116 300 122T348 141T381 173T393 219Q393 274 347 295T208 316H119V380L285 541L334 584L270 572H49V700H517V618L335 439L286 408V403L336 413Q433 412 491 364T550 218Q550
165 529 122T468 49T373 3T250 -14Q226 -14 197 -12T138 -4T81 8T35 27L71 155Q86 147 106 140T150 128T197 119T242 116Z" />
<glyph unicode="&#x4e1;" glyph-name="uni04E1" horiz-adv-x="549" d="M220 -109Q289 -109 333 -80T377 4Q377 121 187 121H118V178L249 357H248L318 417L224 408H33V525H481V449L320 260H321L271 225L315 226Q353 227 389 213T454 172T500 107T517 22Q517 -36
495 -82T432 -160T335 -209T209 -226Q160 -226 108 -215T12 -178L64 -70Q95 -86 132 -97T220 -109Z" />
<glyph unicode="&#x4e2;" glyph-name="uni04E2" horiz-adv-x="723" d="M510 386L518 475H513L462 385L175 0H65V700H213V323L203 230H209L263 323L547 700H658V0H510V386ZM180 838H553V746H180V838Z" />
<glyph unicode="&#x4e3;" glyph-name="uni04E3" horiz-adv-x="632" d="M420 237L426 326L363 238L156 0H72V525H212V278L207 206H219Q231 223 243 242T268 278L476 525H560V0H420V237ZM131 679H482V584H131V679Z" />
<glyph unicode="&#x4e4;" glyph-name="uni04E4" horiz-adv-x="723" d="M510 386L518 475H513L462 385L175 0H65V700H213V323L203 230H209L263 323L547 700H658V0H510V386ZM162 798Q162 825 181 841T245 858Q287 858 306 842T326 798Q326 772 307 757T245 741Q201
741 182 756T162 798ZM395 798Q395 825 414 841T476 858Q520 858 539 842T559 798Q559 772 540 757T476 741Q434 741 415 756T395 798Z" />
<glyph unicode="&#x4e5;" glyph-name="uni04E5" horiz-adv-x="632" d="M420 237L426 326L363 238L156 0H72V525H212V278L207 206H219Q231 223 243 242T268 278L476 525H560V0H420V237ZM117 894Q117 929 138 950T194 971Q228 971 248 950T269 894Q269 864 249 843T194
822Q160 822 139 843T117 894ZM370 894Q370 929 390 950T445 971Q480 971 500 950T521 894Q521 864 501 843T445 822Q411 822 391 843T370 894Z" />
<glyph unicode="&#x4e6;" glyph-name="uni04E6" horiz-adv-x="727" d="M40 350Q40 436 62 504T125 618T227 689T363 714Q444 714 504 688T605 613T666 498T687 350Q687 264 665 196T600 82T498 11T363 -14Q282 -14 222 12T121 87T60 202T40 350ZM197 350Q197 298
207 255T237 181T288 133T363 116Q442 116 486 170T530 350Q530 400 521 443T492 517T440 566T363 584Q285 584 241 528T197 350ZM164 798Q164 825 183 841T247 858Q289 858 308 842T328 798Q328 772 309 757T247 741Q203 741 184 756T164 798ZM397 798Q397 825
416 841T478 858Q522 858 541 842T561 798Q561 772 542 757T478 741Q436 741 417 756T397 798Z" />
<glyph unicode="&#x4e7;" glyph-name="uni04E7" horiz-adv-x="616" d="M42 262Q42 392 111 466T308 540Q375 540 425 519T508 461T557 373T574 262Q574 198 556 147T504 59T421 4T308 -15Q240 -15 190 6T107 64T58 152T42 262ZM186 262Q186 229 193 200T214 150T252
115T308 102Q430 102 430 262Q430 297 424 326T403 377T365 411T308 423Q251 423 219 385T186 262ZM103 894Q103 929 124 950T180 971Q214 971 234 950T255 894Q255 864 235 843T180 822Q146 822 125 843T103 894ZM356 894Q356 929 376 950T431 971Q466 971 486
950T507 894Q507 864 487 843T431 822Q397 822 377 843T356 894Z" />
<glyph unicode="&#x4e8;" glyph-name="uni04E8" horiz-adv-x="727" d="M40 350Q40 436 62 504T125 618T227 689T363 714Q444 714 504 688T605 613T666 498T687 350Q687 264 665 196T600 82T498 11T363 -14Q282 -14 222 12T121 87T60 202T40 350ZM363 116Q432 116
474 157T527 293H200Q210 212 249 164T363 116ZM363 584Q295 584 253 543T200 410H526Q521 449 509 481T478 536T430 571T363 584Z" />
<glyph unicode="&#x4e9;" glyph-name="uni04E9" horiz-adv-x="616" d="M42 262Q42 395 111 467T308 540Q375 540 425 520T508 463T557 375T574 262Q574 131 505 58T308 -15Q240 -15 190 5T107 62T58 150T42 262ZM430 304Q412 423 308 423Q263 423 228 396T186
304H430ZM186 219Q193 164 226 133T308 102Q355 102 388 128T430 219H186Z" />
<glyph unicode="&#x4ea;" glyph-name="uni04EA" horiz-adv-x="727" d="M40 350Q40 436 62 504T125 618T227 689T363 714Q444 714 504 688T605 613T666 498T687 350Q687 264 665 196T600 82T498 11T363 -14Q282 -14 222 12T121 87T60 202T40 350ZM363 116Q432 116
474 157T527 293H200Q210 212 249 164T363 116ZM363 584Q295 584 253 543T200 410H526Q521 449 509 481T478 536T430 571T363 584ZM166 798Q166 825 185 841T249 858Q291 858 310 842T330 798Q330 772 311 757T249 741Q205 741 186 756T166 798ZM399 798Q399 825
418 841T480 858Q524 858 543 842T563 798Q563 772 544 757T480 741Q438 741 419 756T399 798Z" />
<glyph unicode="&#x4eb;" glyph-name="uni04EB" horiz-adv-x="616" d="M42 262Q42 395 111 467T308 540Q375 540 425 520T508 463T557 375T574 262Q574 131 505 58T308 -15Q240 -15 190 5T107 62T58 150T42 262ZM430 304Q412 423 308 423Q263 423 228 396T186
304H430ZM186 219Q193 164 226 133T308 102Q355 102 388 128T430 219H186ZM107 894Q107 929 128 950T184 971Q218 971 238 950T259 894Q259 864 239 843T184 822Q150 822 129 843T107 894ZM360 894Q360 929 380 950T435 971Q470 971 490 950T511 894Q511 864 491
843T435 822Q401 822 381 843T360 894Z" />
<glyph unicode="&#x4ec;" glyph-name="uni04EC" horiz-adv-x="621" d="M140 414H432Q429 450 415 481T375 535T314 571T231 584Q170 584 126 572T57 545L25 670Q43 679 67 687T119 701T176 710T233 714Q308 714 371 695T481 633T554 521T581 350Q581 245 550 175T467
63T349 4T212 -14Q150 -14 100 -4T20 20L59 147Q84 135 126 126T225 116Q267 116 303 126T366 159T411 215T433 297H140V414ZM305 798Q305 825 324 841T388 858Q430 858 449 842T469 798Q469 772 450 757T388 741Q344 741 325 756T305 798ZM538 798Q538 825 557
841T619 858Q663 858 682 842T702 798Q702 772 683 757T619 741Q577 741 558 756T538 798Z" />
<glyph unicode="&#x4ed;" glyph-name="uni04ED" horiz-adv-x="527" d="M129 315H344Q337 367 305 395T206 423Q163 423 130 413T71 391L33 491Q106 540 234 540Q361 540 423 470T485 262Q485 124 415 55T224 -15Q171 -15 117 -5T30 25L64 133Q91 119 126 111T198
102Q237 102 264 109T308 130T334 166T345 218H129V315ZM288 894Q288 929 309 950T365 971Q399 971 419 950T440 894Q440 864 420 843T365 822Q331 822 310 843T288 894ZM541 894Q541 929 561 950T616 971Q651 971 671 950T692 894Q692 864 672 843T616 822Q582
822 562 843T541 894Z" />
<glyph unicode="&#x4ee;" glyph-name="uni04EE" horiz-adv-x="616" d="M318 395L340 306H347L364 399L478 700H633L430 213Q407 157 384 116T335 48T277 7T203 -7Q167 -7 146 -3T99 17L136 136Q155 127 170 125T203 123Q255 123 275 193L-10 700H164L318 395ZM136
838H509V746H136V838Z" />
<glyph unicode="&#x4ef;" glyph-name="uni04EF" horiz-adv-x="541" d="M264 234L286 150H296L315 234L404 525H547L373 50Q351 -9 332 -56T289 -136T238 -186T170 -204Q144 -204 121 -200T80 -186L109 -78Q124 -83 140 -83Q154 -83 167 -80T191 -69T211 -45T228
-3L-12 525H157L264 234ZM91 679H442V584H91V679Z" />
<glyph unicode="&#x4f0;" glyph-name="uni04F0" horiz-adv-x="616" d="M318 395L340 306H347L364 399L478 700H633L430 213Q407 157 384 116T335 48T277 7T203 -7Q167 -7 146 -3T99 17L136 136Q155 127 170 125T203 123Q255 123 275 193L-10 700H164L318 395ZM133
798Q133 825 152 841T216 858Q258 858 277 842T297 798Q297 772 278 757T216 741Q172 741 153 756T133 798ZM366 798Q366 825 385 841T447 858Q491 858 510 842T530 798Q530 772 511 757T447 741Q405 741 386 756T366 798Z" />
<glyph unicode="&#x4f1;" glyph-name="uni04F1" horiz-adv-x="541" d="M264 234L286 150H296L315 234L404 525H547L373 50Q351 -9 332 -56T289 -136T238 -186T170 -204Q144 -204 121 -200T80 -186L109 -78Q124 -83 140 -83Q154 -83 167 -80T191 -69T211 -45T228
-3L-12 525H157L264 234ZM71 894Q71 929 92 950T148 971Q182 971 202 950T223 894Q223 864 203 843T148 822Q114 822 93 843T71 894ZM324 894Q324 929 344 950T399 971Q434 971 454 950T475 894Q475 864 455 843T399 822Q365 822 345 843T324 894Z" />
<glyph unicode="&#x4f2;" glyph-name="uni04F2" horiz-adv-x="616" d="M318 395L340 306H347L364 399L478 700H633L430 213Q407 157 384 116T335 48T277 7T203 -7Q167 -7 146 -3T99 17L136 136Q155 127 170 125T203 123Q255 123 275 193L-10 700H164L318 395ZM219
850H364V834L255 741H154L219 850ZM434 850H585V834L430 741H328L434 850Z" />
<glyph unicode="&#x4f3;" glyph-name="uni04F3" horiz-adv-x="541" d="M264 234L286 150H296L315 234L404 525H547L373 50Q351 -9 332 -56T289 -136T238 -186T170 -204Q144 -204 121 -200T80 -186L109 -78Q124 -83 140 -83Q154 -83 167 -80T191 -69T211 -45T228
-3L-12 525H157L264 234ZM181 705H308V691L223 574H142L181 705ZM385 705H522V691L388 574H304L385 705Z" />
<glyph unicode="&#x4f4;" glyph-name="uni04F4" horiz-adv-x="657" d="M196 700V484Q196 426 222 395T307 364Q349 364 386 372T444 398V700H592V0H444V280Q417 265 369 253T254 240Q208 240 170 251T105 287T63 348T48 436V700H196ZM130 798Q130 825 149 841T213
858Q255 858 274 842T294 798Q294 772 275 757T213 741Q169 741 150 756T130 798ZM363 798Q363 825 382 841T444 858Q488 858 507 842T527 798Q527 772 508 757T444 741Q402 741 383 756T363 798Z" />
<glyph unicode="&#x4f5;" glyph-name="uni04F5" horiz-adv-x="582" d="M182 525V422Q182 384 185 358T198 314T224 290T268 282Q301 282 327 290T370 311V525H510V0H370V214Q359 207 345 199T312 183T269 170T216 165Q175 165 143 173T88 203T54 260T42 350V525H182ZM71
894Q71 929 92 950T148 971Q182 971 202 950T223 894Q223 864 203 843T148 822Q114 822 93 843T71 894ZM324 894Q324 929 344 950T399 971Q434 971 454 950T475 894Q475 864 455 843T399 822Q365 822 345 843T324 894Z" />
<glyph unicode="&#x4f6;" glyph-name="uni04F6" horiz-adv-x="498" d="M507 570H213V130H307V-124H202L186 0H65V700H507V570Z" />
<glyph unicode="&#x4f7;" glyph-name="uni04F7" horiz-adv-x="438" d="M72 525H438V401H220V124H301V-112H198L182 0H72V525Z" />
<glyph unicode="&#x4f8;" glyph-name="uni04F8" horiz-adv-x="865" d="M652 700H800V0H652V700ZM65 700H213V451Q224 453 249 456T301 459Q355 459 404 449T491 413T551 343T573 233Q573 112 495 51T267 -10Q252 -10 228 -10T176 -7T119 -2T65 7V700ZM277 120Q338
120 377 145T416 228Q416 259 405 278T376 309T332 325T278 329Q271 329 262 328T243 326T225 324T213 321V125Q238 120 277 120ZM233 798Q233 825 252 841T316 858Q358 858 377 842T397 798Q397 772 378 757T316 741Q272 741 253 756T233 798ZM466 798Q466 825
485 841T547 858Q591 858 610 842T630 798Q630 772 611 757T547 741Q505 741 486 756T466 798Z" />
<glyph unicode="&#x4f9;" glyph-name="uni04F9" horiz-adv-x="815" d="M212 117Q231 113 249 112T284 110Q338 110 361 127T384 182Q384 214 361 231T288 249Q246 249 212 240V117ZM212 337Q243 342 273 344T325 346Q382 346 420 334T483 299T517 247T528 183Q528
136 515 101T471 41T392 5T273 -7Q207 -7 160 -6T72 -1V525H212V337ZM603 525H743V0H603V525ZM196 638Q196 673 217 694T273 715Q307 715 327 694T348 638Q348 608 328 587T273 566Q239 566 218 587T196 638ZM449 638Q449 673 469 694T524 715Q559 715 579 694T600
638Q600 608 580 587T524 566Q490 566 470 587T449 638Z" />
<glyph unicode="&#x4fc;" glyph-name="uni04FC" horiz-adv-x="686" d="M490 -18Q490 14 474 45T442 99L365 213L334 285L305 213L171 0H10L244 356L32 700H211L328 501L355 432L381 501L503 700H664L444 363L587 151Q614 112 628 69T643 -18Q643 -109 600 -158T469
-207Q452 -207 435 -205T397 -199V-83Q425 -85 443 -81T472 -67T486 -46T490 -18Z" />
<glyph unicode="&#x4fd;" glyph-name="uni04FD" horiz-adv-x="580" d="M497 131Q520 99 538 62T556 -14Q556 -107 514 -157T383 -208Q367 -208 350 -207T312 -201V-91Q343 -93 363 -89T395 -76T411 -52T416 -19Q416 7 402 27T372 69L332 123V122L287 207L245 122L246
123L159 0H6L192 269L20 525H188L261 417L260 418L298 336L339 418V417L415 525H568L396 273L497 131Z" />
<glyph unicode="&#x510;" glyph-name="uni0510" horiz-adv-x="566" d="M420 306H378Q328 304 294 297T239 278T209 249T200 211Q200 186 211 168T241 139T285 122T337 116Q394 116 440 129T511 155L551 39Q536 30 513 21T460 4T398 -9T329 -14Q264 -14 212 -2T122
35T64 100T43 195Q43 267 81 312T190 370V376Q128 397 97 441T66 536Q66 584 87 617T145 672T229 702T328 712Q360 712 392 708T452 696T501 681T535 667L498 549Q470 561 428 571T346 582Q286 582 255 565T223 509Q223 490 231 476T252 452T283 435T320 424Q329
422 342 421T369 420T396 420T419 420H446V306H420Z" />
<glyph unicode="&#x511;" glyph-name="uni0511" horiz-adv-x="491" d="M314 217Q275 217 250 214T209 205T188 189T182 165Q182 137 208 121T288 104Q334 104 372 114T438 140L467 34Q438 17 392 2T283 -13Q221 -13 176 -1T101 32T57 83T42 146Q42 199 68 229T152
275V283Q106 299 85 332T63 400Q63 467 114 501T255 535Q321 535 374 521T463 488Q455 461 450 436T436 385Q415 396 380 407T299 418Q249 418 227 407T204 367Q204 342 230 327T300 312H365V217H314Z" />
<glyph unicode="&#x512;" glyph-name="uni0512" horiz-adv-x="676" d="M611 -15Q611 -105 573 -156T450 -208Q433 -208 416 -206T378 -200V-84Q407 -87 424 -83T449 -69T460 -41T463 0V570H300Q295 475 290 399T276 261T251 152T211 69Q195 46 176 31T135 8T94
-4T57 -8Q31 -8 17 -4T-15 8L1 133Q16 128 31 128Q46 128 61 135T90 162Q106 183 118 224T140 331T154 487T162 700H611V-15Z" />
<glyph unicode="&#x513;" glyph-name="uni0513" horiz-adv-x="599" d="M527 525V-15Q527 -109 489 -158T365 -208Q349 -208 332 -207T294 -201V-84Q323 -87 341 -82T369 -66T383 -39T387 0V401H264Q261 317 252 243T221 114T166 26T77 -6Q14 -6 -12 8L8 132Q25
127 39 127Q63 127 81 144T111 205T130 327T142 525H527Z" />
<glyph unicode="&#x51c;" glyph-name="uni051C" horiz-adv-x="938" d="M263 315L277 191H281L297 317L430 700H526L657 315L673 191H678L693 317L786 700H938L728 -5H628L492 376L474 484H467L449 375L314 -5H209L0 700H162L263 315Z" />
<glyph unicode="&#x51d;" glyph-name="uni051D" horiz-adv-x="825" d="M477 525Q504 459 530 392T583 259L603 171H618L633 260Q651 327 670 392T707 525H835L656 -5H555Q528 64 497 139T439 284L425 352H407Q404 335 400 318T393 283L284 -5H178L-6 525H146L230
266L244 169H259L279 267L374 525H477Z" />
<glyph unicode="&#x524;" glyph-name="uni0524" horiz-adv-x="741" d="M481 570H213V0H65V700H629V130H722V-124H617L601 0H481V570Z" />
<glyph unicode="&#x525;" glyph-name="uni0525" horiz-adv-x="634" d="M405 401H212V0H72V525H545V124H614V-112H511L495 0H405V401Z" />
<glyph unicode="&#x526;" glyph-name="uni0526" horiz-adv-x="717" d="M460 218Q460 277 434 306T349 336Q307 336 271 328T213 302V0H65V700H213V419Q241 435 288 447T401 460Q446 460 483 449T549 415T592 355T608 267V130H703V-124H598L582 0H460V218Z" />
<glyph unicode="&#x527;" glyph-name="uni0527" horiz-adv-x="652" d="M426 289Q426 357 406 386T330 416Q290 416 257 391T212 323V0H72V700H212V461H224Q251 496 291 518T394 540Q437 540 469 530T522 494T555 426T566 320V124H638V-112H535L519 0H426V289Z" />
<glyph unicode="&#x1e30;" glyph-name="uni1E30" horiz-adv-x="671" d="M252 296H213V0H65V700H213V392L248 407L458 700H627L405 407L347 369L407 329L661 0H478L252 296ZM335 870H507V839L333 752H221L335 870Z" />
<glyph unicode="&#x1e31;" glyph-name="uni1E31" horiz-adv-x="564" d="M260 218H212V0H72V700H212V298L256 317L387 525H541L407 334H408L344 288L411 244H410L564 0H402L260 218ZM339 720H481V691L355 562H279L339 720Z" />
<glyph unicode="&#x1e3e;" glyph-name="uni1E3E" horiz-adv-x="868" d="M655 351L671 496H665L617 386L455 125H409L237 387L190 495H184L205 352V0H65V700H199L401 377L439 300H444L477 379L670 700H803V0H655V351ZM457 870H629V839L455 752H343L457 870Z" />
<glyph unicode="&#x1e3f;" glyph-name="uni1E3F" horiz-adv-x="940" d="M400 0V274Q400 350 384 383T318 416Q276 416 251 396T212 342V0H72V525H180L196 452H209Q222 469 239 485T276 513T322 532T380 540Q433 540 468 517T525 438Q554 486 595 513T692 540Q740
540 773 529T828 491T858 418T868 303V0H728V281Q728 314 725 339T713 381T688 407T644 416Q602 416 577 395T540 335V0H400ZM474 720H616V691L490 562H414L474 720Z" />
<glyph unicode="&#x1e54;" glyph-name="uni1E54" horiz-adv-x="620" d="M65 693Q110 701 165 705T275 710Q331 710 388 702T490 668T565 597T594 476Q594 410 569 364T503 288T408 246T299 232Q294 232 282 232T257 232T231 234T213 236V0H65V693ZM285 580Q264
580 245 579T213 575V367Q217 366 226 365T245 364T263 363T277 362Q306 362 335 366T386 383T423 418T437 479Q437 511 424 530T390 561T341 576T285 580ZM317 870H489V839L315 752H203L317 870Z" />
<glyph unicode="&#x1e55;" glyph-name="uni1E55" horiz-adv-x="623" d="M72 525H172L189 460H201Q232 500 273 520T369 540Q475 540 528 477T581 275Q581 209 564 156T514 64T433 5T321 -16Q287 -16 262 -10T212 8V-199H72V525ZM326 423Q278 423 252 402T212 335V131Q229
117 250 109T303 101Q371 101 404 143T437 279Q437 346 412 384T326 423ZM320 720H462V691L336 562H260L320 720Z" />
<glyph unicode="&#x1e9e;" glyph-name="uni1E9E" horiz-adv-x="750" d="M454 562Q434 578 402 588T328 598Q290 598 268 585T233 549T217 492T213 419V0H65V469Q65 527 79 572T124 649T206 697T329 713Q386 713 430 705T510 683T576 651T635 611L489 437L451 409V404L490
413Q590 405 647 359T705 218Q705 110 632 48T421 -14Q406 -14 385 -12T341 -6T298 3T268 13L299 136Q310 131 325 128T356 122T387 118T414 116Q478 116 513 142T548 218Q548 270 503 293T364 316H287V378L454 562Z" />
<glyph unicode="&#x2013;" glyph-name="endash" horiz-adv-x="718" d="M119 351H599V225H119V351Z" />
<glyph unicode="&#x2014;" glyph-name="emdash" horiz-adv-x="891" d="M118 351H773V225H118V351Z" />
<glyph unicode="&#x2018;" glyph-name="quoteleft" horiz-adv-x="243" d="M202 618Q202 588 181 570T127 552Q88 552 65 576T42 640Q42 682 55 710T88 757T128 786T164 801L197 744Q175 736 161 720T144 683Q165 684 183 666T202 618Z" />
<glyph unicode="&#x2019;" glyph-name="quoteright" horiz-adv-x="244" d="M42 642Q42 672 63 690T116 709Q156 709 179 684T202 620Q202 578 189 550T156 502T116 473T80 458L45 517Q67 525 83 539T101 577Q80 575 61 592T42 642Z" />
<glyph unicode="&#x201a;" glyph-name="quotesinglbase" horiz-adv-x="244" d="M42 62Q42 92 63 110T116 129Q156 129 179 104T202 40Q202 -2 189 -30T156 -78T116 -107T80 -122L45 -63Q67 -55 83 -41T101 -3Q80 -5 61 12T42 62Z" />
<glyph unicode="&#x201c;" glyph-name="quotedblleft" horiz-adv-x="429" d="M388 618Q388 588 367 570T313 552Q274 552 251 576T228 640Q228 682 241 710T274 757T314 786T350 801L383 744Q361 736 347 720T330 683Q351 684 369 666T388 618ZM202 618Q202 588
181 570T127 552Q88 552 65 576T42 640Q42 682 55 710T88 757T128 786T164 801L197 744Q175 736 161 720T144 683Q165 684 183 666T202 618Z" />
<glyph unicode="&#x201d;" glyph-name="quotedblright" horiz-adv-x="430" d="M228 641Q228 671 249 689T302 708Q342 708 365 683T388 619Q388 577 375 549T342 501T302 472T266 457L231 516Q253 524 269 538T287 576Q266 574 247 591T228 641ZM42 641Q42 671
63 689T116 708Q156 708 179 683T202 619Q202 577 189 549T156 501T116 472T80 457L45 516Q67 524 83 538T101 576Q80 574 61 591T42 641Z" />
<glyph unicode="&#x201e;" glyph-name="quotedblbase" horiz-adv-x="430" d="M228 62Q228 92 249 110T302 129Q342 129 365 104T388 40Q388 -2 375 -30T342 -78T302 -107T266 -122L231 -63Q253 -55 269 -41T287 -3Q266 -5 247 12T228 62ZM42 62Q42 92 63 110T116
129Q156 129 179 104T202 40Q202 -2 189 -30T156 -78T116 -107T80 -122L45 -63Q67 -55 83 -41T101 -3Q80 -5 61 12T42 62Z" />
<glyph unicode="&#x2020;" glyph-name="dagger" horiz-adv-x="554" d="M44 516H170L226 500L209 554V700H344V554L327 500L383 516H510V396H380L327 412L344 362V0L326 -200H227L209 1V362L226 412L170 396H44V516Z" />
<glyph unicode="&#x2021;" glyph-name="daggerdbl" horiz-adv-x="554" d="M209 366L226 412L170 396H44V516H170L226 500L209 551V700H344V551L327 500L383 516H510V396H380L327 412L344 366V290L327 244L380 260H510V140H383L327 156L344 105V0L325 -200H228L209
1V105L226 156L170 140H44V260H170L226 244L209 290V366Z" />
<glyph unicode="&#x2022;" glyph-name="bullet" horiz-adv-x="492" d="M80 311Q80 345 93 373T129 422T182 454T245 466Q279 466 309 456T362 425T398 376T412 311Q412 275 399 247T363 199T310 169T245 158Q212 158 182 168T130 199T94 247T80 311Z" />
<glyph unicode="&#x2026;" glyph-name="ellipsis" horiz-adv-x="858" d="M629 68Q629 105 653 126T716 147Q756 147 780 126T804 68Q804 33 780 11T716 -11Q677 -11 653 11T629 68ZM342 68Q342 105 366 126T429 147Q469 147 493 126T517 68Q517 33 493 11T429
-11Q390 -11 366 11T342 68ZM56 68Q56 105 80 126T143 147Q183 147 207 126T231 68Q231 33 207 11T143 -11Q104 -11 80 11T56 68Z" />
<glyph unicode="&#x2030;" glyph-name="perthousand" horiz-adv-x="1330" d="M53 542Q53 587 67 619T106 671T166 702T243 712Q284 712 319 703T379 674T419 621T433 542Q433 495 419 463T380 411T319 381T243 372Q201 372 167 381T107 410T67 463T53 542ZM180
542Q180 503 194 481T243 459Q277 459 291 478T305 542Q305 587 291 606T243 625Q209 625 195 606T180 542ZM486 170Q486 215 500 247T539 299T599 330T676 340Q717 340 752 331T812 302T852 249T866 170Q866 123 852 91T813 39T752 9T676 0Q634 0 600 9T540 38T500
91T486 170ZM613 170Q613 131 627 109T676 87Q710 87 724 106T738 170Q738 215 724 234T676 253Q642 253 628 234T613 170ZM907 170Q907 215 921 247T960 299T1020 330T1097 340Q1138 340 1173 331T1233 302T1273 249T1287 170Q1287 123 1273 91T1234 39T1173 9T1097
0Q1055 0 1021 9T961 38T921 91T907 170ZM1034 170Q1034 131 1048 109T1097 87Q1131 87 1145 106T1159 170Q1159 215 1145 234T1097 253Q1063 253 1049 234T1034 170ZM732 718L811 641L186 -14L110 63L732 718Z" />
<glyph unicode="&#x2039;" glyph-name="guilsinglleft" horiz-adv-x="333" d="M32 259L206 489L285 418L198 301L146 260L198 224L293 110L212 38L32 259Z" />
<glyph unicode="&#x203a;" glyph-name="guilsinglright" horiz-adv-x="333" d="M302 268L128 38L47 108L136 226L188 267L136 303L40 418L121 489L302 268Z" />
<glyph unicode="&#x2044;" glyph-name="fraction" horiz-adv-x="199" d="M289 715L380 658L-88 -14L-178 47L289 715Z" />
<glyph unicode="&#x2081;" glyph-name="uni2081" horiz-adv-x="462" d="M85 8H192V158L202 206L169 173L107 132L52 215L223 327H316V8H412V-100H85V8Z" />
<glyph unicode="&#x2082;" glyph-name="uni2082" horiz-adv-x="462" d="M386 197Q386 168 378 144T355 100T322 62T280 26L228 2V-3L292 9H403V-100H64V-22Q92 -5 126 18T190 67T240 120T260 172Q260 198 245 207T199 217Q170 217 144 208T98 187L60 285Q98 306
141 316T224 327Q301 327 343 294T386 197Z" />
<glyph unicode="&#x2083;" glyph-name="uni2083" horiz-adv-x="462" d="M191 -6Q240 -6 259 6T279 41Q279 62 259 74T182 87H139V127L216 201L263 225L200 219H75V320H383V253L289 167L252 149V144L284 147Q341 145 373 116T405 32Q405 -4 390 -30T347 -74T285
-99T209 -107Q167 -107 131 -100T69 -82L94 13Q139 -6 191 -6Z" />
<glyph unicode="&#x2084;" glyph-name="uni2084" horiz-adv-x="462" d="M443 -25H360V-100H252V-25H26V47L264 328H360V69H443V-25ZM252 150L257 204H252L229 156L178 93L139 60L197 69H252V150Z" />
<glyph unicode="&#x20ac;" glyph-name="Euro" horiz-adv-x="651" d="M53 479H122Q138 542 169 586T241 659T332 701T433 714Q491 714 535 706T609 686L570 576Q547 586 515 591T441 597Q378 597 331 568T260 479H539L511 382H239Q238 374 238 366T238 350V323H489L461
226H257Q280 167 327 135T452 103Q499 103 531 113T590 139L619 31Q602 19 580 11T533 -3T481 -11T431 -14Q372 -14 322 0T231 44T162 119T119 226H19L53 323H107V350Q107 358 107 366T108 382H19L53 479Z" />
<glyph unicode="&#x20b4;" glyph-name="uni20B4" horiz-adv-x="651" d="M556 324V227H282Q266 212 257 191T247 150Q247 124 271 111T353 97Q410 97 445 107T504 130L535 24Q508 10 459 -2T320 -14Q219 -14 165 22T110 131Q110 162 122 189T142 227H67V324H556ZM67
376V472H340Q356 486 367 508T378 550Q378 579 357 591T293 603Q248 603 217 594T160 573L119 678Q137 686 154 692T194 704T246 711T319 714Q414 714 464 681T515 579Q515 547 502 518T473 472H556V376H67Z" />
<glyph unicode="&#x20b6;" glyph-name="uni20B6" horiz-adv-x="651" d="M43 368H128V693Q174 701 223 705T326 710Q383 710 435 701T526 668T588 602T612 494Q612 434 589 392T527 322T439 283T338 270Q331 270 321 270T300 270T280 271T265 273V216H439V122H265V0H128V122H43V216H128V273H43V368ZM265
372Q269 371 276 371T292 370T307 369T320 368Q350 368 377 375T424 396T456 433T468 488Q468 547 431 570T337 593Q316 593 297 592T265 589V372Z" />
<glyph unicode="&#x20b7;" glyph-name="uni20B7" horiz-adv-x="651" d="M43 368H128V693Q174 701 223 705T326 710Q383 710 435 701T526 668T588 602T612 494Q612 434 589 392T527 322T439 283T338 270Q331 270 321 270T300 270T280 271T265 273V216H439V122H265V0H128V122H43V216H128V273H43V368ZM265
372Q269 371 276 371T292 370T307 369T320 368Q350 368 377 375T424 396T456 433T468 488Q468 547 431 570T337 593Q316 593 297 592T265 589V372Z" />
<glyph unicode="&#x20b9;" glyph-name="uni20B9" horiz-adv-x="651" d="M43 368H128V693Q174 701 223 705T326 710Q383 710 435 701T526 668T588 602T612 494Q612 434 589 392T527 322T439 283T338 270Q331 270 321 270T300 270T280 271T265 273V216H439V122H265V0H128V122H43V216H128V273H43V368ZM265
372Q269 371 276 371T292 370T307 369T320 368Q350 368 377 375T424 396T456 433T468 488Q468 547 431 570T337 593Q316 593 297 592T265 589V372Z" />
<glyph unicode="&#x20ba;" glyph-name="uni20BA" horiz-adv-x="651" d="M43 368H128V693Q174 701 223 705T326 710Q383 710 435 701T526 668T588 602T612 494Q612 434 589 392T527 322T439 283T338 270Q331 270 321 270T300 270T280 271T265 273V216H439V122H265V0H128V122H43V216H128V273H43V368ZM265
372Q269 371 276 371T292 370T307 369T320 368Q350 368 377 375T424 396T456 433T468 488Q468 547 431 570T337 593Q316 593 297 592T265 589V372Z" />
<glyph unicode="&#x20bb;" glyph-name="uni20BB" horiz-adv-x="651" d="M43 368H128V693Q174 701 223 705T326 710Q383 710 435 701T526 668T588 602T612 494Q612 434 589 392T527 322T439 283T338 270Q331 270 321 270T300 270T280 271T265 273V216H439V122H265V0H128V122H43V216H128V273H43V368ZM265
372Q269 371 276 371T292 370T307 369T320 368Q350 368 377 375T424 396T456 433T468 488Q468 547 431 570T337 593Q316 593 297 592T265 589V372Z" />
<glyph unicode="&#x20bc;" glyph-name="uni20BC" horiz-adv-x="651" d="M43 368H128V693Q174 701 223 705T326 710Q383 710 435 701T526 668T588 602T612 494Q612 434 589 392T527 322T439 283T338 270Q331 270 321 270T300 270T280 271T265 273V216H439V122H265V0H128V122H43V216H128V273H43V368ZM265
372Q269 371 276 371T292 370T307 369T320 368Q350 368 377 375T424 396T456 433T468 488Q468 547 431 570T337 593Q316 593 297 592T265 589V372Z" />
<glyph unicode="&#x20bd;" glyph-name="uni20BD" horiz-adv-x="651" d="M43 368H128V693Q174 701 223 705T326 710Q383 710 435 701T526 668T588 602T612 494Q612 434 589 392T527 322T439 283T338 270Q331 270 321 270T300 270T280 271T265 273V216H439V122H265V0H128V122H43V216H128V273H43V368ZM265
372Q269 371 276 371T292 370T307 369T320 368Q350 368 377 375T424 396T456 433T468 488Q468 547 431 570T337 593Q316 593 297 592T265 589V372Z" />
<glyph unicode="&#x20be;" glyph-name="uni20BE" horiz-adv-x="651" d="M43 368H128V693Q174 701 223 705T326 710Q383 710 435 701T526 668T588 602T612 494Q612 434 589 392T527 322T439 283T338 270Q331 270 321 270T300 270T280 271T265 273V216H439V122H265V0H128V122H43V216H128V273H43V368ZM265
372Q269 371 276 371T292 370T307 369T320 368Q350 368 377 375T424 396T456 433T468 488Q468 547 431 570T337 593Q316 593 297 592T265 589V372Z" />
<glyph unicode="&#x20bf;" glyph-name="uni20BF" horiz-adv-x="651" d="M43 368H128V693Q174 701 223 705T326 710Q383 710 435 701T526 668T588 602T612 494Q612 434 589 392T527 322T439 283T338 270Q331 270 321 270T300 270T280 271T265 273V216H439V122H265V0H128V122H43V216H128V273H43V368ZM265
372Q269 371 276 371T292 370T307 369T320 368Q350 368 377 375T424 396T456 433T468 488Q468 547 431 570T337 593Q316 593 297 592T265 589V372Z" />
<glyph unicode="&#x20c0;" glyph-name="uni20C0" horiz-adv-x="651" d="M43 368H128V693Q174 701 223 705T326 710Q383 710 435 701T526 668T588 602T612 494Q612 434 589 392T527 322T439 283T338 270Q331 270 321 270T300 270T280 271T265 273V216H439V122H265V0H128V122H43V216H128V273H43V368ZM265
372Q269 371 276 371T292 370T307 369T320 368Q350 368 377 375T424 396T456 433T468 488Q468 547 431 570T337 593Q316 593 297 592T265 589V372Z" />
<glyph unicode="&#x20c1;" glyph-name="uni20C1" horiz-adv-x="651" d="M43 368H128V693Q174 701 223 705T326 710Q383 710 435 701T526 668T588 602T612 494Q612 434 589 392T527 322T439 283T338 270Q331 270 321 270T300 270T280 271T265 273V216H439V122H265V0H128V122H43V216H128V273H43V368ZM265
372Q269 371 276 371T292 370T307 369T320 368Q350 368 377 375T424 396T456 433T468 488Q468 547 431 570T337 593Q316 593 297 592T265 589V372Z" />
<glyph unicode="&#x20c2;" glyph-name="uni20C2" horiz-adv-x="651" d="M43 368H128V693Q174 701 223 705T326 710Q383 710 435 701T526 668T588 602T612 494Q612 434 589 392T527 322T439 283T338 270Q331 270 321 270T300 270T280 271T265 273V216H439V122H265V0H128V122H43V216H128V273H43V368ZM265
372Q269 371 276 371T292 370T307 369T320 368Q350 368 377 375T424 396T456 433T468 488Q468 547 431 570T337 593Q316 593 297 592T265 589V372Z" />
<glyph unicode="&#x20c3;" glyph-name="uni20C3" horiz-adv-x="651" d="M43 368H128V693Q174 701 223 705T326 710Q383 710 435 701T526 668T588 602T612 494Q612 434 589 392T527 322T439 283T338 270Q331 270 321 270T300 270T280 271T265 273V216H439V122H265V0H128V122H43V216H128V273H43V368ZM265
372Q269 371 276 371T292 370T307 369T320 368Q350 368 377 375T424 396T456 433T468 488Q468 547 431 570T337 593Q316 593 297 592T265 589V372Z" />
<glyph unicode="&#x20c4;" glyph-name="uni20C4" horiz-adv-x="651" d="M43 368H128V693Q174 701 223 705T326 710Q383 710 435 701T526 668T588 602T612 494Q612 434 589 392T527 322T439 283T338 270Q331 270 321 270T300 270T280 271T265 273V216H439V122H265V0H128V122H43V216H128V273H43V368ZM265
372Q269 371 276 371T292 370T307 369T320 368Q350 368 377 375T424 396T456 433T468 488Q468 547 431 570T337 593Q316 593 297 592T265 589V372Z" />
<glyph unicode="&#x20c5;" glyph-name="uni20C5" horiz-adv-x="651" d="M43 368H128V693Q174 701 223 705T326 710Q383 710 435 701T526 668T588 602T612 494Q612 434 589 392T527 322T439 283T338 270Q331 270 321 270T300 270T280 271T265 273V216H439V122H265V0H128V122H43V216H128V273H43V368ZM265
372Q269 371 276 371T292 370T307 369T320 368Q350 368 377 375T424 396T456 433T468 488Q468 547 431 570T337 593Q316 593 297 592T265 589V372Z" />
<glyph unicode="&#x20c6;" glyph-name="uni20C6" horiz-adv-x="651" d="M43 368H128V693Q174 701 223 705T326 710Q383 710 435 701T526 668T588 602T612 494Q612 434 589 392T527 322T439 283T338 270Q331 270 321 270T300 270T280 271T265 273V216H439V122H265V0H128V122H43V216H128V273H43V368ZM265
372Q269 371 276 371T292 370T307 369T320 368Q350 368 377 375T424 396T456 433T468 488Q468 547 431 570T337 593Q316 593 297 592T265 589V372Z" />
<glyph unicode="&#x20c7;" glyph-name="uni20C7" horiz-adv-x="651" d="M43 368H128V693Q174 701 223 705T326 710Q383 710 435 701T526 668T588 602T612 494Q612 434 589 392T527 322T439 283T338 270Q331 270 321 270T300 270T280 271T265 273V216H439V122H265V0H128V122H43V216H128V273H43V368ZM265
372Q269 371 276 371T292 370T307 369T320 368Q350 368 377 375T424 396T456 433T468 488Q468 547 431 570T337 593Q316 593 297 592T265 589V372Z" />
<glyph unicode="&#x20c8;" glyph-name="uni20C8" horiz-adv-x="651" d="M43 368H128V693Q174 701 223 705T326 710Q383 710 435 701T526 668T588 602T612 494Q612 434 589 392T527 322T439 283T338 270Q331 270 321 270T300 270T280 271T265 273V216H439V122H265V0H128V122H43V216H128V273H43V368ZM265
372Q269 371 276 371T292 370T307 369T320 368Q350 368 377 375T424 396T456 433T468 488Q468 547 431 570T337 593Q316 593 297 592T265 589V372Z" />
<glyph unicode="&#x20c9;" glyph-name="uni20C9" horiz-adv-x="651" d="M43 368H128V693Q174 701 223 705T326 710Q383 710 435 701T526 668T588 602T612 494Q612 434 589 392T527 322T439 283T338 270Q331 270 321 270T300 270T280 271T265 273V216H439V122H265V0H128V122H43V216H128V273H43V368ZM265
372Q269 371 276 371T292 370T307 369T320 368Q350 368 377 375T424 396T456 433T468 488Q468 547 431 570T337 593Q316 593 297 592T265 589V372Z" />
<glyph unicode="&#x20ca;" glyph-name="uni20CA" horiz-adv-x="651" d="M43 368H128V693Q174 701 223 705T326 710Q383 710 435 701T526 668T588 602T612 494Q612 434 589 392T527 322T439 283T338 270Q331 270 321 270T300 270T280 271T265 273V216H439V122H265V0H128V122H43V216H128V273H43V368ZM265
372Q269 371 276 371T292 370T307 369T320 368Q350 368 377 375T424 396T456 433T468 488Q468 547 431 570T337 593Q316 593 297 592T265 589V372Z" />
<glyph unicode="&#x20cb;" glyph-name="uni20CB" horiz-adv-x="651" d="M43 368H128V693Q174 701 223 705T326 710Q383 710 435 701T526 668T588 602T612 494Q612 434 589 392T527 322T439 283T338 270Q331 270 321 270T300 270T280 271T265 273V216H439V122H265V0H128V122H43V216H128V273H43V368ZM265
372Q269 371 276 371T292 370T307 369T320 368Q350 368 377 375T424 396T456 433T468 488Q468 547 431 570T337 593Q316 593 297 592T265 589V372Z" />
<glyph unicode="&#x20cc;" glyph-name="uni20CC" horiz-adv-x="651" d="M43 368H128V693Q174 701 223 705T326 710Q383 710 435 701T526 668T588 602T612 494Q612 434 589 392T527 322T439 283T338 270Q331 270 321 270T300 270T280 271T265 273V216H439V122H265V0H128V122H43V216H128V273H43V368ZM265
372Q269 371 276 371T292 370T307 369T320 368Q350 368 377 375T424 396T456 433T468 488Q468 547 431 570T337 593Q316 593 297 592T265 589V372Z" />
<glyph unicode="&#x20cd;" glyph-name="uni20CD" horiz-adv-x="651" d="M43 368H128V693Q174 701 223 705T326 710Q383 710 435 701T526 668T588 602T612 494Q612 434 589 392T527 322T439 283T338 270Q331 270 321 270T300 270T280 271T265 273V216H439V122H265V0H128V122H43V216H128V273H43V368ZM265
372Q269 371 276 371T292 370T307 369T320 368Q350 368 377 375T424 396T456 433T468 488Q468 547 431 570T337 593Q316 593 297 592T265 589V372Z" />
<glyph unicode="&#x20ce;" glyph-name="uni20CE" horiz-adv-x="651" d="M43 368H128V693Q174 701 223 705T326 710Q383 710 435 701T526 668T588 602T612 494Q612 434 589 392T527 322T439 283T338 270Q331 270 321 270T300 270T280 271T265 273V216H439V122H265V0H128V122H43V216H128V273H43V368ZM265
372Q269 371 276 371T292 370T307 369T320 368Q350 368 377 375T424 396T456 433T468 488Q468 547 431 570T337 593Q316 593 297 592T265 589V372Z" />
<glyph unicode="&#x20cf;" glyph-name="uni20CF" horiz-adv-x="651" d="M43 368H128V693Q174 701 223 705T326 710Q383 710 435 701T526 668T588 602T612 494Q612 434 589 392T527 322T439 283T338 270Q331 270 321 270T300 270T280 271T265 273V216H439V122H265V0H128V122H43V216H128V273H43V368ZM265
372Q269 371 276 371T292 370T307 369T320 368Q350 368 377 375T424 396T456 433T468 488Q468 547 431 570T337 593Q316 593 297 592T265 589V372Z" />
<glyph unicode="&#x2113;" glyph-name="afii61289" horiz-adv-x="500" d="M406 30Q384 16 349 2T278 -12Q215 -12 187 18T158 114V218L108 174L73 218L158 292V546Q158 590 168 621T195 673T236 702T287 712Q335 712 366 683T397 593Q397 519 357 436T226 265V125Q226
81 243 65T284 48Q309 48 339 58T389 80L406 30ZM333 588Q333 622 319 637T287 652Q275 652 264 649T245 635T231 606T226 557V345Q282 410 307 470T333 588Z" />
<glyph unicode="&#x2116;" glyph-name="afii61352" horiz-adv-x="1112" d="M711 341H1050V224H711V341ZM254 361L194 465H189L205 363V0H65V705H172L446 337L503 234H509L493 335V700H633V-5H526L254 361ZM688 542Q688 587 702 619T741 671T801 702T878 712Q919
712 954 703T1014 674T1054 621T1068 542Q1068 495 1054 463T1015 411T954 381T878 372Q836 372 802 381T742 410T702 463T688 542ZM816 542Q816 503 829 481T878 459Q912 459 926 478T940 542Q940 587 926 606T878 625Q844 625 830 606T816 542Z" />
<glyph unicode="&#x2122;" glyph-name="trademark" horiz-adv-x="1028" d="M426 583H298V340H158V583H30V700H426V583ZM869 482L886 585H880L841 500L767 385H683L608 496L566 585H560L587 483V340H465V700H606L705 548L731 485H732L760 550L851 700H991V340H869V482Z" />
<glyph unicode="&#x2126;" glyph-name="uni2126" horiz-adv-x="847" d="M63 117H178L269 104V133L220 142Q188 155 160 177T110 232T77 305T65 399Q65 469 90 527T163 626T276 691T423 714Q508 714 574 690T687 624T757 524T782 396Q782 344 769 304T735 232T686
179T629 143L576 133V104L669 117H783V0H457V219Q485 223 515 234T569 266T609 317T625 394Q625 428 615 461T580 522T518 565T422 582Q325 582 274 534T222 391Q222 347 236 316T275 265T329 233T389 219V0H63V117Z" />
<glyph unicode="&#x212e;" glyph-name="estimated" horiz-adv-x="600" d="M157 259V79Q219 20 302 20Q426 20 495 140L530 119Q487 53 431 19T302 -16Q243 -16 195 5T114 63T62 150T44 259Q44 318 62 368T115 456T196 514T302 535Q364 535 411 513T492 454T542
366T561 259H157ZM448 295V440Q385 500 301 500Q215 500 157 440V295H448Z" />
<glyph unicode="&#x2202;" glyph-name="partialdiff" horiz-adv-x="586" d="M299 502Q322 502 338 500T367 495T389 487T408 477H413Q407 515 386 540T333 580T265 601T192 608Q184 608 177 608T161 607L185 713Q195 714 204 714T224 714Q294 714 355 700T461
651T533 559T559 416Q559 302 535 221T469 88T370 11T246 -14Q193 -14 151 0T80 40T35 102T19 184Q19 240 35 296T86 399T174 473T299 502ZM307 385Q245 385 205 334T165 191Q165 157 188 130T258 103Q303 103 333 125T380 182T405 261T413 348Q393 367 369 376T307
385Z" />
<glyph unicode="&#x2206;" glyph-name="uni2206" horiz-adv-x="637" d="M13 0V75L276 705H361L626 75V0H13ZM173 124H464L345 412L318 504H314L286 411L173 124Z" />
<glyph unicode="&#x220f;" glyph-name="product" horiz-adv-x="711" d="M496 568H215V-200H65V700H646V-200H496V568Z" />
<glyph unicode="&#x2211;" glyph-name="summation" horiz-adv-x="571" d="M201 -28L154 -68H544V-200H20V-68L221 214L269 247L217 285L20 568V700H544V568H168L218 527L403 256L201 -28Z" />
<glyph unicode="&#x2212;" glyph-name="minus" horiz-adv-x="571" d="M47 397H524V277H47V397Z" />
<glyph unicode="&#x2215;" glyph-name="uni2215" horiz-adv-x="571" d="M473 715L564 658L96 -14L6 47L473 715Z" />
<glyph unicode="&#x221a;" glyph-name="radical" horiz-adv-x="571" d="M204 478L290 289L313 182H318L339 291L466 700H603L353 -5H281L117 361H-5V478H204Z" />
<glyph unicode="&#x221e;" glyph-name="infinity" horiz-adv-x="927" d="M451 264Q412 206 357 178T234 149Q195 149 159 163T96 202T53 265T36 349Q36 397 52 435T96 499T163 539T245 553Q325 553 379 525T474 451Q522 506 577 529T699 553Q739 553 774 540T835
501T876 439T891 356Q891 307 874 269T828 204T759 163T673 149Q634 149 602 158T542 183T493 220T451 264ZM672 268Q709 268 735 291T761 353Q761 383 738 408T669 434Q637 434 602 418T534 366Q558 326 594 297T672 268ZM255 434Q237 434 221 428T193 410T174
384T166 349Q166 312 194 290T262 268Q295 268 331 288T393 340Q367 383 334 408T255 434Z" />
<glyph unicode="&#x222b;" glyph-name="integral'" horiz-adv-x="400" d="M267 -31Q267 -129 227 -168T101 -208Q50 -208 5 -201T-67 -183L-36 -75Q-10 -85 11 -88T56 -91Q98 -91 112 -69T127 9V536Q127 633 167 673T293 714Q312 714 334 712T379 706T422 697T456
688L433 579Q407 587 386 592T335 597Q297 597 282 577T267 504V-31Z" />
<glyph unicode="&#x2248;" glyph-name="approxequal" horiz-adv-x="607" d="M48 477Q99 515 139 530T215 545Q246 545 273 537T325 518T374 500T424 491Q444 491 464 497T508 521L559 413Q520 385 488 375T428 364Q398 364 372 373T321 393T271 414T218 423Q192
423 162 412T95 372L48 477ZM48 536Q99 574 139 589T215 604Q246 604 273 596T325 577T374 559T424 550Q444 550 464 556T508 580L559 472Q520 444 488 434T428 423Q398 423 372 432T321 452T271 473T218 482Q192 482 162 471T95 431L48 536Z" />
<glyph unicode="&#x2260;" glyph-name="notequal" horiz-adv-x="535" d="M29 494H281L334 604H456L403 494H506V374H346L311 300H506V180H253L194 56H72L131 180H29V300H189L224 374H29V494Z" />
<glyph unicode="&#x2264;" glyph-name="lessequal" horiz-adv-x="571" d="M524 79L469 -26L48 193L105 300L524 79ZM36 412V486L460 722L518 624L277 486L178 451L276 420L523 284L466 186L36 412Z" />
<glyph unicode="&#x2265;" glyph-name="greaterequal" horiz-adv-x="571" d="M535 202L115 -26L60 79L478 307L535 202ZM534 497V423L110 187L52 285L293 423L392 458L294 489L47 625L104 723L534 497Z" />
<glyph unicode="&#x25ca;" glyph-name="lozenge" horiz-adv-x="571" d="M324 -5H242L28 342L242 705H324L542 347L324 -5ZM325 204L410 334L312 487L281 570H276L244 485L161 356L258 203L289 120H293L325 204Z" />
<glyph unicode="&#x2c67;" glyph-name="uni2C67" horiz-adv-x="754" d="M493 289H213V0H65V700H213V419H493V700H641V130H735V-124H630L614 0H493V289Z" />
<glyph unicode="&#x2c68;" glyph-name="uni2C68" horiz-adv-x="658" d="M426 289Q426 357 406 386T330 416Q290 416 257 391T212 323V0H72V700H212V461H224Q251 496 291 518T394 540Q437 540 469 530T522 494T555 426T566 320V124H638V-112H535L519 0H426V289Z" />
<glyph unicode="&#xf401;" glyph-name="uniF401" horiz-adv-x="2" d="M-259 870H-87V839L-261 752H-373L-259 870Z" />
<glyph unicode="&#xf406;" glyph-name="uniF406" horiz-adv-x="534" d="M116 876Q139 850 180 838T272 825Q324 825 362 839T421 876L474 841Q461 813 440 792T391 758T333 737T271 730Q242 730 211 735T152 753T99 786T60 836L116 876Z" />
<glyph unicode="&#xf407;" glyph-name="uniF407" horiz-adv-x="350" d="M199 -52Q247 -55 274 -73T302 -129Q302 -153 290 -170T255 -200T204 -218T141 -224Q123 -224 105 -223T68 -218L78 -171Q109 -173 128 -171T157 -164T171 -153T175 -138Q175 -121 152 -112T78
-101L140 -6H227L199 -52Z" />
<glyph unicode="&#xf408;" glyph-name="uniF408" horiz-adv-x="508" d="M205 870H310L448 778V737H340L278 777L256 811L232 778L166 737H60V779L205 870Z" />
<glyph unicode="&#xf409;" glyph-name="uniF409" horiz-adv-x="278" d="M61 -105Q61 -76 81 -58T132 -40Q170 -40 194 -64T218 -130Q218 -164 206 -189T177 -232T140 -261T107 -276L71 -216Q86 -210 100 -200T117 -168Q97 -169 79 -153T61 -105Z" />
<glyph unicode="&#xf40a;" glyph-name="uniF40A" horiz-adv-x="243" d="M42 642Q42 672 63 690T116 709Q156 709 179 684T202 620Q202 578 189 550T156 502T116 473T80 458L45 517Q67 525 83 539T101 577Q80 575 61 592T42 642Z" />
<glyph unicode="&#xf40b;" glyph-name="uniF40B" horiz-adv-x="310" d="M60 799Q60 824 83 842T154 860Q201 860 225 842T250 799Q250 772 226 754T154 736Q107 736 84 754T60 799Z" />
<glyph unicode="&#xf40c;" glyph-name="uniF40C" horiz-adv-x="397" d="M60 773Q60 791 66 807T87 836T130 856T198 863Q275 863 306 839T337 773Q337 755 331 739T308 711T265 692T198 685Q159 685 133 691T90 710T67 738T60 773ZM150 773Q150 759 161 751T198
743Q226 743 236 750T247 773Q247 789 236 797T198 805Q150 805 150 773Z" />
<glyph unicode="&#xf40d;" glyph-name="uniF40D" horiz-adv-x="516" d="M60 804Q93 839 124 852T187 865Q211 865 235 860T281 847T325 835T367 829Q384 829 400 834T431 853L456 781Q427 755 399 745T344 735Q320 735 297 740T251 753T207 765T164 771Q143 771
123 764T83 736L60 804Z" />
<glyph unicode="&#xf40e;" glyph-name="uniF40E" horiz-adv-x="369" d="M275 4Q240 -9 222 -28T204 -74Q204 -94 218 -107T256 -121Q267 -121 277 -119T300 -110L322 -174Q304 -187 269 -199T193 -211Q132 -211 100 -184T68 -114Q68 -74 99 -44T181 4H275Z" />
<glyph unicode="&#xf486;" glyph-name="uniF486" horiz-adv-x="641" d="M577 535Q577 509 570 484T546 436T504 398T441 375V369Q474 366 503 354T553 321T587 269T600 197Q600 142 575 103T508 39T414 2T306 -10Q288 -10 259 -10T196 -9T128 -4T65 5V695Q86 698
112 701T169 706T232 709T296 710Q348 710 398 703T488 676T552 622T577 535ZM304 110Q332 110 357 115T402 131T433 160T445 204Q445 236 431 255T395 283T345 295T289 298H207V116Q213 114 224 113T250 112T278 111T304 110ZM257 408Q272 408 292 408T327 411Q369
424 398 446T427 508Q427 534 416 550T387 575T345 587T298 590Q269 590 245 589T207 586V408H257ZM313 870H485V839L311 752H199L313 870Z" />
<glyph unicode="&#xf487;" glyph-name="uniF487" horiz-adv-x="619" d="M72 700H212V480H224Q248 507 285 522T368 538Q470 538 523 472T577 277Q577 208 558 154T502 63T414 7T297 -13Q222 -13 163 -3T72 21V700ZM212 119Q232 109 254 107T303 104Q433 104 433
274Q433 346 406 383T326 421Q281 421 254 400T212 338V119ZM377 720H519V691L393 562H317L377 720Z" />
<glyph unicode="&#xf488;" glyph-name="uniF488" horiz-adv-x="551" d="M65 700H516V570H213V407H492V277H213V0H65V700ZM315 870H487V839L313 752H201L315 870Z" />
<glyph unicode="&#xf489;" glyph-name="uniF489" horiz-adv-x="370" d="M16 525H95V558Q95 604 109 633T147 680T202 705T268 712Q316 712 351 708T418 693L392 584Q367 592 347 595T304 598Q261 598 248 582T235 525H363V408H235V0H95V408H16V525ZM303 870H475V839L301
752H189L303 870Z" />
<glyph unicode="&#xf49e;" glyph-name="uniF49E" horiz-adv-x="654" d="M-21 609H63V700H211V609H452V513H211V419Q239 435 286 447T399 460Q444 460 481 449T547 415T590 355T606 267V0H458V218Q458 277 432 306T347 336Q305 336 269 328T211 302V0H63V513H-21V609Z" />
<glyph unicode="&#xf49f;" glyph-name="uniF49F" horiz-adv-x="652" d="M0 642H86V700H226V642H397V559H226V461H238Q265 496 305 518T408 540Q451 540 483 530T536 494T569 426T580 320V0H440V289Q440 357 420 386T344 416Q304 416 271 391T226 323V0H86V559H0V642Z" />
<glyph unicode="&#xf4c6;" glyph-name="uniF4C6" horiz-adv-x="657" d="M196 700V484Q196 426 222 395T307 364Q349 364 386 372T444 398V700H592V-11Q592 -102 554 -155T429 -208Q413 -208 396 -206T359 -200V-84Q387 -87 403 -82T429 -66T441 -38T444 0V280Q417
265 369 253T254 240Q208 240 170 251T105 287T63 348T48 436V700H196Z" />
<glyph unicode="&#xf4c7;" glyph-name="uniF4C7" horiz-adv-x="582" d="M182 525V422Q182 384 185 358T198 314T224 290T268 282Q301 282 327 290T370 311V525H510V-15Q510 -109 472 -158T348 -208Q332 -208 315 -207T277 -201V-84Q306 -87 324 -82T352 -66T366
-39T370 0V214Q359 207 345 199T312 183T269 170T216 165Q175 165 143 173T88 203T54 260T42 350V525H182Z" />
<glyph unicode="&#xf4cc;" glyph-name="uniF4CC" horiz-adv-x="616" d="M318 395L340 306H347L364 399L478 700H633L430 213Q407 157 384 116T335 48T277 7T203 -7Q167 -7 146 -3T99 17L136 136Q155 127 170 125T203 123Q255 123 275 193L-10 700H164L318 395ZM327
870H499V839L325 752H213L327 870Z" />
<glyph unicode="&#xf4cd;" glyph-name="uniF4CD" horiz-adv-x="541" d="M264 234L286 150H296L315 234L404 525H547L373 50Q351 -9 332 -56T289 -136T238 -186T170 -204Q144 -204 121 -200T80 -186L109 -78Q124 -83 140 -83Q154 -83 167 -80T191 -69T211 -45T228
-3L-12 525H157L264 234ZM299 729H441V700L315 571H239L299 729Z" />
<glyph unicode="&#xf4d6;" glyph-name="uniF4D6" horiz-adv-x="621" d="M140 414H432Q429 450 415 481T375 535T314 571T231 584Q170 584 126 572T57 545L25 670Q43 679 67 687T119 701T176 710T233 714Q308 714 371 695T481 633T554 521T581 350Q581 245 550
175T467 63T349 4T212 -14Q150 -14 100 -4T20 20L59 147Q84 135 126 126T225 116Q267 116 303 126T366 159T411 215T433 297H140V414ZM159 799Q159 824 182 842T253 860Q300 860 324 842T349 799Q349 772 325 754T253 736Q206 736 183 754T159 799Z" />
<glyph unicode="&#xf4d7;" glyph-name="uniF4D7" horiz-adv-x="527" d="M129 315H344Q337 367 305 395T206 423Q163 423 130 413T71 391L33 491Q106 540 234 540Q361 540 423 470T485 262Q485 124 415 55T224 -15Q171 -15 117 -5T30 25L64 133Q91 119 126 111T198
102Q237 102 264 109T308 130T334 166T345 218H129V315ZM130 676Q130 708 153 729T218 751Q261 751 286 729T311 676Q311 647 286 626T218 605Q176 605 153 626T130 676Z" />
<glyph unicode="&#xf50a;" glyph-name="uniF50A" horiz-adv-x="570" d="M128 307V420H154Q164 420 178 420T208 420T238 422T262 426Q300 433 325 451T351 505Q351 550 319 566T232 582Q208 582 185 579T141 569T103 557T75 544L38 670Q49 675 70 682T121 696T184
707T253 712Q301 712 346 704T428 676T486 622T508 536Q508 485 478 441T382 377V371Q452 360 491 316T531 200Q531 152 513 116T463 53T390 12T302 -10L287 -174H192L171 -11Q121 -6 81 4T18 25L56 153Q81 142 128 129T242 116Q265 116 288 121T331 137T362 167T374
212Q374 235 366 252T337 280T282 298T196 306Q183 306 177 306T154 307H128Z" />
<glyph unicode="&#xf50b;" glyph-name="uniF50B" horiz-adv-x="486" d="M125 218V312H190Q235 312 261 326T287 366Q287 395 264 406T192 418Q149 418 114 408T55 386Q47 413 42 437T28 489Q61 509 117 522T236 535Q333 535 380 502T428 405Q428 387 423 369T406
335T378 305T338 283V275Q400 262 425 231T450 146Q450 90 407 47T273 -9L258 -174H163L142 -8Q104 -2 75 8T24 29Q31 56 39 83T55 137Q82 123 120 114T204 104Q310 104 310 165Q310 179 304 189T282 205T242 215T177 218H125Z" />
<glyph unicode="&#xf50c;" glyph-name="uniF50C" horiz-adv-x="607" d="M579 30Q552 11 511 1T424 -12L400 -52Q448 -55 475 -73T503 -129Q503 -153 491 -170T456 -200T405 -218T342 -224Q324 -224 306 -223T269 -218L279 -171Q310 -173 329 -171T358 -164T372
-153T376 -138Q376 -121 353 -112T279 -101L337 -11Q277 -5 223 18T129 85T64 194T40 350Q40 452 72 521T154 633T265 695T385 714Q450 714 494 706T568 687L539 563Q514 574 481 579T396 584Q351 584 315 570T252 526T212 453T197 350Q197 298 210 255T249 181T315
133T408 116Q457 116 490 125T550 148L579 30Z" />
<glyph unicode="&#xf50d;" glyph-name="uniF50D" horiz-adv-x="500" d="M468 32Q442 15 407 4T334 -12L310 -52Q358 -55 385 -73T413 -129Q413 -153 401 -170T366 -200T315 -218T252 -224Q234 -224 216 -223T179 -218L189 -171Q220 -173 239 -171T268 -164T282
-153T286 -138Q286 -121 263 -112T189 -101L246 -12Q190 -6 152 16T89 74T53 157T42 262Q42 393 106 466T294 540Q354 540 392 531T461 506L427 394Q401 405 376 410T316 416Q253 416 220 380T186 262Q186 230 194 203T219 154T262 121T323 109Q365 109 389 116T436
137L468 32Z" />
<glyph unicode="&#xf50e;" glyph-name="uniF50E" horiz-adv-x="658" d="M441 149H205L148 0H0L274 705H383L658 0H501L441 149ZM246 266H406L352 412L328 523H323L299 411L246 266ZM145 838H518V746H145V838Z" />
<glyph unicode="&#xf50f;" glyph-name="uniF50F" horiz-adv-x="579" d="M67 489Q112 509 177 522T313 535Q368 535 405 522T465 485T496 426T506 349Q506 298 502 248T498 142Q498 104 503 68T519 -1H405L382 77H370Q344 42 304 17T201 -8Q163 -8 132 3T78 34T43
83T30 144Q30 233 89 278T270 324Q298 324 326 320T365 313Q368 334 368 349Q368 387 349 405T278 423Q230 423 185 412T104 383L67 489ZM250 104Q297 104 325 126T366 172V232Q361 234 351 236T328 240T303 243T280 244Q226 244 200 225T174 176Q174 140 194 122T250
104ZM106 679H457V584H106V679Z" />
<glyph unicode="&#xf510;" glyph-name="uniF510" horiz-adv-x="566" d="M65 700H516V570H213V418H488V288H213V130H521V0H65V700ZM107 838H480V746H107V838Z" />
<glyph unicode="&#xf511;" glyph-name="uniF511" horiz-adv-x="594" d="M521 48Q487 22 429 4T303 -15Q168 -15 105 59T42 262Q42 399 113 469T313 540Q355 540 396 530T469 495T520 429T540 326Q540 305 538 280T529 228H179Q184 160 218 128T331 95Q378 95 415
108T473 136L521 48ZM311 430Q249 430 219 397T184 311H410Q414 366 390 398T311 430ZM117 679H468V584H117V679Z" />
<glyph unicode="&#xf512;" glyph-name="uniF512" horiz-adv-x="566" d="M65 700H516V570H213V418H488V288H213V130H521V0H65V700ZM89 798Q89 825 108 841T172 858Q214 858 233 842T253 798Q253 772 234 757T172 741Q128 741 109 756T89 798ZM322 798Q322 825 341
841T403 858Q447 858 466 842T486 798Q486 772 467 757T403 741Q361 741 342 756T322 798ZM100 976H473V884H100V976Z" />
<glyph unicode="&#xf513;" glyph-name="uniF513" horiz-adv-x="594" d="M521 48Q487 22 429 4T303 -15Q168 -15 105 59T42 262Q42 399 113 469T313 540Q355 540 396 530T469 495T520 429T540 326Q540 305 538 280T529 228H179Q184 160 218 128T331 95Q378 95 415
108T473 136L521 48ZM311 430Q249 430 219 397T184 311H410Q414 366 390 398T311 430ZM96 894Q96 929 117 950T173 971Q207 971 227 950T248 894Q248 864 228 843T173 822Q139 822 118 843T96 894ZM349 894Q349 929 369 950T424 971Q459 971 479 950T500 894Q500
864 480 843T424 822Q390 822 370 843T349 894ZM108 1078H481V986H108V1078Z" />
<glyph unicode="&#xf514;" glyph-name="uniF514" horiz-adv-x="566" d="M65 700H516V570H213V418H488V288H213V130H521V0H65V700ZM89 798Q89 825 108 841T172 858Q214 858 233 842T253 798Q253 772 234 757T172 741Q128 741 109 756T89 798ZM322 798Q322 825 341
841T403 858Q447 858 466 842T486 798Q486 772 467 757T403 741Q361 741 342 756T322 798ZM213 1019Q218 988 239 975T294 962Q366 962 375 1018L496 1001Q484 936 433 908T293 879Q249 879 212 884T147 904T102 940T79 998L213 1019Z" />
</font>
</defs>
</svg>
